<?xml version="1.0" standalone="no"?> <!DOCTYPE svg PUBLIC "-//W3C//DTD SVG 1.0//EN" "http://www.w3.org/TR/2001/REC-SVG-20010904/DTD/svg10.dtd" > <svg xmlns="http://www.w3.org/2000/svg" width="100%" height="100%">
<defs >
<font horiz-adv-x="544" ><font-face
    font-family=""
    units-per-em="1000"
    panose-1="2 11 8 3 5 5 3 6 8 3"
    ascent="790"
    descent="-210"
    alphabetic="0" />
<missing-glyph horiz-adv-x="499" />
<glyph unicode=" " glyph-name="space" horiz-adv-x="166" />
<glyph unicode="!" glyph-name="exclam" horiz-adv-x="293" d="M46 693H246L221 229H72L46 693ZM62 153H231V0H62V153Z" />
<glyph unicode="&quot;" glyph-name="quotedbl" horiz-adv-x="440" d="M243 693H406L392 474H257L243 693ZM34 693H197L183 474H48L34 693Z" />
<glyph unicode="#" glyph-name="numbersign" horiz-adv-x="560" d="M60 529H151L175 693H289L265 529H350L374 693H488L464 529H531V399H445L430 300H500V169H411L386 0H272L297 169H212L187 0H73L98 169H29V300H116L132 399H60V529ZM231 300H316L331 399H246L231 300Z" />
<glyph unicode="$" glyph-name="dollar" horiz-adv-x="556" d="M165 -6Q78 3 27 31V163Q65 149 105 139T189 123L219 283L215 284Q170 293 135 307T76 346T38 407T25 493Q25 539 40 577T87 644T167 689T282 705H299L311 765H395L382 699Q419 694 444 686T489 668V537Q463
547 430 554T357 567L330 422H332Q382 412 419 398T481 359T518 301T531 216Q531 104 462 46T256 -12H248L228 -118H144L165 -6ZM365 194Q365 223 352 238T300 264L273 122Q324 127 344 145T365 194ZM185 508Q185 482 198 467T249 441L274 572Q226 570 206 554T185
508Z" />
<glyph unicode="%" glyph-name="percent" horiz-adv-x="931" d="M212 304Q171 304 137 316T77 352T38 413T24 497V507Q24 556 38 593T77 655T137 692T212 705Q252 705 286 693T346 656T386 596T401 512V501Q401 453 387 416T348 354T288 317T212 304ZM718 -10Q677
-10 643 2T584 39T545 99T531 183V193Q531 242 545 279T584 341T644 378T719 391Q759 391 793 379T853 343T893 282T908 198V187Q908 139 894 102T854 41T794 3T718 -10ZM630 713H753L291 -40H168L630 713ZM719 82Q749 82 761 103T773 180V199Q773 254 761 277T719
300Q690 300 678 278T665 200V182Q665 126 677 104T719 82ZM212 396Q242 396 254 417T267 494V512Q267 568 254 590T212 613Q183 613 171 591T158 514V495Q158 439 170 418T212 396Z" />
<glyph unicode="&amp;" glyph-name="ampersand" horiz-adv-x="721" d="M295 -12Q161 -12 92 41T23 194Q23 270 65 319T176 398Q152 431 141 461T130 525Q130 566 146 599T192 656T263 692T356 705Q457 705 511 661T565 545Q565 481 523 440T411 366L514 243Q536
291 547 351H685Q678 287 657 234T602 137L716 0H504L477 32Q392 -12 295 -12ZM321 110Q364 110 400 125L249 308Q227 292 214 270T201 215Q201 166 231 138T321 110ZM302 535Q302 512 313 491T348 443Q377 460 394 484T412 536Q412 564 398 581T359 598Q335 598
319 584T302 535Z" />
<glyph unicode="&apos;" glyph-name="quotesingle" horiz-adv-x="231" d="M34 693H197L183 474H48L34 693Z" />
<glyph unicode="(" glyph-name="parenleft" horiz-adv-x="381" d="M232 -120Q196 -90 161 -48T99 47T54 163T37 299V321Q37 393 54 456T98 572T161 667T232 739H375Q342 701 313 656T262 559T226 450T213 329V297Q213 233 226 174T261 63T313 -36T375 -120H232Z" />
<glyph unicode=")" glyph-name="parenright" horiz-adv-x="381" d="M6 -120Q39 -83 68 -38T119 60T155 169T168 290V322Q168 386 155 445T120 556T68 655T6 739H149Q185 709 220 667T282 572T327 456T344 320V298Q344 226 327 163T283 47T220 -48T149 -120H6Z" />
<glyph unicode="*" glyph-name="asterisk" horiz-adv-x="412" d="M158 434L74 373L20 473L117 511L20 550L74 650L158 588L151 693H260L254 588L338 650L392 550L294 511L392 473L338 373L254 434L260 330H151L158 434Z" />
<glyph unicode="+" glyph-name="plus" horiz-adv-x="524" d="M187 273H31V409H187V571H337V409H493V273H337V111H187V273Z" />
<glyph unicode="," glyph-name="comma" horiz-adv-x="259" d="M49 156H222L173 -73H37L49 156Z" />
<glyph unicode="-" glyph-name="hyphen" horiz-adv-x="331" d="M40 356H291V218H40V356Z" />
<glyph unicode="." glyph-name="period" horiz-adv-x="259" d="M45 156H214V0H45V156Z" />
<glyph unicode="/" glyph-name="slash" horiz-adv-x="397" d="M237 739H389L142 -120H-9L237 739Z" />
<glyph unicode="0" glyph-name="zero" horiz-adv-x="684" d="M341 -12Q276 -12 220 6T121 64T55 169T30 325V361Q30 457 56 522T127 628T228 687T345 705Q409 705 465 687T564 628T630 523T655 367V331Q655 236 629 171T560 65T459 6T341 -12ZM342 126Q371 126
391 135T425 166T445 226T452 319V365Q452 423 446 461T426 523T392 557T343 567Q315 567 295 558T261 526T240 466T233 372V327Q233 217 258 172T342 126Z" />
<glyph unicode="1" glyph-name="one" horiz-adv-x="389" d="M133 513L22 504V614L215 695H327V0H133V513Z" />
<glyph unicode="2" glyph-name="two" horiz-adv-x="538" d="M21 127L161 256Q193 285 218 311T260 361T287 411T297 463Q297 514 265 536T175 558Q133 558 97 549T31 527V662Q66 679 119 692T245 705Q371 705 435 650T500 494Q500 450 488 414T454 344T399 278T325
211L245 142V139H509V0H21V127Z" />
<glyph unicode="3" glyph-name="three" d="M237 -12Q160 -12 107 1T20 31V159Q52 148 94 140T181 132Q250 132 282 152T314 214Q314 257 284 274T202 291H126V418H195Q249 418 276 435T304 490Q304 531 276 546T193 561Q148 561 110 555T42 540V669Q81 684 135
694T255 705Q309 705 353 694T428 660T477 605T494 529Q494 466 460 426T368 369V365Q437 352 476 313T515 196Q515 99 443 44T237 -12Z" />
<glyph unicode="4" glyph-name="four" horiz-adv-x="642" d="M330 165H15V288L341 694H520V297H627V165H520V0H330V165ZM333 297V498H329L176 300V297H333Z" />
<glyph unicode="5" glyph-name="five" horiz-adv-x="540" d="M229 -12Q153 -12 103 1T18 31V161Q50 150 88 143T172 135Q239 135 273 155T308 224Q308 274 275 293T172 313Q133 313 104 310T45 299L67 693H482V554H206L198 433Q214 436 231 438T275 440Q393 440
452 388T511 222Q511 113 438 51T229 -12Z" />
<glyph unicode="6" glyph-name="six" horiz-adv-x="631" d="M332 -12Q185 -12 108 71T30 305V344Q30 441 56 509T129 621T240 685T379 705Q444 705 488 698T560 678V544Q538 550 500 554T423 559Q378 559 344 553T285 529T247 481T230 403Q256 418 294 429T387
441Q488 441 547 390T606 234Q606 182 590 137T539 59T454 7T332 -12ZM328 115Q370 115 392 140T415 220Q415 253 408 273T389 304T358 318T319 322Q292 322 269 315T230 299V275Q230 194 253 155T328 115Z" />
<glyph unicode="7" glyph-name="seven" horiz-adv-x="543" d="M328 545V549H19V693H525V565L277 0H62L328 545Z" />
<glyph unicode="8" glyph-name="eight" horiz-adv-x="620" d="M307 -12Q234 -12 181 1T93 39T41 98T24 172Q24 228 60 271T155 339Q100 368 72 406T43 507Q43 552 62 589T116 651T200 691T312 705Q440 705 505 656T570 522Q570 471 541 432T455 366Q521 339 558
301T595 195Q595 98 520 43T307 -12ZM301 110Q354 110 381 131T409 189Q409 208 402 223T378 252T333 275T264 297Q231 278 212 253T192 193Q192 155 219 133T301 110ZM338 418Q368 434 386 454T405 510Q405 541 383 560T314 580Q270 580 247 562T224 512Q224 479
251 459T338 418Z" />
<glyph unicode="9" glyph-name="nine" horiz-adv-x="631" d="M256 -12Q190 -12 142 -5T66 17V152Q77 149 93 146T129 140T168 135T208 133Q258 133 294 140T353 165T387 213T401 289Q376 275 338 264T249 252Q145 252 85 304T25 464Q25 514 41 558T91 634T177
686T300 705Q441 705 521 625T602 388V349Q602 252 578 184T509 72T400 8T256 -12ZM312 371Q339 371 362 378T401 393V418Q401 502 377 540T304 578Q217 578 217 473Q217 440 224 420T243 389T273 375T312 371Z" />
<glyph unicode=":" glyph-name="colon" horiz-adv-x="267" d="M49 446H218V290H49V446ZM49 156H218V0H49V156Z" />
<glyph unicode=";" glyph-name="semicolon" horiz-adv-x="267" d="M48 156H221L171 -73H36L48 156ZM49 446H218V290H49V446Z" />
<glyph unicode="&lt;" glyph-name="less" horiz-adv-x="472" d="M34 255V389L431 564V421L194 322L431 223V79L34 255Z" />
<glyph unicode="=" glyph-name="equal" horiz-adv-x="520" d="M39 477H481V344H39V477ZM39 262H481V129H39V262Z" />
<glyph unicode="&gt;" glyph-name="greater" horiz-adv-x="472" d="M41 222L278 322L41 421V564L438 389V255L41 79V222Z" />
<glyph unicode="?" glyph-name="question" horiz-adv-x="449" d="M97 270Q97 296 102 315T118 350T146 381T187 413Q217 435 230 453T244 501Q244 538 220 553T141 568Q99 568 72 563T18 550V675Q53 689 97 697T200 705Q250 705 292 695T364 663T411 607T428 524Q428
490 422 465T404 421T374 384T330 349Q306 333 291 322T265 300T251 278T247 252V229H97V270ZM89 153H259V0H89V153Z" />
<glyph unicode="@" glyph-name="at" horiz-adv-x="910" d="M444 -161Q351 -161 275 -138T144 -67T59 53T29 221Q29 316 61 399T154 545T302 644T499 680Q584 680 655 656T777 586T856 476T884 330Q884 256 865 200T813 107T733 52T633 33Q578 33 546 50T505 94H500Q480
71 449 54T375 37Q346 37 320 45T275 72T243 121T231 195Q231 256 244 307T283 395T346 453T430 474Q465 474 492 466T537 444H542L547 465H692L639 189Q634 166 637 149T664 131Q713 131 744 180T775 323Q775 383 759 431T708 514T620 568T491 587Q410 587 345
561T234 486T164 371T139 224Q139 147 160 92T220 0T317 -53T445 -70Q523 -70 587 -57T696 -30V-110Q649 -132 587 -146T444 -161ZM430 140Q446 140 457 147T477 162L513 365Q498 380 468 380Q449 380 434 365T409 326T394 268T389 199Q389 140 430 140Z" />
<glyph unicode="A" glyph-name="A" horiz-adv-x="690" d="M243 693H450L690 0H492L446 137H218L175 0H0L243 693ZM256 262H407L333 492H329L256 262Z" />
<glyph unicode="B" glyph-name="B" horiz-adv-x="642" d="M52 693H353Q471 693 531 650T591 517Q591 396 475 364V361Q540 350 581 312T622 197Q622 155 608 119T562 56T482 15T366 0H52V693ZM325 125Q370 125 395 146T421 215Q421 260 396 280T320 300H243V125H325ZM313
406Q354 406 379 424T405 490Q405 534 383 552T316 570H243V406H313Z" />
<glyph unicode="C" glyph-name="C" horiz-adv-x="576" d="M359 -12Q201 -12 113 72T24 333V357Q24 452 50 518T123 625T232 686T367 705Q432 705 475 697T548 675V534Q516 545 484 551T406 558Q321 558 276 515T231 371V340Q231 240 269 188T404 135Q457 135 492
144T554 164V25Q519 9 473 -1T359 -12Z" />
<glyph unicode="D" glyph-name="D" horiz-adv-x="689" d="M52 693H319Q400 693 464 675T573 618T641 516T665 363V340Q665 252 642 188T574 82T465 20T320 0H52V693ZM316 137Q352 137 379 147T424 179T451 239T460 331V366Q460 421 450 458T421 516T375 547T311
556H247V137H316Z" />
<glyph unicode="E" glyph-name="E" horiz-adv-x="573" d="M52 693H531V554H245V422H469V285H245V139H541V0H52V693Z" />
<glyph unicode="F" glyph-name="F" horiz-adv-x="553" d="M52 693H530V554H247V397H468V261H247V0H52V693Z" />
<glyph unicode="G" glyph-name="G" horiz-adv-x="664" d="M380 -11Q297 -11 232 7T120 67T49 174T24 335V358Q24 457 53 523T132 630T247 688T385 705Q458 705 511 693T594 667V524Q565 535 522 545T412 556Q356 556 320 543T263 504T234 443T225 363V332Q225
284 231 246T253 181T299 141T374 127Q396 127 415 130T448 139V248H349V375H629V34Q609 26 582 18T523 4T454 -7T380 -11Z" />
<glyph unicode="H" glyph-name="H" horiz-adv-x="712" d="M52 693H247V426H465V693H660V0H465V286H247V0H52V693Z" />
<glyph unicode="I" glyph-name="I" horiz-adv-x="306" d="M56 693H251V0H56V693Z" />
<glyph unicode="J" glyph-name="J" horiz-adv-x="447" d="M172 -8Q114 -8 79 1T18 24V155Q35 150 57 146T105 142Q150 142 177 161T205 229V693H400V203Q400 157 386 118T344 51T272 8T172 -8Z" />
<glyph unicode="K" glyph-name="K" horiz-adv-x="674" d="M52 693H247V375L464 693H660L433 366L675 0H458L247 318V0H52V693Z" />
<glyph unicode="L" glyph-name="L" horiz-adv-x="530" d="M52 693H247V139H510V0H52V693Z" />
<glyph unicode="M" glyph-name="M" horiz-adv-x="878" d="M52 693H313L439 276H443L569 693H826V0H635V468H631L491 0H356L217 469H213V0H52V693Z" />
<glyph unicode="N" glyph-name="N" horiz-adv-x="707" d="M52 693H262L486 305H489V693H655V0H470L222 432H218V0H52V693Z" />
<glyph unicode="O" glyph-name="O" horiz-adv-x="719" d="M357 -12Q287 -12 227 7T121 69T50 176T24 333V356Q24 449 52 515T126 623T234 685T362 705Q432 705 492 686T598 624T669 517T695 360V337Q695 244 667 178T593 70T485 8T357 -12ZM361 130Q425 130 457
177T490 325V360Q490 469 459 516T358 563Q228 563 228 369V334Q228 278 236 239T261 176T303 141T361 130Z" />
<glyph unicode="P" glyph-name="P" horiz-adv-x="630" d="M52 693H340Q480 693 547 635T615 468Q615 350 546 290T346 230H247V0H52V693ZM317 354Q371 354 392 379T414 457Q414 516 392 538T321 560H247V354H317Z" />
<glyph unicode="Q" glyph-name="Q" horiz-adv-x="719" d="M695 347Q695 286 682 239T646 158T591 101T520 66L709 29L676 -115L290 -13Q232 2 184 26T100 89T44 188T24 333V356Q24 449 52 515T126 623T234 685T362 705Q432 705 492 686T598 625T669 519T695 364V347ZM361
126Q490 126 490 322V360Q490 469 459 516T358 563Q228 563 228 369V331Q228 219 261 173T361 126Z" />
<glyph unicode="R" glyph-name="R" horiz-adv-x="649" d="M52 693H344Q476 693 541 641T607 477Q607 406 577 366T492 302V298L647 0H445L318 252H247V0H52V693ZM317 369Q369 369 391 393T414 468Q414 516 391 538T315 561H245V369H317Z" />
<glyph unicode="S" glyph-name="S" horiz-adv-x="547" d="M251 -12Q178 -12 120 -2T23 29V171Q69 154 118 143T228 132Q287 132 311 148T336 197Q336 227 319 240T251 263L199 273Q158 281 125 295T69 334T34 396T21 488Q21 537 36 577T84 645T164 689T279 705Q320
705 351 702T407 694T450 683T484 669V529Q448 542 403 552T297 562Q203 562 203 503Q203 475 220 462T284 440L336 430Q382 421 417 407T477 368T513 307T526 217Q526 105 457 47T251 -12Z" />
<glyph unicode="T" glyph-name="T" horiz-adv-x="584" d="M195 554H13V693H572V554H390V0H195V554Z" />
<glyph unicode="U" glyph-name="U" horiz-adv-x="684" d="M349 -12Q48 -12 48 248V693H243V255Q243 188 270 159T355 130Q412 130 438 159T464 256V693H637V249Q637 119 568 54T349 -12Z" />
<glyph unicode="V" glyph-name="V" horiz-adv-x="680" d="M3 693H201L349 225H353L499 693H677L440 0H240L3 693Z" />
<glyph unicode="W" glyph-name="W" horiz-adv-x="951" d="M7 693H202L293 256H297L408 693H564L674 256H678L775 693H944L778 0H583L479 427H476L368 0H172L7 693Z" />
<glyph unicode="X" glyph-name="X" horiz-adv-x="686" d="M214 357L23 693H237L357 474H361L473 693H664L476 362L679 0H465L334 236H330L199 0H8L214 357Z" />
<glyph unicode="Y" glyph-name="Y" horiz-adv-x="636" d="M221 271L1 693H207L331 441H334L456 693H634L416 271V0H221V271Z" />
<glyph unicode="Z" glyph-name="Z" horiz-adv-x="580" d="M27 133L327 551V554H45V693H550V561L249 142V139H549V0H27V133Z" />
<glyph unicode="[" glyph-name="bracketleft" horiz-adv-x="376" d="M55 739H352V610H230V9H352V-120H55V739Z" />
<glyph unicode="\" glyph-name="backslash" horiz-adv-x="397" d="M8 739H160L406 -120H255L8 739Z" />
<glyph unicode="]" glyph-name="bracketright" horiz-adv-x="376" d="M24 9H145V610H24V739H320V-120H24V9Z" />
<glyph unicode="^" glyph-name="asciicircum" horiz-adv-x="484" d="M171 693H313L464 438H323L242 556L160 438H20L171 693Z" />
<glyph unicode="_" glyph-name="underscore" horiz-adv-x="380" d="M-4 -50H384V-158H-4V-50Z" />
<glyph unicode="`" glyph-name="grave" horiz-adv-x="498" d="M85 736H262L329 581H188L85 736Z" />
<glyph unicode="a" glyph-name="a" horiz-adv-x="521" d="M183 -10Q109 -10 63 27T17 141Q17 183 31 212T70 260T130 290T210 307L307 320V343Q307 385 284 398T203 411Q163 411 127 407T62 395V511Q143 542 270 542Q319 542 358 534T425 506T467 455T482 379V0H336L324
41H318Q301 17 267 4T183 -10ZM243 101Q263 101 280 107T307 122V225L245 219Q213 217 199 203T185 159Q185 126 201 114T243 101Z" />
<glyph unicode="b" glyph-name="b" horiz-adv-x="591" d="M274 -11Q205 -11 146 -1T42 26V739H217V493H222Q250 516 286 529T373 542Q410 542 445 530T509 488T553 411T570 289V277Q570 200 551 145T495 56T402 5T274 -11ZM284 110Q306 110 325 116T358 138T381
183T390 255V271Q390 312 384 338T365 380T335 402T292 408Q269 408 249 402T217 390V122Q228 117 244 114T284 110Z" />
<glyph unicode="c" glyph-name="c" horiz-adv-x="468" d="M287 -10Q156 -10 88 57T19 256V269Q19 337 38 388T94 473T181 525T295 542Q350 542 384 535T444 515V388Q418 398 393 404T327 410Q270 410 236 380T202 282V265Q202 190 232 156T329 122Q368 122 397
130T447 146V26Q424 12 385 1T287 -10Z" />
<glyph unicode="d" glyph-name="d" horiz-adv-x="591" d="M232 -10Q190 -10 152 4T85 50T38 131T21 252V264Q21 339 39 392T89 478T165 526T263 542Q305 542 332 535T374 519V739H549V0H398L386 41H381Q327 -10 232 -10ZM299 118Q324 118 343 125T374 142V403Q363
411 345 416T301 422Q278 422 260 415T228 392T209 347T202 276V259Q202 217 209 190T228 147T259 125T299 118Z" />
<glyph unicode="e" glyph-name="e" horiz-adv-x="546" d="M301 -10Q158 -10 89 59T19 261V274Q19 336 37 385T90 470T173 523T282 542Q349 542 395 524T471 470T513 384T527 267V221H198Q206 159 242 137T346 115Q394 115 434 124T505 147V38Q475 20 425 5T301
-10ZM282 426Q267 426 253 421T228 404T208 372T197 320H358Q358 379 339 402T282 426Z" />
<glyph unicode="f" glyph-name="f" horiz-adv-x="369" d="M78 409H10V532H78V584Q78 626 92 657T131 709T190 739T267 749Q308 749 338 744T384 732V623Q374 625 358 627T325 629Q253 629 253 564V532H359V409H253V0H78V409Z" />
<glyph unicode="g" glyph-name="g" horiz-adv-x="548" d="M257 -200Q120 -200 58 -165T-4 -73Q-4 -31 24 -6T95 33V38Q70 49 54 68T37 119Q37 152 55 179T103 229Q69 249 51 281T32 360V367Q32 454 94 498T263 542Q316 542 360 533H539V432H471Q489 408 489 371V364Q489
279 428 237T262 195Q219 195 185 202Q175 189 175 175Q175 159 184 152T216 145H367Q452 145 499 110T546 -5Q546 -49 529 -84T476 -146T386 -186T257 -200ZM256 -93Q323 -93 348 -77T373 -36Q373 -12 360 -5T305 3H192Q176 -3 166 -13T156 -43Q156 -66 176 -79T256
-93ZM263 293Q294 293 310 308T326 362V372Q326 414 310 428T262 442Q230 442 214 427T198 373V363Q198 324 214 309T263 293Z" />
<glyph unicode="h" glyph-name="h" horiz-adv-x="581" d="M42 739H217V489H222Q253 514 293 528T385 542Q460 542 501 509T542 396V0H367V348Q367 380 352 392T300 405Q279 405 257 400T217 387V0H42V739Z" />
<glyph unicode="i" glyph-name="i" horiz-adv-x="265" d="M45 532H220V0H45V532ZM44 726H221V592H44V726Z" />
<glyph unicode="j" glyph-name="j" horiz-adv-x="265" d="M31 -198Q-2 -198 -27 -193T-67 -180V-69Q-59 -71 -49 -72T-27 -73Q8 -73 26 -58T45 -9V532H220V-26Q220 -64 210 -96T178 -150T119 -185T31 -198ZM44 726H221V592H44V726Z" />
<glyph unicode="k" glyph-name="k" horiz-adv-x="558" d="M217 246V0H42V739H217V308L370 532H545L374 288L554 0H368L217 246Z" />
<glyph unicode="l" glyph-name="l" horiz-adv-x="265" d="M45 739H220V0H45V739Z" />
<glyph unicode="m" glyph-name="m" horiz-adv-x="874" d="M42 532H211V485H216Q249 511 289 526T381 542Q427 542 458 528T508 482H513Q552 511 596 526T689 542Q758 542 796 510T834 398V0H659V349Q659 379 646 392T600 405Q580 405 563 400T525 387Q525 384
525 381T526 375V0H351V349Q351 379 338 392T292 405Q272 405 253 400T217 387V0H42V532Z" />
<glyph unicode="n" glyph-name="n" horiz-adv-x="581" d="M42 532H211V485H216Q287 542 385 542Q460 542 501 509T542 396V0H367V348Q367 380 352 392T300 405Q279 405 257 400T217 387V0H42V532Z" />
<glyph unicode="o" glyph-name="o" horiz-adv-x="582" d="M291 -10Q157 -10 88 59T19 257V270Q19 338 39 389T96 474T183 525T291 542Q425 542 494 475T563 276V263Q563 194 543 143T486 58T399 7T291 -10ZM292 111Q313 111 330 118T359 141T377 185T383 254V273Q383
320 376 349T357 395T327 416T290 422Q246 422 223 391T199 279V259Q199 213 206 184T225 139T255 117T292 111Z" />
<glyph unicode="p" glyph-name="p" horiz-adv-x="591" d="M42 532H211V487H216Q242 513 279 527T370 542Q409 542 445 530T508 487T553 408T570 286V274Q570 195 552 141T502 54T424 5T324 -10Q284 -10 258 -4T217 10V-195H42V532ZM290 111Q314 111 332 117T363
139T383 182T390 253V270Q390 312 384 338T365 380T336 401T296 407Q269 407 249 401T217 386V130Q228 122 247 117T290 111Z" />
<glyph unicode="q" glyph-name="q" horiz-adv-x="590" d="M374 29H369Q345 10 314 0T235 -10Q194 -10 156 4T87 48T39 128T21 249V261Q21 341 42 395T101 481T194 528T317 542Q397 542 453 532T549 505V-195H374V29ZM298 122Q325 122 343 129T374 144V411Q363
415 345 418T304 422Q280 422 261 415T229 392T209 347T202 277V260Q202 218 208 191T227 149T258 128T298 122Z" />
<glyph unicode="r" glyph-name="r" horiz-adv-x="393" d="M42 532H211V468H216Q237 499 271 518T348 538Q369 538 379 533V379Q371 381 358 382T334 384Q299 384 270 378T217 360V0H42V532Z" />
<glyph unicode="s" glyph-name="s" horiz-adv-x="458" d="M207 -10Q153 -10 104 -1T22 25V143Q54 131 90 122T181 112Q229 112 250 123T271 156Q271 176 258 184T210 197L161 204Q92 214 56 253T19 370Q19 451 72 496T237 542Q295 542 335 535T406 514V397Q380
405 344 413T260 421Q183 421 183 380Q183 360 197 352T244 339L293 332Q374 321 406 279T439 168Q439 80 383 35T207 -10Z" />
<glyph unicode="t" glyph-name="t" horiz-adv-x="384" d="M246 -8Q206 -8 175 -1T121 24T88 71T76 145V410H10V532H76V658H252V532H360V410H252V170Q252 142 265 132T311 121Q325 121 338 123T363 127V14Q347 6 318 -1T246 -8Z" />
<glyph unicode="u" glyph-name="u" horiz-adv-x="576" d="M202 -10Q125 -10 83 26T40 145V532H215V182Q215 150 229 137T279 123Q302 123 322 129T359 143V532H534V0H380L368 47H363Q328 20 291 5T202 -10Z" />
<glyph unicode="v" glyph-name="v" horiz-adv-x="564" d="M3 532H186L289 199H293L396 532H561L374 0H190L3 532Z" />
<glyph unicode="w" glyph-name="w" horiz-adv-x="795" d="M8 532H187L260 223H264L346 532H477L560 223H564L636 532H787L647 0H483L400 299H397L313 0H148L8 532Z" />
<glyph unicode="x" glyph-name="x" horiz-adv-x="563" d="M171 276L15 532H211L297 376L377 532H545L394 280L559 0H364L269 169L173 0H4L171 276Z" />
<glyph unicode="y" glyph-name="y" horiz-adv-x="558" d="M144 -198Q117 -198 87 -194T42 -182V-66Q56 -68 70 -70T98 -72Q135 -72 155 -60T186 -20L198 12L1 532H184L288 214H291L391 532H556L351 -51Q324 -130 277 -164T144 -198Z" />
<glyph unicode="z" glyph-name="z" horiz-adv-x="487" d="M22 123L252 406V409H30V532H464V419L227 126V123H461V0H22V123Z" />
<glyph unicode="{" glyph-name="braceleft" horiz-adv-x="397" d="M373 -122Q293 -121 241 -109T157 -73T113 -18T100 57V166Q100 208 80 224T14 244V373Q59 376 79 391T100 448V557Q100 598 113 631T157 689T240 726T373 741V611Q325 607 300 592T275 533V438Q275
414 270 393T252 356T217 327T160 309V306Q194 300 216 288T252 260T270 222T275 177V82Q275 60 281 47T300 25T330 14T373 8V-122Z" />
<glyph unicode="|" glyph-name="bar" horiz-adv-x="287" d="M76 739H211V-120H76V739Z" />
<glyph unicode="}" glyph-name="braceright" horiz-adv-x="397" d="M24 8Q72 12 97 27T122 86V181Q122 205 127 226T145 263T180 292T237 310V313Q202 319 180 331T145 359T127 397T122 442V537Q122 559 116 572T97 594T67 605T24 611V741Q103 740 156 728T240
692T284 637T297 562V453Q297 411 317 395T383 375V246Q338 243 318 228T297 171V62Q297 21 284 -12T240 -70T156 -107T24 -122V8Z" />
<glyph unicode="~" glyph-name="asciitilde" horiz-adv-x="445" d="M25 223Q28 271 40 303T71 354T110 382T155 390Q175 390 192 385T225 373T252 361T275 355Q303 355 309 389H420Q416 341 404 309T374 257T334 230T290 222Q270 222 253 227T220 239T193 250T170
256Q156 256 148 247T135 223H25Z" />
<glyph unicode="&#xa0;" glyph-name="uni00A0" horiz-adv-x="166" />
<glyph unicode="&#xa1;" glyph-name="exclamdown" horiz-adv-x="293" d="M72 344H221L246 -120H47L72 344ZM61 573H231V420H61V573Z" />
<glyph unicode="&#xa2;" glyph-name="cent" horiz-adv-x="477" d="M225 -5Q123 12 71 78T19 256V269Q19 337 38 388T95 473T184 525T302 542H316L327 603H411L399 534Q432 526 455 515V391Q435 399 418 404T378 411L329 118H340Q379 118 408 126T458 141V27Q436
13 399 3T308 -10L290 -118H206L225 -5ZM195 264Q195 170 249 138L294 410Q246 402 221 372T195 283V264Z" />
<glyph unicode="&#xa3;" glyph-name="sterling" horiz-adv-x="556" d="M33 401H98V467Q98 529 118 574T172 648T254 691T358 705Q426 705 463 696T521 676V543Q495 550 472 554T412 558Q388 558 366 553T328 536T303 502T293 448V401H448V281H293Q292 225 273
194T221 141V139H531V0H28V129Q59 144 78 172T98 248V281H33V401Z" />
<glyph unicode="&#xa5;" glyph-name="yen" horiz-adv-x="644" d="M227 104H70V219H227V266H70V381H185L10 693H215L335 448H339L459 693H636L461 381H578V266H421V219H578V104H421V0H227V104Z" />
<glyph unicode="&#xa6;" glyph-name="brokenbar" horiz-adv-x="307" d="M76 282H231V-120H76V282ZM76 737H231V363H76V737Z" />
<glyph unicode="&#xa7;" glyph-name="section" horiz-adv-x="558" d="M255 -132Q196 -132 146 -121T61 -92V29Q96 15 135 5T230 -6Q281 -6 303 6T325 43Q325 66 312 76T261 96L193 112Q155 120 124 132T69 163T32 211T19 280Q19 331 41 361T108 407Q86 427 73
456T60 528Q60 611 117 658T294 705Q359 705 400 695T472 671V551Q443 561 405 570T316 580Q274 580 253 570T232 536Q232 513 245 503T293 485L363 467Q406 458 439 446T495 414T530 369T542 303Q542 248 520 217T456 170Q503 131 503 55Q503 -132 255 -132ZM248
352L244 354Q183 345 183 301Q183 277 198 263T259 238L301 226Q305 224 307 224Q342 229 357 242T372 277Q372 289 369 298T357 314T333 327T292 340L248 352Z" />
<glyph unicode="&#xa8;" glyph-name="dieresis" horiz-adv-x="498" d="M279 725H424V592H279V725ZM73 725H219V592H73V725Z" />
<glyph unicode="&#xa9;" glyph-name="copyright" horiz-adv-x="777" d="M388 -14Q311 -14 245 14T131 91T56 205T29 344Q29 418 56 483T131 596T245 672T388 700Q464 700 530 672T644 596T720 483T748 344Q748 270 721 205T645 91T530 14T388 -14ZM388 41Q452
41 506 63T599 126T660 222T682 344Q682 410 660 465T599 560T506 622T388 645Q323 645 270 623T177 561T117 466T95 344Q95 278 116 223T177 127T269 64T388 41ZM403 141Q312 141 259 189T205 337V346Q205 399 221 437T264 499T328 534T406 546Q446 546 471 540T514
526V429Q498 434 481 437T439 441Q396 441 374 422T352 355V339Q352 290 371 267T439 244Q465 244 483 249T516 259V163Q496 155 471 148T403 141Z" />
<glyph unicode="&#xaa;" glyph-name="ordfeminine" horiz-adv-x="475" d="M165 214Q99 214 58 247T17 348Q17 385 30 411T66 453T121 479T192 494L277 505V526Q277 563 257 574T185 586Q150 586 116 582T57 572V676Q133 704 246 704Q289 704 324 697T385 672T423
626T437 558V223H303L293 259H287Q273 238 241 226T165 214ZM221 314Q239 314 254 319T277 333V425L224 420Q196 418 184 405T171 365Q171 336 185 325T221 314Z" />
<glyph unicode="&#xab;" glyph-name="guillemotleft" horiz-adv-x="520" d="M251 231V274L343 453H488L397 253L488 52H343L251 231ZM30 231V274L122 453H267L176 253L267 52H122L30 231Z" />
<glyph unicode="&#xae;" glyph-name="registered" horiz-adv-x="450" d="M224 303Q181 303 144 319T80 362T37 427T21 505Q21 547 36 583T79 647T144 690T224 706Q267 706 304 690T369 647T413 584T429 505Q429 464 413 427T370 363T305 319T224 303ZM224 340Q260
340 289 352T340 387T373 440T385 505Q385 539 374 569T341 621T290 657T224 670Q188 670 159 657T109 622T77 569T66 505Q66 470 77 440T109 388T159 353T224 340ZM143 604H238Q275 604 296 588T317 542Q317 524 309 511T288 493V490L327 410H258L227 476H209V410H143V604ZM228
518Q250 518 250 538Q250 558 228 558H209V518H228Z" />
<glyph unicode="&#xaf;" glyph-name="macron" horiz-adv-x="498" d="M107 709H391V594H107V709Z" />
<glyph unicode="&#xb0;" glyph-name="degree" horiz-adv-x="398" d="M199 388Q161 388 131 400T80 435T47 485T35 546Q35 578 46 606T79 656T131 690T199 703Q237 703 267 691T319 657T352 607T364 546Q364 514 353 486T320 435T268 401T199 388ZM199 475Q231
475 246 496T262 546Q262 575 247 595T199 616Q167 616 152 596T137 546Q137 517 152 496T199 475Z" />
<glyph unicode="&#xb4;" glyph-name="acute" horiz-adv-x="498" d="M235 736H413L309 581H168L235 736Z" />
<glyph unicode="&#xb6;" glyph-name="paragraph" horiz-adv-x="592" d="M269 324H243Q196 324 157 336T91 372T48 430T33 508Q33 549 46 583T87 641T157 679T256 693H540V-120H441V600H369V-120H269V324Z" />
<glyph unicode="&#xb7;" glyph-name="periodcentered" horiz-adv-x="260" d="M45 393H216V238H45V393Z" />
<glyph unicode="&#xb8;" glyph-name="cedilla" horiz-adv-x="498" d="M193 -157Q244 -153 265 -146T287 -122Q287 -108 271 -103T217 -95V0H297V-41Q354 -43 379 -63T405 -121Q405 -169 356 -195T193 -225V-157Z" />
<glyph unicode="&#xba;" glyph-name="ordmasculine" horiz-adv-x="524" d="M262 214Q144 214 82 275T19 451V462Q19 523 37 568T89 644T166 689T262 704Q381 704 443 644T505 467V456Q505 395 487 350T435 274T358 229T262 214ZM263 322Q300 322 320 349T341 448V465Q341
506 335 531T319 570T294 589T261 594Q223 594 203 567T183 470V452Q183 412 189 387T205 348T230 328T263 322Z" />
<glyph unicode="&#xbb;" glyph-name="guillemotright" horiz-adv-x="520" d="M344 252L253 453H398L490 274V231L398 52H253L344 252ZM123 252L32 453H177L269 274V231L177 52H32L123 252Z" />
<glyph unicode="&#xbc;" glyph-name="onequarter" horiz-adv-x="862" d="M93 565L18 556V639L145 694H232V270H93V565ZM601 713H723L212 -40H90L601 713ZM649 96H459V181L655 423H786V186H846V96H786V0H649V96ZM653 184V290H651L569 186V184H653Z" />
<glyph unicode="&#xbd;" glyph-name="onehalf" horiz-adv-x="892" d="M592 713H714L203 -40H81L592 713ZM93 565L18 556V639L145 694H232V270H93V565ZM551 91L633 162Q671 195 691 220T712 276Q712 303 695 315T646 327Q620 327 597 322T557 309V404Q578 413 613
422T699 431Q778 431 819 397T860 299Q860 246 831 209T754 135L711 100V99H864V0H551V91Z" />
<glyph unicode="&#xbe;" glyph-name="threequarters" horiz-adv-x="892" d="M161 263Q111 263 78 270T23 288V375Q43 370 66 366T117 361Q158 361 176 371T194 403Q194 444 134 444H83V527H130Q192 527 192 566Q192 586 175 594T125 603Q99 603 77 600T36 592V678Q61
687 95 694T173 701Q242 701 285 674T328 592Q328 554 306 529T247 494V492Q292 484 316 461T340 390Q340 330 295 297T161 263ZM645 710H767L256 -43H134L645 710ZM679 96H489V181L685 423H816V186H876V96H816V0H679V96ZM683 184V290H681L599 186V184H683Z" />
<glyph unicode="&#xbf;" glyph-name="questiondown" horiz-adv-x="449" d="M249 -132Q199 -132 157 -122T85 -91T38 -35T21 49Q21 83 27 108T45 152T75 189T119 224Q143 240 158 251T183 273T197 295T201 321V344H352V303Q352 277 347 258T331 223T303 192T262
160Q232 138 219 120T205 72Q205 35 229 20T308 5Q349 5 377 10T431 23V-102Q396 -116 352 -124T249 -132ZM190 573H360V420H190V573Z" />
<glyph unicode="&#xc0;" glyph-name="Agrave" horiz-adv-x="690" d="M243 693H450L690 0H492L446 137H218L175 0H0L243 693ZM256 262H407L333 492H329L256 262ZM190 872H367L424 729H283L190 872Z" />
<glyph unicode="&#xc1;" glyph-name="Aacute" horiz-adv-x="690" d="M243 693H450L690 0H492L446 137H218L175 0H0L243 693ZM256 262H407L333 492H329L256 262ZM325 870H503L407 729H266L325 870Z" />
<glyph unicode="&#xc2;" glyph-name="Acircumflex" horiz-adv-x="690" d="M243 693H450L690 0H492L446 137H218L175 0H0L243 693ZM256 262H407L333 492H329L256 262ZM273 864H415L517 729H392L343 773L295 729H170L273 864Z" />
<glyph unicode="&#xc3;" glyph-name="Atilde" horiz-adv-x="690" d="M243 693H450L690 0H492L446 137H218L175 0H0L243 693ZM256 262H407L333 492H329L256 262ZM161 731Q165 769 176 795T204 837T241 860T282 867Q301 867 317 863T347 853T372 844T393 839Q407
839 414 846T425 866H528Q524 828 513 802T485 760T448 737T407 730Q389 730 373 734T343 744T317 753T296 758Q271 758 265 731H161Z" />
<glyph unicode="&#xc4;" glyph-name="Adieresis" horiz-adv-x="690" d="M243 693H450L690 0H492L446 137H218L175 0H0L243 693ZM256 262H407L333 492H329L256 262ZM376 860H522V732H376V860ZM166 860H311V732H166V860Z" />
<glyph unicode="&#xc5;" glyph-name="Aring" horiz-adv-x="690" d="M243 693H450L690 0H492L446 137H218L175 0H0L243 693ZM256 262H407L333 492H329L256 262ZM346 716Q319 716 297 725T259 749T235 784T226 827Q226 850 234 870T259 905T297 929T346 938Q373
938 395 929T433 905T457 870T466 827Q466 804 458 784T433 749T395 725T346 716ZM346 782Q366 782 377 794T388 827Q388 847 377 859T346 872Q326 872 315 860T303 827Q303 807 314 795T346 782Z" />
<glyph unicode="&#xc6;" glyph-name="AE" horiz-adv-x="951" d="M347 693H909V554H629V422H847V285H629V139H920V0H440V145H246L176 0H-5L347 693ZM303 270H440V547H436L303 270Z" />
<glyph unicode="&#xc7;" glyph-name="Ccedilla" horiz-adv-x="576" d="M359 -12Q348 -12 337 -11V-41Q394 -43 419 -63T445 -121Q445 -169 396 -195T233 -225V-157Q284 -153 305 -146T327 -122Q327 -108 311 -103T257 -95V-1Q170 17 112 72Q24 157 24 333V357Q24
452 50 518T123 625T232 686T367 705Q432 705 475 697T548 675V534Q516 545 484 551T406 558Q321 558 276 515T231 371V340Q231 240 269 188T404 135Q457 135 492 144T554 164V25Q519 9 473 -1T359 -12Z" />
<glyph unicode="&#xc8;" glyph-name="Egrave" horiz-adv-x="573" d="M144 872H321L378 729H237L144 872ZM52 693H531V554H245V422H469V285H245V139H541V0H52V693Z" />
<glyph unicode="&#xc9;" glyph-name="Eacute" horiz-adv-x="573" d="M279 870H457L361 729H220L279 870ZM52 693H531V554H245V422H469V285H245V139H541V0H52V693Z" />
<glyph unicode="&#xca;" glyph-name="Ecircumflex" horiz-adv-x="573" d="M228 864H370L472 729H347L298 773L250 729H125L228 864ZM52 693H531V554H245V422H469V285H245V139H541V0H52V693Z" />
<glyph unicode="&#xcb;" glyph-name="Edieresis" horiz-adv-x="573" d="M52 693H531V554H245V422H469V285H245V139H541V0H52V693ZM327 860H473V732H327V860ZM117 860H262V732H117V860Z" />
<glyph unicode="&#xcc;" glyph-name="Igrave" horiz-adv-x="306" d="M56 693H251V0H56V693ZM256 872H433L490 729H349L256 872Z" />
<glyph unicode="&#xcd;" glyph-name="Iacute" horiz-adv-x="306" d="M56 693H251V0H56V693ZM391 870H569L473 729H332L391 870Z" />
<glyph unicode="&#xce;" glyph-name="Icircumflex" horiz-adv-x="306" d="M56 693H251V0H56V693ZM340 864H482L584 729H459L410 773L362 729H237L340 864Z" />
<glyph unicode="&#xcf;" glyph-name="Idieresis" horiz-adv-x="306" d="M179 860H312V732H179V860ZM-6 860H127V732H-6V860ZM56 693H251V0H56V693Z" />
<glyph unicode="&#xd0;" glyph-name="Eth" horiz-adv-x="692" d="M5 413H55V693H322Q403 693 467 675T576 618T644 516T668 363V340Q668 252 645 188T577 82T468 20T323 0H55V281H5V413ZM322 137Q358 137 385 147T430 179T457 239T466 331V366Q466 421 456 458T427
516T381 547T317 556H248V413H373V281H248V137H322Z" />
<glyph unicode="&#xd1;" glyph-name="Ntilde" horiz-adv-x="707" d="M189 731Q193 769 204 795T232 837T269 860T310 867Q329 867 345 863T375 853T400 844T421 839Q435 839 442 846T453 866H556Q552 828 541 802T513 760T476 737T435 730Q417 730 401 734T371
744T345 753T324 758Q299 758 293 731H189ZM52 693H262L486 305H489V693H655V0H470L222 432H218V0H52V693Z" />
<glyph unicode="&#xd2;" glyph-name="Ograve" horiz-adv-x="719" d="M204 872H381L438 729H297L204 872ZM357 -12Q287 -12 227 7T121 69T50 176T24 333V356Q24 449 52 515T126 623T234 685T362 705Q432 705 492 686T598 624T669 517T695 360V337Q695 244 667 178T593
70T485 8T357 -12ZM361 130Q425 130 457 177T490 325V360Q490 469 459 516T358 563Q228 563 228 369V334Q228 278 236 239T261 176T303 141T361 130Z" />
<glyph unicode="&#xd3;" glyph-name="Oacute" horiz-adv-x="719" d="M339 870H517L421 729H280L339 870ZM357 -12Q287 -12 227 7T121 69T50 176T24 333V356Q24 449 52 515T126 623T234 685T362 705Q432 705 492 686T598 624T669 517T695 360V337Q695 244 667 178T593
70T485 8T357 -12ZM361 130Q425 130 457 177T490 325V360Q490 469 459 516T358 563Q228 563 228 369V334Q228 278 236 239T261 176T303 141T361 130Z" />
<glyph unicode="&#xd4;" glyph-name="Ocircumflex" horiz-adv-x="719" d="M288 864H430L532 729H407L358 773L310 729H185L288 864ZM357 -12Q287 -12 227 7T121 69T50 176T24 333V356Q24 449 52 515T126 623T234 685T362 705Q432 705 492 686T598 624T669 517T695
360V337Q695 244 667 178T593 70T485 8T357 -12ZM361 130Q425 130 457 177T490 325V360Q490 469 459 516T358 563Q228 563 228 369V334Q228 278 236 239T261 176T303 141T361 130Z" />
<glyph unicode="&#xd5;" glyph-name="Otilde" horiz-adv-x="719" d="M175 731Q179 769 190 795T218 837T255 860T296 867Q315 867 331 863T361 853T386 844T407 839Q421 839 428 846T439 866H542Q538 828 527 802T499 760T462 737T421 730Q403 730 387 734T357
744T331 753T310 758Q285 758 279 731H175ZM357 -12Q287 -12 227 7T121 69T50 176T24 333V356Q24 449 52 515T126 623T234 685T362 705Q432 705 492 686T598 624T669 517T695 360V337Q695 244 667 178T593 70T485 8T357 -12ZM361 130Q425 130 457 177T490 325V360Q490
469 459 516T358 563Q228 563 228 369V334Q228 278 236 239T261 176T303 141T361 130Z" />
<glyph unicode="&#xd6;" glyph-name="Odieresis" horiz-adv-x="719" d="M391 860H537V732H391V860ZM181 860H326V732H181V860ZM357 -12Q287 -12 227 7T121 69T50 176T24 333V356Q24 449 52 515T126 623T234 685T362 705Q432 705 492 686T598 624T669 517T695 360V337Q695
244 667 178T593 70T485 8T357 -12ZM361 130Q425 130 457 177T490 325V360Q490 469 459 516T358 563Q228 563 228 369V334Q228 278 236 239T261 176T303 141T361 130Z" />
<glyph unicode="&#xd7;" glyph-name="multiply" horiz-adv-x="553" d="M48 199L178 328L48 457L145 553L275 423L406 553L503 457L372 328L503 199L406 103L275 232L145 103L48 199Z" />
<glyph unicode="&#xd8;" glyph-name="Oslash" horiz-adv-x="719" d="M357 -12Q300 -12 250 1T157 41L122 0H2L90 104Q58 146 41 202T24 333V356Q24 449 52 515T126 623T234 685T362 705Q417 705 466 693T557 654L590 693H710L625 593Q658 551 676 494T695 360V337Q695
244 667 178T593 70T485 8T357 -12ZM361 126Q428 126 463 174T498 324V367Q498 387 497 404T493 438L261 164Q278 144 303 135T361 126ZM221 329Q221 292 224 262L454 533Q420 567 358 567Q291 567 256 519T221 369V329Z" />
<glyph unicode="&#xd9;" glyph-name="Ugrave" horiz-adv-x="684" d="M198 872H375L432 729H291L198 872ZM349 -12Q48 -12 48 248V693H243V255Q243 188 270 159T355 130Q412 130 438 159T464 256V693H637V249Q637 119 568 54T349 -12Z" />
<glyph unicode="&#xda;" glyph-name="Uacute" horiz-adv-x="684" d="M333 870H511L415 729H274L333 870ZM349 -12Q48 -12 48 248V693H243V255Q243 188 270 159T355 130Q412 130 438 159T464 256V693H637V249Q637 119 568 54T349 -12Z" />
<glyph unicode="&#xdb;" glyph-name="Ucircumflex" horiz-adv-x="684" d="M282 864H424L526 729H401L352 773L304 729H179L282 864ZM349 -12Q48 -12 48 248V693H243V255Q243 188 270 159T355 130Q412 130 438 159T464 256V693H637V249Q637 119 568 54T349 -12Z" />
<glyph unicode="&#xdc;" glyph-name="Udieresis" horiz-adv-x="684" d="M349 -12Q48 -12 48 248V693H243V255Q243 188 270 159T355 130Q412 130 438 159T464 256V693H637V249Q637 119 568 54T349 -12ZM385 860H531V732H385V860ZM175 860H320V732H175V860Z" />
<glyph unicode="&#xdd;" glyph-name="Yacute" horiz-adv-x="636" d="M221 271L1 693H207L331 441H334L456 693H634L416 271V0H221V271ZM312 870H490L394 729H253L312 870Z" />
<glyph unicode="&#xde;" glyph-name="Thorn" horiz-adv-x="627" d="M52 693H247V585H342Q483 585 547 530T612 368Q612 140 347 140H247V0H52V693ZM320 263Q374 263 396 285T419 358Q419 413 396 432T324 451H247V263H320Z" />
<glyph unicode="&#xdf;" glyph-name="germandbls" horiz-adv-x="642" d="M426 -9Q372 -9 338 -3T272 15V131Q300 123 327 117T390 111Q456 111 456 151Q456 168 446 177T409 197L376 210Q320 232 297 265T274 352Q274 392 291 422T330 478T369 526T387 572Q387
600 369 614T316 628Q269 628 243 601T217 515V0H42V528Q42 587 63 629T121 697T210 736T322 749Q564 749 564 589Q564 550 544 520T499 466T455 423T434 388Q434 371 444 363T478 344L512 329Q572 303 599 264T626 160Q626 80 575 36T426 -9Z" />
<glyph unicode="&#xe0;" glyph-name="agrave" horiz-adv-x="521" d="M183 -10Q109 -10 63 27T17 141Q17 183 31 212T70 260T130 290T210 307L307 320V343Q307 385 284 398T203 411Q163 411 127 407T62 395V511Q143 542 270 542Q319 542 358 534T425 506T467 455T482
379V0H336L324 41H318Q301 17 267 4T183 -10ZM243 101Q263 101 280 107T307 122V225L245 219Q213 217 199 203T185 159Q185 126 201 114T243 101ZM98 736H275L342 581H201L98 736Z" />
<glyph unicode="&#xe1;" glyph-name="aacute" horiz-adv-x="521" d="M183 -10Q109 -10 63 27T17 141Q17 183 31 212T70 260T130 290T210 307L307 320V343Q307 385 284 398T203 411Q163 411 127 407T62 395V511Q143 542 270 542Q319 542 358 534T425 506T467 455T482
379V0H336L324 41H318Q301 17 267 4T183 -10ZM243 101Q263 101 280 107T307 122V225L245 219Q213 217 199 203T185 159Q185 126 201 114T243 101ZM253 736H431L327 581H186L253 736Z" />
<glyph unicode="&#xe2;" glyph-name="acircumflex" horiz-adv-x="521" d="M183 -10Q109 -10 63 27T17 141Q17 183 31 212T70 260T130 290T210 307L307 320V343Q307 385 284 398T203 411Q163 411 127 407T62 395V511Q143 542 270 542Q319 542 358 534T425 506T467
455T482 379V0H336L324 41H318Q301 17 267 4T183 -10ZM243 101Q263 101 280 107T307 122V225L245 219Q213 217 199 203T185 159Q185 126 201 114T243 101ZM196 736H339L443 581H318L267 638L218 581H92L196 736Z" />
<glyph unicode="&#xe3;" glyph-name="atilde" horiz-adv-x="521" d="M183 -10Q109 -10 63 27T17 141Q17 183 31 212T70 260T130 290T210 307L307 320V343Q307 385 284 398T203 411Q163 411 127 407T62 395V511Q143 542 270 542Q319 542 358 534T425 506T467 455T482
379V0H336L324 41H318Q301 17 267 4T183 -10ZM243 101Q263 101 280 107T307 122V225L245 219Q213 217 199 203T185 159Q185 126 201 114T243 101ZM84 591Q88 629 99 656T127 700T164 725T205 733Q224 733 240 728T270 718T295 707T316 702Q330 702 337 710T348
732H451Q447 694 436 667T408 623T371 598T330 590Q312 590 296 595T266 605T240 616T219 621Q194 621 188 591H84Z" />
<glyph unicode="&#xe4;" glyph-name="adieresis" horiz-adv-x="521" d="M183 -10Q109 -10 63 27T17 141Q17 183 31 212T70 260T130 290T210 307L307 320V343Q307 385 284 398T203 411Q163 411 127 407T62 395V511Q143 542 270 542Q319 542 358 534T425 506T467
455T482 379V0H336L324 41H318Q301 17 267 4T183 -10ZM243 101Q263 101 280 107T307 122V225L245 219Q213 217 199 203T185 159Q185 126 201 114T243 101ZM296 725H441V592H296V725ZM90 725H236V592H90V725Z" />
<glyph unicode="&#xe5;" glyph-name="aring" horiz-adv-x="521" d="M183 -10Q109 -10 63 27T17 141Q17 183 31 212T70 260T130 290T210 307L307 320V343Q307 385 284 398T203 411Q163 411 127 407T62 395V511Q143 542 270 542Q319 542 358 534T425 506T467 455T482
379V0H336L324 41H318Q301 17 267 4T183 -10ZM243 101Q263 101 280 107T307 122V225L245 219Q213 217 199 203T185 159Q185 126 201 114T243 101ZM265 575Q238 575 216 584T178 608T154 643T145 686Q145 709 153 729T178 764T216 788T265 797Q292 797 314 788T352
764T376 729T385 686Q385 663 377 643T352 608T314 584T265 575ZM265 641Q285 641 296 653T307 686Q307 706 296 718T265 731Q245 731 234 719T222 686Q222 666 233 654T265 641Z" />
<glyph unicode="&#xe6;" glyph-name="ae" horiz-adv-x="827" d="M186 -10Q110 -10 64 27T17 141Q17 183 31 211T70 258T130 287T210 303L307 316V343Q307 385 284 398T203 411Q163 411 127 407T62 395V511Q104 527 155 534T264 542Q319 542 355 529T412 484Q438
512 476 527T570 542Q634 542 679 524T753 470T795 384T808 267V222H479Q487 159 523 137T627 115Q675 115 715 124T786 147V38Q756 20 706 5T582 -10Q508 -10 456 8T368 63Q334 25 290 8T186 -10ZM323 137Q308 176 305 227L245 223Q213 221 199 206T185 160Q185
126 201 114T243 101Q268 101 287 110T323 137ZM563 426Q548 426 534 421T509 404T489 372T478 320H639Q639 378 620 402T563 426Z" />
<glyph unicode="&#xe7;" glyph-name="ccedilla" horiz-adv-x="468" d="M287 -10H270V-41Q327 -43 352 -63T378 -121Q378 -169 329 -194T167 -225V-157Q218 -153 239 -146T260 -122Q260 -108 244 -103T190 -95V1Q128 17 87 57Q19 125 19 256V269Q19 337 38 388T94
473T181 525T295 542Q350 542 384 535T444 515V388Q418 398 393 404T327 410Q270 410 236 380T202 282V265Q202 190 232 156T329 122Q368 122 397 130T447 146V26Q424 12 385 1T287 -10Z" />
<glyph unicode="&#xe8;" glyph-name="egrave" horiz-adv-x="546" d="M301 -10Q158 -10 89 59T19 261V274Q19 336 37 385T90 470T173 523T282 542Q349 542 395 524T471 470T513 384T527 267V221H198Q206 159 242 137T346 115Q394 115 434 124T505 147V38Q475 20
425 5T301 -10ZM282 426Q267 426 253 421T228 404T208 372T197 320H358Q358 379 339 402T282 426ZM117 736H294L361 581H220L117 736Z" />
<glyph unicode="&#xe9;" glyph-name="eacute" horiz-adv-x="546" d="M272 736H450L346 581H205L272 736ZM301 -10Q158 -10 89 59T19 261V274Q19 336 37 385T90 470T173 523T282 542Q349 542 395 524T471 470T513 384T527 267V221H198Q206 159 242 137T346 115Q394
115 434 124T505 147V38Q475 20 425 5T301 -10ZM282 426Q267 426 253 421T228 404T208 372T197 320H358Q358 379 339 402T282 426Z" />
<glyph unicode="&#xea;" glyph-name="ecircumflex" horiz-adv-x="546" d="M212 736H355L459 581H334L283 638L234 581H108L212 736ZM301 -10Q158 -10 89 59T19 261V274Q19 336 37 385T90 470T173 523T282 542Q349 542 395 524T471 470T513 384T527 267V221H198Q206
159 242 137T346 115Q394 115 434 124T505 147V38Q475 20 425 5T301 -10ZM282 426Q267 426 253 421T228 404T208 372T197 320H358Q358 379 339 402T282 426Z" />
<glyph unicode="&#xeb;" glyph-name="edieresis" horiz-adv-x="546" d="M314 725H459V592H314V725ZM108 725H254V592H108V725ZM301 -10Q158 -10 89 59T19 261V274Q19 336 37 385T90 470T173 523T282 542Q349 542 395 524T471 470T513 384T527 267V221H198Q206
159 242 137T346 115Q394 115 434 124T505 147V38Q475 20 425 5T301 -10ZM282 426Q267 426 253 421T228 404T208 372T197 320H358Q358 379 339 402T282 426Z" />
<glyph unicode="&#xec;" glyph-name="igrave" horiz-adv-x="265" d="M45 532H220V0H45V532ZM222 736H399L466 581H325L222 736Z" />
<glyph unicode="&#xed;" glyph-name="iacute" horiz-adv-x="265" d="M377 736H555L451 581H310L377 736ZM45 532H220V0H45V532Z" />
<glyph unicode="&#xee;" glyph-name="icircumflex" horiz-adv-x="265" d="M45 532H220V0H45V532ZM61 736H204L296 581H172L132 638L92 581H-32L61 736Z" />
<glyph unicode="&#xef;" glyph-name="idieresis" horiz-adv-x="265" d="M156 725H290V592H156V725ZM-26 725H107V592H-26V725ZM45 532H220V0H45V532Z" />
<glyph unicode="&#xf0;" glyph-name="eth" horiz-adv-x="582" d="M205 651Q178 675 151 697T95 739H299Q314 730 329 720T359 698L464 730L483 662L423 644Q452 615 477 580T521 504T551 414T562 309V283Q562 208 543 153T489 62T403 8T290 -10Q156 -10 88 58T19
257V270Q19 337 37 386T85 467T156 514T243 530Q268 530 286 525T318 512H323Q309 535 294 555T261 595L119 552L100 620L205 651ZM382 289Q382 348 368 402Q355 409 337 414T296 419Q271 419 253 413T223 390T205 346T199 279V259Q199 213 206 184T225 139T254
117T291 111Q313 111 330 118T358 142T376 189T382 263V289Z" />
<glyph unicode="&#xf1;" glyph-name="ntilde" horiz-adv-x="581" d="M42 532H211V485H216Q287 542 385 542Q460 542 501 509T542 396V0H367V348Q367 380 352 392T300 405Q279 405 257 400T217 387V0H42V532ZM113 591Q117 629 128 656T156 700T193 725T234 733Q253
733 269 728T299 718T324 707T345 702Q359 702 366 710T377 732H480Q476 694 465 667T437 623T400 598T359 590Q341 590 325 595T295 605T269 616T248 621Q223 621 217 591H113Z" />
<glyph unicode="&#xf2;" glyph-name="ograve" horiz-adv-x="582" d="M291 -10Q157 -10 88 59T19 257V270Q19 338 39 389T96 474T183 525T291 542Q425 542 494 475T563 276V263Q563 194 543 143T486 58T399 7T291 -10ZM292 111Q313 111 330 118T359 141T377 185T383
254V273Q383 320 376 349T357 395T327 416T290 422Q246 422 223 391T199 279V259Q199 213 206 184T225 139T255 117T292 111ZM123 736H300L367 581H226L123 736Z" />
<glyph unicode="&#xf3;" glyph-name="oacute" horiz-adv-x="582" d="M278 736H456L352 581H211L278 736ZM291 -10Q157 -10 88 59T19 257V270Q19 338 39 389T96 474T183 525T291 542Q425 542 494 475T563 276V263Q563 194 543 143T486 58T399 7T291 -10ZM292 111Q313
111 330 118T359 141T377 185T383 254V273Q383 320 376 349T357 395T327 416T290 422Q246 422 223 391T199 279V259Q199 213 206 184T225 139T255 117T292 111Z" />
<glyph unicode="&#xf4;" glyph-name="ocircumflex" horiz-adv-x="582" d="M219 736H362L466 581H341L290 638L241 581H115L219 736ZM291 -10Q157 -10 88 59T19 257V270Q19 338 39 389T96 474T183 525T291 542Q425 542 494 475T563 276V263Q563 194 543 143T486
58T399 7T291 -10ZM292 111Q313 111 330 118T359 141T377 185T383 254V273Q383 320 376 349T357 395T327 416T290 422Q246 422 223 391T199 279V259Q199 213 206 184T225 139T255 117T292 111Z" />
<glyph unicode="&#xf5;" glyph-name="otilde" horiz-adv-x="582" d="M291 -10Q157 -10 88 59T19 257V270Q19 338 39 389T96 474T183 525T291 542Q425 542 494 475T563 276V263Q563 194 543 143T486 58T399 7T291 -10ZM292 111Q313 111 330 118T359 141T377 185T383
254V273Q383 320 376 349T357 395T327 416T290 422Q246 422 223 391T199 279V259Q199 213 206 184T225 139T255 117T292 111ZM107 591Q111 629 122 656T150 700T187 725T228 733Q247 733 263 728T293 718T318 707T339 702Q353 702 360 710T371 732H474Q470 694
459 667T431 623T394 598T353 590Q335 590 319 595T289 605T263 616T242 621Q217 621 211 591H107Z" />
<glyph unicode="&#xf6;" glyph-name="odieresis" horiz-adv-x="582" d="M321 725H466V592H321V725ZM115 725H261V592H115V725ZM291 -10Q157 -10 88 59T19 257V270Q19 338 39 389T96 474T183 525T291 542Q425 542 494 475T563 276V263Q563 194 543 143T486 58T399
7T291 -10ZM292 111Q313 111 330 118T359 141T377 185T383 254V273Q383 320 376 349T357 395T327 416T290 422Q246 422 223 391T199 279V259Q199 213 206 184T225 139T255 117T292 111Z" />
<glyph unicode="&#xf7;" glyph-name="divide" horiz-adv-x="523" d="M31 409H492V273H31V409ZM179 227H345V75H179V227ZM179 607H345V455H179V607Z" />
<glyph unicode="&#xf8;" glyph-name="oslash" horiz-adv-x="582" d="M291 -10Q194 -10 130 28L105 0H0L70 80Q19 146 19 257V270Q19 338 39 389T96 474T183 525T291 542Q384 542 448 507L470 532H576L509 456Q563 388 563 276V263Q563 194 543 143T486 58T399
7T291 -10ZM292 105Q338 105 364 137T390 254V281Q390 292 390 301T388 320L221 131Q234 116 251 111T292 105ZM192 254Q192 244 192 235T193 218L358 405Q345 418 328 422T290 427Q244 427 218 395T192 279V254Z" />
<glyph unicode="&#xf9;" glyph-name="ugrave" horiz-adv-x="576" d="M202 -10Q125 -10 83 26T40 145V532H215V182Q215 150 229 137T279 123Q302 123 322 129T359 143V532H534V0H380L368 47H363Q328 20 291 5T202 -10ZM122 736H299L366 581H225L122 736Z" />
<glyph unicode="&#xfa;" glyph-name="uacute" horiz-adv-x="576" d="M281 736H459L355 581H214L281 736ZM202 -10Q125 -10 83 26T40 145V532H215V182Q215 150 229 137T279 123Q302 123 322 129T359 143V532H534V0H380L368 47H363Q328 20 291 5T202 -10Z" />
<glyph unicode="&#xfb;" glyph-name="ucircumflex" horiz-adv-x="576" d="M218 736H361L465 581H340L289 638L240 581H114L218 736ZM202 -10Q125 -10 83 26T40 145V532H215V182Q215 150 229 137T279 123Q302 123 322 129T359 143V532H534V0H380L368 47H363Q328
20 291 5T202 -10Z" />
<glyph unicode="&#xfc;" glyph-name="udieresis" horiz-adv-x="576" d="M320 725H465V592H320V725ZM114 725H260V592H114V725ZM202 -10Q125 -10 83 26T40 145V532H215V182Q215 150 229 137T279 123Q302 123 322 129T359 143V532H534V0H380L368 47H363Q328 20 291
5T202 -10Z" />
<glyph unicode="&#xfd;" glyph-name="yacute" horiz-adv-x="558" d="M144 -198Q117 -198 87 -194T42 -182V-66Q56 -68 70 -70T98 -72Q135 -72 155 -60T186 -20L198 12L1 532H184L288 214H291L391 532H556L351 -51Q324 -130 277 -164T144 -198ZM276 736H454L350
581H209L276 736Z" />
<glyph unicode="&#xfe;" glyph-name="thorn" horiz-adv-x="591" d="M42 739H217V491H222Q248 514 284 528T368 542Q408 542 444 530T509 487T553 408T570 286V274Q570 195 552 141T502 54T424 5T324 -10Q284 -10 258 -4T217 10V-195H42V739ZM290 111Q314 111 332
117T363 140T383 184T390 255V271Q390 313 384 339T365 381T335 401T295 407Q270 407 249 401T217 387V130Q228 122 247 117T290 111Z" />
<glyph unicode="&#xff;" glyph-name="ydieresis" horiz-adv-x="558" d="M144 -198Q117 -198 87 -194T42 -182V-66Q56 -68 70 -70T98 -72Q135 -72 155 -60T186 -20L198 12L1 532H184L288 214H291L391 532H556L351 -51Q324 -130 277 -164T144 -198ZM319 725H464V592H319V725ZM113
725H259V592H113V725Z" />
<glyph unicode="&#x100;" glyph-name="Amacron" horiz-adv-x="690" d="M243 693H450L690 0H492L446 137H218L175 0H0L243 693ZM256 262H407L333 492H329L256 262ZM196 847H492V732H196V847Z" />
<glyph unicode="&#x101;" glyph-name="amacron" horiz-adv-x="521" d="M183 -10Q109 -10 63 27T17 141Q17 183 31 212T70 260T130 290T210 307L307 320V343Q307 385 284 398T203 411Q163 411 127 407T62 395V511Q143 542 270 542Q319 542 358 534T425 506T467
455T482 379V0H336L324 41H318Q301 17 267 4T183 -10ZM243 101Q263 101 280 107T307 122V225L245 219Q213 217 199 203T185 159Q185 126 201 114T243 101ZM125 709H409V594H125V709Z" />
<glyph unicode="&#x102;" glyph-name="Abreve" horiz-adv-x="690" d="M243 693H450L690 0H492L446 137H218L175 0H0L243 693ZM256 262H407L333 492H329L256 262ZM344 726Q271 726 229 764T184 865H297Q299 845 310 834T344 823Q365 823 376 834T391 865H503Q501
803 459 765T344 726Z" />
<glyph unicode="&#x103;" glyph-name="abreve" horiz-adv-x="521" d="M183 -10Q109 -10 63 27T17 141Q17 183 31 212T70 260T130 290T210 307L307 320V343Q307 385 284 398T203 411Q163 411 127 407T62 395V511Q143 542 270 542Q319 542 358 534T425 506T467 455T482
379V0H336L324 41H318Q301 17 267 4T183 -10ZM243 101Q263 101 280 107T307 122V225L245 219Q213 217 199 203T185 159Q185 126 201 114T243 101ZM268 586Q195 586 153 626T108 731H221Q223 711 234 700T268 688Q289 688 300 699T315 731H427Q425 667 383 627T268
586Z" />
<glyph unicode="&#x104;" glyph-name="Aogonek" horiz-adv-x="690" d="M599 -199Q542 -199 511 -175T480 -112Q480 -93 487 -76T506 -45T533 -20T564 0H492L446 137H218L175 0H0L243 693H450L688 5Q616 -37 616 -73Q616 -90 626 -96T652 -102Q660 -102 667 -101T679
-99V-186Q666 -191 646 -195T599 -199ZM256 262H407L333 492H329L256 262Z" />
<glyph unicode="&#x105;" glyph-name="aogonek" horiz-adv-x="521" d="M405 -199Q348 -199 317 -175T286 -112Q286 -92 293 -75T313 -44T340 -19T372 0H336L324 41H318Q301 17 267 4T183 -10Q109 -10 63 27T17 141Q17 183 31 212T70 260T130 290T210 307L307 320V343Q307
385 284 398T203 411Q163 411 127 407T62 395V511Q143 542 270 542Q319 542 358 534T425 506T467 455T482 379V3Q453 -17 438 -36T422 -73Q422 -90 432 -96T458 -102Q466 -102 473 -101T485 -99V-186Q472 -191 452 -195T405 -199ZM243 101Q263 101 280 107T307
122V225L245 219Q213 217 199 203T185 159Q185 126 201 114T243 101Z" />
<glyph unicode="&#x106;" glyph-name="Cacute" horiz-adv-x="576" d="M359 -12Q201 -12 113 72T24 333V357Q24 452 50 518T123 625T232 686T367 705Q432 705 475 697T548 675V534Q516 545 484 551T406 558Q321 558 276 515T231 371V340Q231 240 269 188T404 135Q457
135 492 144T554 164V25Q519 9 473 -1T359 -12ZM327 870H505L409 729H268L327 870Z" />
<glyph unicode="&#x107;" glyph-name="cacute" horiz-adv-x="468" d="M257 736H435L331 581H190L257 736ZM287 -10Q156 -10 88 57T19 256V269Q19 337 38 388T94 473T181 525T295 542Q350 542 384 535T444 515V388Q418 398 393 404T327 410Q270 410 236 380T202
282V265Q202 190 232 156T329 122Q368 122 397 130T447 146V26Q424 12 385 1T287 -10Z" />
<glyph unicode="&#x108;" glyph-name="Ccircumflex" horiz-adv-x="576" d="M276 864H418L520 729H395L346 773L298 729H173L276 864ZM359 -12Q201 -12 113 72T24 333V357Q24 452 50 518T123 625T232 686T367 705Q432 705 475 697T548 675V534Q516 545 484 551T406
558Q321 558 276 515T231 371V340Q231 240 269 188T404 135Q457 135 492 144T554 164V25Q519 9 473 -1T359 -12Z" />
<glyph unicode="&#x109;" glyph-name="ccircumflex" horiz-adv-x="468" d="M197 736H340L444 581H319L268 638L219 581H93L197 736ZM287 -10Q156 -10 88 57T19 256V269Q19 337 38 388T94 473T181 525T295 542Q350 542 384 535T444 515V388Q418 398 393 404T327
410Q270 410 236 380T202 282V265Q202 190 232 156T329 122Q368 122 397 130T447 146V26Q424 12 385 1T287 -10Z" />
<glyph unicode="&#x10a;" glyph-name="Cdotaccent" horiz-adv-x="576" d="M359 -12Q201 -12 113 72T24 333V357Q24 452 50 518T123 625T232 686T367 705Q432 705 475 697T548 675V534Q516 545 484 551T406 558Q321 558 276 515T231 371V340Q231 240 269 188T404
135Q457 135 492 144T554 164V25Q519 9 473 -1T359 -12ZM262 860H432V732H262V860Z" />
<glyph unicode="&#x10b;" glyph-name="cdotaccent" horiz-adv-x="468" d="M287 -10Q156 -10 88 57T19 256V269Q19 337 38 388T94 473T181 525T295 542Q350 542 384 535T444 515V388Q418 398 393 404T327 410Q270 410 236 380T202 282V265Q202 190 232 156T329
122Q368 122 397 130T447 146V26Q424 12 385 1T287 -10ZM180 726H357V592H180V726Z" />
<glyph unicode="&#x10c;" glyph-name="Ccaron" horiz-adv-x="576" d="M415 729H273L170 864H295L344 820L392 864H517L415 729ZM359 -12Q201 -12 113 72T24 333V357Q24 452 50 518T123 625T232 686T367 705Q432 705 475 697T548 675V534Q516 545 484 551T406 558Q321
558 276 515T231 371V340Q231 240 269 188T404 135Q457 135 492 144T554 164V25Q519 9 473 -1T359 -12Z" />
<glyph unicode="&#x10d;" glyph-name="ccaron" horiz-adv-x="468" d="M340 581H197L93 736H219L269 679L319 736H444L340 581ZM287 -10Q156 -10 88 57T19 256V269Q19 337 38 388T94 473T181 525T295 542Q350 542 384 535T444 515V388Q418 398 393 404T327 410Q270
410 236 380T202 282V265Q202 190 232 156T329 122Q368 122 397 130T447 146V26Q424 12 385 1T287 -10Z" />
<glyph unicode="&#x10e;" glyph-name="Dcaron" horiz-adv-x="689" d="M399 729H257L154 864H279L328 820L376 864H501L399 729ZM52 693H319Q400 693 464 675T573 618T641 516T665 363V340Q665 252 642 188T574 82T465 20T320 0H52V693ZM316 137Q352 137 379 147T424
179T451 239T460 331V366Q460 421 450 458T421 516T375 547T311 556H247V137H316Z" />
<glyph unicode="&#x10f;" glyph-name="dcaron" horiz-adv-x="591" d="M586 575L593 739H714L682 575H586ZM232 -10Q190 -10 152 4T85 50T38 131T21 252V264Q21 339 39 392T89 478T165 526T263 542Q305 542 332 535T374 519V739H549V0H398L386 41H381Q327 -10 232
-10ZM299 118Q324 118 343 125T374 142V403Q363 411 345 416T301 422Q278 422 260 415T228 392T209 347T202 276V259Q202 217 209 190T228 147T259 125T299 118Z" />
<glyph unicode="&#x110;" glyph-name="Dcroat" horiz-adv-x="692" d="M5 413H55V693H322Q403 693 467 675T576 618T644 516T668 363V340Q668 252 645 188T577 82T468 20T323 0H55V281H5V413ZM322 137Q358 137 385 147T430 179T457 239T466 331V366Q466 421 456
458T427 516T381 547T317 556H248V413H373V281H248V137H322Z" />
<glyph unicode="&#x111;" glyph-name="dcroat" horiz-adv-x="591" d="M240 670H374V739H549V670H603V590H549V0H398L386 41H381Q327 -10 232 -10Q190 -10 152 4T85 50T38 131T21 252V264Q21 339 39 392T89 478T165 526T263 542Q305 542 332 535T374 519V590H240V670ZM299
118Q324 118 343 125T374 142V403Q363 411 345 416T301 422Q278 422 260 415T228 392T209 347T202 276V259Q202 217 209 190T228 147T259 125T299 118Z" />
<glyph unicode="&#x112;" glyph-name="Emacron" horiz-adv-x="573" d="M52 693H531V554H245V422H469V285H245V139H541V0H52V693ZM147 847H443V732H147V847Z" />
<glyph unicode="&#x113;" glyph-name="emacron" horiz-adv-x="546" d="M301 -10Q158 -10 89 59T19 261V274Q19 336 37 385T90 470T173 523T282 542Q349 542 395 524T471 470T513 384T527 267V221H198Q206 159 242 137T346 115Q394 115 434 124T505 147V38Q475
20 425 5T301 -10ZM282 426Q267 426 253 421T228 404T208 372T197 320H358Q358 379 339 402T282 426ZM142 709H426V594H142V709Z" />
<glyph unicode="&#x114;" glyph-name="Ebreve" horiz-adv-x="573" d="M52 693H531V554H245V422H469V285H245V139H541V0H52V693ZM297 726Q224 726 182 764T137 865H250Q252 845 263 834T297 823Q318 823 329 834T344 865H456Q454 803 412 765T297 726Z" />
<glyph unicode="&#x115;" glyph-name="ebreve" horiz-adv-x="546" d="M301 -10Q158 -10 89 59T19 261V274Q19 336 37 385T90 470T173 523T282 542Q349 542 395 524T471 470T513 384T527 267V221H198Q206 159 242 137T346 115Q394 115 434 124T505 147V38Q475 20
425 5T301 -10ZM282 426Q267 426 253 421T228 404T208 372T197 320H358Q358 379 339 402T282 426ZM282 586Q209 586 167 626T122 731H235Q237 711 248 700T282 688Q303 688 314 699T329 731H441Q439 667 397 627T282 586Z" />
<glyph unicode="&#x116;" glyph-name="Edotaccent" horiz-adv-x="573" d="M216 860H386V732H216V860ZM52 693H531V554H245V422H469V285H245V139H541V0H52V693Z" />
<glyph unicode="&#x117;" glyph-name="edotaccent" horiz-adv-x="546" d="M301 -10Q158 -10 89 59T19 261V274Q19 336 37 385T90 470T173 523T282 542Q349 542 395 524T471 470T513 384T527 267V221H198Q206 159 242 137T346 115Q394 115 434 124T505 147V38Q475
20 425 5T301 -10ZM282 426Q267 426 253 421T228 404T208 372T197 320H358Q358 379 339 402T282 426ZM196 726H373V592H196V726Z" />
<glyph unicode="&#x118;" glyph-name="Eogonek" horiz-adv-x="573" d="M52 693H531V554H245V422H469V285H245V139H541V0H494Q472 -19 457 -37T442 -73Q442 -90 452 -96T478 -102Q486 -102 493 -101T505 -99V-186Q492 -191 472 -195T425 -199Q368 -199 337 -175T305
-112Q305 -74 329 -46T383 0H52V693Z" />
<glyph unicode="&#x119;" glyph-name="eogonek" horiz-adv-x="546" d="M361 -199Q304 -199 273 -175T242 -112Q242 -75 263 -51T314 -10H301Q158 -10 89 59T19 261V274Q19 336 37 385T90 470T173 523T282 542Q349 542 395 524T471 470T513 384T527 267V221H198Q206
159 242 137T346 115Q394 115 434 124T505 147V38Q491 28 473 19T436 -1Q413 -15 396 -33T379 -73Q379 -90 389 -96T414 -102Q422 -102 429 -101T441 -99V-186Q428 -191 408 -195T361 -199ZM282 426Q267 426 253 421T228 404T208 372T197 320H358Q358 379 339 402T282
426Z" />
<glyph unicode="&#x11a;" glyph-name="Ecaron" horiz-adv-x="573" d="M369 729H227L124 864H249L298 820L346 864H471L369 729ZM52 693H531V554H245V422H469V285H245V139H541V0H52V693Z" />
<glyph unicode="&#x11b;" glyph-name="ecaron" horiz-adv-x="546" d="M354 581H211L107 736H233L283 679L333 736H458L354 581ZM301 -10Q158 -10 89 59T19 261V274Q19 336 37 385T90 470T173 523T282 542Q349 542 395 524T471 470T513 384T527 267V221H198Q206
159 242 137T346 115Q394 115 434 124T505 147V38Q475 20 425 5T301 -10ZM282 426Q267 426 253 421T228 404T208 372T197 320H358Q358 379 339 402T282 426Z" />
<glyph unicode="&#x11c;" glyph-name="Gcircumflex" horiz-adv-x="664" d="M292 864H434L536 729H411L362 773L314 729H189L292 864ZM380 -11Q297 -11 232 7T120 67T49 174T24 335V358Q24 457 53 523T132 630T247 688T385 705Q458 705 511 693T594 667V524Q565
535 522 545T412 556Q356 556 320 543T263 504T234 443T225 363V332Q225 284 231 246T253 181T299 141T374 127Q396 127 415 130T448 139V248H349V375H629V34Q609 26 582 18T523 4T454 -7T380 -11Z" />
<glyph unicode="&#x11d;" glyph-name="gcircumflex" horiz-adv-x="548" d="M200 736H343L447 581H322L271 638L222 581H96L200 736ZM257 -200Q120 -200 58 -165T-4 -73Q-4 -31 24 -6T95 33V38Q70 49 54 68T37 119Q37 152 55 179T103 229Q69 249 51 281T32 360V367Q32
454 94 498T263 542Q316 542 360 533H539V432H471Q489 408 489 371V364Q489 279 428 237T262 195Q219 195 185 202Q175 189 175 175Q175 159 184 152T216 145H367Q452 145 499 110T546 -5Q546 -49 529 -84T476 -146T386 -186T257 -200ZM256 -93Q323 -93 348 -77T373
-36Q373 -12 360 -5T305 3H192Q176 -3 166 -13T156 -43Q156 -66 176 -79T256 -93ZM263 293Q294 293 310 308T326 362V372Q326 414 310 428T262 442Q230 442 214 427T198 373V363Q198 324 214 309T263 293Z" />
<glyph unicode="&#x11e;" glyph-name="Gbreve" horiz-adv-x="664" d="M363 726Q290 726 248 764T203 865H316Q318 845 329 834T363 823Q384 823 395 834T410 865H522Q520 803 478 765T363 726ZM380 -11Q297 -11 232 7T120 67T49 174T24 335V358Q24 457 53 523T132
630T247 688T385 705Q458 705 511 693T594 667V524Q565 535 522 545T412 556Q356 556 320 543T263 504T234 443T225 363V332Q225 284 231 246T253 181T299 141T374 127Q396 127 415 130T448 139V248H349V375H629V34Q609 26 582 18T523 4T454 -7T380 -11Z" />
<glyph unicode="&#x11f;" glyph-name="gbreve" horiz-adv-x="548" d="M257 -200Q120 -200 58 -165T-4 -73Q-4 -31 24 -6T95 33V38Q70 49 54 68T37 119Q37 152 55 179T103 229Q69 249 51 281T32 360V367Q32 454 94 498T263 542Q316 542 360 533H539V432H471Q489
408 489 371V364Q489 279 428 237T262 195Q219 195 185 202Q175 189 175 175Q175 159 184 152T216 145H367Q452 145 499 110T546 -5Q546 -49 529 -84T476 -146T386 -186T257 -200ZM256 -93Q323 -93 348 -77T373 -36Q373 -12 360 -5T305 3H192Q176 -3 166 -13T156
-43Q156 -66 176 -79T256 -93ZM263 293Q294 293 310 308T326 362V372Q326 414 310 428T262 442Q230 442 214 427T198 373V363Q198 324 214 309T263 293ZM276 586Q203 586 161 626T116 731H229Q231 711 242 700T276 688Q297 688 308 699T323 731H435Q433 667 391
627T276 586Z" />
<glyph unicode="&#x120;" glyph-name="Gdotaccent" horiz-adv-x="664" d="M278 860H448V732H278V860ZM380 -11Q297 -11 232 7T120 67T49 174T24 335V358Q24 457 53 523T132 630T247 688T385 705Q458 705 511 693T594 667V524Q565 535 522 545T412 556Q356 556
320 543T263 504T234 443T225 363V332Q225 284 231 246T253 181T299 141T374 127Q396 127 415 130T448 139V248H349V375H629V34Q609 26 582 18T523 4T454 -7T380 -11Z" />
<glyph unicode="&#x121;" glyph-name="gdotaccent" horiz-adv-x="548" d="M257 -200Q120 -200 58 -165T-4 -73Q-4 -31 24 -6T95 33V38Q70 49 54 68T37 119Q37 152 55 179T103 229Q69 249 51 281T32 360V367Q32 454 94 498T263 542Q316 542 360 533H539V432H471Q489
408 489 371V364Q489 279 428 237T262 195Q219 195 185 202Q175 189 175 175Q175 159 184 152T216 145H367Q452 145 499 110T546 -5Q546 -49 529 -84T476 -146T386 -186T257 -200ZM256 -93Q323 -93 348 -77T373 -36Q373 -12 360 -5T305 3H192Q176 -3 166 -13T156
-43Q156 -66 176 -79T256 -93ZM263 293Q294 293 310 308T326 362V372Q326 414 310 428T262 442Q230 442 214 427T198 373V363Q198 324 214 309T263 293ZM184 726H361V592H184V726Z" />
<glyph unicode="&#x122;" glyph-name="Gcommaaccent" horiz-adv-x="664" d="M290 -35H447L399 -182H280L290 -35ZM380 -11Q297 -11 232 7T120 67T49 174T24 335V358Q24 457 53 523T132 630T247 688T385 705Q458 705 511 693T594 667V524Q565 535 522 545T412 556Q356
556 320 543T263 504T234 443T225 363V332Q225 284 231 246T253 181T299 141T374 127Q396 127 415 130T448 139V248H349V375H629V34Q609 26 582 18T523 4T454 -7T380 -11Z" />
<glyph unicode="&#x123;" glyph-name="gcommaaccent" horiz-adv-x="548" d="M344 589H187L235 735H355L344 589ZM257 -200Q120 -200 58 -165T-4 -73Q-4 -31 24 -6T95 33V38Q70 49 54 68T37 119Q37 152 55 179T103 229Q69 249 51 281T32 360V367Q32 454 94 498T263
542Q316 542 360 533H539V432H471Q489 408 489 371V364Q489 279 428 237T262 195Q219 195 185 202Q175 189 175 175Q175 159 184 152T216 145H367Q452 145 499 110T546 -5Q546 -49 529 -84T476 -146T386 -186T257 -200ZM256 -93Q323 -93 348 -77T373 -36Q373 -12
360 -5T305 3H192Q176 -3 166 -13T156 -43Q156 -66 176 -79T256 -93ZM263 293Q294 293 310 308T326 362V372Q326 414 310 428T262 442Q230 442 214 427T198 373V363Q198 324 214 309T263 293Z" />
<glyph unicode="&#x124;" glyph-name="Hcircumflex" horiz-adv-x="712" d="M52 693H247V426H465V693H660V0H465V286H247V0H52V693ZM284 864H426L528 729H403L354 773L306 729H181L284 864Z" />
<glyph unicode="&#x125;" glyph-name="hcircumflex" horiz-adv-x="581" d="M42 739H217V489H222Q253 514 293 528T385 542Q460 542 501 509T542 396V0H367V348Q367 380 352 392T300 405Q279 405 257 400T217 387V0H42V739ZM227 911H369L471 776H346L297 820L249
776H124L227 911Z" />
<glyph unicode="&#x126;" glyph-name="Hbar" horiz-adv-x="712" d="M4 591H52V693H247V591H465V693H660V591H707V502H660V0H465V286H247V0H52V502H4V591ZM465 421V502H247V421H465Z" />
<glyph unicode="&#x127;" glyph-name="hbar" horiz-adv-x="581" d="M42 590H-11V670H42V739H217V670H352V590H217V489H222Q253 514 293 528T385 542Q460 542 501 509T542 396V0H367V348Q367 380 352 392T300 405Q279 405 257 400T217 387V0H42V590Z" />
<glyph unicode="&#x128;" glyph-name="Itilde" horiz-adv-x="306" d="M56 693H251V0H56V693ZM227 731Q231 769 242 795T270 837T307 860T348 867Q367 867 383 863T413 853T438 844T459 839Q473 839 480 846T491 866H594Q590 828 579 802T551 760T514 737T473 730Q455
730 439 734T409 744T383 753T362 758Q337 758 331 731H227Z" />
<glyph unicode="&#x129;" glyph-name="itilde" horiz-adv-x="265" d="M-39 591Q-36 629 -25 656T1 700T36 725T74 733Q92 733 106 729T134 718T157 708T176 703Q188 703 194 710T203 732H303Q300 694 289 667T263 623T228 598T190 590Q172 590 157 594T130 605T107
615T88 620Q76 620 70 613T61 591H-39ZM45 532H220V0H45V532Z" />
<glyph unicode="&#x12a;" glyph-name="Imacron" horiz-adv-x="306" d="M56 693H251V0H56V693ZM15 847H291V732H15V847Z" />
<glyph unicode="&#x12b;" glyph-name="imacron" horiz-adv-x="265" d="M7 709H258V594H7V709ZM45 532H220V0H45V532Z" />
<glyph unicode="&#x12c;" glyph-name="Ibreve" horiz-adv-x="306" d="M56 693H251V0H56V693ZM411 726Q338 726 296 764T251 865H364Q366 845 377 834T411 823Q432 823 443 834T458 865H570Q568 803 526 765T411 726Z" />
<glyph unicode="&#x12d;" glyph-name="ibreve" horiz-adv-x="265" d="M45 532H220V0H45V532ZM132 586Q59 586 20 626T-21 731H88Q90 711 101 700T132 688Q152 688 163 699T176 731H285Q283 667 244 627T132 586Z" />
<glyph unicode="&#x12e;" glyph-name="Iogonek" horiz-adv-x="306" d="M50 -112Q50 -74 73 -46T125 0H56V693H251V3Q219 -15 203 -35T187 -73Q187 -89 196 -95T222 -102Q231 -102 237 -101T249 -99V-186Q236 -191 216 -195T169 -199Q111 -199 81 -175T50 -112Z" />
<glyph unicode="&#x12f;" glyph-name="iogonek" horiz-adv-x="265" d="M25 -111Q25 -74 47 -46T98 0H45V532H220V3Q192 -15 177 -34T161 -73Q161 -89 171 -95T196 -102Q204 -102 211 -101T223 -99V-186Q210 -191 190 -195T143 -199Q86 -199 56 -175T25 -111ZM44
726H221V592H44V726Z" />
<glyph unicode="&#x130;" glyph-name="Idotaccent" horiz-adv-x="306" d="M56 693H251V0H56V693ZM326 860H496V732H326V860Z" />
<glyph unicode="&#x131;" glyph-name="dotlessi" horiz-adv-x="265" d="M45 532H220V0H45V532Z" />
<glyph unicode="&#x132;" glyph-name="IJ" horiz-adv-x="721" d="M56 693H251V0H56V693ZM305 153Q321 148 341 145T382 142Q427 142 453 161T479 229V693H674V203Q674 157 660 118T619 51T549 8T450 -8Q396 -8 363 0T306 19L305 153Z" />
<glyph unicode="&#x133;" glyph-name="ij" horiz-adv-x="530" d="M45 532H220V0H45V532ZM44 726H221V592H44V726ZM296 -198Q263 -198 238 -193T198 -180V-69Q206 -71 216 -72T238 -73Q273 -73 291 -58T310 -9V532H485V-26Q485 -64 475 -96T443 -150T384 -185T296
-198ZM309 726H486V592H309V726Z" />
<glyph unicode="&#x134;" glyph-name="Jcircumflex" horiz-adv-x="447" d="M233 864H375L477 729H352L303 773L255 729H130L233 864ZM172 -8Q114 -8 79 1T18 24V155Q35 150 57 146T105 142Q150 142 177 161T205 229V693H400V203Q400 157 386 118T344 51T272 8T172 -8Z" />
<glyph unicode="&#x135;" glyph-name="jcircumflex" horiz-adv-x="265" d="M61 736H204L297 581H173L132 638L92 581H-31L61 736ZM31 -198Q-2 -198 -27 -193T-67 -180V-69Q-59 -71 -49 -72T-27 -73Q8 -73 26 -58T45 -9V532H220V-26Q220 -64 210 -96T178 -150T119
-185T31 -198Z" />
<glyph unicode="&#x136;" glyph-name="Kcommaaccent" horiz-adv-x="674" d="M265 -35H422L374 -182H255L265 -35ZM52 693H247V375L464 693H660L433 366L675 0H458L247 318V0H52V693Z" />
<glyph unicode="&#x137;" glyph-name="kcommaaccent" horiz-adv-x="558" d="M211 -35H368L320 -182H201L211 -35ZM217 246V0H42V739H217V308L370 532H545L374 288L554 0H368L217 246Z" />
<glyph unicode="&#x139;" glyph-name="Lacute" horiz-adv-x="530" d="M387 870H565L469 729H328L387 870ZM52 693H247V139H510V0H52V693Z" />
<glyph unicode="&#x13a;" glyph-name="lacute" horiz-adv-x="265" d="M372 917H550L454 776H313L372 917ZM45 739H220V0H45V739Z" />
<glyph unicode="&#x13b;" glyph-name="Lcommaaccent" horiz-adv-x="530" d="M209 -35H366L318 -182H199L209 -35ZM52 693H247V139H510V0H52V693Z" />
<glyph unicode="&#x13c;" glyph-name="lcommaaccent" horiz-adv-x="265" d="M315 -35H472L424 -182H305L315 -35ZM45 739H220V0H45V739Z" />
<glyph unicode="&#x13d;" glyph-name="Lcaron" horiz-adv-x="530" d="M52 693H247V139H510V0H52V693ZM323 506L333 693H471L437 506H323Z" />
<glyph unicode="&#x13e;" glyph-name="lcaron" horiz-adv-x="265" d="M257 575L264 739H385L353 575H257ZM45 739H220V0H45V739Z" />
<glyph unicode="&#x13f;" glyph-name="Ldot" horiz-adv-x="530" d="M52 693H247V139H510V0H52V693ZM348 439H502V299H348V439Z" />
<glyph unicode="&#x140;" glyph-name="ldot" horiz-adv-x="386" d="M45 739H220V0H45V739ZM256 420H395V293H256V420Z" />
<glyph unicode="&#x141;" glyph-name="Lslash" horiz-adv-x="540" d="M3 332L61 354V693H256V425L428 491V358L256 291V139H519V0H61V221L3 198V332Z" />
<glyph unicode="&#x142;" glyph-name="lslash" horiz-adv-x="295" d="M4 379L59 407V739H234V495L296 529V395L234 361V0H59V273L4 245V379Z" />
<glyph unicode="&#x143;" glyph-name="Nacute" horiz-adv-x="707" d="M353 870H531L435 729H294L353 870ZM52 693H262L486 305H489V693H655V0H470L222 432H218V0H52V693Z" />
<glyph unicode="&#x144;" glyph-name="nacute" horiz-adv-x="581" d="M284 736H462L358 581H217L284 736ZM42 532H211V485H216Q287 542 385 542Q460 542 501 509T542 396V0H367V348Q367 380 352 392T300 405Q279 405 257 400T217 387V0H42V532Z" />
<glyph unicode="&#x145;" glyph-name="Ncommaaccent" horiz-adv-x="707" d="M279 -34H436L388 -181H269L279 -34ZM52 693H262L486 305H489V693H655V0H470L222 432H218V0H52V693Z" />
<glyph unicode="&#x146;" glyph-name="ncommaaccent" horiz-adv-x="581" d="M219 -35H376L328 -182H209L219 -35ZM42 532H211V485H216Q287 542 385 542Q460 542 501 509T542 396V0H367V348Q367 380 352 392T300 405Q279 405 257 400T217 387V0H42V532Z" />
<glyph unicode="&#x147;" glyph-name="Ncaron" horiz-adv-x="707" d="M444 729H302L199 864H324L373 820L421 864H546L444 729ZM52 693H262L486 305H489V693H655V0H470L222 432H218V0H52V693Z" />
<glyph unicode="&#x148;" glyph-name="ncaron" horiz-adv-x="581" d="M368 581H225L121 736H247L297 679L347 736H472L368 581ZM42 532H211V485H216Q287 542 385 542Q460 542 501 509T542 396V0H367V348Q367 380 352 392T300 405Q279 405 257 400T217 387V0H42V532Z" />
<glyph unicode="&#x149;" glyph-name="napostrophe" horiz-adv-x="668" d="M215 693H378L338 474H204L215 693ZM128 532H297V485H302Q373 542 471 542Q546 542 587 509T628 396V0H453V348Q453 380 438 392T386 405Q365 405 343 400T303 387V0H128V532Z" />
<glyph unicode="&#x14a;" glyph-name="Eng" horiz-adv-x="707" d="M440 -177Q398 -177 369 -170T320 -154V-43Q333 -46 352 -49T396 -52Q466 -52 483 -12L222 432H218V0H52V693H262L486 306H489V693H655V16Q655 -28 644 -64T607 -125T540 -163T440 -177Z" />
<glyph unicode="&#x14b;" glyph-name="eng" horiz-adv-x="581" d="M258 -72Q274 -75 298 -75Q330 -75 348 -60T367 -11V348Q367 380 352 392T300 405Q279 405 257 400T217 387V0H42V532H211V485H216Q287 542 385 542Q460 542 501 509T542 396V-26Q542 -64 532
-96T500 -150T442 -185T356 -198Q321 -198 297 -194T258 -181V-72Z" />
<glyph unicode="&#x14c;" glyph-name="Omacron" horiz-adv-x="719" d="M211 847H507V732H211V847ZM357 -12Q287 -12 227 7T121 69T50 176T24 333V356Q24 449 52 515T126 623T234 685T362 705Q432 705 492 686T598 624T669 517T695 360V337Q695 244 667 178T593
70T485 8T357 -12ZM361 130Q425 130 457 177T490 325V360Q490 469 459 516T358 563Q228 563 228 369V334Q228 278 236 239T261 176T303 141T361 130Z" />
<glyph unicode="&#x14d;" glyph-name="omacron" horiz-adv-x="582" d="M149 709H433V594H149V709ZM291 -10Q157 -10 88 59T19 257V270Q19 338 39 389T96 474T183 525T291 542Q425 542 494 475T563 276V263Q563 194 543 143T486 58T399 7T291 -10ZM292 111Q313
111 330 118T359 141T377 185T383 254V273Q383 320 376 349T357 395T327 416T290 422Q246 422 223 391T199 279V259Q199 213 206 184T225 139T255 117T292 111Z" />
<glyph unicode="&#x14e;" glyph-name="Obreve" horiz-adv-x="719" d="M359 726Q286 726 244 764T199 865H312Q314 845 325 834T359 823Q380 823 391 834T406 865H518Q516 803 474 765T359 726ZM357 -12Q287 -12 227 7T121 69T50 176T24 333V356Q24 449 52 515T126
623T234 685T362 705Q432 705 492 686T598 624T669 517T695 360V337Q695 244 667 178T593 70T485 8T357 -12ZM361 130Q425 130 457 177T490 325V360Q490 469 459 516T358 563Q228 563 228 369V334Q228 278 236 239T261 176T303 141T361 130Z" />
<glyph unicode="&#x14f;" glyph-name="obreve" horiz-adv-x="582" d="M291 -10Q157 -10 88 59T19 257V270Q19 338 39 389T96 474T183 525T291 542Q425 542 494 475T563 276V263Q563 194 543 143T486 58T399 7T291 -10ZM292 111Q313 111 330 118T359 141T377 185T383
254V273Q383 320 376 349T357 395T327 416T290 422Q246 422 223 391T199 279V259Q199 213 206 184T225 139T255 117T292 111ZM291 586Q218 586 176 626T131 731H244Q246 711 257 700T291 688Q312 688 323 699T338 731H450Q448 667 406 627T291 586Z" />
<glyph unicode="&#x150;" glyph-name="Ohungarumlaut" horiz-adv-x="719" d="M429 872H587L523 729H390L429 872ZM228 872H386L322 729H189L228 872ZM357 -12Q287 -12 227 7T121 69T50 176T24 333V356Q24 449 52 515T126 623T234 685T362 705Q432 705 492 686T598
624T669 517T695 360V337Q695 244 667 178T593 70T485 8T357 -12ZM361 130Q425 130 457 177T490 325V360Q490 469 459 516T358 563Q228 563 228 369V334Q228 278 236 239T261 176T303 141T361 130Z" />
<glyph unicode="&#x151;" glyph-name="ohungarumlaut" horiz-adv-x="582" d="M367 736H525L456 581H323L367 736ZM166 736H324L255 581H122L166 736ZM291 -10Q157 -10 88 59T19 257V270Q19 338 39 389T96 474T183 525T291 542Q425 542 494 475T563 276V263Q563
194 543 143T486 58T399 7T291 -10ZM292 111Q313 111 330 118T359 141T377 185T383 254V273Q383 320 376 349T357 395T327 416T290 422Q246 422 223 391T199 279V259Q199 213 206 184T225 139T255 117T292 111Z" />
<glyph unicode="&#x152;" glyph-name="OE" horiz-adv-x="950" d="M368 0Q287 0 224 18T116 75T48 177T24 330V353Q24 441 47 505T115 611T223 673T367 693H908V554H628V422H845V285H628V139H918V0H368ZM435 137V556H371Q335 556 309 546T264 514T237 454T228 362V327Q228
271 238 235T267 177T313 146T375 137H435Z" />
<glyph unicode="&#x153;" glyph-name="oe" horiz-adv-x="909" d="M287 -10Q156 -10 88 59T19 257V270Q19 338 39 389T96 474T182 525T288 542Q356 542 402 524T477 469Q506 504 548 523T651 542Q717 542 762 524T836 470T877 384T890 267V221H561Q569 159 605
137T709 115Q757 115 797 124T868 147V38Q839 20 792 5T675 -10Q600 -10 551 10T472 68Q441 29 394 10T287 -10ZM292 111Q313 111 330 118T359 141T377 185T383 254V273Q383 320 376 349T357 395T327 416T290 422Q246 422 223 391T199 279V259Q199 213 206 184T225
139T255 117T292 111ZM646 426Q615 426 591 404T560 320H721Q721 379 703 402T646 426Z" />
<glyph unicode="&#x154;" glyph-name="Racute" horiz-adv-x="649" d="M295 870H473L377 729H236L295 870ZM52 693H344Q476 693 541 641T607 477Q607 406 577 366T492 302V298L647 0H445L318 252H247V0H52V693ZM317 369Q369 369 391 393T414 468Q414 516 391 538T315
561H245V369H317Z" />
<glyph unicode="&#x155;" glyph-name="racute" horiz-adv-x="393" d="M477 736H655L551 581H410L477 736ZM42 532H211V468H216Q237 499 271 518T348 538Q369 538 379 533V379Q371 381 358 382T334 384Q299 384 270 378T217 360V0H42V532Z" />
<glyph unicode="&#x156;" glyph-name="Rcommaaccent" horiz-adv-x="649" d="M264 -35H421L373 -182H254L264 -35ZM52 693H344Q476 693 541 641T607 477Q607 406 577 366T492 302V298L647 0H445L318 252H247V0H52V693ZM317 369Q369 369 391 393T414 468Q414 516
391 538T315 561H245V369H317Z" />
<glyph unicode="&#x157;" glyph-name="rcommaaccent" horiz-adv-x="393" d="M308 -35H465L417 -182H298L308 -35ZM42 532H211V468H216Q237 499 271 518T348 538Q369 538 379 533V379Q371 381 358 382T334 384Q299 384 270 378T217 360V0H42V532Z" />
<glyph unicode="&#x158;" glyph-name="Rcaron" horiz-adv-x="649" d="M385 729H243L140 864H265L314 820L362 864H487L385 729ZM52 693H344Q476 693 541 641T607 477Q607 406 577 366T492 302V298L647 0H445L318 252H247V0H52V693ZM317 369Q369 369 391 393T414
468Q414 516 391 538T315 561H245V369H317Z" />
<glyph unicode="&#x159;" glyph-name="rcaron" horiz-adv-x="393" d="M561 581H418L314 736H440L490 679L540 736H665L561 581ZM42 532H211V468H216Q237 499 271 518T348 538Q369 538 379 533V379Q371 381 358 382T334 384Q299 384 270 378T217 360V0H42V532Z" />
<glyph unicode="&#x15a;" glyph-name="Sacute" horiz-adv-x="547" d="M251 -12Q178 -12 120 -2T23 29V171Q69 154 118 143T228 132Q287 132 311 148T336 197Q336 227 319 240T251 263L199 273Q158 281 125 295T69 334T34 396T21 488Q21 537 36 577T84 645T164
689T279 705Q320 705 351 702T407 694T450 683T484 669V529Q448 542 403 552T297 562Q203 562 203 503Q203 475 220 462T284 440L336 430Q382 421 417 407T477 368T513 307T526 217Q526 105 457 47T251 -12ZM256 870H434L338 729H197L256 870Z" />
<glyph unicode="&#x15b;" glyph-name="sacute" horiz-adv-x="458" d="M478 736H656L552 581H411L478 736ZM207 -10Q153 -10 104 -1T22 25V143Q54 131 90 122T181 112Q229 112 250 123T271 156Q271 176 258 184T210 197L161 204Q92 214 56 253T19 370Q19 451 72
496T237 542Q295 542 335 535T406 514V397Q380 405 344 413T260 421Q183 421 183 380Q183 360 197 352T244 339L293 332Q374 321 406 279T439 168Q439 80 383 35T207 -10Z" />
<glyph unicode="&#x15c;" glyph-name="Scircumflex" horiz-adv-x="547" d="M205 864H347L449 729H324L275 773L227 729H102L205 864ZM251 -12Q178 -12 120 -2T23 29V171Q69 154 118 143T228 132Q287 132 311 148T336 197Q336 227 319 240T251 263L199 273Q158
281 125 295T69 334T34 396T21 488Q21 537 36 577T84 645T164 689T279 705Q320 705 351 702T407 694T450 683T484 669V529Q448 542 403 552T297 562Q203 562 203 503Q203 475 220 462T284 440L336 430Q382 421 417 407T477 368T513 307T526 217Q526 105 457 47T251
-12Z" />
<glyph unicode="&#x15d;" glyph-name="scircumflex" horiz-adv-x="458" d="M418 736H561L665 581H540L489 638L440 581H314L418 736ZM207 -10Q153 -10 104 -1T22 25V143Q54 131 90 122T181 112Q229 112 250 123T271 156Q271 176 258 184T210 197L161 204Q92 214
56 253T19 370Q19 451 72 496T237 542Q295 542 335 535T406 514V397Q380 405 344 413T260 421Q183 421 183 380Q183 360 197 352T244 339L293 332Q374 321 406 279T439 168Q439 80 383 35T207 -10Z" />
<glyph unicode="&#x15e;" glyph-name="Scedilla" horiz-adv-x="547" d="M167 -157Q218 -153 239 -146T261 -122Q261 -108 245 -103T191 -95V-10Q137 -6 95 3T23 29V171Q69 154 118 143T228 132Q287 132 311 148T336 197Q336 227 319 240T251 263L199 273Q158 281
125 295T69 334T34 396T21 488Q21 537 36 577T84 645T164 689T279 705Q320 705 351 702T407 694T450 683T484 669V529Q448 542 403 552T297 562Q203 562 203 503Q203 475 220 462T284 440L336 430Q382 421 417 407T477 368T513 307T526 217Q526 109 462 51T271
-12V-41Q328 -43 353 -63T379 -121Q379 -169 330 -195T167 -225V-157Z" />
<glyph unicode="&#x15f;" glyph-name="scedilla" horiz-adv-x="458" d="M131 -157Q182 -153 203 -146T225 -122Q225 -108 209 -103T155 -95V-7Q115 -3 81 5T22 25V143Q54 131 90 122T181 112Q229 112 250 123T271 156Q271 176 258 184T210 197L161 204Q92 214
56 253T19 370Q19 451 72 496T237 542Q295 542 335 535T406 514V397Q380 405 344 413T260 421Q183 421 183 380Q183 360 197 352T244 339L293 332Q374 321 406 279T439 168Q439 85 389 41T235 -9V-41Q292 -43 317 -63T343 -121Q343 -169 294 -195T131 -225V-157Z"
/>
<glyph unicode="&#x160;" glyph-name="Scaron" horiz-adv-x="547" d="M343 729H201L98 864H223L272 820L320 864H445L343 729ZM251 -12Q178 -12 120 -2T23 29V171Q69 154 118 143T228 132Q287 132 311 148T336 197Q336 227 319 240T251 263L199 273Q158 281 125
295T69 334T34 396T21 488Q21 537 36 577T84 645T164 689T279 705Q320 705 351 702T407 694T450 683T484 669V529Q448 542 403 552T297 562Q203 562 203 503Q203 475 220 462T284 440L336 430Q382 421 417 407T477 368T513 307T526 217Q526 105 457 47T251 -12Z"
/>
<glyph unicode="&#x161;" glyph-name="scaron" horiz-adv-x="458" d="M561 581H418L314 736H440L490 679L540 736H665L561 581ZM207 -10Q153 -10 104 -1T22 25V143Q54 131 90 122T181 112Q229 112 250 123T271 156Q271 176 258 184T210 197L161 204Q92 214 56
253T19 370Q19 451 72 496T237 542Q295 542 335 535T406 514V397Q380 405 344 413T260 421Q183 421 183 380Q183 360 197 352T244 339L293 332Q374 321 406 279T439 168Q439 80 383 35T207 -10Z" />
<glyph unicode="&#x162;" glyph-name="Tcommaaccent" horiz-adv-x="584" d="M211 -35H368L320 -182H201L211 -35ZM195 554H13V693H572V554H390V0H195V554Z" />
<glyph unicode="&#x163;" glyph-name="tcommaaccent" horiz-adv-x="384" d="M398 -35H555L507 -182H388L398 -35ZM246 -8Q206 -8 175 -1T121 24T88 71T76 145V410H10V532H76V658H252V532H360V410H252V170Q252 142 265 132T311 121Q325 121 338 123T363 127V14Q347
6 318 -1T246 -8Z" />
<glyph unicode="&#x164;" glyph-name="Tcaron" horiz-adv-x="584" d="M363 729H221L118 864H243L292 820L340 864H465L363 729ZM195 554H13V693H572V554H390V0H195V554Z" />
<glyph unicode="&#x165;" glyph-name="tcaron" horiz-adv-x="384" d="M294 575L301 739H422L390 575H294ZM246 -8Q206 -8 175 -1T121 24T88 71T76 145V410H10V532H76V658H252V532H360V410H252V170Q252 142 265 132T311 121Q325 121 338 123T363 127V14Q347 6 318
-1T246 -8Z" />
<glyph unicode="&#x166;" glyph-name="Tbar" horiz-adv-x="584" d="M70 413H195V554H13V693H572V554H390V413H514V313H390V0H195V313H70V413Z" />
<glyph unicode="&#x167;" glyph-name="tbar" horiz-adv-x="384" d="M10 349H76V410H10V532H76V658H252V532H360V410H252V349H360V261H252V170Q252 142 265 132T311 121Q325 121 338 123T363 127V14Q347 6 318 -1T246 -8Q206 -8 175 -1T121 24T88 71T76 145V261H10V349Z" />
<glyph unicode="&#x168;" glyph-name="Utilde" horiz-adv-x="684" d="M349 -12Q48 -12 48 248V693H243V255Q243 188 270 159T355 130Q412 130 438 159T464 256V693H637V249Q637 119 568 54T349 -12ZM169 731Q173 769 184 795T212 837T249 860T290 867Q309 867
325 863T355 853T380 844T401 839Q415 839 422 846T433 866H536Q532 828 521 802T493 760T456 737T415 730Q397 730 381 734T351 744T325 753T304 758Q279 758 273 731H169Z" />
<glyph unicode="&#x169;" glyph-name="utilde" horiz-adv-x="576" d="M202 -10Q125 -10 83 26T40 145V532H215V182Q215 150 229 137T279 123Q302 123 322 129T359 143V532H534V0H380L368 47H363Q328 20 291 5T202 -10ZM106 591Q110 629 121 656T149 700T186 725T227
733Q246 733 262 728T292 718T317 707T338 702Q352 702 359 710T370 732H473Q469 694 458 667T430 623T393 598T352 590Q334 590 318 595T288 605T262 616T241 621Q216 621 210 591H106Z" />
<glyph unicode="&#x16a;" glyph-name="Umacron" horiz-adv-x="684" d="M349 -12Q48 -12 48 248V693H243V255Q243 188 270 159T355 130Q412 130 438 159T464 256V693H637V249Q637 119 568 54T349 -12ZM205 847H501V732H205V847Z" />
<glyph unicode="&#x16b;" glyph-name="umacron" horiz-adv-x="576" d="M202 -10Q125 -10 83 26T40 145V532H215V182Q215 150 229 137T279 123Q302 123 322 129T359 143V532H534V0H380L368 47H363Q328 20 291 5T202 -10ZM148 709H432V594H148V709Z" />
<glyph unicode="&#x16c;" glyph-name="Ubreve" horiz-adv-x="684" d="M349 -12Q48 -12 48 248V693H243V255Q243 188 270 159T355 130Q412 130 438 159T464 256V693H637V249Q637 119 568 54T349 -12ZM353 726Q280 726 238 764T193 865H306Q308 845 319 834T353
823Q374 823 385 834T400 865H512Q510 803 468 765T353 726Z" />
<glyph unicode="&#x16d;" glyph-name="ubreve" horiz-adv-x="576" d="M202 -10Q125 -10 83 26T40 145V532H215V182Q215 150 229 137T279 123Q302 123 322 129T359 143V532H534V0H380L368 47H363Q328 20 291 5T202 -10ZM290 586Q217 586 175 626T130 731H243Q245
711 256 700T290 688Q311 688 322 699T337 731H449Q447 667 405 627T290 586Z" />
<glyph unicode="&#x16e;" glyph-name="Uring" horiz-adv-x="684" d="M349 -12Q48 -12 48 248V693H243V255Q243 188 270 159T355 130Q412 130 438 159T464 256V693H637V249Q637 119 568 54T349 -12ZM353 958Q326 958 304 967T266 991T242 1026T233 1069Q233 1092
241 1112T266 1147T304 1171T353 1180Q380 1180 402 1171T440 1147T464 1112T473 1069Q473 1046 465 1026T440 991T402 967T353 958ZM353 1024Q373 1024 384 1036T395 1069Q395 1089 384 1101T353 1114Q333 1114 322 1102T310 1069Q310 1049 321 1037T353 1024Z"
/>
<glyph unicode="&#x16f;" glyph-name="uring" horiz-adv-x="576" d="M290 575Q263 575 241 584T203 608T179 643T170 686Q170 709 178 729T203 764T241 788T290 797Q317 797 339 788T377 764T401 729T410 686Q410 663 402 643T377 608T339 584T290 575ZM290 641Q310
641 321 653T332 686Q332 706 321 718T290 731Q270 731 259 719T247 686Q247 666 258 654T290 641ZM202 -10Q125 -10 83 26T40 145V532H215V182Q215 150 229 137T279 123Q302 123 322 129T359 143V532H534V0H380L368 47H363Q328 20 291 5T202 -10Z" />
<glyph unicode="&#x170;" glyph-name="Uhungarumlaut" horiz-adv-x="684" d="M423 872H581L517 729H384L423 872ZM222 872H380L316 729H183L222 872ZM349 -12Q48 -12 48 248V693H243V255Q243 188 270 159T355 130Q412 130 438 159T464 256V693H637V249Q637 119
568 54T349 -12Z" />
<glyph unicode="&#x171;" glyph-name="uhungarumlaut" horiz-adv-x="576" d="M202 -10Q125 -10 83 26T40 145V532H215V182Q215 150 229 137T279 123Q302 123 322 129T359 143V532H534V0H380L368 47H363Q328 20 291 5T202 -10ZM366 736H524L455 581H322L366 736ZM165
736H323L254 581H121L165 736Z" />
<glyph unicode="&#x172;" glyph-name="Uogonek" horiz-adv-x="684" d="M376 -199Q319 -199 288 -175T257 -112Q257 -78 276 -53T321 -12Q48 0 48 248V693H243V255Q243 188 270 159T355 130Q412 130 438 159T464 256V693H637V249Q637 128 576 64Q553 39 526 26T467
-1Q436 -14 415 -31T393 -73Q393 -90 403 -96T429 -102Q437 -102 444 -101T456 -99V-186Q443 -191 423 -195T376 -199Z" />
<glyph unicode="&#x173;" glyph-name="uogonek" horiz-adv-x="576" d="M458 -199Q401 -199 370 -175T338 -112Q338 -92 345 -75T364 -45T391 -20T423 0H380L368 47H363Q328 20 291 5T202 -10Q125 -10 83 26T40 145V532H215V182Q215 150 229 137T279 123Q302 123
322 129T359 143V532H534V2Q507 -16 491 -35T475 -73Q475 -90 485 -96T511 -102Q519 -102 526 -101T538 -99V-186Q525 -191 505 -195T458 -199Z" />
<glyph unicode="&#x174;" glyph-name="Wcircumflex" horiz-adv-x="951" d="M413 864H555L657 729H532L483 773L435 729H310L413 864ZM7 693H202L293 256H297L408 693H564L674 256H678L775 693H944L778 0H583L479 427H476L368 0H172L7 693Z" />
<glyph unicode="&#x175;" glyph-name="wcircumflex" horiz-adv-x="795" d="M339 736H482L586 581H461L410 638L361 581H235L339 736ZM8 532H187L260 223H264L346 532H477L560 223H564L636 532H787L647 0H483L400 299H397L313 0H148L8 532Z" />
<glyph unicode="&#x176;" glyph-name="Ycircumflex" horiz-adv-x="636" d="M221 271L1 693H207L331 441H334L456 693H634L416 271V0H221V271ZM261 864H403L505 729H380L331 773L283 729H158L261 864Z" />
<glyph unicode="&#x177;" glyph-name="ycircumflex" horiz-adv-x="558" d="M144 -198Q117 -198 87 -194T42 -182V-66Q56 -68 70 -70T98 -72Q135 -72 155 -60T186 -20L198 12L1 532H184L288 214H291L391 532H556L351 -51Q324 -130 277 -164T144 -198ZM217 736H360L464
581H339L288 638L239 581H113L217 736Z" />
<glyph unicode="&#x178;" glyph-name="Ydieresis" horiz-adv-x="636" d="M221 271L1 693H207L331 441H334L456 693H634L416 271V0H221V271ZM364 860H510V732H364V860ZM154 860H299V732H154V860Z" />
<glyph unicode="&#x179;" glyph-name="Zacute" horiz-adv-x="580" d="M281 870H459L363 729H222L281 870ZM27 133L327 551V554H45V693H550V561L249 142V139H549V0H27V133Z" />
<glyph unicode="&#x17a;" glyph-name="zacute" horiz-adv-x="487" d="M240 736H418L314 581H173L240 736ZM22 123L252 406V409H30V532H464V419L227 126V123H461V0H22V123Z" />
<glyph unicode="&#x17b;" glyph-name="Zdotaccent" horiz-adv-x="580" d="M27 133L327 551V554H45V693H550V561L249 142V139H549V0H27V133ZM215 860H385V732H215V860Z" />
<glyph unicode="&#x17c;" glyph-name="zdotaccent" horiz-adv-x="487" d="M22 123L252 406V409H30V532H464V419L227 126V123H461V0H22V123ZM163 726H340V592H163V726Z" />
<glyph unicode="&#x17d;" glyph-name="Zcaron" horiz-adv-x="580" d="M374 729H232L129 864H254L303 820L351 864H476L374 729ZM27 133L327 551V554H45V693H550V561L249 142V139H549V0H27V133Z" />
<glyph unicode="&#x17e;" glyph-name="zcaron" horiz-adv-x="487" d="M323 581H180L76 736H202L252 679L302 736H427L323 581ZM22 123L252 406V409H30V532H464V419L227 126V123H461V0H22V123Z" />
<glyph unicode="&#x192;" glyph-name="florin" horiz-adv-x="466" d="M34 430H116L133 531Q150 631 205 675T352 719Q393 719 418 714T460 700V583Q446 586 435 587T409 589Q371 589 350 573T321 512L307 430H409V306H289L240 4Q225 -96 173 -139T26 -183Q-11
-183 -37 -176T-75 -163V-49Q-67 -51 -56 -53T-31 -55Q-2 -55 19 -40T48 13L96 306H34V430Z" />
<glyph unicode="&#x1fa;" glyph-name="Aringacute" horiz-adv-x="690" d="M243 693H450L690 0H492L446 137H218L175 0H0L243 693ZM256 262H407L333 492H329L256 262ZM331 1096H509L413 955H272L331 1096ZM346 716Q319 716 297 725T259 749T235 784T226 827Q226
850 234 870T259 905T297 929T346 938Q373 938 395 929T433 905T457 870T466 827Q466 804 458 784T433 749T395 725T346 716ZM346 782Q366 782 377 794T388 827Q388 847 377 859T346 872Q326 872 315 860T303 827Q303 807 314 795T346 782Z" />
<glyph unicode="&#x1fb;" glyph-name="aringacute" horiz-adv-x="521" d="M183 -10Q109 -10 63 27T17 141Q17 183 31 212T70 260T130 290T210 307L307 320V343Q307 385 284 398T203 411Q163 411 127 407T62 395V511Q143 542 270 542Q319 542 358 534T425 506T467
455T482 379V0H336L324 41H318Q301 17 267 4T183 -10ZM243 101Q263 101 280 107T307 122V225L245 219Q213 217 199 203T185 159Q185 126 201 114T243 101ZM265 575Q238 575 216 584T178 608T154 643T145 686Q145 709 153 729T178 764T216 788T265 797Q292 797 314
788T352 764T376 729T385 686Q385 663 377 643T352 608T314 584T265 575ZM265 641Q285 641 296 653T307 686Q307 706 296 718T265 731Q245 731 234 719T222 686Q222 666 233 654T265 641ZM246 967H424L328 826H187L246 967Z" />
<glyph unicode="&#x1fc;" glyph-name="AEacute" horiz-adv-x="951" d="M593 870H771L675 729H534L593 870ZM347 693H909V554H629V422H847V285H629V139H920V0H440V145H246L176 0H-5L347 693ZM303 270H440V547H436L303 270Z" />
<glyph unicode="&#x1fd;" glyph-name="aeacute" horiz-adv-x="827" d="M422 736H600L496 581H355L422 736ZM186 -10Q110 -10 64 27T17 141Q17 183 31 211T70 258T130 287T210 303L307 316V343Q307 385 284 398T203 411Q163 411 127 407T62 395V511Q104 527 155
534T264 542Q319 542 355 529T412 484Q438 512 476 527T570 542Q634 542 679 524T753 470T795 384T808 267V222H479Q487 159 523 137T627 115Q675 115 715 124T786 147V38Q756 20 706 5T582 -10Q508 -10 456 8T368 63Q334 25 290 8T186 -10ZM323 137Q308 176 305
227L245 223Q213 221 199 206T185 160Q185 126 201 114T243 101Q268 101 287 110T323 137ZM563 426Q548 426 534 421T509 404T489 372T478 320H639Q639 378 620 402T563 426Z" />
<glyph unicode="&#x1fe;" glyph-name="Oslashacute" horiz-adv-x="719" d="M357 -12Q300 -12 250 1T157 41L122 0H2L90 104Q58 146 41 202T24 333V356Q24 449 52 515T126 623T234 685T362 705Q417 705 466 693T557 654L590 693H710L625 593Q658 551 676 494T695
360V337Q695 244 667 178T593 70T485 8T357 -12ZM361 126Q428 126 463 174T498 324V367Q498 387 497 404T493 438L261 164Q278 144 303 135T361 126ZM221 329Q221 292 224 262L454 533Q420 567 358 567Q291 567 256 519T221 369V329ZM337 870H515L419 729H278L337
870Z" />
<glyph unicode="&#x1ff;" glyph-name="oslashacute" horiz-adv-x="582" d="M291 -10Q194 -10 130 28L105 0H0L70 80Q19 146 19 257V270Q19 338 39 389T96 474T183 525T291 542Q384 542 448 507L470 532H576L509 456Q563 388 563 276V263Q563 194 543 143T486 58T399
7T291 -10ZM292 105Q338 105 364 137T390 254V281Q390 292 390 301T388 320L221 131Q234 116 251 111T292 105ZM192 254Q192 244 192 235T193 218L358 405Q345 418 328 422T290 427Q244 427 218 395T192 279V254ZM278 736H456L352 581H211L278 736Z" />
<glyph unicode="&#x218;" glyph-name="Scommaaccent" horiz-adv-x="547" d="M185 -35H342L294 -182H175L185 -35ZM251 -12Q178 -12 120 -2T23 29V171Q69 154 118 143T228 132Q287 132 311 148T336 197Q336 227 319 240T251 263L199 273Q158 281 125 295T69 334T34
396T21 488Q21 537 36 577T84 645T164 689T279 705Q320 705 351 702T407 694T450 683T484 669V529Q448 542 403 552T297 562Q203 562 203 503Q203 475 220 462T284 440L336 430Q382 421 417 407T477 368T513 307T526 217Q526 105 457 47T251 -12Z" />
<glyph unicode="&#x219;" glyph-name="scommaaccent" horiz-adv-x="458" d="M403 -35H560L512 -182H393L403 -35ZM207 -10Q153 -10 104 -1T22 25V143Q54 131 90 122T181 112Q229 112 250 123T271 156Q271 176 258 184T210 197L161 204Q92 214 56 253T19 370Q19
451 72 496T237 542Q295 542 335 535T406 514V397Q380 405 344 413T260 421Q183 421 183 380Q183 360 197 352T244 339L293 332Q374 321 406 279T439 168Q439 80 383 35T207 -10Z" />
<glyph unicode="&#x21a;" glyph-name="uni021A" horiz-adv-x="584" d="M211 -35H368L320 -182H201L211 -35ZM195 554H13V693H572V554H390V0H195V554Z" />
<glyph unicode="&#x21b;" glyph-name="uni021B" horiz-adv-x="384" d="M398 -35H555L507 -182H388L398 -35ZM246 -8Q206 -8 175 -1T121 24T88 71T76 145V410H10V532H76V658H252V532H360V410H252V170Q252 142 265 132T311 121Q325 121 338 123T363 127V14Q347 6
318 -1T246 -8Z" />
<glyph unicode="&#x237;" glyph-name="uni0237" horiz-adv-x="265" d="M31 -198Q-2 -198 -27 -193T-67 -180V-69Q-59 -71 -49 -72T-27 -73Q8 -73 26 -58T45 -9V532H220V-26Q220 -64 210 -96T178 -150T119 -185T31 -198Z" />
<glyph unicode="&#x2c6;" glyph-name="circumflex" horiz-adv-x="498" d="M177 736H320L424 581H299L248 638L199 581H73L177 736Z" />
<glyph unicode="&#x2c7;" glyph-name="caron" horiz-adv-x="498" d="M320 581H177L73 736H199L249 679L299 736H424L320 581Z" />
<glyph unicode="&#x2d8;" glyph-name="breve" horiz-adv-x="498" d="M249 586Q176 586 134 626T89 731H202Q204 711 215 700T249 688Q270 688 281 699T296 731H408Q406 667 364 627T249 586Z" />
<glyph unicode="&#x2d9;" glyph-name="dotaccent" horiz-adv-x="498" d="M159 726H336V592H159V726Z" />
<glyph unicode="&#x2da;" glyph-name="ring" horiz-adv-x="498" d="M249 575Q222 575 200 584T162 608T138 643T129 686Q129 709 137 729T162 764T200 788T249 797Q276 797 298 788T336 764T360 729T369 686Q369 663 361 643T336 608T298 584T249 575ZM249 641Q269
641 280 653T291 686Q291 706 280 718T249 731Q229 731 218 719T206 686Q206 666 217 654T249 641Z" />
<glyph unicode="&#x2db;" glyph-name="ogonek" horiz-adv-x="498" d="M253 -199Q195 -199 164 -175T133 -112Q133 -91 140 -74T160 -43T188 -19T220 0H322Q299 -19 285 -37T270 -73Q270 -90 280 -96T306 -102Q314 -102 321 -101T333 -99V-186Q320 -191 300 -195T253
-199Z" />
<glyph unicode="&#x2dc;" glyph-name="tilde" horiz-adv-x="498" d="M64 591Q68 629 79 656T107 700T144 725T185 733Q204 733 220 728T250 718T275 707T296 702Q310 702 317 710T328 732H431Q427 694 416 667T388 623T351 598T310 590Q292 590 276 595T246 605T220
616T199 621Q174 621 168 591H64Z" />
<glyph unicode="&#x2dd;" glyph-name="hungarumlaut" horiz-adv-x="498" d="M321 736H479L410 581H277L321 736ZM120 736H278L209 581H76L120 736Z" />
</font>
</defs>
</svg>
