<svg xmlns="http://www.w3.org/2000/svg" width="512" height="512"><rect width="512" height="512" fill="#3D3F43" rx="0" ry="0"/><path fill="#fff" d="M255.568 132.786c-.561 11.602-.842 32.103-.842 44.453V311.68c0 58.414-42.478 76.32-77.34 76.32-7.617 0-21.679-1.467-28.124-3.23-1.758-.293-1.465-31.995 0-31.995h2.636c7.032 5.577 14.648 11.448 22.852 14.97 4.394 2.055 9.96 3.524 14.353 3.524 12.598 0 17.286-6.753 17.286-23.484V131.741l-19.921-2.641c-.586 0 0-9.1.585-9.1h73.248c76.892 0 108.303 27.538 108.303 70.815 0 53.11-59.877 73.436-94.56 74.42-.982 0-1.636-10.818-.326-11.146 18.649-3.28 41.88-13.77 41.88-58.685 0-39.669-9.489-62.618-58.896-62.618zm36.378 223.475c-11.932 0-21.628-8.718-21.628-20.425s9.696-20.425 21.628-20.425c11.683 0 21.378 8.718 21.378 20.425s-9.695 20.425-21.378 20.425"/></svg>
