<svg width="32" height="32" viewBox="0 0 32 32" fill="none" xmlns="http://www.w3.org/2000/svg"><style>.fg{fill:#fff}.bg{fill:#474747}@media (prefers-color-scheme:dark){.fg{fill:#474747}.bg{fill:#fff}}</style><path class="bg" d="M0 0h32v32H0z"/><path class="fg" fill-rule="evenodd" clip-rule="evenodd" d="M7.232 25.675h.248a1.62 1.62 0 0 0 1.117-.454c.397-.402.57-1.132.57-1.636V10.897c0-1.233.82-1.56 1.167-1.56 0 0 .597 0 .597.604 0 .126-.026.377-.448.604-.124.076-.173.227-.173.352v12.739c0 1.032-.298 1.787-.794 2.29-.497.504-1.242.781-2.185.781-.323 0-.595-.201-.595-.528 0-.302.198-.504.496-.504Zm7.914-13.515c1.306-2.247 3.079-2.92 4.753-2.92 3.448 0 5.837 3.094 5.837 6.638 0 3.393-2.463 6.337-5.837 6.337-1.871 0-3.374-.524-4.753-2.67v5.365c0 1.223-.812 1.548-1.157 1.548 0 0-.591 0-.591-.6 0-.124.025-.374.444-.598.122-.075.172-.225.172-.35V10.787c0-.125-.05-.275-.172-.35-.42-.224-.444-.473-.444-.598 0-.599.591-.599.591-.599.345 0 1.157.325 1.157 1.547v1.373Zm4.729 8.908c2.881 0 4.727-2.446 4.727-5.19 0-2.696-1.797-5.49-4.727-5.49-2.93 0-4.729 2.77-4.729 5.315v.2c0 2.82 1.946 5.165 4.729 5.165ZM9.714 5.863c-.57 0-.943-.403-.943-.957 0-.529.372-.906.943-.906.546 0 .943.377.943.906 0 .554-.397.957-.943.957Z"/></svg>
