<?xml version="1.0" standalone="no"?> <!DOCTYPE svg PUBLIC "-//W3C//DTD SVG 1.0//EN" "http://www.w3.org/TR/2001/REC-SVG-20010904/DTD/svg10.dtd" > <svg xmlns="http://www.w3.org/2000/svg" width="100%" height="100%">
<defs >
<font horiz-adv-x="550" ><font-face
    font-family=""
    units-per-em="1000"
    panose-1="2 4 5 2 6 5 4 6 2 3"
    ascent="781"
    descent="-219"
    alphabetic="0" />
<missing-glyph horiz-adv-x="510" />
<glyph unicode=" " glyph-name="space" horiz-adv-x="251" />
<glyph unicode="!" glyph-name="exclam" horiz-adv-x="281" d="M75 623Q73 643 77 658T91 682T113 697T140 702Q167 702 188 683T205 623L158 209H122L75 623ZM140 -6Q110 -6 89 14T68 64Q68 93 89 114T140 135Q171 135 192 114T213 64Q213 35 192 15T140 -6Z" />
<glyph unicode="&quot;" glyph-name="quotedbl" horiz-adv-x="350" d="M43 631Q40 651 43 665T54 687T73 700T96 704Q107 704 118 700T137 688T148 665T148 631L111 434H81L43 631ZM202 631Q199 651 202 665T213 687T232 700T255 704Q266 704 277 700T296 688T307
665T307 631L270 434H240L202 631Z" />
<glyph unicode="#" glyph-name="numbersign" horiz-adv-x="543" d="M127 196H39L51 270H143L175 426H88L100 500H192L233 693H285L245 500H363L404 693H457L416 500H505L493 426H400L367 270H456L444 196H351L310 0H257L298 196H179L139 0H86L127 196ZM314 270L347
426H228L196 270H314Z" />
<glyph unicode="$" glyph-name="dollar" horiz-adv-x="512" d="M227 -12Q172 -10 133 1T68 29T30 68T17 115Q17 138 32 151T68 164Q97 164 110 151T129 90Q130 76 134 66T148 48T177 36T227 31V310Q177 332 142 353T84 400T51 454T40 519Q40 554 54 585T93 640T152
679T227 699V784H275V700Q323 698 357 688T414 662T448 628T459 591Q459 568 444 554T405 539Q373 539 363 555T348 610Q345 636 331 646T275 658V401Q328 377 365 354T427 306T462 252T473 186Q473 144 458 109T417 49T354 8T275 -12V-140H227V-12ZM382 154Q382
175 377 193T360 227T328 258T275 289V32Q334 38 358 71T382 154ZM125 551Q125 530 130 513T147 480T178 452T227 423V656Q176 649 151 621T125 551Z" />
<glyph unicode="%" glyph-name="percent" horiz-adv-x="788" d="M195 348Q168 348 140 358T88 389T49 442T34 519Q34 566 50 601T90 658T143 692T198 703Q224 703 252 693T304 661T343 607T359 529Q359 482 343 448T303 392T249 359T195 348ZM609 714H668L163
-50H104L609 714ZM590 -14Q563 -14 535 -4T483 27T444 80T429 157Q429 204 445 239T485 296T538 330T593 341Q619 341 647 331T699 299T738 245T754 167Q754 120 738 86T698 30T644 -3T590 -14ZM196 383Q233 383 253 415T274 519Q274 598 254 633T196 668Q160 668
140 636T120 530Q120 453 140 418T196 383ZM591 21Q628 21 648 53T668 157Q668 236 648 271T591 306Q555 306 535 274T515 168Q515 91 535 56T591 21Z" />
<glyph unicode="&amp;" glyph-name="ampersand" horiz-adv-x="688" d="M266 -13Q194 -13 148 5T74 51T36 113T25 179Q25 217 39 248T77 304T132 349T196 388Q165 429 152 464T138 537Q138 576 153 607T193 660T248 693T309 705Q339 705 369 697T423 672T461 630T476
569Q476 510 431 470T310 394Q345 343 389 284T481 164Q506 206 515 240T525 295Q525 316 517 324T491 336L459 342V372H663V342L632 334Q614 329 606 317T585 281Q572 253 556 215T511 129Q543 90 564 67Q572 59 581 52T604 42L651 31V0H493Q482 11 471 25T449
52Q415 25 370 6T266 -13ZM289 424Q340 453 364 483T388 563Q388 593 382 611T364 641T339 656T309 660Q268 660 247 637T226 574Q226 534 244 497T289 424ZM289 36Q334 36 366 50T418 85Q361 153 310 222T216 357Q178 326 159 289T140 199Q140 127 177 82T289
36Z" />
<glyph unicode="&apos;" glyph-name="quotesingle" horiz-adv-x="187" d="M41 631Q38 651 41 665T52 687T71 700T94 704Q105 704 116 700T135 688T146 665T146 631L109 434H79L41 631Z" />
<glyph unicode="(" glyph-name="parenleft" horiz-adv-x="329" d="M293 -141Q251 -108 208 -65T130 34T72 157T50 305Q50 378 72 444T129 565T208 666T293 745L319 717Q284 680 253 636T199 542T163 437T149 322Q149 244 162 180T199 63T253 -33T319 -113L293 -141V-141Z" />
<glyph unicode=")" glyph-name="parenright" horiz-adv-x="329" d="M36 745Q78 712 121 669T199 570T257 448T279 300Q279 226 257 161T200 39T121 -62T36 -141L10 -113Q45 -76 76 -32T130 62T166 167T180 282Q180 360 167 424T130 541T76 637T10 717L36 745V745Z" />
<glyph unicode="*" glyph-name="asterisk" horiz-adv-x="427" d="M104 374Q88 385 85 406T106 446L198 516L82 527Q53 531 44 547T41 582Q47 599 64 606T108 598L201 540L174 647Q166 678 180 691T214 704Q233 704 246 691T252 647L225 540L319 598Q345 613 362
606T386 579Q392 562 383 547T345 527L229 516L320 446Q332 437 337 427T341 406T335 388T321 374Q306 364 288 367T257 399L215 502L169 399Q156 372 138 368T104 374Z" />
<glyph unicode="+" glyph-name="plus" horiz-adv-x="469" d="M202 310H41V366H202V545H267V366H428V310H267V131H202V310Z" />
<glyph unicode="," glyph-name="comma" horiz-adv-x="311" d="M42 -133Q117 -101 144 -64T171 14Q167 10 159 7T140 3Q109 3 93 22T76 69Q76 98 97 116T150 135Q190 135 216 109T242 28Q242 1 232 -27T199 -82T140 -128T53 -161L42 -133Z" />
<glyph unicode="-" glyph-name="hyphen" horiz-adv-x="284" d="M42 328H252L243 254H33L42 328Z" />
<glyph unicode="." glyph-name="period" horiz-adv-x="297" d="M148 -6Q118 -6 97 14T76 64Q76 93 97 114T148 135Q179 135 200 114T221 64Q221 35 200 15T148 -6Z" />
<glyph unicode="/" glyph-name="slash" horiz-adv-x="386" d="M304 734H364L62 -130H3L304 734Z" />
<glyph unicode="0" glyph-name="zero" horiz-adv-x="642" d="M318 -12Q271 -12 222 7T133 67T66 175T40 335Q40 434 67 504T135 618T227 684T324 705Q371 705 420 686T509 624T576 516T602 354Q602 256 575 187T507 73T415 9T318 -12ZM321 35Q404 35 446 107T488
335Q488 501 446 580T321 659Q239 659 197 586T154 354Q154 191 196 113T321 35Z" />
<glyph unicode="1" glyph-name="one" horiz-adv-x="360" d="M38 31L96 40Q105 41 111 44T122 53T128 70T130 100V569H36V600Q71 607 96 616T142 638T179 665T214 700L240 697V100Q240 81 241 70T245 53T255 45T271 40L324 31V0H38V31Z" />
<glyph unicode="2" glyph-name="two" horiz-adv-x="517" d="M21 53Q52 78 82 104T141 156T193 206T236 250Q266 283 290 312T330 371T356 436T365 514Q365 555 355 583T327 630T287 656T241 664Q219 664 205 661T183 652T170 637T165 616Q161 583 147 565T103
546Q73 546 59 562T45 603Q45 622 58 640T97 673T161 696T251 705Q299 705 340 693T412 656T459 594T477 507Q477 452 448 399T371 294T259 192T128 92V88H359Q380 88 393 90T416 101T435 124T458 166H486L470 0H21V53Z" />
<glyph unicode="3" glyph-name="three" horiz-adv-x="529" d="M208 -12Q119 -12 68 14T16 90Q16 109 29 127T72 146Q118 146 134 100Q140 79 144 65T155 44T176 33T216 30Q254 30 281 43T325 78T350 130T358 194Q358 261 327 299T213 337H158V383H203Q275 383
307 418T339 527Q339 596 307 630T217 664Q186 664 173 656T156 613Q149 549 97 549Q68 549 55 567T41 604Q41 629 58 648T102 679T163 698T233 705Q286 705 326 692T393 657T433 604T447 539Q447 481 408 434T278 366V363Q372 353 421 309T471 190Q471 151 455
115T407 51T325 5T208 -12Z" />
<glyph unicode="4" glyph-name="four" horiz-adv-x="566" d="M248 31L294 40Q303 41 308 44T318 53T323 70T325 100V199H23V244L375 693H428V259H538L527 199H428V100Q428 81 429 70T433 53T443 45T460 40L508 31V0H248V31ZM325 259V556H322L90 261V259H325Z" />
<glyph unicode="5" glyph-name="five" horiz-adv-x="526" d="M221 -12Q182 -12 149 -6T91 13T52 45T37 89Q37 108 51 127T94 146Q120 146 136 134T159 86Q162 69 165 58T176 41T194 33T225 30Q310 30 349 73T389 195Q389 238 375 268T337 317T279 344T208 353Q171
353 140 348T89 335L82 341L121 693H385Q395 693 401 694T413 701T425 717T440 745H469L451 605H163L140 431Q157 436 178 440T237 444Q285 444 329 432T407 392T461 324T481 225Q481 170 460 126T402 52T319 5T221 -12Z" />
<glyph unicode="6" glyph-name="six" horiz-adv-x="572" d="M299 -12Q244 -12 197 8T115 68T60 164T40 294Q40 403 71 481T150 608T258 681T376 705Q408 705 436 700T484 685T517 659T529 622Q529 599 515 584T475 569Q446 569 432 583T410 626Q405 643 396 653T357
664Q326 664 293 648T230 597T180 504T155 364Q184 387 226 404T322 422Q368 422 406 408T473 366T516 299T532 210Q532 158 513 117T461 47T387 3T299 -12ZM300 35Q372 35 397 75T422 197Q422 369 291 369Q251 369 217 358T154 326Q154 320 154 318T153 315T153
311T153 301Q153 254 157 207T176 121T220 59T300 35Z" />
<glyph unicode="7" glyph-name="seven" horiz-adv-x="499" d="M117 0Q141 99 174 185T245 345T325 484T408 606H120Q106 606 98 604T83 594T70 573T55 538H25L43 693H482V643Q433 571 394 500T323 351T269 188T228 0H117V0Z" />
<glyph unicode="8" glyph-name="eight" horiz-adv-x="549" d="M274 -13Q232 -13 189 -3T112 29T55 84T33 165Q33 194 45 221T78 271T127 316T187 354V357Q129 389 97 428T64 523Q64 561 80 594T125 652T193 691T278 705Q317 705 355 695T422 665T469 615T487 546Q487
519 477 495T448 450T405 409T353 373V370Q390 349 419 330T469 289T501 242T512 185Q512 146 495 110T446 47T371 3T274 -13ZM322 393Q335 406 349 421T374 454T392 494T400 543Q400 603 367 631T274 659Q216 659 183 630T150 555Q150 528 165 506T205 463T261
426T322 393ZM280 34Q348 34 384 67T421 153Q421 183 404 207T358 253T293 295T217 336Q203 324 187 309T156 274T133 230T124 174Q124 103 167 69T280 34Z" />
<glyph unicode="9" glyph-name="nine" horiz-adv-x="572" d="M273 704Q328 704 375 684T457 624T512 528T532 398Q532 289 505 211T433 84T330 11T207 -13Q175 -13 147 -8T98 7T65 33T53 70Q53 93 67 108T108 123Q137 123 151 109T173 66Q178 49 186 39T226 28Q264
28 297 44T355 95T397 188T417 328Q388 305 346 288T249 270Q203 270 165 284T99 326T56 393T40 483Q40 535 59 576T111 645T185 689T273 704ZM272 657Q200 657 175 617T150 496Q150 323 281 323Q321 323 355 334T418 366Q418 372 418 374T419 377T419 381T419
391Q419 438 415 485T396 571T352 633T272 657Z" />
<glyph unicode=":" glyph-name="colon" horiz-adv-x="306" d="M153 324Q123 324 102 344T81 394Q81 423 102 443T153 464Q183 464 204 444T225 394Q225 365 204 345T153 324ZM153 -6Q123 -6 102 14T81 64Q81 93 102 114T153 135Q183 135 204 114T225 64Q225 35
204 15T153 -6Z" />
<glyph unicode=";" glyph-name="semicolon" horiz-adv-x="307" d="M153 324Q123 324 102 344T81 394Q81 423 102 443T153 464Q183 464 204 444T225 394Q225 365 204 345T153 324ZM44 -133Q119 -101 146 -64T173 14Q169 10 161 7T142 3Q111 3 95 22T78 69Q78 98
99 116T152 135Q192 135 218 109T244 28Q244 1 234 -27T201 -82T142 -128T55 -161L44 -133Z" />
<glyph unicode="&lt;" glyph-name="less" horiz-adv-x="469" d="M45 280V346L424 516V455L100 313L424 171V109L45 280Z" />
<glyph unicode="=" glyph-name="equal" horiz-adv-x="500" d="M41 426H459V369H41V426ZM41 263H459V207H41V263Z" />
<glyph unicode="&gt;" glyph-name="greater" horiz-adv-x="469" d="M424 346V280L45 109V170L369 312L45 454V516L424 346Z" />
<glyph unicode="?" glyph-name="question" horiz-adv-x="449" d="M149 367Q179 376 208 391T261 428T300 479T315 547Q315 577 306 599T281 635T245 657T204 664Q175 664 165 657T150 623Q145 592 132 578T92 563Q63 563 51 579T39 615Q39 637 51 654T84 682T131
699T186 705Q235 705 275 693T343 658T387 598T403 514Q403 472 388 438T345 376T281 328T201 294V202H149V367ZM176 -6Q146 -6 125 14T104 64Q104 93 125 114T176 135Q207 135 228 114T249 64Q249 35 228 15T176 -6Z" />
<glyph unicode="@" glyph-name="at" horiz-adv-x="907" d="M426 -163Q339 -163 268 -136T145 -61T66 56T38 205Q38 304 75 390T177 539T326 639T507 676Q588 676 654 654T769 591T843 493T870 365Q870 273 843 211T776 110T689 56T604 39Q572 39 553 47T523 69T509
104T508 148H504Q471 92 433 67T353 41Q311 41 283 70T255 156Q255 230 280 291T344 396T426 464T509 488Q543 488 564 480T603 458H607L644 486L663 477Q658 466 653 451Q643 423 633 374L599 187Q590 135 596 113T635 91Q667 91 697 106T750 152T787 226T801
330Q801 400 783 456T729 551T637 611T507 632Q419 632 348 599T226 511T148 384T120 233Q120 155 140 91T201 -18T305 -88T454 -113Q517 -113 575 -101T698 -59V-98Q656 -122 588 -142T426 -163ZM390 102Q419 102 450 133T511 207L552 414Q547 422 537 434T502
447Q475 447 447 425T397 365T361 277T347 170Q347 131 357 117T390 102Z" />
<glyph unicode="A" glyph-name="A" horiz-adv-x="667" d="M1 31L31 38Q41 41 49 44T64 57T79 82T98 128L301 693H361L574 117Q584 92 591 78T606 55T621 44T638 38L666 31V0H415V31L443 38Q463 43 470 49T478 67Q478 78 474 92T462 126L423 233H191L155 126Q148
106 145 95T142 72Q142 56 151 49T178 38L212 31V0H1V31ZM206 278H407L307 560H302L206 278Z" />
<glyph unicode="B" glyph-name="B" horiz-adv-x="624" d="M31 31L76 40Q85 41 91 44T101 53T106 70T108 100V594Q108 613 107 624T101 641T91 649T76 654L31 663V693H306Q362 693 407 684T485 656T534 605T552 530Q552 459 508 421T382 368V364Q485 356 537 315T589
195Q589 147 571 111T518 50T437 13T331 0H31V31ZM303 382Q369 382 405 415T442 510Q442 551 434 578T407 620T362 642T297 649Q274 649 253 648T217 643V382H303ZM321 44Q391 44 432 75T473 181Q473 263 437 300T317 337H217V122Q217 96 220 81T234 57T265 47T321
44Z" />
<glyph unicode="C" glyph-name="C" horiz-adv-x="630" d="M365 -12Q294 -12 235 8T132 70T64 180T39 341Q39 441 67 510T142 623T253 685T388 705Q446 705 495 698T577 681L586 483H551Q537 521 520 558T486 622Q478 634 470 641T449 652T420 657T376 659Q322
659 281 645T212 595T170 503T155 360Q155 268 168 206T207 106T272 51T362 34Q396 34 418 38T456 49T480 67T499 91Q509 107 517 120T531 147T544 176T557 212H589L579 32Q544 15 487 2T365 -12Z" />
<glyph unicode="D" glyph-name="D" horiz-adv-x="705" d="M31 31L76 40Q85 41 91 44T101 53T106 70T108 100V594Q108 613 107 624T101 641T91 649T76 654L31 663V693H328Q400 693 462 676T570 619T642 514T669 353Q669 265 644 199T572 89T462 22T322 0H31V31ZM315
42Q385 42 431 63T505 123T544 215T555 334Q555 417 542 477T500 575T425 632T313 651Q276 651 254 649T217 642V139Q217 109 219 90T231 61T260 46T315 42Z" />
<glyph unicode="E" glyph-name="E" horiz-adv-x="617" d="M31 31L76 40Q85 41 91 44T101 53T106 70T108 100V594Q108 613 107 624T101 641T91 649T76 654L31 663V693H548L561 516H525Q509 553 498 575T477 610Q466 624 457 632T433 643T397 648T341 649Q286 649
259 647T217 640V383H261Q319 383 345 388T382 414Q390 431 395 445T407 483H442V237H407Q403 248 401 256T395 273T389 288T382 306Q377 317 370 323T350 333T316 336T261 337H217V152Q217 112 219 90T234 58T274 46T350 44Q385 44 407 45T443 49T466 60T487 81Q499
97 515 132T547 209H584L569 0H31V31Z" />
<glyph unicode="F" glyph-name="F" horiz-adv-x="587" d="M31 31L76 40Q85 41 91 44T101 53T106 70T108 100V594Q108 613 107 624T101 641T91 649T76 654L31 663V693H541L551 506H514Q497 551 486 574T464 612Q453 627 443 634T419 645T383 648T328 649Q286 649
260 647T217 642V371H239Q274 371 296 372T333 377T354 386T367 400Q377 416 383 432T396 474H430V216H396Q389 242 383 260T365 299Q360 308 354 313T335 321T299 324T239 325H217V100Q217 81 218 71T222 54T232 46T249 41L308 31V0H31V31Z" />
<glyph unicode="G" glyph-name="G" horiz-adv-x="690" d="M381 -12Q303 -12 240 9T132 73T63 183T39 341Q39 441 67 510T144 623T255 686T388 705Q457 705 503 700T588 686L602 487H566Q549 536 533 565T506 611Q497 624 490 633T470 647T437 654T382 657Q326
657 283 642T211 591T168 501T153 365Q153 278 165 216T205 114T275 56T379 37Q422 37 451 43T501 60V198Q501 217 500 227T495 244T485 252T469 257L421 267V298H676V267L641 259Q632 257 626 254T617 245T612 228T610 198V23Q570 12 512 0T381 -12Z" />
<glyph unicode="H" glyph-name="H" horiz-adv-x="741" d="M31 31L76 40Q85 41 91 44T101 53T106 70T108 100V594Q108 613 107 624T101 641T91 649T76 654L31 663V693H297V663L249 654Q239 652 233 649T223 640T218 624T217 594V376H523V594Q523 613 522 623T518
640T508 649T492 654L444 663V693H710V663L664 654Q655 652 649 650T639 641T634 624T632 594V100Q632 81 633 70T638 53T648 45T664 40L710 31V0H444V31L492 40Q502 42 508 44T517 53T522 70T523 100V330H217V100Q217 81 218 70T222 53T232 45T249 40L297 31V0H31V31Z"
/>
<glyph unicode="I" glyph-name="I" horiz-adv-x="333" d="M31 31L80 40Q89 41 95 44T105 53T110 70T112 100V594Q112 613 111 624T106 641T96 649T80 654L31 663V693H303V663L253 654Q243 652 237 650T227 641T222 624T221 594V100Q221 81 222 70T226 53T236 45T253
40L303 31V0H31V31Z" />
<glyph unicode="J" glyph-name="J" horiz-adv-x="311" d="M21 -163Q-36 -163 -65 -142T-94 -89Q-94 -69 -81 -54T-39 -39Q-8 -39 4 -54T24 -98Q29 -113 33 -117T52 -122Q78 -122 93 -102T108 -26V594Q108 613 107 623T103 640T93 649T76 654L28 663V693H295V663L249
654Q240 652 234 650T224 641T219 624T217 594V59Q217 11 205 -30T169 -100T107 -146T21 -163Z" />
<glyph unicode="K" glyph-name="K" horiz-adv-x="658" d="M494 0Q461 36 428 78T364 164T303 254T250 344V357L433 567Q453 589 461 603T469 626Q469 637 458 644T431 655L397 663V693H628V663L612 658Q599 655 589 650T568 637T544 615T513 582L338 392Q361 352
390 308T451 219T515 135T576 62Q587 50 593 47T609 41L656 31V0H494ZM31 31L76 40Q85 41 91 44T101 53T106 70T108 100V594Q108 613 107 624T101 641T91 649T76 654L31 663V693H297V663L249 654Q239 652 233 649T223 640T218 624T217 594V100Q217 81 218 70T222
53T232 45T249 40L297 31V0H31V31Z" />
<glyph unicode="L" glyph-name="L" horiz-adv-x="584" d="M31 31L76 40Q85 41 91 44T101 53T106 70T108 100V594Q108 613 107 624T101 641T91 649T76 654L31 663V693H301V663L249 653Q239 651 233 649T224 640T219 624T217 594V142Q217 107 219 88T232 59T265
47T328 44Q362 44 384 46T421 54T446 69T467 94Q478 110 495 140T527 220H565L552 0H31V31Z" />
<glyph unicode="M" glyph-name="M" horiz-adv-x="853" d="M31 31L66 38Q77 40 85 43T98 53T105 74T108 110V594Q108 613 107 624T101 641T91 649T76 654L31 663V693H248L432 165H435L613 693H822V663L776 654Q767 652 761 650T752 641T747 624T745 594V100Q745
81 746 70T751 53T761 45T776 40L822 31V0H567V31L609 40Q619 42 625 44T634 53T639 70T640 100V630H636L435 16H383L166 630H162V110Q162 87 164 74T170 54T183 43T204 38L241 31V0H31V31Z" />
<glyph unicode="N" glyph-name="N" horiz-adv-x="705" d="M166 603H162V110Q162 87 164 74T170 54T183 43T204 38L246 31V0H31V31L66 38Q77 40 85 43T98 53T105 74T108 110V594Q108 613 107 624T101 641T91 649T76 654L31 663V693H234L548 189H552V584Q552 606
550 619T544 640T531 651T510 656L463 663V693H683V663L648 656Q637 654 629 651T616 641T609 620T606 584V-4H549L166 603Z" />
<glyph unicode="O" glyph-name="O" horiz-adv-x="714" d="M352 -12Q286 -12 229 10T130 77T63 186T39 337Q39 434 66 503T138 618T241 684T362 705Q428 705 485 682T584 614T650 503T675 351Q675 254 648 185T576 73T473 9T352 -12ZM360 37Q412 37 449 53T512
105T549 197T561 334Q561 394 552 452T518 555T454 629T353 657Q301 657 264 640T202 586T165 492T153 354Q153 294 162 237T195 136T259 64T360 37Z" />
<glyph unicode="P" glyph-name="P" horiz-adv-x="593" d="M31 31L76 40Q85 41 91 44T101 53T106 70T108 100V594Q108 631 103 640T86 651L31 663V693H315Q439 693 502 640T565 492Q565 445 549 405T503 334T433 287T344 270Q313 270 296 274T273 283V313Q318 311
351 318T407 344T441 397T452 482Q452 571 419 610T309 649Q278 649 253 647T217 642V100Q217 81 218 70T222 53T231 44T249 40L308 31V0H31V31Z" />
<glyph unicode="Q" glyph-name="Q" horiz-adv-x="714" d="M606 -167Q553 -167 514 -155T430 -114Q411 -102 395 -90T362 -65T327 -38T288 -6Q232 5 186 32T108 103T57 205T39 337Q39 434 66 504T138 619T241 685T362 706Q428 706 485 683T584 614T650 503T675
351Q675 273 657 213T608 110T533 40T437 -1V-4Q457 -21 483 -39T529 -68Q571 -92 607 -102T679 -112Q702 -112 721 -106T752 -95V-121Q734 -137 700 -152T606 -167ZM360 37Q412 37 449 53T512 105T549 197T561 334Q561 394 552 452T518 556T454 630T353 658Q301
658 264 641T202 586T165 492T153 354Q153 294 162 237T195 136T259 64T360 37Z" />
<glyph unicode="R" glyph-name="R" horiz-adv-x="652" d="M31 31L76 40Q85 41 91 44T101 53T106 70T108 100V594Q108 613 107 624T101 641T91 649T76 654L31 663V693H322Q443 693 499 649T556 517Q556 461 516 414T397 344V341Q417 306 440 269T486 195T533 126T578
65Q586 54 596 49T630 37L652 31V0H500Q443 72 393 152T302 313H215V100Q215 81 216 70T221 53T231 45T249 40L297 31V0H31V31ZM275 359Q365 359 404 394T443 507Q443 553 435 581T411 624T369 644T309 649Q276 649 253 647T215 642V363Q223 362 234 361Q242 360
253 360T275 359Z" />
<glyph unicode="S" glyph-name="S" horiz-adv-x="526" d="M242 -13Q180 -13 130 -4T46 17L35 204H72Q87 169 99 142T132 86Q142 72 152 63T176 47T208 39T252 36Q286 36 312 45T357 71T384 108T394 153Q394 177 386 197T358 235T306 272T227 311Q181 332 148 352T92
397T59 450T48 517Q48 557 64 591T109 651T179 691T270 706Q328 706 368 701T435 688L448 520H412Q403 540 397 554T385 579T374 599T360 619Q346 635 326 646T263 658Q235 658 211 650T168 628T140 593T130 548Q130 526 136 509T158 476T201 445T272 410Q328 385
368 362T434 314T472 263T484 204Q484 159 469 119T424 50T348 4T242 -13Z" />
<glyph unicode="T" glyph-name="T" horiz-adv-x="619" d="M174 31L223 40Q232 42 238 44T248 53T253 70T255 100V651H248Q209 651 186 650T149 645T125 629T104 599Q89 573 80 548T58 481H21L31 693H588L598 481H561Q554 502 549 518T539 547T528 573T515 599Q504
618 495 629T471 644T433 650T371 651H364V100Q364 81 365 70T369 53T379 45T396 40L445 31V0H174V31Z" />
<glyph unicode="U" glyph-name="U" horiz-adv-x="701" d="M356 -12Q296 -12 248 1T165 44T113 117T94 225V594Q94 613 93 624T88 641T78 649T62 654L16 663V693H278V663L235 654Q224 652 218 649T209 640T204 624T203 594V215Q203 127 243 87T382 46Q473 46 513
92T554 224V584Q554 606 552 619T546 640T533 651T512 656L462 663V693H684V663L649 656Q638 654 630 651T617 641T610 620T607 584V217Q607 171 593 130T549 57T471 7T356 -12Z" />
<glyph unicode="V" glyph-name="V" horiz-adv-x="664" d="M97 564Q87 589 81 605T67 632T52 647T32 656L7 663V693H260V663L231 656Q197 647 197 622Q197 611 201 593T213 555L362 133H367L508 555Q513 571 517 589T522 618Q522 635 513 643T485 656L451 663V693H657V663L629
656Q618 653 611 648T598 632T584 603T566 553L370 0H304L97 564Z" />
<glyph unicode="W" glyph-name="W" horiz-adv-x="962" d="M99 564Q90 591 83 608T70 634T56 648T37 656L10 663V693H262V663L230 656Q198 649 198 619Q198 607 202 590T212 555L335 143H340L464 509L446 564Q437 591 430 608T417 634T402 648T383 656L356 663V693H607V663L575
656Q560 653 551 644T541 619Q541 607 545 590T554 555L688 143H693L804 555Q809 572 812 590T816 621Q816 634 809 643T785 656L751 663V693H953V663L922 656Q910 653 902 646T887 627T874 594T859 546L700 0H630L492 430H488L342 0H276L99 564Z" />
<glyph unicode="X" glyph-name="X" horiz-adv-x="680" d="M28 31L57 37Q67 39 75 43T91 57T111 81T138 119L281 336L124 584Q112 602 104 614T89 635T74 648T56 656L28 663V693H295V663L258 656Q247 654 240 647T233 628Q233 612 257 573L361 403H364L466 583Q477
600 480 611T484 631Q484 651 462 656L427 663V693H626V663L597 656Q587 653 579 649T563 635T545 612T521 575L393 368L554 116Q566 97 574 83T590 60T606 45T625 37L652 31V0H390V31L423 36Q440 38 446 44T453 61Q453 70 445 85T426 119L313 300H310L192 111Q183
96 177 84T171 64Q171 52 177 45T195 36L223 31V0H28V31Z" />
<glyph unicode="Y" glyph-name="Y" horiz-adv-x="630" d="M186 31L235 40Q244 42 250 44T259 53T264 70T266 100V280L109 567Q95 591 85 607T67 632T49 647T30 656L5 663V693H268V663L243 657Q219 652 210 644T201 621Q201 611 207 599T223 567L343 337H347L463
567Q480 602 480 621Q480 647 444 656L412 663V693H626V663L604 656Q591 652 581 647T561 630T540 601T514 553L375 288V100Q375 81 376 70T380 53T390 45T407 40L456 31V0H186V31Z" />
<glyph unicode="Z" glyph-name="Z" horiz-adv-x="571" d="M24 44L410 646V650H340Q279 650 242 649T183 644T150 630T128 606Q113 583 102 559T75 497H43L53 693H523V650L141 47V43H195Q259 43 300 44T366 50T406 63T430 85Q445 106 457 134T490 213H522L509 0H24V44Z" />
<glyph unicode="[" glyph-name="bracketleft" horiz-adv-x="360" d="M107 734H324V704L233 693Q221 691 214 689T203 680T198 661T196 630V-26Q196 -46 197 -57T202 -75T213 -85T233 -89L324 -100V-130H107V734Z" />
<glyph unicode="\" glyph-name="backslash" horiz-adv-x="386" d="M23 734H82L384 -130H324L23 734Z" />
<glyph unicode="]" glyph-name="bracketright" horiz-adv-x="360" d="M253 -130H36V-100L126 -89Q138 -88 145 -85T157 -76T162 -58T164 -26V630Q164 649 163 661T157 679T146 688T126 693L36 704V734H253V-130Z" />
<glyph unicode="^" glyph-name="asciicircum" horiz-adv-x="417" d="M51 491L191 703H226L366 491L345 472L209 602L72 472L51 491Z" />
<glyph unicode="_" glyph-name="underscore" horiz-adv-x="343" d="M-2 -124H345V-180H-2V-124Z" />
<glyph unicode="`" glyph-name="grave" horiz-adv-x="510" d="M168 657Q147 664 139 677T131 703Q131 719 143 732T172 746Q188 746 211 731L374 617L363 593L168 657Z" />
<glyph unicode="a" glyph-name="a" horiz-adv-x="510" d="M179 -13Q109 -13 68 21T27 120Q27 182 70 216T202 270L319 296V389Q319 414 316 432T304 463T275 480T224 486Q191 486 182 478T169 446Q165 417 154 398T109 379Q79 379 68 394T56 429Q56 454 73 472T119
502T180 519T245 525Q336 525 377 493T419 395V100Q419 80 425 68T446 48Q454 43 466 42T495 39V11Q483 3 458 -4T407 -12Q369 -12 349 4T323 46H318Q300 21 262 4T179 -13ZM222 44Q258 44 283 58T319 91V245L242 237Q188 232 159 208T129 128Q129 84 153 64T222
44Z" />
<glyph unicode="b" glyph-name="b" horiz-adv-x="582" d="M259 -12Q201 -12 157 -4T70 25V648Q70 663 69 671T64 685T55 694T41 701L-2 721V749L167 765L177 757Q175 745 173 727Q170 697 170 640V549Q170 532 170 517T168 490Q167 477 166 465H170Q202 489 247
506T344 524Q380 524 416 513T480 473T527 398T545 279Q545 208 524 154T464 62T374 7T259 -12ZM270 33Q313 33 345 45T398 84T429 154T440 259Q440 362 401 411T296 461Q244 461 216 450T170 427V67Q191 49 214 41T270 33Z" />
<glyph unicode="c" glyph-name="c" horiz-adv-x="486" d="M270 -12Q212 -12 168 7T94 61T49 143T34 248Q34 329 61 382T130 467T222 512T319 525Q391 525 425 502T460 441Q460 418 444 397T401 376Q372 376 361 390T345 430Q340 464 330 473T293 482Q262 482 234
472T185 437T152 376T140 284Q140 171 183 112T312 52Q363 52 402 66T466 95V55Q454 45 436 33T392 11T336 -5T270 -12Z" />
<glyph unicode="d" glyph-name="d" horiz-adv-x="597" d="M239 -12Q203 -12 167 0T103 42T56 119T38 239Q38 312 61 365T124 454T215 507T320 524Q352 524 376 521T415 512Q414 523 413 536Q412 547 412 560T412 588V648Q412 663 411 671T406 685T397 694T382
701L340 721V749L508 765L518 757Q516 745 515 727Q512 697 512 640V115Q512 98 513 88T518 72T527 61T542 53L579 36V9L420 -12L413 -6L418 47H414Q382 23 336 6T239 -12ZM294 56Q340 56 367 68T412 89V438Q395 454 372 467T313 480Q274 480 243 468T189 430T155
362T143 259Q143 151 182 104T294 56Z" />
<glyph unicode="e" glyph-name="e" horiz-adv-x="519" d="M281 -12Q219 -12 173 7T95 63T49 149T34 260Q34 320 54 369T108 452T186 506T281 525Q329 525 366 512T430 468T471 389T485 270H140Q141 213 154 172T190 104T244 65T314 52Q372 52 409 66T475 94V54Q465
46 447 35T404 13T348 -5T281 -12ZM277 483Q222 483 185 442T141 312L373 324Q373 367 369 397T354 447T325 474T277 483Z" />
<glyph unicode="f" glyph-name="f" horiz-adv-x="319" d="M25 30L66 41Q81 45 87 54T93 93V456H22V486L93 510V565Q93 611 109 648T156 712T227 753T317 767Q365 767 387 750T410 704Q410 687 398 671T361 655Q332 655 317 669T299 705Q297 720 294 725T279 730Q264
730 249 725T222 706T201 671T193 618V509H310L295 456H193V98Q193 63 198 54T219 41L273 30V0H25V30Z" />
<glyph unicode="g" glyph-name="g" horiz-adv-x="508" d="M210 -224Q108 -224 51 -191T-7 -104Q-7 -67 23 -36T108 14V18Q82 27 62 46T41 101Q41 122 48 139T67 169T92 194T118 214V218Q103 225 88 237T60 267T41 306T33 350Q33 394 50 427T96 481T160 513T231
524Q261 524 286 520T337 504Q363 526 395 542T462 558Q485 558 501 546T517 511Q517 492 506 477T475 462Q455 462 446 470T430 492Q425 503 404 498T362 481V478Q393 460 411 431T430 359Q430 315 413 283T367 230T303 199T231 189Q206 189 189 192T153 204Q141
196 130 182T118 149Q118 130 133 117T181 103H339Q371 103 398 97T444 77T473 38T484 -24Q484 -53 471 -88T426 -153T341 -203T210 -224ZM231 230Q279 230 303 256T328 347Q328 421 304 452T231 484Q184 484 160 456T135 362Q135 289 159 260T231 230ZM227 -182Q264
-182 297 -173T356 -149T395 -112T410 -65Q410 -31 392 -10T320 12H166Q154 9 140 1T114 -21T94 -51T86 -88Q86 -134 120 -158T227 -182Z" />
<glyph unicode="h" glyph-name="h" horiz-adv-x="604" d="M25 30L66 41Q81 45 87 54T93 93V648Q93 663 92 671T87 685T78 694T63 701L20 721V749L190 765L200 757Q198 742 196 724Q193 692 193 640V549Q193 532 192 516T190 488Q189 474 188 461H192Q211 473 233
484T281 504T331 518T381 524Q457 524 487 492T517 391V93Q517 64 523 55T544 41L584 30V0H350V30L391 41Q398 43 403 45T411 53T415 67T417 93V363Q417 416 398 437T330 458Q312 458 292 455T254 447T220 437T193 427V93Q193 77 194 68T198 53T206 46T219 41L260
30V0H25V30Z" />
<glyph unicode="i" glyph-name="i" horiz-adv-x="279" d="M139 614Q110 614 91 634T71 679Q71 706 90 725T139 744Q167 744 186 725T206 679Q206 654 187 634T139 614ZM25 30L66 41Q81 45 87 54T93 93V403Q93 418 92 426T88 440T78 449T63 457L25 476V502L190
523L200 517Q198 505 196 488Q193 459 193 405V93Q193 77 194 68T198 53T206 46T219 41L260 30V0H25V30Z" />
<glyph unicode="j" glyph-name="j" horiz-adv-x="271" d="M137 614Q108 614 89 634T69 679Q69 706 88 725T137 744Q165 744 184 725T204 679Q204 654 185 634T137 614ZM11 -228Q-36 -228 -59 -207T-82 -159Q-82 -139 -67 -126T-29 -112Q0 -112 10 -126T23 -157Q26
-180 30 -185T42 -191Q65 -191 79 -173T93 -127V403Q93 418 92 426T88 440T78 449T63 457L25 476V502L190 523L200 517Q198 505 196 487Q193 457 193 400V-22Q193 -79 179 -118T140 -181T82 -217T11 -228Z" />
<glyph unicode="k" glyph-name="k" horiz-adv-x="542" d="M25 30L66 41Q81 45 87 54T93 93V648Q93 663 92 671T87 685T78 694T63 701L20 721V749L190 765L200 757Q198 742 196 724Q193 692 193 640V93Q193 77 194 68T198 53T206 46T219 41L260 30V0H25V30ZM408
0Q379 31 354 61T304 121T257 184T210 252V267L313 379Q344 414 356 429T368 454Q368 469 344 476L329 481V509H516V480L485 470Q464 463 444 451T394 408L292 298Q336 233 382 173T481 58Q488 50 494 47T508 41L542 30V0H408Z" />
<glyph unicode="l" glyph-name="l" horiz-adv-x="280" d="M25 30L66 41Q81 45 87 54T93 93V648Q93 663 92 671T87 685T78 694T63 701L20 721V749L190 765L200 757Q198 742 196 724Q193 692 193 640V93Q193 77 194 68T198 53T206 46T219 41L260 30V0H25V30Z" />
<glyph unicode="m" glyph-name="m" horiz-adv-x="896" d="M25 30L66 41Q81 45 87 54T93 93V403Q93 418 92 426T88 440T78 449T63 457L25 476V502L183 523L193 515L188 461H192Q230 485 277 504T372 524Q427 524 453 507T493 459H497Q539 483 585 503T687 524Q753
524 781 491T809 390V93Q809 64 815 55T835 41L876 30V0H641V30L682 41Q690 43 695 45T703 53T707 67T709 93V362Q709 413 693 435T631 458Q594 458 559 447T501 425V93Q501 64 507 55T527 41L568 30V0H333V30L374 41Q382 43 387 45T395 53T399 67T401 93V362Q401
412 385 435T323 458Q286 458 251 447T193 427V93Q193 77 194 68T198 53T206 46T219 41L260 30V0H25V30Z" />
<glyph unicode="n" glyph-name="n" horiz-adv-x="605" d="M25 30L66 41Q81 45 87 54T93 93V403Q93 418 92 426T88 440T78 449T63 457L25 476V502L183 523L193 517L188 461H192Q211 473 233 484T281 504T331 518T381 524Q457 524 487 492T517 391V93Q517 64 523
55T544 41L584 30V0H350V30L391 41Q398 43 403 45T411 53T415 67T417 93V363Q417 416 398 437T330 458Q312 458 292 455T254 447T220 437T193 427V93Q193 77 194 68T198 53T206 46T219 41L260 30V0H25V30Z" />
<glyph unicode="o" glyph-name="o" horiz-adv-x="573" d="M287 -13Q233 -13 187 4T107 54T54 138T34 255Q34 321 55 371T111 455T192 507T287 525Q340 525 386 509T466 459T519 377T539 261Q539 195 518 144T462 58T382 5T287 -13ZM291 30Q359 30 394 82T429 247Q429
374 393 428T283 483Q215 483 180 433T144 269Q144 141 180 86T291 30Z" />
<glyph unicode="p" glyph-name="p" horiz-adv-x="605" d="M25 -190L66 -179Q82 -175 87 -166T93 -127V403Q93 418 92 426T88 440T78 449T63 457L25 476V502L183 523L193 517L189 465H193Q225 489 270 506T366 524Q402 524 438 513T502 473T549 398T567 279Q567
208 547 154T489 62T398 7T279 -12Q259 -12 235 -9T190 1Q190 -7 191 -18Q192 -27 192 -38T193 -63V-127Q193 -143 194 -152T198 -167T206 -175T219 -179L273 -190V-219H25V-190ZM291 33Q334 33 366 45T419 84T451 154T462 259Q462 362 422 411T306 461Q264 461
237 448T193 427V70Q213 52 236 43T291 33Z" />
<glyph unicode="q" glyph-name="q" horiz-adv-x="588" d="M331 -202L385 -191Q393 -190 398 -188T407 -180T411 -165T412 -139V-21Q412 -7 412 5T413 26Q414 37 415 46H411Q380 23 335 6T239 -12Q203 -12 167 0T103 42T56 119T38 239Q38 312 61 365T124 454T215
507T320 524Q369 524 399 514T456 489H460L491 527L512 522V-139Q512 -168 517 -177T538 -191L579 -202V-219H331V-202ZM294 51Q340 51 367 64T412 86V438Q395 454 372 467T313 480Q274 480 243 468T189 430T155 362T143 259Q143 150 182 101T294 51Z" />
<glyph unicode="r" glyph-name="r" horiz-adv-x="421" d="M25 30L66 41Q81 45 87 54T93 93V403Q93 418 92 426T88 440T78 449T63 457L25 476V502L183 523L193 515L188 457H192Q205 470 222 482T259 504T299 519T339 525Q370 525 387 510T405 465Q405 437 389 423T351
409Q323 409 312 416T294 441Q289 452 284 455T271 458Q263 458 253 454T231 444T210 429T193 414V93Q193 77 194 68T198 53T206 45T219 41L270 30V0H25V30Z" />
<glyph unicode="s" glyph-name="s" horiz-adv-x="425" d="M190 -12Q147 -12 108 -7T38 10L33 159H65Q78 130 86 111T113 69Q127 52 145 42T200 31Q246 31 275 52T304 113Q304 133 297 148T276 175T239 198T186 221Q153 234 126 248T80 281T49 323T38 375Q38 410
52 437T92 484T152 514T226 525Q268 525 299 521T357 507L361 373H331Q318 399 306 418T280 456Q269 470 255 476T214 483Q164 483 142 462T119 403Q119 374 146 352T236 306Q271 292 300 278T349 245T381 205T392 154Q392 119 378 89T338 36T275 1T190 -12Z" />
<glyph unicode="t" glyph-name="t" horiz-adv-x="339" d="M196 -12Q172 -12 151 -7T115 12T90 44T80 93V456H10V485Q62 499 91 535T141 632H180V509H324L311 456H180V108Q180 46 248 46Q270 46 291 50T327 60V28Q313 15 280 2T196 -12Z" />
<glyph unicode="u" glyph-name="u" horiz-adv-x="598" d="M224 -12Q161 -12 125 21T89 119V413Q89 427 88 435T84 447T76 454T62 461L21 479V506L174 523L189 513V142Q189 98 209 76T275 53Q312 53 348 65T413 90V413Q413 427 412 435T409 447T401 454T386 461L346
479V506L499 523L513 513V115Q513 98 514 88T519 72T528 61T543 53L580 36V9L424 -12L413 -4L418 56H414Q374 30 326 9T224 -12Z" />
<glyph unicode="v" glyph-name="v" horiz-adv-x="522" d="M76 405Q70 421 65 432T54 450T41 463T22 472L-2 480V509H227V480L200 473Q180 468 176 461T172 441Q172 432 176 419T186 389L287 117H291L388 389Q395 409 397 422T400 443Q400 454 395 461T374 473L346
480V509H525V480L497 472Q477 467 469 450T446 395L294 0H237L76 405Z" />
<glyph unicode="w" glyph-name="w" horiz-adv-x="790" d="M78 405Q66 438 56 451T24 472L-1 480V509H227V480L200 473Q183 468 178 461T172 441Q172 432 176 419T186 389L275 117H280L373 383L366 405Q357 434 346 450T317 472L293 480V509H506V480L478 473Q464
469 460 461T456 441Q456 432 459 419T469 389L563 117H567L654 389Q661 409 663 422T666 443Q666 454 661 461T640 473L612 480V509H790V480L762 472Q742 467 733 450T711 395L570 0H510L399 321H396L282 0H222L78 405Z" />
<glyph unicode="x" glyph-name="x" horiz-adv-x="556" d="M27 30L56 38Q83 45 101 60T143 111L234 247L119 401Q103 423 92 436T73 458T56 469T37 476L20 480V509H254V480L229 475Q216 472 212 466T207 450Q207 442 214 429T233 401L300 307H303L352 387Q366 413
374 427T382 452Q382 468 361 473L330 480V509H527V480L498 472Q483 468 473 463T453 449T434 428T412 397L327 276L451 109Q465 90 475 77T495 55T514 41T536 33L549 30V0H315V30L341 35Q356 38 360 44T365 58Q365 68 356 81T336 109L261 217H258L203 121Q188
96 180 82T172 57Q172 49 178 44T206 34L224 30V0H27V30Z" />
<glyph unicode="y" glyph-name="y" horiz-adv-x="532" d="M103 -226Q56 -226 37 -206T17 -161Q17 -138 30 -123T66 -107Q90 -107 102 -119T120 -148Q124 -159 126 -162T136 -166Q153 -166 175 -141T221 -61L245 -4L77 405Q69 425 64 436T53 455T42 465T25 472L1
480V509H229V480L202 473Q185 468 179 463T173 443Q173 425 188 389L296 121H300L398 389Q405 409 407 423T410 447Q410 460 403 464T382 473L354 480V509H535V480L507 472Q498 469 492 465T481 453T470 430T456 395L275 -59Q260 -96 244 -126T207 -179T161 -213T103
-226Z" />
<glyph unicode="z" glyph-name="z" horiz-adv-x="476" d="M25 33L335 466V470H252Q222 470 203 469T171 464T151 455T138 440Q122 417 111 396T85 342H54L61 509H454V478L142 43V39H215Q256 39 281 41T322 49T346 62T363 83Q381 109 392 131T413 179H445L433 0H25V33Z" />
<glyph unicode="{" glyph-name="braceleft" horiz-adv-x="348" d="M312 -130Q200 -126 150 -103T100 -26Q100 -6 108 29T125 102T143 173T151 221Q151 233 147 244T130 263T94 277T34 285V323Q70 324 93 330T128 346T146 366T151 390Q151 405 143 436T126 504T108
575T100 630Q100 683 150 706T312 734V704Q276 699 253 694T218 681T201 662T196 632Q196 600 200 570T211 513T221 459T226 410Q226 368 196 344T108 306V302Q170 291 198 267T226 200Q226 177 222 151T211 95T201 35T196 -28Q196 -46 200 -57T217 -76T253 -89T312
-100V-130V-130Z" />
<glyph unicode="|" glyph-name="bar" horiz-adv-x="254" d="M97 734H157V-130H97V734Z" />
<glyph unicode="}" glyph-name="braceright" horiz-adv-x="348" d="M36 734Q148 730 198 707T248 630Q248 610 240 576T223 505T205 437T197 390Q197 378 202 367T220 346T255 331T314 323V285Q277 283 254 278T219 264T202 244T197 221Q197 206 205 173T222 103T240
30T248 -26Q248 -79 198 -102T36 -130V-100Q72 -95 95 -90T130 -77T147 -58T152 -28Q152 4 148 35T137 95T127 151T122 201Q122 243 149 267T240 302V306Q186 320 154 344T122 411Q122 434 126 459T137 513T147 570T152 632Q152 650 148 661T131 680T95 693T36
704V734V734Z" />
<glyph unicode="~" glyph-name="asciitilde" horiz-adv-x="385" d="M36 237Q58 285 77 315T129 345Q147 345 165 340T202 329T237 318T268 313Q284 313 297 326T324 362L350 350Q339 326 329 307T309 273T285 250T256 242Q238 242 220 247T184 258T149 269T118
274Q103 274 89 261T61 225L36 237Z" />
<glyph unicode="&#xa0;" glyph-name="uni00A0" horiz-adv-x="251" />
<glyph unicode="&#xa1;" glyph-name="exclamdown" horiz-adv-x="281" d="M206 -6Q210 -47 190 -66T141 -85Q127 -85 115 -81T93 -66T79 -41T76 -6L123 408H159L206 -6ZM141 623Q171 623 192 603T213 553Q213 524 192 503T141 482Q110 482 89 503T68 553Q68 582
89 602T141 623Z" />
<glyph unicode="&#xa2;" glyph-name="cent" horiz-adv-x="488" d="M260 -12Q207 -11 165 8T94 61T50 141T34 243Q34 311 53 360T105 442T177 493T260 519V596H310V524Q314 524 317 524T326 525Q401 525 439 502T477 440Q477 417 463 396T420 374Q392 374 382 387T368
428Q363 459 351 469T310 482V52Q361 52 402 66T469 95V55Q449 38 408 18T310 -9V-140H260V-12ZM140 280Q140 181 170 127T260 58V478Q208 467 174 421T140 280Z" />
<glyph unicode="&#xa3;" glyph-name="sterling" horiz-adv-x="530" d="M54 379H122Q116 411 112 442T107 500Q107 546 124 584T173 649T247 690T342 705Q374 705 401 700T449 684T482 658T494 621Q494 592 478 577T441 562Q416 562 403 576T379 619Q374 635 371
644T362 657T348 663T325 664Q301 664 281 657T246 632T223 586T215 517Q215 491 216 454T219 379H391V334H221Q222 315 222 300T223 273Q223 213 194 172T114 93V88H380Q396 88 406 90T426 100T444 123T467 166H495L467 0H24V72Q55 90 77 108T114 146T136 190T143
243Q143 260 140 283T131 334H54V379Z" />
<glyph unicode="&#xa5;" glyph-name="yen" horiz-adv-x="591" d="M62 347H223L100 567Q74 613 60 632T27 656L2 663V693H263V663L235 657Q210 652 203 644T196 621Q196 604 216 567L324 360H328L426 567Q435 587 439 599T444 622Q444 636 435 643T404 656L380
663V693H578V663L556 656Q545 653 537 647T520 630T501 600T476 553L371 347H536V302H354V207H536V162H354V100Q354 81 355 70T359 53T369 45T385 40L434 31V0H164V31L213 40Q222 42 228 44T238 53T243 70T245 100V162H62V207H245V302H62V347Z" />
<glyph unicode="&#xa6;" glyph-name="brokenbar" horiz-adv-x="254" d="M97 734H157V328H97V734ZM97 254H157V-130H97V254Z" />
<glyph unicode="&#xa7;" glyph-name="section" horiz-adv-x="553" d="M247 -204Q174 -204 134 -179T93 -116Q93 -90 105 -76T144 -62Q169 -62 182 -74T201 -117Q203 -132 206 -141T215 -156T233 -164T263 -166Q308 -166 329 -141T351 -78Q351 -54 344 -35T319
4T272 49T199 109Q158 142 126 168T73 220T40 271T28 328Q28 375 58 411T137 476Q128 493 125 505T121 538Q121 574 134 604T172 656T233 690T314 702Q380 702 419 680T458 620Q458 595 442 582T402 568Q377 568 366 580T350 627Q347 647 337 655T297 664Q251 664
230 640T208 577Q208 552 214 533T237 493T283 449T356 389Q397 357 428 330T481 278T513 227T524 170Q524 125 498 88T424 22Q429 7 432 -7T436 -40Q436 -112 387 -158T247 -204ZM406 53Q446 81 446 139Q446 158 438 175T413 210T367 252T298 307Q250 345 212
378T151 445Q128 432 118 412T108 359Q108 339 116 323T141 288T187 246T256 191Q304 153 343 120T406 53Z" />
<glyph unicode="&#xa8;" glyph-name="dieresis" horiz-adv-x="510" d="M155 616Q128 616 109 635T89 679Q89 705 108 723T155 742Q182 742 201 724T221 679Q221 655 202 636T155 616ZM356 616Q328 616 309 635T290 679Q290 705 309 723T356 742Q383 742 402 724T421
679Q421 655 402 636T356 616Z" />
<glyph unicode="&#xa9;" glyph-name="copyright" horiz-adv-x="814" d="M406 -14Q329 -14 263 14T149 91T73 205T45 344Q45 418 72 483T148 596T263 672T406 700Q482 700 548 672T664 596T741 483T769 344Q769 270 741 205T664 91T549 14T406 -14ZM406 26Q475
26 533 51T633 119T698 220T722 344Q722 410 699 467T633 567T533 635T406 660Q337 660 279 635T180 568T116 468T93 344Q93 278 116 221T180 120T279 51T406 26ZM408 141Q368 141 333 152T272 188T230 250T215 339Q215 396 231 436T275 501T340 537T419 549Q463
549 488 545T533 535L538 422H510Q502 444 495 458T479 486Q468 503 455 507T410 512Q355 512 329 476T303 355Q303 256 332 217T417 178Q440 178 455 183T483 207Q491 221 498 236T515 275H542L535 164Q515 156 484 149T408 141Z" />
<glyph unicode="&#xaa;" glyph-name="ordfeminine" horiz-adv-x="450" d="M163 242Q103 242 70 271T36 356Q36 382 46 401T73 436T112 461T159 477L281 507V570Q281 591 278 608T267 637T242 657T199 664Q175 664 166 653T154 628Q149 605 141 588T105 571Q79
571 67 584T54 618Q54 639 69 654T107 680T159 695T216 700Q293 700 333 668T374 576V345Q374 326 377 316T394 300Q402 296 413 295T438 292V266Q425 258 404 251T356 244Q318 244 304 258T287 294H281Q266 274 234 258T163 242ZM201 296Q230 296 251 308T281
335V457L213 449Q171 444 150 425T129 361Q129 328 148 312T201 296Z" />
<glyph unicode="&#xab;" glyph-name="guillemotleft" horiz-adv-x="466" d="M232 238V267L389 460H431L326 253L431 45H389L232 238ZM44 238V267L200 460H243L138 253L243 45H200L44 238Z" />
<glyph unicode="&#xae;" glyph-name="registered" horiz-adv-x="586" d="M291 187Q237 187 190 207T109 262T56 343T36 443Q36 497 55 544T109 626T190 681T291 701Q346 701 393 681T475 626T530 544T550 443Q550 390 530 344T475 262T393 207T291 187ZM291 223Q338
223 377 240T445 288T489 358T505 443Q505 489 490 529T446 600T378 647T291 665Q243 665 205 648T139 600T96 530T81 443Q81 398 96 358T138 288T204 241T291 223ZM170 343L191 349Q196 351 197 354T199 369V528Q199 539 198 542T191 549L171 554V577H290Q347
577 371 560T396 509Q396 486 383 469T345 443V439Q357 415 367 398T388 364Q393 356 398 353T413 347L428 343V319H354Q333 348 318 373T291 425H259V369Q259 357 261 354T271 349L291 343V319H170V343ZM283 455Q312 455 324 467T336 505Q336 531 324 539T285
547H259V455H283Z" />
<glyph unicode="&#xaf;" glyph-name="macron" horiz-adv-x="510" d="M113 693H397V628H113V693Z" />
<glyph unicode="&#xb0;" glyph-name="degree" horiz-adv-x="357" d="M179 428Q149 428 124 439T80 470T51 514T40 567Q40 594 50 618T80 662T124 692T179 703Q209 703 234 692T277 662T306 619T317 567Q317 539 307 514T278 470T234 440T179 428ZM179 469Q219
469 243 498T268 567Q268 586 262 603T244 634T216 655T179 663Q159 663 143 655T114 634T96 604T89 567Q89 527 113 498T179 469Z" />
<glyph unicode="&#xb1;" glyph-name="plusminus" horiz-adv-x="469" d="M41 56H428V0H41V56ZM202 330H41V386H202V545H267V386H428V330H267V171H202V330Z" />
<glyph unicode="&#xb2;" glyph-name="twosuperior" horiz-adv-x="353" d="M22 316Q63 348 96 376T155 433Q172 451 186 467T210 502T226 541T232 588Q232 613 227 629T213 653T190 664T159 667Q137 667 131 660T122 636Q118 607 108 595T74 582Q54 582 42 596T30
626Q30 654 67 677T168 701Q238 701 280 671T322 579Q322 548 305 518T257 458T186 399T101 341V338H243Q255 338 262 340T276 347T287 363T300 390H323L314 271H22V316Z" />
<glyph unicode="&#xb3;" glyph-name="threesuperior" horiz-adv-x="352" d="M150 264Q91 264 54 285T17 339Q17 354 27 367T57 381Q77 381 89 371T107 335Q112 313 119 306T154 298Q231 298 231 389Q231 438 212 454T148 471H115V508H145Q186 508 204 525T222
592Q222 637 204 652T157 667Q136 667 129 661T119 640Q115 616 106 604T73 591Q54 591 44 602T33 630Q33 646 44 659T73 682T117 696T170 701Q237 701 271 674T305 600Q305 565 280 535T199 494V492Q252 487 287 462T322 387Q322 362 313 340T282 301T229 274T150
264Z" />
<glyph unicode="&#xb4;" glyph-name="acute" horiz-adv-x="510" d="M137 617L299 731Q321 746 338 746Q355 746 367 733T379 703Q379 690 371 677T342 657L148 593L137 617Z" />
<glyph unicode="&#xb6;" glyph-name="paragraph" horiz-adv-x="571" d="M259 346Q252 345 244 345T224 344Q125 344 77 392T28 523Q28 601 80 647T233 693H541V663L495 654Q486 652 480 650T470 641T465 624T463 594V-100H408V651H314V-100H259V346Z" />
<glyph unicode="&#xb7;" glyph-name="periodcentered" horiz-adv-x="297" d="M148 271Q118 271 97 291T76 341Q76 370 97 391T148 412Q179 412 200 391T221 341Q221 312 200 292T148 271Z" />
<glyph unicode="&#xb8;" glyph-name="cedilla" horiz-adv-x="510" d="M153 -212Q215 -198 238 -180T262 -142Q262 -109 192 -103L183 -94L232 0H281L239 -57Q289 -61 314 -80T339 -128Q339 -145 328 -162T295 -195T237 -223T153 -239V-212Z" />
<glyph unicode="&#xb9;" glyph-name="onesuperior" horiz-adv-x="258" d="M24 297L55 302Q74 305 79 311T84 344V601H23V631Q72 640 103 658T159 703L176 697V344Q176 318 181 312T205 302L234 297V271H24V297Z" />
<glyph unicode="&#xba;" glyph-name="ordmasculine" horiz-adv-x="508" d="M254 245Q209 245 170 259T101 301T56 372T39 471Q39 527 57 569T104 641T173 685T254 700Q299 700 338 686T407 645T452 575T469 477Q469 421 452 378T404 306T335 261T254 245ZM258
287Q315 287 343 330T372 465Q372 569 343 614T251 659Q193 659 165 617T136 483Q136 380 165 334T258 287Z" />
<glyph unicode="&#xbb;" glyph-name="guillemotright" horiz-adv-x="474" d="M234 268V239L78 46H35L140 253L35 461H78L234 268ZM430 268V239L274 46H231L336 253L231 461H274L430 268Z" />
<glyph unicode="&#xbc;" glyph-name="onequarter" horiz-adv-x="800" d="M281 297L312 302Q331 305 336 311T341 344V601H280V631Q329 640 360 658T416 703L433 697V344Q433 318 438 312T462 302L491 297V271H281V297ZM583 -78L608 -73Q617 -71 622 -69T631 -63T636
-52T637 -31V-3H436V34L678 318H715V43H779L772 -3H715V-31Q715 -44 716 -51T720 -63T728 -69T743 -73L766 -78V-104H583V-78ZM637 43V219H634L492 46V43H637ZM646 714H704L198 -50H140L646 714Z" />
<glyph unicode="&#xbd;" glyph-name="onehalf" horiz-adv-x="800" d="M281 297L312 302Q331 305 336 311T341 344V601H280V631Q329 640 360 658T416 703L433 697V344Q433 318 438 312T462 302L491 297V271H281V297ZM451 -59Q492 -27 525 1T584 58Q601 76 615 92T639
127T655 166T661 213Q661 238 656 254T642 278T619 289T588 292Q566 292 560 285T551 261Q547 232 537 220T503 207Q483 207 471 221T459 251Q459 279 496 302T597 326Q667 326 709 296T751 204Q751 173 734 143T686 83T615 24T530 -34V-37H672Q684 -37 691 -35T705
-28T716 -12T729 15H752L743 -104H451V-59ZM616 714H674L168 -50H110L616 714Z" />
<glyph unicode="&#xbe;" glyph-name="threequarters" horiz-adv-x="800" d="M407 264Q348 264 311 285T274 339Q274 354 284 367T314 381Q334 381 346 371T364 335Q369 313 376 306T411 298Q488 298 488 389Q488 438 469 454T405 471H372V508H402Q443 508 461
525T479 592Q479 637 461 652T414 667Q393 667 386 661T376 640Q372 616 363 604T330 591Q311 591 301 602T290 630Q290 646 301 659T330 682T374 696T427 701Q494 701 528 674T562 600Q562 565 537 535T456 494V492Q509 487 544 462T579 387Q579 362 570 340T539
301T486 274T407 264ZM583 -77L608 -72Q617 -70 622 -68T631 -62T636 -51T637 -30V-2H436V35L678 319H715V44H779L772 -2H715V-30Q715 -43 716 -50T720 -62T728 -68T743 -72L766 -77V-103H583V-77ZM637 44V220H634L492 47V44H637ZM672 714H730L224 -50H166L672
714Z" />
<glyph unicode="&#xbf;" glyph-name="questiondown" horiz-adv-x="449" d="M300 250Q270 241 241 226T188 189T149 138T134 70Q134 40 143 18T168 -18T204 -40T245 -47Q274 -47 284 -40T299 -6Q304 26 317 40T357 55Q386 55 398 39T410 2Q410 -21 398 -37T365
-65T318 -82T263 -88Q214 -88 174 -76T106 -41T62 19T46 103Q46 145 61 179T104 241T168 289T248 323V415H300V250ZM273 623Q303 623 324 603T345 553Q345 524 324 503T273 482Q242 482 221 503T200 553Q200 582 221 602T273 623Z" />
<glyph unicode="&#xc0;" glyph-name="Agrave" horiz-adv-x="667" d="M1 31L31 38Q41 41 49 44T64 57T79 82T98 128L301 693H361L574 117Q584 92 591 78T606 55T621 44T638 38L666 31V0H415V31L443 38Q463 43 470 49T478 67Q478 78 474 92T462 126L423 233H191L155
126Q148 106 145 95T142 72Q142 56 151 49T178 38L212 31V0H1V31ZM206 278H407L307 560H302L206 278ZM234 812Q213 819 205 832T197 858Q197 874 209 887T238 901Q254 901 277 886L440 772L429 748L234 812Z" />
<glyph unicode="&#xc1;" glyph-name="Aacute" horiz-adv-x="667" d="M1 31L31 38Q41 41 49 44T64 57T79 82T98 128L301 693H361L574 117Q584 92 591 78T606 55T621 44T638 38L666 31V0H415V31L443 38Q463 43 470 49T478 67Q478 78 474 92T462 126L423 233H191L155
126Q148 106 145 95T142 72Q142 56 151 49T178 38L212 31V0H1V31ZM206 278H407L307 560H302L206 278ZM227 772L389 886Q411 901 428 901Q445 901 457 888T469 858Q469 845 461 832T432 812L238 748L227 772Z" />
<glyph unicode="&#xc2;" glyph-name="Acircumflex" horiz-adv-x="667" d="M1 31L31 38Q41 41 49 44T64 57T79 82T98 128L301 693H361L574 117Q584 92 591 78T606 55T621 44T638 38L666 31V0H415V31L443 38Q463 43 470 49T478 67Q478 78 474 92T462 126L423 233H191L155
126Q148 106 145 95T142 72Q142 56 151 49T178 38L212 31V0H1V31ZM206 278H407L307 560H302L206 278ZM489 770L471 746L330 816L189 746L172 770L304 897H355L489 770Z" />
<glyph unicode="&#xc3;" glyph-name="Atilde" horiz-adv-x="667" d="M1 31L31 38Q41 41 49 44T64 57T79 82T98 128L301 693H361L574 117Q584 92 591 78T606 55T621 44T638 38L666 31V0H415V31L443 38Q463 43 470 49T478 67Q478 78 474 92T462 126L423 233H191L155
126Q148 106 145 95T142 72Q142 56 151 49T178 38L212 31V0H1V31ZM206 278H407L307 560H302L206 278ZM167 777Q189 836 211 863T265 891Q280 891 300 885T339 871T375 857T401 850Q417 850 430 861T461 906L493 893Q471 833 449 806T395 779Q380 779 361 785T322
799T286 813T259 820Q243 820 231 809T201 763L167 777Z" />
<glyph unicode="&#xc4;" glyph-name="Adieresis" horiz-adv-x="667" d="M1 31L31 38Q41 41 49 44T64 57T79 82T98 128L301 693H361L574 117Q584 92 591 78T606 55T621 44T638 38L666 31V0H415V31L443 38Q463 43 470 49T478 67Q478 78 474 92T462 126L423 233H191L155
126Q148 106 145 95T142 72Q142 56 151 49T178 38L212 31V0H1V31ZM206 278H407L307 560H302L206 278ZM222 751Q195 751 176 770T156 814Q156 840 175 858T222 877Q249 877 268 859T288 814Q288 790 269 771T222 751ZM439 752Q411 752 392 771T373 815Q373 841 392
859T439 878Q466 878 485 860T504 815Q504 791 485 772T439 752Z" />
<glyph unicode="&#xc5;" glyph-name="Aring" horiz-adv-x="667" d="M1 31L31 38Q41 41 49 44T64 57T79 82T98 128L301 693H361L574 117Q584 92 591 78T606 55T621 44T638 38L666 31V0H415V31L443 38Q463 43 470 49T478 67Q478 78 474 92T462 126L423 233H191L155
126Q148 106 145 95T142 72Q142 56 151 49T178 38L212 31V0H1V31ZM206 278H407L307 560H302L206 278ZM330 734Q308 734 290 742T258 763T236 794T228 832Q228 874 257 902T330 931Q374 931 403 903T432 832Q432 812 424 795T403 764T371 742T330 734ZM330 772Q356
772 372 789T388 832Q388 858 372 875T330 893Q304 893 288 876T272 832Q272 806 288 789T330 772Z" />
<glyph unicode="&#xc6;" glyph-name="AE" horiz-adv-x="941" d="M366 31L411 40Q420 41 426 44T436 53T441 70T443 100V221H223L177 139Q163 114 156 97T148 67Q148 44 176 38L212 31V0H1V31L24 38Q34 41 43 45T63 59T87 89T120 141L414 652H413L356 663V693H872L885
516H849Q834 553 823 575T801 610Q791 624 781 632T757 643T721 648T666 649Q614 649 591 647T551 640V383H581Q639 383 665 388T702 414Q710 431 716 445T727 483H763V237H727Q724 249 722 258T716 274T710 289T702 306Q697 317 690 323T670 333T636 336T581 337H551V152Q551
112 555 90T571 58T608 46T675 44Q710 44 731 45T767 49T791 60T811 81Q824 97 840 132T872 209H908L893 0H366V31ZM248 266H443V610H440L248 266Z" />
<glyph unicode="&#xc7;" glyph-name="Ccedilla" horiz-adv-x="630" d="M246 -212Q308 -198 331 -180T355 -142Q355 -109 285 -103L276 -94L319 -10Q257 -4 206 19T117 84T60 190T39 341Q39 441 67 510T142 623T253 685T388 705Q446 705 495 698T577 681L586 483H551Q537
521 520 558T486 622Q478 634 470 641T449 652T420 657T376 659Q322 659 281 645T212 595T170 503T155 360Q155 268 168 206T207 106T272 51T362 34Q396 34 418 38T456 49T480 67T499 91Q509 107 517 120T531 147T544 176T557 212H589L579 32Q544 15 487 2T365
-12L332 -57Q382 -61 407 -80T432 -128Q432 -145 421 -162T388 -195T330 -223T246 -239V-212Z" />
<glyph unicode="&#xc8;" glyph-name="Egrave" horiz-adv-x="617" d="M31 31L76 40Q85 41 91 44T101 53T106 70T108 100V594Q108 613 107 624T101 641T91 649T76 654L31 663V693H548L561 516H525Q509 553 498 575T477 610Q466 624 457 632T433 643T397 648T341
649Q286 649 259 647T217 640V383H261Q319 383 345 388T382 414Q390 431 395 445T407 483H442V237H407Q403 248 401 256T395 273T389 288T382 306Q377 317 370 323T350 333T316 336T261 337H217V152Q217 112 219 90T234 58T274 46T350 44Q385 44 407 45T443 49T466
60T487 81Q499 97 515 132T547 209H584L569 0H31V31ZM218 812Q197 819 189 832T181 858Q181 874 193 887T222 901Q238 901 261 886L424 772L413 748L218 812Z" />
<glyph unicode="&#xc9;" glyph-name="Eacute" horiz-adv-x="617" d="M31 31L76 40Q85 41 91 44T101 53T106 70T108 100V594Q108 613 107 624T101 641T91 649T76 654L31 663V693H548L561 516H525Q509 553 498 575T477 610Q466 624 457 632T433 643T397 648T341
649Q286 649 259 647T217 640V383H261Q319 383 345 388T382 414Q390 431 395 445T407 483H442V237H407Q403 248 401 256T395 273T389 288T382 306Q377 317 370 323T350 333T316 336T261 337H217V152Q217 112 219 90T234 58T274 46T350 44Q385 44 407 45T443 49T466
60T487 81Q499 97 515 132T547 209H584L569 0H31V31ZM211 772L373 886Q395 901 412 901Q429 901 441 888T453 858Q453 845 445 832T416 812L222 748L211 772Z" />
<glyph unicode="&#xca;" glyph-name="Ecircumflex" horiz-adv-x="617" d="M31 31L76 40Q85 41 91 44T101 53T106 70T108 100V594Q108 613 107 624T101 641T91 649T76 654L31 663V693H548L561 516H525Q509 553 498 575T477 610Q466 624 457 632T433 643T397 648T341
649Q286 649 259 647T217 640V383H261Q319 383 345 388T382 414Q390 431 395 445T407 483H442V237H407Q403 248 401 256T395 273T389 288T382 306Q377 317 370 323T350 333T316 336T261 337H217V152Q217 112 219 90T234 58T274 46T350 44Q385 44 407 45T443 49T466
60T487 81Q499 97 515 132T547 209H584L569 0H31V31ZM473 770L455 746L314 816L173 746L156 770L288 897H339L473 770Z" />
<glyph unicode="&#xcb;" glyph-name="Edieresis" horiz-adv-x="617" d="M31 31L76 40Q85 41 91 44T101 53T106 70T108 100V594Q108 613 107 624T101 641T91 649T76 654L31 663V693H548L561 516H525Q509 553 498 575T477 610Q466 624 457 632T433 643T397 648T341
649Q286 649 259 647T217 640V383H261Q319 383 345 388T382 414Q390 431 395 445T407 483H442V237H407Q403 248 401 256T395 273T389 288T382 306Q377 317 370 323T350 333T316 336T261 337H217V152Q217 112 219 90T234 58T274 46T350 44Q385 44 407 45T443 49T466
60T487 81Q499 97 515 132T547 209H584L569 0H31V31ZM206 751Q179 751 160 770T140 814Q140 840 159 858T206 877Q233 877 252 859T272 814Q272 790 253 771T206 751ZM423 752Q395 752 376 771T357 815Q357 841 376 859T423 878Q450 878 469 860T488 815Q488 791
469 772T423 752Z" />
<glyph unicode="&#xcc;" glyph-name="Igrave" horiz-adv-x="333" d="M31 31L80 40Q89 41 95 44T105 53T110 70T112 100V594Q112 613 111 624T106 641T96 649T80 654L31 663V693H303V663L253 654Q243 652 237 650T227 641T222 624T221 594V100Q221 81 222 70T226
53T236 45T253 40L303 31V0H31V31ZM328 812Q307 819 299 832T291 858Q291 874 303 887T332 901Q348 901 371 886L534 772L523 748L328 812Z" />
<glyph unicode="&#xcd;" glyph-name="Iacute" horiz-adv-x="333" d="M31 31L80 40Q89 41 95 44T105 53T110 70T112 100V594Q112 613 111 624T106 641T96 649T80 654L31 663V693H303V663L253 654Q243 652 237 650T227 641T222 624T221 594V100Q221 81 222 70T226
53T236 45T253 40L303 31V0H31V31ZM321 772L483 886Q505 901 522 901Q539 901 551 888T563 858Q563 845 555 832T526 812L332 748L321 772Z" />
<glyph unicode="&#xce;" glyph-name="Icircumflex" horiz-adv-x="333" d="M31 31L80 40Q89 41 95 44T105 53T110 70T112 100V594Q112 613 111 624T106 641T96 649T80 654L31 663V693H303V663L253 654Q243 652 237 650T227 641T222 624T221 594V100Q221 81 222
70T226 53T236 45T253 40L303 31V0H31V31ZM583 770L565 746L424 816L283 746L266 770L398 897H449L583 770Z" />
<glyph unicode="&#xcf;" glyph-name="Idieresis" horiz-adv-x="333" d="M31 31L80 40Q89 41 95 44T105 53T110 70T112 100V594Q112 613 111 624T106 641T96 649T80 654L31 663V693H303V663L253 654Q243 652 237 650T227 641T222 624T221 594V100Q221 81 222 70T226
53T236 45T253 40L303 31V0H31V31ZM316 751Q289 751 270 770T250 814Q250 840 269 858T316 877Q343 877 362 859T382 814Q382 790 363 771T316 751ZM533 752Q505 752 486 771T467 815Q467 841 486 859T533 878Q560 878 579 860T598 815Q598 791 579 772T533 752Z"
/>
<glyph unicode="&#xd0;" glyph-name="Eth" horiz-adv-x="705" d="M34 372H108V594Q108 613 107 624T101 641T91 649T76 654L31 663V693H328Q400 693 462 676T570 619T642 514T669 353Q669 265 644 199T572 89T462 22T322 0H31V31L76 40Q85 41 91 44T101 53T106
70T108 100V329H34V372ZM315 42Q385 42 431 63T505 123T544 215T555 334Q555 417 542 477T500 575T425 632T313 651Q276 651 254 649T217 642V372H401V329H217V139Q217 109 219 90T231 61T260 46T315 42Z" />
<glyph unicode="&#xd1;" glyph-name="Ntilde" horiz-adv-x="705" d="M166 603H162V110Q162 87 164 74T170 54T183 43T204 38L246 31V0H31V31L66 38Q77 40 85 43T98 53T105 74T108 110V594Q108 613 107 624T101 641T91 649T76 654L31 663V693H234L548 189H552V584Q552
606 550 619T544 640T531 651T510 656L463 663V693H683V663L648 656Q637 654 629 651T616 641T609 620T606 584V-4H549L166 603ZM211 777Q233 836 255 863T309 891Q324 891 344 885T383 871T419 857T445 850Q461 850 474 861T505 906L537 893Q515 833 493 806T439
779Q424 779 405 785T366 799T330 813T303 820Q287 820 275 809T245 763L211 777Z" />
<glyph unicode="&#xd2;" glyph-name="Ograve" horiz-adv-x="714" d="M352 -12Q286 -12 229 10T130 77T63 186T39 337Q39 434 66 503T138 618T241 684T362 705Q428 705 485 682T584 614T650 503T675 351Q675 254 648 185T576 73T473 9T352 -12ZM360 37Q412 37 449
53T512 105T549 197T561 334Q561 394 552 452T518 555T454 629T353 657Q301 657 264 640T202 586T165 492T153 354Q153 294 162 237T195 136T259 64T360 37ZM261 812Q240 819 232 832T224 858Q224 874 236 887T265 901Q281 901 304 886L467 772L456 748L261 812Z"
/>
<glyph unicode="&#xd3;" glyph-name="Oacute" horiz-adv-x="714" d="M352 -12Q286 -12 229 10T130 77T63 186T39 337Q39 434 66 503T138 618T241 684T362 705Q428 705 485 682T584 614T650 503T675 351Q675 254 648 185T576 73T473 9T352 -12ZM360 37Q412 37 449
53T512 105T549 197T561 334Q561 394 552 452T518 555T454 629T353 657Q301 657 264 640T202 586T165 492T153 354Q153 294 162 237T195 136T259 64T360 37ZM254 772L416 886Q438 901 455 901Q472 901 484 888T496 858Q496 845 488 832T459 812L265 748L254 772Z"
/>
<glyph unicode="&#xd4;" glyph-name="Ocircumflex" horiz-adv-x="714" d="M352 -12Q286 -12 229 10T130 77T63 186T39 337Q39 434 66 503T138 618T241 684T362 705Q428 705 485 682T584 614T650 503T675 351Q675 254 648 185T576 73T473 9T352 -12ZM360 37Q412
37 449 53T512 105T549 197T561 334Q561 394 552 452T518 555T454 629T353 657Q301 657 264 640T202 586T165 492T153 354Q153 294 162 237T195 136T259 64T360 37ZM516 770L498 746L357 816L216 746L199 770L331 897H382L516 770Z" />
<glyph unicode="&#xd5;" glyph-name="Otilde" horiz-adv-x="714" d="M352 -12Q286 -12 229 10T130 77T63 186T39 337Q39 434 66 503T138 618T241 684T362 705Q428 705 485 682T584 614T650 503T675 351Q675 254 648 185T576 73T473 9T352 -12ZM360 37Q412 37 449
53T512 105T549 197T561 334Q561 394 552 452T518 555T454 629T353 657Q301 657 264 640T202 586T165 492T153 354Q153 294 162 237T195 136T259 64T360 37ZM194 777Q216 836 238 863T292 891Q307 891 327 885T366 871T402 857T428 850Q444 850 457 861T488 906L520
893Q498 833 476 806T422 779Q407 779 388 785T349 799T313 813T286 820Q270 820 258 809T228 763L194 777Z" />
<glyph unicode="&#xd6;" glyph-name="Odieresis" horiz-adv-x="714" d="M352 -12Q286 -12 229 10T130 77T63 186T39 337Q39 434 66 503T138 618T241 684T362 705Q428 705 485 682T584 614T650 503T675 351Q675 254 648 185T576 73T473 9T352 -12ZM360 37Q412 37
449 53T512 105T549 197T561 334Q561 394 552 452T518 555T454 629T353 657Q301 657 264 640T202 586T165 492T153 354Q153 294 162 237T195 136T259 64T360 37ZM249 751Q222 751 203 770T183 814Q183 840 202 858T249 877Q276 877 295 859T315 814Q315 790 296
771T249 751ZM466 752Q438 752 419 771T400 815Q400 841 419 859T466 878Q493 878 512 860T531 815Q531 791 512 772T466 752Z" />
<glyph unicode="&#xd7;" glyph-name="multiply" horiz-adv-x="451" d="M44 176L184 320L44 464L90 507L226 363L366 507L407 465L268 321L407 177L363 134L224 278L88 134L44 176Z" />
<glyph unicode="&#xd8;" glyph-name="Oslash" horiz-adv-x="714" d="M129 76Q87 121 63 185T39 337Q39 434 66 503T138 618T241 684T362 705Q469 705 548 646L603 720H662L584 614Q626 569 650 503T675 351Q675 254 648 185T576 73T473 9T352 -12Q298 -12 251
2T164 46L91 -54H33L129 76ZM153 354Q153 292 159 241T182 148L506 588Q482 621 445 639T353 657Q301 657 264 640T202 586T165 492T153 354ZM360 37Q412 37 449 53T512 105T549 197T561 334Q561 396 555 448T531 542L207 103Q230 71 267 54T360 37Z" />
<glyph unicode="&#xd9;" glyph-name="Ugrave" horiz-adv-x="701" d="M356 -12Q296 -12 248 1T165 44T113 117T94 225V594Q94 613 93 624T88 641T78 649T62 654L16 663V693H278V663L235 654Q224 652 218 649T209 640T204 624T203 594V215Q203 127 243 87T382 46Q473
46 513 92T554 224V584Q554 606 552 619T546 640T533 651T512 656L462 663V693H684V663L649 656Q638 654 630 651T617 641T610 620T607 584V217Q607 171 593 130T549 57T471 7T356 -12ZM276 812Q255 819 247 832T239 858Q239 874 251 887T280 901Q296 901 319 886L482
772L471 748L276 812Z" />
<glyph unicode="&#xda;" glyph-name="Uacute" horiz-adv-x="701" d="M356 -12Q296 -12 248 1T165 44T113 117T94 225V594Q94 613 93 624T88 641T78 649T62 654L16 663V693H278V663L235 654Q224 652 218 649T209 640T204 624T203 594V215Q203 127 243 87T382 46Q473
46 513 92T554 224V584Q554 606 552 619T546 640T533 651T512 656L462 663V693H684V663L649 656Q638 654 630 651T617 641T610 620T607 584V217Q607 171 593 130T549 57T471 7T356 -12ZM269 772L431 886Q453 901 470 901Q487 901 499 888T511 858Q511 845 503 832T474
812L280 748L269 772Z" />
<glyph unicode="&#xdb;" glyph-name="Ucircumflex" horiz-adv-x="701" d="M356 -12Q296 -12 248 1T165 44T113 117T94 225V594Q94 613 93 624T88 641T78 649T62 654L16 663V693H278V663L235 654Q224 652 218 649T209 640T204 624T203 594V215Q203 127 243 87T382
46Q473 46 513 92T554 224V584Q554 606 552 619T546 640T533 651T512 656L462 663V693H684V663L649 656Q638 654 630 651T617 641T610 620T607 584V217Q607 171 593 130T549 57T471 7T356 -12ZM531 770L513 746L372 816L231 746L214 770L346 897H397L531 770Z"
/>
<glyph unicode="&#xdc;" glyph-name="Udieresis" horiz-adv-x="701" d="M356 -12Q296 -12 248 1T165 44T113 117T94 225V594Q94 613 93 624T88 641T78 649T62 654L16 663V693H278V663L235 654Q224 652 218 649T209 640T204 624T203 594V215Q203 127 243 87T382
46Q473 46 513 92T554 224V584Q554 606 552 619T546 640T533 651T512 656L462 663V693H684V663L649 656Q638 654 630 651T617 641T610 620T607 584V217Q607 171 593 130T549 57T471 7T356 -12ZM264 751Q237 751 218 770T198 814Q198 840 217 858T264 877Q291 877
310 859T330 814Q330 790 311 771T264 751ZM481 752Q453 752 434 771T415 815Q415 841 434 859T481 878Q508 878 527 860T546 815Q546 791 527 772T481 752Z" />
<glyph unicode="&#xdd;" glyph-name="Yacute" horiz-adv-x="630" d="M186 31L235 40Q244 42 250 44T259 53T264 70T266 100V280L109 567Q95 591 85 607T67 632T49 647T30 656L5 663V693H268V663L243 657Q219 652 210 644T201 621Q201 611 207 599T223 567L343
337H347L463 567Q480 602 480 621Q480 647 444 656L412 663V693H626V663L604 656Q591 652 581 647T561 630T540 601T514 553L375 288V100Q375 81 376 70T380 53T390 45T407 40L456 31V0H186V31ZM239 772L401 886Q423 901 440 901Q457 901 469 888T481 858Q481 845
473 832T444 812L250 748L239 772Z" />
<glyph unicode="&#xde;" glyph-name="Thorn" horiz-adv-x="593" d="M32 31L77 40Q86 41 91 44T101 53T106 70T108 100V594Q108 613 107 624T101 641T92 649T77 654L32 663V693H293V663L246 654Q236 652 230 649T221 640T216 624T215 594V556H308Q429 556 492 507T556
367Q556 320 540 283T494 220T423 179T331 165Q305 165 290 168T269 174V207Q311 206 344 212T399 235T433 281T445 357Q445 444 411 478T301 512Q272 512 249 510T215 505V100Q215 81 216 70T220 53T230 45T246 40L293 31V0H32V31Z" />
<glyph unicode="&#xdf;" glyph-name="germandbls" horiz-adv-x="615" d="M434 31Q475 31 497 52T519 104Q519 122 514 136T496 164T464 190T416 221Q384 240 361 256T321 288T298 320T290 357Q290 389 308 419T347 482T387 550T405 629Q405 671 384 701T309 732Q257
732 225 698T193 595V93Q193 61 196 51T217 36L243 30V0H25V30L66 41Q81 45 87 54T93 93V456H22V486L93 510V541Q93 606 115 649T171 719T243 756T314 767Q364 767 401 757T462 730T499 690T511 644Q511 604 488 570T436 507T384 452T360 406Q360 397 365 388T383
366T418 338T476 300Q511 279 534 261T572 224T592 185T598 140Q598 104 583 77T544 31T487 3T421 -7Q346 -7 308 17T269 81Q269 102 282 116T320 131Q347 131 358 119T373 82Q378 52 393 42T434 31Z" />
<glyph unicode="&#xe0;" glyph-name="agrave" horiz-adv-x="510" d="M179 -13Q109 -13 68 21T27 120Q27 182 70 216T202 270L319 296V389Q319 414 316 432T304 463T275 480T224 486Q191 486 182 478T169 446Q165 417 154 398T109 379Q79 379 68 394T56 429Q56
454 73 472T119 502T180 519T245 525Q336 525 377 493T419 395V100Q419 80 425 68T446 48Q454 43 466 42T495 39V11Q483 3 458 -4T407 -12Q369 -12 349 4T323 46H318Q300 21 262 4T179 -13ZM222 44Q258 44 283 58T319 91V245L242 237Q188 232 159 208T129 128Q129
84 153 64T222 44ZM392 657Q371 664 363 677T355 703Q355 719 367 732T396 746Q412 746 435 731L598 617L587 593L392 657Z" />
<glyph unicode="&#xe1;" glyph-name="aacute" horiz-adv-x="510" d="M179 -13Q109 -13 68 21T27 120Q27 182 70 216T202 270L319 296V389Q319 414 316 432T304 463T275 480T224 486Q191 486 182 478T169 446Q165 417 154 398T109 379Q79 379 68 394T56 429Q56
454 73 472T119 502T180 519T245 525Q336 525 377 493T419 395V100Q419 80 425 68T446 48Q454 43 466 42T495 39V11Q483 3 458 -4T407 -12Q369 -12 349 4T323 46H318Q300 21 262 4T179 -13ZM222 44Q258 44 283 58T319 91V245L242 237Q188 232 159 208T129 128Q129
84 153 64T222 44ZM392 617L554 731Q576 746 593 746Q610 746 622 733T634 703Q634 690 626 677T597 657L403 593L392 617Z" />
<glyph unicode="&#xe2;" glyph-name="acircumflex" horiz-adv-x="510" d="M179 -13Q109 -13 68 21T27 120Q27 182 70 216T202 270L319 296V389Q319 414 316 432T304 463T275 480T224 486Q191 486 182 478T169 446Q165 417 154 398T109 379Q79 379 68 394T56 429Q56
454 73 472T119 502T180 519T245 525Q336 525 377 493T419 395V100Q419 80 425 68T446 48Q454 43 466 42T495 39V11Q483 3 458 -4T407 -12Q369 -12 349 4T323 46H318Q300 21 262 4T179 -13ZM222 44Q258 44 283 58T319 91V245L242 237Q188 232 159 208T129 128Q129
84 153 64T222 44ZM663 610L645 586L504 670L363 586L346 610L478 751H529L663 610Z" />
<glyph unicode="&#xe3;" glyph-name="atilde" horiz-adv-x="510" d="M179 -13Q109 -13 68 21T27 120Q27 182 70 216T202 270L319 296V389Q319 414 316 432T304 463T275 480T224 486Q191 486 182 478T169 446Q165 417 154 398T109 379Q79 379 68 394T56 429Q56
454 73 472T119 502T180 519T245 525Q336 525 377 493T419 395V100Q419 80 425 68T446 48Q454 43 466 42T495 39V11Q483 3 458 -4T407 -12Q369 -12 349 4T323 46H318Q300 21 262 4T179 -13ZM222 44Q258 44 283 58T319 91V245L242 237Q188 232 159 208T129 128Q129
84 153 64T222 44ZM341 597Q363 660 385 690T439 721Q454 721 474 715T513 701T549 687T575 680Q591 680 604 695T635 746L667 733Q645 670 623 640T569 609Q554 609 535 615T496 629T460 643T433 650Q417 650 405 634T375 583L341 597Z" />
<glyph unicode="&#xe4;" glyph-name="adieresis" horiz-adv-x="510" d="M179 -13Q109 -13 68 21T27 120Q27 182 70 216T202 270L319 296V389Q319 414 316 432T304 463T275 480T224 486Q191 486 182 478T169 446Q165 417 154 398T109 379Q79 379 68 394T56 429Q56
454 73 472T119 502T180 519T245 525Q336 525 377 493T419 395V100Q419 80 425 68T446 48Q454 43 466 42T495 39V11Q483 3 458 -4T407 -12Q369 -12 349 4T323 46H318Q300 21 262 4T179 -13ZM222 44Q258 44 283 58T319 91V245L242 237Q188 232 159 208T129 128Q129
84 153 64T222 44ZM404 616Q377 616 358 635T338 679Q338 705 357 723T404 742Q431 742 450 724T470 679Q470 655 451 636T404 616ZM605 616Q577 616 558 635T539 679Q539 705 558 723T605 742Q632 742 651 724T670 679Q670 655 651 636T605 616Z" />
<glyph unicode="&#xe5;" glyph-name="aring" horiz-adv-x="510" d="M179 -13Q109 -13 68 21T27 120Q27 182 70 216T202 270L319 296V389Q319 414 316 432T304 463T275 480T224 486Q191 486 182 478T169 446Q165 417 154 398T109 379Q79 379 68 394T56 429Q56 454
73 472T119 502T180 519T245 525Q336 525 377 493T419 395V100Q419 80 425 68T446 48Q454 43 466 42T495 39V11Q483 3 458 -4T407 -12Q369 -12 349 4T323 46H318Q300 21 262 4T179 -13ZM222 44Q258 44 283 58T319 91V245L242 237Q188 232 159 208T129 128Q129 84
153 64T222 44ZM504 588Q482 588 464 596T432 617T410 648T402 686Q402 728 431 756T504 785Q548 785 577 757T606 686Q606 666 598 649T577 618T545 596T504 588ZM504 626Q530 626 546 643T562 686Q562 712 546 729T504 747Q478 747 462 730T446 686Q446 660 462
643T504 626Z" />
<glyph unicode="&#xe6;" glyph-name="ae" horiz-adv-x="786" d="M547 -12Q480 -12 435 10T361 75H360Q328 33 286 10T179 -13Q109 -13 68 21T27 120Q27 151 40 175T74 216T121 245T173 262L317 294V389Q317 414 314 432T302 463T274 480T225 486Q192 486 181 478T167
446Q163 417 152 398T107 379Q77 379 66 394T54 429Q54 454 72 472T118 502T180 519T246 525Q310 525 345 508T395 456Q453 525 550 525Q645 525 698 464T752 264H417Q420 153 462 103T581 52Q639 52 676 66T742 94V54Q732 46 714 35T670 13T614 -5T547 -12ZM222
44Q257 44 287 59T342 112Q319 166 317 242V243L242 235Q192 230 161 207T129 128Q129 84 153 64T222 44ZM546 483Q494 483 459 441T418 307L640 319Q640 361 636 392T622 443T593 473T546 483Z" />
<glyph unicode="&#xe7;" glyph-name="ccedilla" horiz-adv-x="486" d="M165 -212Q227 -198 250 -180T274 -142Q274 -109 204 -103L195 -94L238 -10Q188 -5 150 16T86 71T47 150T34 248Q34 329 61 382T130 467T222 512T319 525Q391 525 425 502T460 441Q460 418
444 397T401 376Q372 376 361 390T345 430Q340 464 330 473T293 482Q262 482 234 472T185 437T152 376T140 284Q140 171 183 112T312 52Q363 52 402 66T466 95V55Q455 45 438 34T397 14T345 -3T284 -11L251 -57Q301 -61 326 -80T351 -128Q351 -145 340 -162T307
-195T249 -223T165 -239V-212Z" />
<glyph unicode="&#xe8;" glyph-name="egrave" horiz-adv-x="519" d="M281 -12Q219 -12 173 7T95 63T49 149T34 260Q34 320 54 369T108 452T186 506T281 525Q329 525 366 512T430 468T471 389T485 270H140Q141 213 154 172T190 104T244 65T314 52Q372 52 409 66T475
94V54Q465 46 447 35T404 13T348 -5T281 -12ZM277 483Q222 483 185 442T141 312L373 324Q373 367 369 397T354 447T325 474T277 483ZM168 657Q147 664 139 677T131 703Q131 719 143 732T172 746Q188 746 211 731L374 617L363 593L168 657Z" />
<glyph unicode="&#xe9;" glyph-name="eacute" horiz-adv-x="519" d="M281 -12Q219 -12 173 7T95 63T49 149T34 260Q34 320 54 369T108 452T186 506T281 525Q329 525 366 512T430 468T471 389T485 270H140Q141 213 154 172T190 104T244 65T314 52Q372 52 409 66T475
94V54Q465 46 447 35T404 13T348 -5T281 -12ZM277 483Q222 483 185 442T141 312L373 324Q373 367 369 397T354 447T325 474T277 483ZM168 617L330 731Q352 746 369 746Q386 746 398 733T410 703Q410 690 402 677T373 657L179 593L168 617Z" />
<glyph unicode="&#xea;" glyph-name="ecircumflex" horiz-adv-x="519" d="M281 -12Q219 -12 173 7T95 63T49 149T34 260Q34 320 54 369T108 452T186 506T281 525Q329 525 366 512T430 468T471 389T485 270H140Q141 213 154 172T190 104T244 65T314 52Q372 52 409
66T475 94V54Q465 46 447 35T404 13T348 -5T281 -12ZM277 483Q222 483 185 442T141 312L373 324Q373 367 369 397T354 447T325 474T277 483ZM439 610L421 586L280 670L139 586L122 610L254 751H305L439 610Z" />
<glyph unicode="&#xeb;" glyph-name="edieresis" horiz-adv-x="519" d="M281 -12Q219 -12 173 7T95 63T49 149T34 260Q34 320 54 369T108 452T186 506T281 525Q329 525 366 512T430 468T471 389T485 270H140Q141 213 154 172T190 104T244 65T314 52Q372 52 409
66T475 94V54Q465 46 447 35T404 13T348 -5T281 -12ZM277 483Q222 483 185 442T141 312L373 324Q373 367 369 397T354 447T325 474T277 483ZM180 616Q153 616 134 635T114 679Q114 705 133 723T180 742Q207 742 226 724T246 679Q246 655 227 636T180 616ZM381 616Q353
616 334 635T315 679Q315 705 334 723T381 742Q408 742 427 724T446 679Q446 655 427 636T381 616Z" />
<glyph unicode="&#xec;" glyph-name="igrave" horiz-adv-x="279" d="M25 28L66 40Q83 44 88 54T93 99V398Q93 415 92 424T88 439T78 448T63 456L25 476V502L190 523L200 517Q199 513 196 484T193 400V99Q193 81 194 70T198 53T206 45T219 40L260 28V0H25V28ZM200
517Q201 518 201 517H200ZM31 657Q10 664 2 677T-6 703Q-6 719 6 732T35 746Q51 746 74 731L237 617L226 593L31 657Z" />
<glyph unicode="&#xed;" glyph-name="iacute" horiz-adv-x="279" d="M25 28L66 40Q83 44 88 54T93 99V398Q93 415 92 424T88 439T78 448T63 456L25 476V502L190 523L200 517Q199 513 196 484T193 400V99Q193 81 194 70T198 53T206 45T219 40L260 28V0H25V28ZM200
517Q201 518 201 517H200ZM287 617L449 731Q471 746 488 746Q505 746 517 733T529 703Q529 690 521 677T492 657L298 593L287 617Z" />
<glyph unicode="&#xee;" glyph-name="icircumflex" horiz-adv-x="279" d="M25 28L66 40Q83 44 88 54T93 99V398Q93 415 92 424T88 439T78 448T63 456L25 476V502L190 523L200 517Q199 513 196 484T193 400V99Q193 81 194 70T198 53T206 45T219 40L260 28V0H25V28ZM200
517Q201 518 201 517H200ZM558 610L540 586L399 670L258 586L241 610L373 751H424L558 610Z" />
<glyph unicode="&#xef;" glyph-name="idieresis" horiz-adv-x="279" d="M25 28L66 40Q83 44 88 54T93 99V398Q93 415 92 424T88 439T78 448T63 456L25 476V502L190 523L200 517Q199 513 196 484T193 400V99Q193 81 194 70T198 53T206 45T219 40L260 28V0H25V28ZM200
517Q201 518 201 517H200ZM299 616Q272 616 253 635T233 679Q233 705 252 723T299 742Q326 742 345 724T365 679Q365 655 346 636T299 616ZM500 616Q472 616 453 635T434 679Q434 705 453 723T500 742Q527 742 546 724T565 679Q565 655 546 636T500 616Z" />
<glyph unicode="&#xf0;" glyph-name="eth" horiz-adv-x="574" d="M148 614L253 661Q191 707 120 740L136 770Q190 753 235 733T319 690L435 742L451 707L357 665Q451 597 495 506T539 293Q539 207 517 149T460 54T379 3T287 -13Q233 -13 187 4T107 54T54 138T34
255Q34 321 55 371T111 455T190 507T281 525Q316 525 348 512T408 469Q395 510 364 552T287 634L163 579L148 614ZM291 30Q359 30 396 82T433 247Q433 312 424 357T395 430T348 470T283 483Q215 483 180 433T144 269Q144 141 180 86T291 30Z" />
<glyph unicode="&#xf1;" glyph-name="ntilde" horiz-adv-x="605" d="M25 30L66 41Q81 45 87 54T93 93V403Q93 418 92 426T88 440T78 449T63 457L25 476V502L183 523L193 517L188 461H192Q211 473 233 484T281 504T331 518T381 524Q457 524 487 492T517 391V93Q517
64 523 55T544 41L584 30V0H350V30L391 41Q398 43 403 45T411 53T415 67T417 93V363Q417 416 398 437T330 458Q312 458 292 455T254 447T220 437T193 427V93Q193 77 194 68T198 53T206 46T219 41L260 30V0H25V30ZM143 597Q165 660 187 690T241 721Q256 721 276
715T315 701T351 687T377 680Q393 680 406 695T437 746L469 733Q447 670 425 640T371 609Q356 609 337 615T298 629T262 643T235 650Q219 650 207 634T177 583L143 597Z" />
<glyph unicode="&#xf2;" glyph-name="ograve" horiz-adv-x="573" d="M287 -13Q233 -13 187 4T107 54T54 138T34 255Q34 321 55 371T111 455T192 507T287 525Q340 525 386 509T466 459T519 377T539 261Q539 195 518 144T462 58T382 5T287 -13ZM291 30Q359 30 394
82T429 247Q429 374 393 428T283 483Q215 483 180 433T144 269Q144 141 180 86T291 30ZM174 657Q153 664 145 677T137 703Q137 719 149 732T178 746Q194 746 217 731L380 617L369 593L174 657Z" />
<glyph unicode="&#xf3;" glyph-name="oacute" horiz-adv-x="573" d="M287 -13Q233 -13 187 4T107 54T54 138T34 255Q34 321 55 371T111 455T192 507T287 525Q340 525 386 509T466 459T519 377T539 261Q539 195 518 144T462 58T382 5T287 -13ZM291 30Q359 30 394
82T429 247Q429 374 393 428T283 483Q215 483 180 433T144 269Q144 141 180 86T291 30ZM174 617L336 731Q358 746 375 746Q392 746 404 733T416 703Q416 690 408 677T379 657L185 593L174 617Z" />
<glyph unicode="&#xf4;" glyph-name="ocircumflex" horiz-adv-x="573" d="M287 -13Q233 -13 187 4T107 54T54 138T34 255Q34 321 55 371T111 455T192 507T287 525Q340 525 386 509T466 459T519 377T539 261Q539 195 518 144T462 58T382 5T287 -13ZM291 30Q359
30 394 82T429 247Q429 374 393 428T283 483Q215 483 180 433T144 269Q144 141 180 86T291 30ZM445 610L427 586L286 670L145 586L128 610L260 751H311L445 610Z" />
<glyph unicode="&#xf5;" glyph-name="otilde" horiz-adv-x="573" d="M287 -13Q233 -13 187 4T107 54T54 138T34 255Q34 321 55 371T111 455T192 507T287 525Q340 525 386 509T466 459T519 377T539 261Q539 195 518 144T462 58T382 5T287 -13ZM291 30Q359 30 394
82T429 247Q429 374 393 428T283 483Q215 483 180 433T144 269Q144 141 180 86T291 30ZM123 597Q145 660 167 690T221 721Q236 721 256 715T295 701T331 687T357 680Q373 680 386 695T417 746L449 733Q427 670 405 640T351 609Q336 609 317 615T278 629T242 643T215
650Q199 650 187 634T157 583L123 597Z" />
<glyph unicode="&#xf6;" glyph-name="odieresis" horiz-adv-x="573" d="M287 -13Q233 -13 187 4T107 54T54 138T34 255Q34 321 55 371T111 455T192 507T287 525Q340 525 386 509T466 459T519 377T539 261Q539 195 518 144T462 58T382 5T287 -13ZM291 30Q359 30
394 82T429 247Q429 374 393 428T283 483Q215 483 180 433T144 269Q144 141 180 86T291 30ZM186 616Q159 616 140 635T120 679Q120 705 139 723T186 742Q213 742 232 724T252 679Q252 655 233 636T186 616ZM387 616Q359 616 340 635T321 679Q321 705 340 723T387
742Q414 742 433 724T452 679Q452 655 433 636T387 616Z" />
<glyph unicode="&#xf7;" glyph-name="divide" horiz-adv-x="469" d="M233 439Q204 439 185 458T166 505Q166 533 185 552T233 572Q262 572 282 553T302 505Q302 477 282 458T233 439ZM41 366H428V310H41V366ZM233 103Q204 103 185 122T166 170Q166 197 185 216T233
236Q262 236 282 217T302 170Q302 142 282 123T233 103Z" />
<glyph unicode="&#xf8;" glyph-name="oslash" horiz-adv-x="573" d="M110 51Q75 85 55 135T34 255Q34 321 55 371T111 455T192 507T287 525Q328 525 364 516T431 486L484 558H536L464 461Q499 428 519 378T539 261Q539 195 518 144T462 58T382 5T287 -13Q205 -13
143 25L85 -54H33L110 51ZM144 269Q144 218 147 181T159 117L396 438Q379 464 352 473T283 483Q215 483 180 433T144 269ZM291 30Q359 30 394 82T429 247Q429 295 426 331T415 394L179 74Q196 49 223 40T291 30Z" />
<glyph unicode="&#xf9;" glyph-name="ugrave" horiz-adv-x="598" d="M224 -12Q161 -12 125 21T89 119V413Q89 427 88 435T84 447T76 454T62 461L21 479V506L174 523L189 513V142Q189 98 209 76T275 53Q312 53 348 65T413 90V413Q413 427 412 435T409 447T401 454T386
461L346 479V506L499 523L513 513V115Q513 98 514 88T519 72T528 61T543 53L580 36V9L424 -12L413 -4L418 56H414Q374 30 326 9T224 -12ZM193 657Q172 664 164 677T156 703Q156 719 168 732T197 746Q213 746 236 731L399 617L388 593L193 657Z" />
<glyph unicode="&#xfa;" glyph-name="uacute" horiz-adv-x="598" d="M224 -12Q161 -12 125 21T89 119V413Q89 427 88 435T84 447T76 454T62 461L21 479V506L174 523L189 513V142Q189 98 209 76T275 53Q312 53 348 65T413 90V413Q413 427 412 435T409 447T401 454T386
461L346 479V506L499 523L513 513V115Q513 98 514 88T519 72T528 61T543 53L580 36V9L424 -12L413 -4L418 56H414Q374 30 326 9T224 -12ZM193 617L355 731Q377 746 394 746Q411 746 423 733T435 703Q435 690 427 677T398 657L204 593L193 617Z" />
<glyph unicode="&#xfb;" glyph-name="ucircumflex" horiz-adv-x="598" d="M224 -12Q161 -12 125 21T89 119V413Q89 427 88 435T84 447T76 454T62 461L21 479V506L174 523L189 513V142Q189 98 209 76T275 53Q312 53 348 65T413 90V413Q413 427 412 435T409 447T401
454T386 461L346 479V506L499 523L513 513V115Q513 98 514 88T519 72T528 61T543 53L580 36V9L424 -12L413 -4L418 56H414Q374 30 326 9T224 -12ZM464 610L446 586L305 670L164 586L147 610L279 751H330L464 610Z" />
<glyph unicode="&#xfc;" glyph-name="udieresis" horiz-adv-x="598" d="M224 -12Q161 -12 125 21T89 119V413Q89 427 88 435T84 447T76 454T62 461L21 479V506L174 523L189 513V142Q189 98 209 76T275 53Q312 53 348 65T413 90V413Q413 427 412 435T409 447T401
454T386 461L346 479V506L499 523L513 513V115Q513 98 514 88T519 72T528 61T543 53L580 36V9L424 -12L413 -4L418 56H414Q374 30 326 9T224 -12ZM205 616Q178 616 159 635T139 679Q139 705 158 723T205 742Q232 742 251 724T271 679Q271 655 252 636T205 616ZM406
616Q378 616 359 635T340 679Q340 705 359 723T406 742Q433 742 452 724T471 679Q471 655 452 636T406 616Z" />
<glyph unicode="&#xfd;" glyph-name="yacute" horiz-adv-x="532" d="M103 -226Q56 -226 37 -206T17 -161Q17 -138 30 -123T66 -107Q90 -107 102 -119T120 -148Q124 -159 126 -162T136 -166Q153 -166 175 -141T221 -61L245 -4L77 405Q69 425 64 436T53 455T42 465T25
472L1 480V509H229V480L202 473Q185 468 179 463T173 443Q173 425 188 389L296 121H300L398 389Q405 409 407 423T410 447Q410 460 403 464T382 473L354 480V509H535V480L507 472Q498 469 492 465T481 453T470 430T456 395L275 -59Q260 -96 244 -126T207 -179T161
-213T103 -226ZM183 617L345 731Q367 746 384 746Q401 746 413 733T425 703Q425 690 417 677T388 657L194 593L183 617Z" />
<glyph unicode="&#xfe;" glyph-name="thorn" horiz-adv-x="578" d="M70 648Q70 663 69 671T64 685T55 694T41 701L-2 721V749L167 765L177 757Q175 745 173 727Q170 697 170 640V549Q170 532 170 517T168 490Q167 477 166 465H170Q202 489 247 506T343 524Q379
524 415 513T480 473T527 398T545 279Q545 208 525 154T466 62T375 7T256 -12Q236 -12 212 -9T167 1Q167 -7 168 -18Q169 -27 169 -38T170 -63V-127Q170 -143 171 -152T175 -167T183 -175T196 -179L250 -190V-219H2V-190L43 -179Q59 -175 64 -166T70 -127V648ZM268
33Q311 33 343 45T396 84T428 154T439 259Q439 362 399 411T283 461Q241 461 214 448T170 427V70Q190 52 213 43T268 33Z" />
<glyph unicode="&#xff;" glyph-name="ydieresis" horiz-adv-x="532" d="M103 -226Q56 -226 37 -206T17 -161Q17 -138 30 -123T66 -107Q90 -107 102 -119T120 -148Q124 -159 126 -162T136 -166Q153 -166 175 -141T221 -61L245 -4L77 405Q69 425 64 436T53 455T42
465T25 472L1 480V509H229V480L202 473Q185 468 179 463T173 443Q173 425 188 389L296 121H300L398 389Q405 409 407 423T410 447Q410 460 403 464T382 473L354 480V509H535V480L507 472Q498 469 492 465T481 453T470 430T456 395L275 -59Q260 -96 244 -126T207
-179T161 -213T103 -226ZM195 616Q168 616 149 635T129 679Q129 705 148 723T195 742Q222 742 241 724T261 679Q261 655 242 636T195 616ZM396 616Q368 616 349 635T330 679Q330 705 349 723T396 742Q423 742 442 724T461 679Q461 655 442 636T396 616Z" />
<glyph unicode="&#x100;" glyph-name="Amacron" horiz-adv-x="667" d="M1 31L31 38Q41 41 49 44T64 57T79 82T98 128L301 693H361L574 117Q584 92 591 78T606 55T621 44T638 38L666 31V0H415V31L443 38Q463 43 470 49T478 67Q478 78 474 92T462 126L423 233H191L155
126Q148 106 145 95T142 72Q142 56 151 49T178 38L212 31V0H1V31ZM206 278H407L307 560H302L206 278ZM188 842H472V777H188V842Z" />
<glyph unicode="&#x101;" glyph-name="amacron" horiz-adv-x="510" d="M179 -13Q109 -13 68 21T27 120Q27 182 70 216T202 270L319 296V389Q319 414 316 432T304 463T275 480T224 486Q191 486 182 478T169 446Q165 417 154 398T109 379Q79 379 68 394T56 429Q56
454 73 472T119 502T180 519T245 525Q336 525 377 493T419 395V100Q419 80 425 68T446 48Q454 43 466 42T495 39V11Q483 3 458 -4T407 -12Q369 -12 349 4T323 46H318Q300 21 262 4T179 -13ZM222 44Q258 44 283 58T319 91V245L242 237Q188 232 159 208T129 128Q129
84 153 64T222 44ZM362 693H646V628H362V693Z" />
<glyph unicode="&#x102;" glyph-name="Abreve" horiz-adv-x="667" d="M1 31L31 38Q41 41 49 44T64 57T79 82T98 128L301 693H361L574 117Q584 92 591 78T606 55T621 44T638 38L666 31V0H415V31L443 38Q463 43 470 49T478 67Q478 78 474 92T462 126L423 233H191L155
126Q148 106 145 95T142 72Q142 56 151 49T178 38L212 31V0H1V31ZM206 278H407L307 560H302L206 278ZM332 755Q304 755 280 765T238 794T209 835T195 885L224 893Q235 865 262 846T331 827Q373 827 400 846T438 893L466 885Q464 859 453 836T425 794T384 766T332
755Z" />
<glyph unicode="&#x103;" glyph-name="abreve" horiz-adv-x="510" d="M179 -13Q109 -13 68 21T27 120Q27 182 70 216T202 270L319 296V389Q319 414 316 432T304 463T275 480T224 486Q191 486 182 478T169 446Q165 417 154 398T109 379Q79 379 68 394T56 429Q56
454 73 472T119 502T180 519T245 525Q336 525 377 493T419 395V100Q419 80 425 68T446 48Q454 43 466 42T495 39V11Q483 3 458 -4T407 -12Q369 -12 349 4T323 46H318Q300 21 262 4T179 -13ZM222 44Q258 44 283 58T319 91V245L242 237Q188 232 159 208T129 128Q129
84 153 64T222 44ZM506 594Q478 594 454 605T412 635T383 682T369 740L398 748Q409 713 436 689T505 664Q547 664 574 688T612 748L640 740Q638 709 627 682T599 636T558 605T506 594Z" />
<glyph unicode="&#x104;" glyph-name="Aogonek" horiz-adv-x="667" d="M423 233H191L155 126Q148 106 145 95T142 72Q142 56 151 49T178 38L212 31V0H1V31L31 38Q41 41 49 44T64 57T79 82T98 128L301 693H361L574 117Q583 92 591 78T606 55T621 44T638 38L666
31V0H604Q569 0 543 -10T498 -38T471 -76T461 -119Q461 -139 468 -151T492 -168Q503 -170 517 -171T551 -171V-199Q539 -207 520 -215T468 -223Q426 -223 399 -201T372 -139Q372 -99 407 -62T500 18L423 233ZM206 278H407L307 560H302L206 278Z" />
<glyph unicode="&#x105;" glyph-name="aogonek" horiz-adv-x="510" d="M392 -223Q350 -223 323 -201T296 -139Q296 -119 304 -102T327 -68T360 -38T397 -11Q361 -7 344 8T323 46H318Q300 21 262 4T179 -13Q109 -13 68 21T27 120Q27 182 70 216T202 270L319 296V389Q319
414 316 432T304 463T275 480T224 486Q191 486 182 478T169 446Q165 417 154 398T109 379Q79 379 68 394T56 429Q56 454 73 472T119 502T180 519T245 525Q336 525 377 493T419 395V100Q419 80 425 68T446 48Q454 43 466 42T495 39V11Q442 -15 414 -49T385 -119Q385
-139 392 -151T416 -168Q427 -170 441 -171T475 -171V-199Q463 -207 444 -215T392 -223ZM222 44Q258 44 283 58T319 91V245L242 237Q188 232 159 208T129 128Q129 84 153 64T222 44Z" />
<glyph unicode="&#x106;" glyph-name="Cacute" horiz-adv-x="630" d="M365 -12Q294 -12 235 8T132 70T64 180T39 341Q39 441 67 510T142 623T253 685T388 705Q446 705 495 698T577 681L586 483H551Q537 521 520 558T486 622Q478 634 470 641T449 652T420 657T376
659Q322 659 281 645T212 595T170 503T155 360Q155 268 168 206T207 106T272 51T362 34Q396 34 418 38T456 49T480 67T499 91Q509 107 517 120T531 147T544 176T557 212H589L579 32Q544 15 487 2T365 -12ZM264 772L426 886Q448 901 465 901Q482 901 494 888T506
858Q506 845 498 832T469 812L275 748L264 772Z" />
<glyph unicode="&#x107;" glyph-name="cacute" horiz-adv-x="486" d="M270 -12Q212 -12 168 7T94 61T49 143T34 248Q34 329 61 382T130 467T222 512T319 525Q391 525 425 502T460 441Q460 418 444 397T401 376Q372 376 361 390T345 430Q340 464 330 473T293 482Q262
482 234 472T185 437T152 376T140 284Q140 171 183 112T312 52Q363 52 402 66T466 95V55Q454 45 436 33T392 11T336 -5T270 -12ZM174 617L336 731Q358 746 375 746Q392 746 404 733T416 703Q416 690 408 677T379 657L185 593L174 617Z" />
<glyph unicode="&#x108;" glyph-name="Ccircumflex" horiz-adv-x="630" d="M365 -12Q294 -12 235 8T132 70T64 180T39 341Q39 441 67 510T142 623T253 685T388 705Q446 705 495 698T577 681L586 483H551Q537 521 520 558T486 622Q478 634 470 641T449 652T420
657T376 659Q322 659 281 645T212 595T170 503T155 360Q155 268 168 206T207 106T272 51T362 34Q396 34 418 38T456 49T480 67T499 91Q509 107 517 120T531 147T544 176T557 212H589L579 32Q544 15 487 2T365 -12ZM526 770L508 746L367 816L226 746L209 770L341
897H392L526 770Z" />
<glyph unicode="&#x109;" glyph-name="ccircumflex" horiz-adv-x="486" d="M270 -12Q212 -12 168 7T94 61T49 143T34 248Q34 329 61 382T130 467T222 512T319 525Q391 525 425 502T460 441Q460 418 444 397T401 376Q372 376 361 390T345 430Q340 464 330 473T293
482Q262 482 234 472T185 437T152 376T140 284Q140 171 183 112T312 52Q363 52 402 66T466 95V55Q454 45 436 33T392 11T336 -5T270 -12ZM445 610L427 586L286 670L145 586L128 610L260 751H311L445 610Z" />
<glyph unicode="&#x10a;" glyph-name="Cdotaccent" horiz-adv-x="630" d="M365 -12Q294 -12 235 8T132 70T64 180T39 341Q39 441 67 510T142 623T253 685T388 705Q446 705 495 698T577 681L586 483H551Q537 521 520 558T486 622Q478 634 470 641T449 652T420 657T376
659Q322 659 281 645T212 595T170 503T155 360Q155 268 168 206T207 106T272 51T362 34Q396 34 418 38T456 49T480 67T499 91Q509 107 517 120T531 147T544 176T557 212H589L579 32Q544 15 487 2T365 -12ZM368 750Q339 750 320 770T300 815Q300 842 319 861T368
880Q396 880 415 861T435 815Q435 790 416 770T368 750Z" />
<glyph unicode="&#x10b;" glyph-name="cdotaccent" horiz-adv-x="486" d="M270 -12Q212 -12 168 7T94 61T49 143T34 248Q34 329 61 382T130 467T222 512T319 525Q391 525 425 502T460 441Q460 418 444 397T401 376Q372 376 361 390T345 430Q340 464 330 473T293
482Q262 482 234 472T185 437T152 376T140 284Q140 171 183 112T312 52Q363 52 402 66T466 95V55Q454 45 436 33T392 11T336 -5T270 -12ZM287 614Q258 614 239 634T219 679Q219 706 238 725T287 744Q315 744 334 725T354 679Q354 654 335 634T287 614Z" />
<glyph unicode="&#x10c;" glyph-name="Ccaron" horiz-adv-x="630" d="M365 -12Q294 -12 235 8T132 70T64 180T39 341Q39 441 67 510T142 623T253 685T388 705Q446 705 495 698T577 681L586 483H551Q537 521 520 558T486 622Q478 634 470 641T449 652T420 657T376
659Q322 659 281 645T212 595T170 503T155 360Q155 268 168 206T207 106T272 51T362 34Q396 34 418 38T456 49T480 67T499 91Q509 107 517 120T531 147T544 176T557 212H589L579 32Q544 15 487 2T365 -12ZM209 885L226 909L367 839L508 909L526 885L393 758H342L209
885Z" />
<glyph unicode="&#x10d;" glyph-name="ccaron" horiz-adv-x="486" d="M270 -12Q212 -12 168 7T94 61T49 143T34 248Q34 329 61 382T130 467T222 512T319 525Q391 525 425 502T460 441Q460 418 444 397T401 376Q372 376 361 390T345 430Q340 464 330 473T293 482Q262
482 234 472T185 437T152 376T140 284Q140 171 183 112T312 52Q363 52 402 66T466 95V55Q454 45 436 33T392 11T336 -5T270 -12ZM128 739L145 763L286 679L427 763L445 739L312 598H261L128 739Z" />
<glyph unicode="&#x10e;" glyph-name="Dcaron" horiz-adv-x="705" d="M31 31L76 40Q85 41 91 44T101 53T106 70T108 100V594Q108 613 107 624T101 641T91 649T76 654L31 663V693H328Q400 693 462 676T570 619T642 514T669 353Q669 265 644 199T572 89T462 22T322
0H31V31ZM315 42Q385 42 431 63T505 123T544 215T555 334Q555 417 542 477T500 575T425 632T313 651Q276 651 254 649T217 642V139Q217 109 219 90T231 61T260 46T315 42ZM182 885L199 909L340 839L481 909L499 885L366 758H315L182 885Z" />
<glyph unicode="&#x10f;" glyph-name="dcaron" horiz-adv-x="597" d="M239 -12Q203 -12 167 0T103 42T56 119T38 239Q38 312 61 365T124 454T215 507T320 524Q352 524 376 521T415 512Q414 523 413 536Q412 547 412 560T412 588V648Q412 663 411 671T406 685T397
694T382 701L340 721V749L508 765L518 757Q516 745 515 727Q512 697 512 640V115Q512 98 513 88T518 72T527 61T542 53L579 36V9L420 -12L413 -6L418 47H414Q382 23 336 6T239 -12ZM294 56Q340 56 367 68T412 89V438Q395 454 372 467T313 480Q274 480 243 468T189
430T155 362T143 259Q143 151 182 104T294 56ZM585 572L593 715Q594 734 603 749T639 765Q656 765 668 755T680 726Q680 719 679 712T673 695L610 565L585 572Z" />
<glyph unicode="&#x110;" glyph-name="Dcroat" horiz-adv-x="705" d="M34 372H108V594Q108 613 107 624T101 641T91 649T76 654L31 663V693H328Q400 693 462 676T570 619T642 514T669 353Q669 265 644 199T572 89T462 22T322 0H31V31L76 40Q85 41 91 44T101 53T106
70T108 100V329H34V372ZM315 42Q385 42 431 63T505 123T544 215T555 334Q555 417 542 477T500 575T425 632T313 651Q276 651 254 649T217 642V372H401V329H217V139Q217 109 219 90T231 61T260 46T315 42Z" />
<glyph unicode="&#x111;" glyph-name="dcroat" horiz-adv-x="597" d="M227 639H412V648Q412 663 411 671T406 685T397 694T382 701L340 721V749L508 765L518 757Q516 745 515 727Q512 697 512 640V639H603V598H512V115Q512 98 513 88T518 72T527 61T542 53L579
36V9L420 -12L413 -6L418 47H414Q382 23 336 6T239 -12Q203 -12 167 0T103 42T56 119T38 239Q38 312 61 365T124 454T215 507T320 524Q352 524 376 521T415 512Q414 523 413 536Q412 547 412 560T412 588V598H227V639ZM294 56Q340 56 367 68T412 89V438Q395 454
372 467T313 480Q274 480 243 468T189 430T155 362T143 259Q143 151 182 104T294 56Z" />
<glyph unicode="&#x112;" glyph-name="Emacron" horiz-adv-x="617" d="M31 31L76 40Q85 41 91 44T101 53T106 70T108 100V594Q108 613 107 624T101 641T91 649T76 654L31 663V693H548L561 516H525Q509 553 498 575T477 610Q466 624 457 632T433 643T397 648T341
649Q286 649 259 647T217 640V383H261Q319 383 345 388T382 414Q390 431 395 445T407 483H442V237H407Q403 248 401 256T395 273T389 288T382 306Q377 317 370 323T350 333T316 336T261 337H217V152Q217 112 219 90T234 58T274 46T350 44Q385 44 407 45T443 49T466
60T487 81Q499 97 515 132T547 209H584L569 0H31V31ZM172 842H456V777H172V842Z" />
<glyph unicode="&#x113;" glyph-name="emacron" horiz-adv-x="519" d="M281 -12Q219 -12 173 7T95 63T49 149T34 260Q34 320 54 369T108 452T186 506T281 525Q329 525 366 512T430 468T471 389T485 270H140Q141 213 154 172T190 104T244 65T314 52Q372 52 409
66T475 94V54Q465 46 447 35T404 13T348 -5T281 -12ZM277 483Q222 483 185 442T141 312L373 324Q373 367 369 397T354 447T325 474T277 483ZM138 693H422V628H138V693Z" />
<glyph unicode="&#x114;" glyph-name="Ebreve" horiz-adv-x="617" d="M31 31L76 40Q85 41 91 44T101 53T106 70T108 100V594Q108 613 107 624T101 641T91 649T76 654L31 663V693H548L561 516H525Q509 553 498 575T477 610Q466 624 457 632T433 643T397 648T341
649Q286 649 259 647T217 640V383H261Q319 383 345 388T382 414Q390 431 395 445T407 483H442V237H407Q403 248 401 256T395 273T389 288T382 306Q377 317 370 323T350 333T316 336T261 337H217V152Q217 112 219 90T234 58T274 46T350 44Q385 44 407 45T443 49T466
60T487 81Q499 97 515 132T547 209H584L569 0H31V31ZM316 755Q288 755 264 765T222 794T193 835T179 885L208 893Q219 865 246 846T315 827Q357 827 384 846T422 893L450 885Q448 859 437 836T409 794T368 766T316 755Z" />
<glyph unicode="&#x115;" glyph-name="ebreve" horiz-adv-x="519" d="M281 -12Q219 -12 173 7T95 63T49 149T34 260Q34 320 54 369T108 452T186 506T281 525Q329 525 366 512T430 468T471 389T485 270H140Q141 213 154 172T190 104T244 65T314 52Q372 52 409 66T475
94V54Q465 46 447 35T404 13T348 -5T281 -12ZM277 483Q222 483 185 442T141 312L373 324Q373 367 369 397T354 447T325 474T277 483ZM282 594Q254 594 230 605T188 635T159 682T145 740L174 748Q185 713 212 689T281 664Q323 664 350 688T388 748L416 740Q414 709
403 682T375 636T334 605T282 594Z" />
<glyph unicode="&#x116;" glyph-name="Edotaccent" horiz-adv-x="617" d="M31 31L76 40Q85 41 91 44T101 53T106 70T108 100V594Q108 613 107 624T101 641T91 649T76 654L31 663V693H548L561 516H525Q509 553 498 575T477 610Q466 624 457 632T433 643T397 648T341
649Q286 649 259 647T217 640V383H261Q319 383 345 388T382 414Q390 431 395 445T407 483H442V237H407Q403 248 401 256T395 273T389 288T382 306Q377 317 370 323T350 333T316 336T261 337H217V152Q217 112 219 90T234 58T274 46T350 44Q385 44 407 45T443 49T466
60T487 81Q499 97 515 132T547 209H584L569 0H31V31ZM315 750Q286 750 267 770T247 815Q247 842 266 861T315 880Q343 880 362 861T382 815Q382 790 363 770T315 750Z" />
<glyph unicode="&#x117;" glyph-name="edotaccent" horiz-adv-x="519" d="M281 -12Q219 -12 173 7T95 63T49 149T34 260Q34 320 54 369T108 452T186 506T281 525Q329 525 366 512T430 468T471 389T485 270H140Q141 213 154 172T190 104T244 65T314 52Q372 52 409
66T475 94V54Q465 46 447 35T404 13T348 -5T281 -12ZM277 483Q222 483 185 442T141 312L373 324Q373 367 369 397T354 447T325 474T277 483ZM281 614Q252 614 233 634T213 679Q213 706 232 725T281 744Q309 744 328 725T348 679Q348 654 329 634T281 614Z" />
<glyph unicode="&#x118;" glyph-name="Eogonek" horiz-adv-x="617" d="M31 31L76 40Q85 41 91 44T101 53T106 70T108 100V594Q108 613 107 624T101 641T91 649T76 654L31 663V693H548L561 516H525Q509 553 498 575T477 610Q466 624 457 632T433 643T397 648T341
649Q286 649 259 647T217 640V383H261Q319 383 345 388T382 414Q390 431 395 445T407 483H442V237H407Q403 248 401 256T395 273T389 288T382 306Q377 317 370 323T350 333T316 336T261 337H217V152Q217 112 219 90T234 58T274 46T350 44Q385 44 407 45T443 49T466
60T487 81Q499 97 515 132T547 209H584L569 0H485Q459 -29 444 -58T428 -119Q428 -139 435 -151T459 -168Q470 -170 484 -171T518 -171V-199Q506 -207 487 -215T435 -223Q393 -223 366 -201T339 -139Q339 -118 348 -98T370 -61T401 -28T435 0H31V31Z" />
<glyph unicode="&#x119;" glyph-name="eogonek" horiz-adv-x="519" d="M281 -12Q219 -12 173 7T95 63T49 149T34 260Q34 320 54 369T108 452T186 506T281 525Q329 525 366 512T430 468T471 389T485 270H140Q141 213 154 172T190 104T244 65T314 52Q372 52 409
66T475 94V54Q449 34 423 20T371 -11Q344 -28 326 -56T307 -119Q307 -139 314 -151T338 -168Q349 -170 363 -171T397 -171V-199Q385 -207 366 -215T314 -223Q272 -223 245 -201T218 -139Q218 -100 245 -67T310 -10Q299 -12 293 -12T281 -12ZM277 483Q222 483 185
442T141 312L373 324Q373 367 369 397T354 447T325 474T277 483Z" />
<glyph unicode="&#x11a;" glyph-name="Ecaron" horiz-adv-x="617" d="M31 31L76 40Q85 41 91 44T101 53T106 70T108 100V594Q108 613 107 624T101 641T91 649T76 654L31 663V693H548L561 516H525Q509 553 498 575T477 610Q466 624 457 632T433 643T397 648T341
649Q286 649 259 647T217 640V383H261Q319 383 345 388T382 414Q390 431 395 445T407 483H442V237H407Q403 248 401 256T395 273T389 288T382 306Q377 317 370 323T350 333T316 336T261 337H217V152Q217 112 219 90T234 58T274 46T350 44Q385 44 407 45T443 49T466
60T487 81Q499 97 515 132T547 209H584L569 0H31V31ZM156 885L173 909L314 839L455 909L473 885L340 758H289L156 885Z" />
<glyph unicode="&#x11b;" glyph-name="ecaron" horiz-adv-x="519" d="M281 -12Q219 -12 173 7T95 63T49 149T34 260Q34 320 54 369T108 452T186 506T281 525Q329 525 366 512T430 468T471 389T485 270H140Q141 213 154 172T190 104T244 65T314 52Q372 52 409 66T475
94V54Q465 46 447 35T404 13T348 -5T281 -12ZM277 483Q222 483 185 442T141 312L373 324Q373 367 369 397T354 447T325 474T277 483ZM122 739L139 763L280 679L421 763L439 739L306 598H255L122 739Z" />
<glyph unicode="&#x11c;" glyph-name="Gcircumflex" horiz-adv-x="690" d="M381 -12Q303 -12 240 9T132 73T63 183T39 341Q39 441 67 510T144 623T255 686T388 705Q457 705 503 700T588 686L602 487H566Q549 536 533 565T506 611Q497 624 490 633T470 647T437
654T382 657Q326 657 283 642T211 591T168 501T153 365Q153 278 165 216T205 114T275 56T379 37Q422 37 451 43T501 60V198Q501 217 500 227T495 244T485 252T469 257L421 267V298H676V267L641 259Q632 257 626 254T617 245T612 228T610 198V23Q570 12 512 0T381
-12ZM524 770L506 746L365 816L224 746L207 770L339 897H390L524 770Z" />
<glyph unicode="&#x11d;" glyph-name="gcircumflex" horiz-adv-x="508" d="M210 -224Q108 -224 51 -191T-7 -104Q-7 -67 23 -36T108 14V18Q82 27 62 46T41 101Q41 122 48 139T67 169T92 194T118 214V218Q103 225 88 237T60 267T41 306T33 350Q33 394 50 427T96
481T160 513T231 524Q261 524 286 520T337 504Q363 526 395 542T462 558Q485 558 501 546T517 511Q517 492 506 477T475 462Q455 462 446 470T430 492Q425 503 404 498T362 481V478Q393 460 411 431T430 359Q430 315 413 283T367 230T303 199T231 189Q206 189 189
192T153 204Q141 196 130 182T118 149Q118 130 133 117T181 103H339Q371 103 398 97T444 77T473 38T484 -24Q484 -53 471 -88T426 -153T341 -203T210 -224ZM231 230Q279 230 303 256T328 347Q328 421 304 452T231 484Q184 484 160 456T135 362Q135 289 159 260T231
230ZM227 -182Q264 -182 297 -173T356 -149T395 -112T410 -65Q410 -31 392 -10T320 12H166Q154 9 140 1T114 -21T94 -51T86 -88Q86 -134 120 -158T227 -182ZM419 610L401 586L260 670L119 586L102 610L234 751H285L419 610Z" />
<glyph unicode="&#x11e;" glyph-name="Gbreve" horiz-adv-x="690" d="M381 -12Q303 -12 240 9T132 73T63 183T39 341Q39 441 67 510T144 623T255 686T388 705Q457 705 503 700T588 686L602 487H566Q549 536 533 565T506 611Q497 624 490 633T470 647T437 654T382
657Q326 657 283 642T211 591T168 501T153 365Q153 278 165 216T205 114T275 56T379 37Q422 37 451 43T501 60V198Q501 217 500 227T495 244T485 252T469 257L421 267V298H676V267L641 259Q632 257 626 254T617 245T612 228T610 198V23Q570 12 512 0T381 -12ZM367
755Q339 755 315 765T273 794T244 835T230 885L259 893Q270 865 297 846T366 827Q408 827 435 846T473 893L501 885Q499 859 488 836T460 794T419 766T367 755Z" />
<glyph unicode="&#x11f;" glyph-name="gbreve" horiz-adv-x="508" d="M210 -224Q108 -224 51 -191T-7 -104Q-7 -67 23 -36T108 14V18Q82 27 62 46T41 101Q41 122 48 139T67 169T92 194T118 214V218Q103 225 88 237T60 267T41 306T33 350Q33 394 50 427T96 481T160
513T231 524Q261 524 286 520T337 504Q363 526 395 542T462 558Q485 558 501 546T517 511Q517 492 506 477T475 462Q455 462 446 470T430 492Q425 503 404 498T362 481V478Q393 460 411 431T430 359Q430 315 413 283T367 230T303 199T231 189Q206 189 189 192T153
204Q141 196 130 182T118 149Q118 130 133 117T181 103H339Q371 103 398 97T444 77T473 38T484 -24Q484 -53 471 -88T426 -153T341 -203T210 -224ZM231 230Q279 230 303 256T328 347Q328 421 304 452T231 484Q184 484 160 456T135 362Q135 289 159 260T231 230ZM227
-182Q264 -182 297 -173T356 -149T395 -112T410 -65Q410 -31 392 -10T320 12H166Q154 9 140 1T114 -21T94 -51T86 -88Q86 -134 120 -158T227 -182ZM262 594Q234 594 210 605T168 635T139 682T125 740L154 748Q165 713 192 689T261 664Q303 664 330 688T368 748L396
740Q394 709 383 682T355 636T314 605T262 594Z" />
<glyph unicode="&#x120;" glyph-name="Gdotaccent" horiz-adv-x="690" d="M381 -12Q303 -12 240 9T132 73T63 183T39 341Q39 441 67 510T144 623T255 686T388 705Q457 705 503 700T588 686L602 487H566Q549 536 533 565T506 611Q497 624 490 633T470 647T437 654T382
657Q326 657 283 642T211 591T168 501T153 365Q153 278 165 216T205 114T275 56T379 37Q422 37 451 43T501 60V198Q501 217 500 227T495 244T485 252T469 257L421 267V298H676V267L641 259Q632 257 626 254T617 245T612 228T610 198V23Q570 12 512 0T381 -12ZM366
750Q337 750 318 770T298 815Q298 842 317 861T366 880Q394 880 413 861T433 815Q433 790 414 770T366 750Z" />
<glyph unicode="&#x121;" glyph-name="gdotaccent" horiz-adv-x="508" d="M210 -224Q108 -224 51 -191T-7 -104Q-7 -67 23 -36T108 14V18Q82 27 62 46T41 101Q41 122 48 139T67 169T92 194T118 214V218Q103 225 88 237T60 267T41 306T33 350Q33 394 50 427T96
481T160 513T231 524Q261 524 286 520T337 504Q363 526 395 542T462 558Q485 558 501 546T517 511Q517 492 506 477T475 462Q455 462 446 470T430 492Q425 503 404 498T362 481V478Q393 460 411 431T430 359Q430 315 413 283T367 230T303 199T231 189Q206 189 189
192T153 204Q141 196 130 182T118 149Q118 130 133 117T181 103H339Q371 103 398 97T444 77T473 38T484 -24Q484 -53 471 -88T426 -153T341 -203T210 -224ZM231 230Q279 230 303 256T328 347Q328 421 304 452T231 484Q184 484 160 456T135 362Q135 289 159 260T231
230ZM227 -182Q264 -182 297 -173T356 -149T395 -112T410 -65Q410 -31 392 -10T320 12H166Q154 9 140 1T114 -21T94 -51T86 -88Q86 -134 120 -158T227 -182ZM261 614Q232 614 213 634T193 679Q193 706 212 725T261 744Q289 744 308 725T328 679Q328 654 309 634T261
614Z" />
<glyph unicode="&#x122;" glyph-name="Gcommaaccent" horiz-adv-x="690" d="M381 -12Q303 -12 240 9T132 73T63 183T39 341Q39 441 67 510T144 623T255 686T388 705Q457 705 503 700T588 686L602 487H566Q549 536 533 565T506 611Q497 624 490 633T470 647T437
654T382 657Q326 657 283 642T211 591T168 501T153 365Q153 278 165 216T205 114T275 56T379 37Q422 37 451 43T501 60V198Q501 217 500 227T495 244T485 252T469 257L421 267V298H676V267L641 259Q632 257 626 254T617 245T612 228T610 198V23Q570 12 512 0T381
-12ZM284 -257Q310 -248 326 -238T352 -216T365 -192T369 -168Q366 -170 360 -172T344 -175Q317 -175 304 -160T291 -123Q291 -100 309 -84T355 -67Q387 -67 410 -85T433 -146Q433 -192 399 -231T292 -284L284 -257Z" />
<glyph unicode="&#x123;" glyph-name="gcommaaccent" horiz-adv-x="508" d="M210 -224Q108 -224 51 -191T-7 -104Q-7 -67 23 -36T108 14V18Q82 27 62 46T41 101Q41 122 48 139T67 169T92 194T118 214V218Q103 225 88 237T60 267T41 306T33 350Q33 394 50 427T96
481T160 513T231 524Q261 524 286 520T337 504Q363 526 395 542T462 558Q485 558 501 546T517 511Q517 492 506 477T475 462Q455 462 446 470T430 492Q425 503 404 498T362 481V478Q393 460 411 431T430 359Q430 315 413 283T367 230T303 199T231 189Q206 189 189
192T153 204Q141 196 130 182T118 149Q118 130 133 117T181 103H339Q371 103 398 97T444 77T473 38T484 -24Q484 -53 471 -88T426 -153T341 -203T210 -224ZM231 230Q279 230 303 256T328 347Q328 421 304 452T231 484Q184 484 160 456T135 362Q135 289 159 260T231
230ZM227 -182Q264 -182 297 -173T356 -149T395 -112T410 -65Q410 -31 392 -10T320 12H166Q154 9 140 1T114 -21T94 -51T86 -88Q86 -134 120 -158T227 -182ZM333 796Q307 787 291 777T265 755T252 731T248 707Q251 709 257 711T273 714Q300 714 313 699T326 662Q326
639 308 623T262 606Q230 606 207 624T184 685Q184 731 218 770T325 823L333 796Z" />
<glyph unicode="&#x124;" glyph-name="Hcircumflex" horiz-adv-x="741" d="M31 31L76 40Q85 41 91 44T101 53T106 70T108 100V594Q108 613 107 624T101 641T91 649T76 654L31 663V693H297V663L249 654Q239 652 233 649T223 640T218 624T217 594V376H523V594Q523
613 522 623T518 640T508 649T492 654L444 663V693H710V663L664 654Q655 652 649 650T639 641T634 624T632 594V100Q632 81 633 70T638 53T648 45T664 40L710 31V0H444V31L492 40Q502 42 508 44T517 53T522 70T523 100V330H217V100Q217 81 218 70T222 53T232 45T249
40L297 31V0H31V31ZM529 770L511 746L370 816L229 746L212 770L344 897H395L529 770Z" />
<glyph unicode="&#x125;" glyph-name="hcircumflex" horiz-adv-x="604" d="M25 30L66 41Q81 45 87 54T93 93V648Q93 663 92 671T87 685T78 694T63 701L20 721V749L190 765L200 757Q198 742 196 724Q193 692 193 640V549Q193 532 192 516T190 488Q189 474 188 461H192Q211
473 233 484T281 504T331 518T381 524Q457 524 487 492T517 391V93Q517 64 523 55T544 41L584 30V0H350V30L391 41Q398 43 403 45T411 53T415 67T417 93V363Q417 416 398 437T330 458Q312 458 292 455T254 447T220 437T193 427V93Q193 77 194 68T198 53T206 46T219
41L260 30V0H25V30ZM461 840L443 816L302 886L161 816L144 840L276 967H327L461 840Z" />
<glyph unicode="&#x126;" glyph-name="Hbar" horiz-adv-x="741" d="M27 538H108V594Q108 613 107 624T101 641T91 649T76 654L31 663V693H297V663L249 654Q239 652 233 649T223 640T218 624T217 594V538H523V594Q523 613 522 623T518 640T508 649T492 654L444
663V693H710V663L664 654Q655 652 649 650T639 641T634 624T632 594V538H714V493H632V100Q632 81 633 70T638 53T648 45T664 40L710 31V0H444V31L492 40Q502 42 508 44T517 53T522 70T523 100V330H217V100Q217 81 218 70T222 53T232 45T249 40L297 31V0H31V31L76
40Q85 41 91 44T101 53T106 70T108 100V493H27V538ZM523 376V493H217V376H523Z" />
<glyph unicode="&#x127;" glyph-name="hbar" horiz-adv-x="604" d="M-4 639H93V648Q93 663 92 671T87 685T78 694T63 701L20 721V749L190 765L200 757Q198 742 196 724Q193 692 193 640V639H372V598H193V549Q193 532 192 516T190 488Q189 474 188 461H192Q211
473 233 484T281 504T331 518T381 524Q457 524 487 492T517 391V93Q517 64 523 55T544 41L584 30V0H350V30L391 41Q398 43 403 45T411 53T415 67T417 93V363Q417 416 398 437T330 458Q312 458 292 455T254 447T220 437T193 427V93Q193 77 194 68T198 53T206 46T219
41L260 30V0H25V30L66 41Q81 45 87 54T93 93V598H-4V639Z" />
<glyph unicode="&#x128;" glyph-name="Itilde" horiz-adv-x="333" d="M31 31L80 40Q89 41 95 44T105 53T110 70T112 100V594Q112 613 111 624T106 641T96 649T80 654L31 663V693H303V663L253 654Q243 652 237 650T227 641T222 624T221 594V100Q221 81 222 70T226
53T236 45T253 40L303 31V0H31V31ZM261 777Q283 836 305 863T359 891Q374 891 394 885T433 871T469 857T495 850Q511 850 524 861T555 906L587 893Q565 833 543 806T489 779Q474 779 455 785T416 799T380 813T353 820Q337 820 325 809T295 763L261 777Z" />
<glyph unicode="&#x129;" glyph-name="itilde" horiz-adv-x="279" d="M25 28L66 40Q83 44 88 54T93 99V398Q93 415 92 424T88 439T78 448T63 456L25 476V502L190 523L200 517Q199 513 196 484T193 400V99Q193 81 194 70T198 53T206 45T219 40L260 28V0H25V28ZM200
517Q201 518 201 517H200ZM236 597Q258 660 280 690T334 721Q349 721 369 715T408 701T444 687T470 680Q486 680 499 695T530 746L562 733Q540 670 518 640T464 609Q449 609 430 615T391 629T355 643T328 650Q312 650 300 634T270 583L236 597Z" />
<glyph unicode="&#x12a;" glyph-name="Imacron" horiz-adv-x="333" d="M31 31L80 40Q89 41 95 44T105 53T110 70T112 100V594Q112 613 111 624T106 641T96 649T80 654L31 663V693H303V663L253 654Q243 652 237 650T227 641T222 624T221 594V100Q221 81 222 70T226
53T236 45T253 40L303 31V0H31V31ZM282 842H566V777H282V842Z" />
<glyph unicode="&#x12b;" glyph-name="imacron" horiz-adv-x="279" d="M25 28L66 40Q83 44 88 54T93 99V398Q93 415 92 424T88 439T78 448T63 456L25 476V502L190 523L200 517Q199 513 196 484T193 400V99Q193 81 194 70T198 53T206 45T219 40L260 28V0H25V28ZM10
693H254V628H10V693ZM200 517Q201 518 201 517H200Z" />
<glyph unicode="&#x12c;" glyph-name="Ibreve" horiz-adv-x="333" d="M31 31L80 40Q89 41 95 44T105 53T110 70T112 100V594Q112 613 111 624T106 641T96 649T80 654L31 663V693H303V663L253 654Q243 652 237 650T227 641T222 624T221 594V100Q221 81 222 70T226
53T236 45T253 40L303 31V0H31V31ZM426 755Q398 755 374 765T332 794T303 835T289 885L318 893Q329 865 356 846T425 827Q467 827 494 846T532 893L560 885Q558 859 547 836T519 794T478 766T426 755Z" />
<glyph unicode="&#x12d;" glyph-name="ibreve" horiz-adv-x="279" d="M25 28L66 40Q83 44 88 54T93 99V398Q93 415 92 424T88 439T78 448T63 456L25 476V502L190 523L200 517Q199 513 196 484T193 400V99Q193 81 194 70T198 53T206 45T219 40L260 28V0H25V28ZM200
517Q201 518 201 517H200ZM401 594Q373 594 349 605T307 635T278 682T264 740L293 748Q304 713 331 689T400 664Q442 664 469 688T507 748L535 740Q533 709 522 682T494 636T453 605T401 594Z" />
<glyph unicode="&#x12e;" glyph-name="Iogonek" horiz-adv-x="333" d="M31 31L80 40Q89 41 95 44T105 53T110 70T112 100V594Q112 613 111 624T106 641T96 649T80 654L31 663V693H303V663L253 654Q243 652 237 650T227 641T222 624T221 594V100Q221 81 222 70T226
53T236 45T253 40L303 31V0H218Q198 -29 187 -58T176 -119Q176 -139 183 -151T207 -168Q218 -170 232 -171T266 -171V-199Q254 -207 235 -215T183 -223Q141 -223 114 -201T87 -139Q87 -119 95 -99T115 -61T142 -28T170 0H31V31Z" />
<glyph unicode="&#x12f;" glyph-name="iogonek" horiz-adv-x="279" d="M25 30L66 41Q81 45 87 54T93 93V403Q93 418 92 426T88 440T78 449T63 457L25 476V502L190 523L200 517Q198 505 196 488Q193 459 193 405V93Q193 77 194 68T198 53T206 46T219 41L260 30V0H195Q145
-57 145 -119Q145 -139 152 -151T176 -168Q187 -170 201 -171T235 -171V-199Q223 -207 204 -215T152 -223Q110 -223 83 -201T56 -139Q56 -117 64 -97T86 -60T115 -27T146 0H25V30ZM139 614Q110 614 91 634T71 679Q71 706 90 725T139 744Q167 744 186 725T206 679Q206
654 187 634T139 614Z" />
<glyph unicode="&#x130;" glyph-name="Idotaccent" horiz-adv-x="333" d="M31 31L80 40Q89 41 95 44T105 53T110 70T112 100V594Q112 613 111 624T106 641T96 649T80 654L31 663V693H303V663L253 654Q243 652 237 650T227 641T222 624T221 594V100Q221 81 222
70T226 53T236 45T253 40L303 31V0H31V31ZM425 750Q396 750 377 770T357 815Q357 842 376 861T425 880Q453 880 472 861T492 815Q492 790 473 770T425 750Z" />
<glyph unicode="&#x131;" glyph-name="dotlessi" horiz-adv-x="279" d="M25 28L66 40Q83 44 88 54T93 99V398Q93 415 92 424T88 439T78 448T63 456L25 476V502L190 523L200 517Q199 513 196 484T193 400V99Q193 81 194 70T198 53T206 45T219 40L260 28V0H25V28ZM200
517Q201 518 201 517H200Z" />
<glyph unicode="&#x132;" glyph-name="IJ" horiz-adv-x="644" d="M31 31L80 40Q89 41 95 44T105 53T110 70T112 100V594Q112 613 111 624T106 641T96 649T80 654L31 663V693H303V663L253 654Q243 652 237 650T227 641T222 624T221 594V100Q221 81 222 70T226 53T236
45T253 40L303 31V0H31V31ZM354 -163Q297 -163 268 -142T239 -89Q239 -69 252 -54T294 -39Q325 -39 337 -54T357 -98Q362 -113 366 -117T385 -122Q411 -122 426 -102T441 -26V594Q441 613 440 623T436 640T426 649T409 654L361 663V693H628V663L582 654Q573 652
567 650T557 641T552 624T550 594V59Q550 11 538 -30T502 -100T440 -146T354 -163Z" />
<glyph unicode="&#x133;" glyph-name="ij" d="M139 614Q110 614 91 634T71 679Q71 706 90 725T139 744Q167 744 186 725T206 679Q206 654 187 634T139 614ZM25 30L66 41Q81 45 87 54T93 93V403Q93 418 92 426T88 440T78 449T63 457L25 476V502L190 523L200 517Q198
505 196 488Q193 459 193 405V93Q193 77 194 68T198 53T206 46T219 41L260 30V0H25V30ZM417 614Q388 614 369 634T349 679Q349 706 368 725T417 744Q445 744 464 725T484 679Q484 654 465 634T417 614ZM291 -228Q244 -228 221 -207T198 -159Q198 -139 213 -126T251
-112Q280 -112 290 -126T303 -157Q306 -180 310 -185T322 -191Q345 -191 359 -173T373 -127V403Q373 418 372 426T368 440T358 449T343 457L305 476V502L470 523L480 517Q478 505 476 487Q473 457 473 400V-22Q473 -79 459 -118T420 -181T362 -217T291 -228Z" />
<glyph unicode="&#x134;" glyph-name="Jcircumflex" horiz-adv-x="311" d="M21 -163Q-36 -163 -65 -142T-94 -89Q-94 -69 -81 -54T-39 -39Q-8 -39 4 -54T24 -98Q29 -113 33 -117T52 -122Q78 -122 93 -102T108 -26V594Q108 613 107 623T103 640T93 649T76 654L28
663V693H295V663L249 654Q240 652 234 650T224 641T219 624T217 594V59Q217 11 205 -30T169 -100T107 -146T21 -163ZM579 770L561 746L420 816L279 746L262 770L394 897H445L579 770Z" />
<glyph unicode="&#x135;" glyph-name="jcircumflex" horiz-adv-x="271" d="M11 -228Q-36 -228 -59 -207T-82 -159Q-82 -139 -67 -126T-29 -112Q0 -112 10 -126T23 -157Q26 -180 30 -185T42 -191Q65 -191 79 -173T93 -127V403Q93 418 92 426T88 440T78 449T63 457L25
476V502L190 523L200 517Q198 505 196 487Q193 457 193 400V-22Q193 -79 179 -118T140 -181T82 -217T11 -228ZM558 610L540 586L399 670L258 586L241 610L373 751H424L558 610Z" />
<glyph unicode="&#x136;" glyph-name="Kcommaaccent" horiz-adv-x="658" d="M494 0Q461 36 428 78T364 164T303 254T250 344V357L433 567Q453 589 461 603T469 626Q469 637 458 644T431 655L397 663V693H628V663L612 658Q599 655 589 650T568 637T544 615T513
582L338 392Q361 352 390 308T451 219T515 135T576 62Q587 50 593 47T609 41L656 31V0H494ZM31 31L76 40Q85 41 91 44T101 53T106 70T108 100V594Q108 613 107 624T101 641T91 649T76 654L31 663V693H297V663L249 654Q239 652 233 649T223 640T218 624T217 594V100Q217
81 218 70T222 53T232 45T249 40L297 31V0H31V31ZM277 -257Q303 -248 319 -238T345 -216T358 -192T362 -168Q359 -170 353 -172T337 -175Q310 -175 297 -160T284 -123Q284 -100 302 -84T348 -67Q380 -67 403 -85T426 -146Q426 -192 392 -231T285 -284L277 -257Z"
/>
<glyph unicode="&#x137;" glyph-name="kcommaaccent" horiz-adv-x="542" d="M25 30L66 41Q81 45 87 54T93 93V648Q93 663 92 671T87 685T78 694T63 701L20 721V749L190 765L200 757Q198 742 196 724Q193 692 193 640V93Q193 77 194 68T198 53T206 46T219 41L260
30V0H25V30ZM408 0Q379 31 354 61T304 121T257 184T210 252V267L313 379Q344 414 356 429T368 454Q368 469 344 476L329 481V509H516V480L485 470Q464 463 444 451T394 408L292 298Q336 233 382 173T481 58Q488 50 494 47T508 41L542 30V0H408ZM219 -257Q245 -248
261 -238T287 -216T300 -192T304 -168Q301 -170 295 -172T279 -175Q252 -175 239 -160T226 -123Q226 -100 244 -84T290 -67Q322 -67 345 -85T368 -146Q368 -192 334 -231T227 -284L219 -257Z" />
<glyph unicode="&#x139;" glyph-name="Lacute" horiz-adv-x="584" d="M31 31L76 40Q85 41 91 44T101 53T106 70T108 100V594Q108 613 107 624T101 641T91 649T76 654L31 663V693H301V663L249 653Q239 651 233 649T224 640T219 624T217 594V142Q217 107 219 88T232
59T265 47T328 44Q362 44 384 46T421 54T446 69T467 94Q478 110 495 140T527 220H565L552 0H31V31ZM333 772L495 886Q517 901 534 901Q551 901 563 888T575 858Q575 845 567 832T538 812L344 748L333 772Z" />
<glyph unicode="&#x13a;" glyph-name="lacute" horiz-adv-x="280" d="M25 30L66 41Q81 45 87 54T93 93V648Q93 663 92 671T87 685T78 694T63 701L20 721V749L190 765L200 757Q198 742 196 724Q193 692 193 640V93Q193 77 194 68T198 53T206 46T219 41L260 30V0H25V30ZM294
842L456 956Q478 971 495 971Q512 971 524 958T536 928Q536 915 528 902T499 882L305 818L294 842Z" />
<glyph unicode="&#x13b;" glyph-name="Lcommaaccent" horiz-adv-x="584" d="M31 31L76 40Q85 41 91 44T101 53T106 70T108 100V594Q108 613 107 624T101 641T91 649T76 654L31 663V693H301V663L249 653Q239 651 233 649T224 640T219 624T217 594V142Q217 107 219
88T232 59T265 47T328 44Q362 44 384 46T421 54T446 69T467 94Q478 110 495 140T527 220H565L552 0H31V31ZM228 -257Q254 -248 270 -238T296 -216T309 -192T313 -168Q310 -170 304 -172T288 -175Q261 -175 248 -160T235 -123Q235 -100 253 -84T299 -67Q331 -67
354 -85T377 -146Q377 -192 343 -231T236 -284L228 -257Z" />
<glyph unicode="&#x13c;" glyph-name="lcommaaccent" horiz-adv-x="280" d="M25 30L66 41Q81 45 87 54T93 93V648Q93 663 92 671T87 685T78 694T63 701L20 721V749L190 765L200 757Q198 742 196 724Q193 692 193 640V93Q193 77 194 68T198 53T206 46T219 41L260
30V0H25V30ZM323 -257Q349 -248 365 -238T391 -216T404 -192T408 -168Q405 -170 399 -172T383 -175Q356 -175 343 -160T330 -123Q330 -100 348 -84T394 -67Q426 -67 449 -85T472 -146Q472 -192 438 -231T331 -284L323 -257Z" />
<glyph unicode="&#x13d;" glyph-name="Lcaron" horiz-adv-x="584" d="M372 508L380 663Q382 682 391 697T426 713Q443 713 455 703T467 674Q467 660 460 643L397 501L372 508ZM31 31L76 40Q85 41 91 44T101 53T106 70T108 100V594Q108 613 107 624T101 641T91
649T76 654L31 663V693H301V663L249 653Q239 651 233 649T224 640T219 624T217 594V142Q217 107 219 88T232 59T265 47T328 44Q362 44 384 46T421 54T446 69T467 94Q478 110 495 140T527 220H565L552 0H31V31Z" />
<glyph unicode="&#x13e;" glyph-name="lcaron" horiz-adv-x="280" d="M25 30L66 41Q81 45 87 54T93 93V648Q93 663 92 671T87 685T78 694T63 701L20 721V749L190 765L200 757Q198 742 196 724Q193 692 193 640V93Q193 77 194 68T198 53T206 46T219 41L260 30V0H25V30ZM523
572L531 715Q532 734 541 749T577 765Q594 765 606 755T618 726Q618 719 617 712T611 695L548 565L523 572Z" />
<glyph unicode="&#x13f;" glyph-name="Ldot" horiz-adv-x="584" d="M477 335Q450 335 432 353T413 398Q413 424 431 442T477 461Q504 461 523 443T542 398Q542 372 523 354T477 335ZM31 31L76 40Q85 41 91 44T101 53T106 70T108 100V594Q108 613 107 624T101 641T91
649T76 654L31 663V693H301V663L249 653Q239 651 233 649T224 640T219 624T217 594V142Q217 107 219 88T232 59T265 47T328 44Q362 44 384 46T421 54T446 69T467 94Q478 110 495 140T527 220H565L552 0H31V31Z" />
<glyph unicode="&#x140;" glyph-name="ldot" horiz-adv-x="405" d="M345 316Q318 316 300 334T281 379Q281 405 299 423T345 442Q372 442 391 424T410 379Q410 353 391 335T345 316ZM25 30L66 41Q81 45 87 54T93 93V648Q93 663 92 671T87 685T78 694T63 701L20
721V749L190 765L200 757Q198 742 196 724Q193 692 193 640V93Q193 77 194 68T198 53T206 46T219 41L260 30V0H25V30Z" />
<glyph unicode="&#x141;" glyph-name="Lslash" horiz-adv-x="571" d="M17 286L108 323V594Q108 613 107 624T101 641T91 649T76 654L31 663V693H301V663L249 653Q239 651 233 649T224 640T219 624T217 594V367L415 448V401L217 320V142Q217 107 219 88T232 59T265
47T328 44Q362 44 384 46T421 54T446 69T467 94Q478 110 495 140T527 220H565L552 0H31V31L76 40Q85 41 91 44T101 53T106 70T108 100V276L17 239V286Z" />
<glyph unicode="&#x142;" glyph-name="lslash" horiz-adv-x="280" d="M14 351L93 393V650Q93 665 92 673T87 687T78 696T63 703L20 723V752L190 768L201 759Q199 744 197 726Q195 710 194 689T193 643V446L274 490V443L193 399V93Q193 77 194 68T198 53T206 46T219
41L260 30V0H25V30L66 41Q81 45 87 54T93 93V346L14 304V351Z" />
<glyph unicode="&#x143;" glyph-name="Nacute" horiz-adv-x="705" d="M166 603H162V110Q162 87 164 74T170 54T183 43T204 38L246 31V0H31V31L66 38Q77 40 85 43T98 53T105 74T108 110V594Q108 613 107 624T101 641T91 649T76 654L31 663V693H234L548 189H552V584Q552
606 550 619T544 640T531 651T510 656L463 663V693H683V663L648 656Q637 654 629 651T616 641T609 620T606 584V-4H549L166 603ZM271 772L433 886Q455 901 472 901Q489 901 501 888T513 858Q513 845 505 832T476 812L282 748L271 772Z" />
<glyph unicode="&#x144;" glyph-name="nacute" horiz-adv-x="605" d="M25 30L66 41Q81 45 87 54T93 93V403Q93 418 92 426T88 440T78 449T63 457L25 476V502L183 523L193 517L188 461H192Q211 473 233 484T281 504T331 518T381 524Q457 524 487 492T517 391V93Q517
64 523 55T544 41L584 30V0H350V30L391 41Q398 43 403 45T411 53T415 67T417 93V363Q417 416 398 437T330 458Q312 458 292 455T254 447T220 437T193 427V93Q193 77 194 68T198 53T206 46T219 41L260 30V0H25V30ZM194 617L356 731Q378 746 395 746Q412 746 424
733T436 703Q436 690 428 677T399 657L205 593L194 617Z" />
<glyph unicode="&#x145;" glyph-name="Ncommaaccent" horiz-adv-x="705" d="M166 603H162V110Q162 87 164 74T170 54T183 43T204 38L246 31V0H31V31L66 38Q77 40 85 43T98 53T105 74T108 110V594Q108 613 107 624T101 641T91 649T76 654L31 663V693H234L548 189H552V584Q552
606 550 619T544 640T531 651T510 656L463 663V693H683V663L648 656Q637 654 629 651T616 641T609 620T606 584V-4H549L166 603ZM282 -257Q308 -248 324 -238T350 -216T363 -192T367 -168Q364 -170 358 -172T342 -175Q315 -175 302 -160T289 -123Q289 -100 307
-84T353 -67Q385 -67 408 -85T431 -146Q431 -192 397 -231T290 -284L282 -257Z" />
<glyph unicode="&#x146;" glyph-name="ncommaaccent" horiz-adv-x="605" d="M25 30L66 41Q81 45 87 54T93 93V403Q93 418 92 426T88 440T78 449T63 457L25 476V502L183 523L193 517L188 461H192Q211 473 233 484T281 504T331 518T381 524Q457 524 487 492T517
391V93Q517 64 523 55T544 41L584 30V0H350V30L391 41Q398 43 403 45T411 53T415 67T417 93V363Q417 416 398 437T330 458Q312 458 292 455T254 447T220 437T193 427V93Q193 77 194 68T198 53T206 46T219 41L260 30V0H25V30ZM228 -257Q254 -248 270 -238T296 -216T309
-192T313 -168Q310 -170 304 -172T288 -175Q261 -175 248 -160T235 -123Q235 -100 253 -84T299 -67Q331 -67 354 -85T377 -146Q377 -192 343 -231T236 -284L228 -257Z" />
<glyph unicode="&#x147;" glyph-name="Ncaron" horiz-adv-x="705" d="M166 603H162V110Q162 87 164 74T170 54T183 43T204 38L246 31V0H31V31L66 38Q77 40 85 43T98 53T105 74T108 110V594Q108 613 107 624T101 641T91 649T76 654L31 663V693H234L548 189H552V584Q552
606 550 619T544 640T531 651T510 656L463 663V693H683V663L648 656Q637 654 629 651T616 641T609 620T606 584V-4H549L166 603ZM216 885L233 909L374 839L515 909L533 885L400 758H349L216 885Z" />
<glyph unicode="&#x148;" glyph-name="ncaron" horiz-adv-x="605" d="M25 30L66 41Q81 45 87 54T93 93V403Q93 418 92 426T88 440T78 449T63 457L25 476V502L183 523L193 517L188 461H192Q211 473 233 484T281 504T331 518T381 524Q457 524 487 492T517 391V93Q517
64 523 55T544 41L584 30V0H350V30L391 41Q398 43 403 45T411 53T415 67T417 93V363Q417 416 398 437T330 458Q312 458 292 455T254 447T220 437T193 427V93Q193 77 194 68T198 53T206 46T219 41L260 30V0H25V30ZM148 739L165 763L306 679L447 763L465 739L332
598H281L148 739Z" />
<glyph unicode="&#x149;" glyph-name="napostrophe" horiz-adv-x="685" d="M-69 473Q29 521 29 593Q26 591 20 589T2 586Q-23 586 -39 603T-55 646Q-55 673 -36 689T12 706Q44 706 68 682T93 618Q93 588 83 561T53 511T5 471T-59 445L-69 473ZM105 30L146 41Q161
45 167 54T173 93V403Q173 418 172 426T168 440T158 449T143 457L105 476V502L263 523L273 517L268 461H272Q291 473 313 484T361 504T411 518T461 524Q537 524 567 492T597 391V93Q597 64 603 55T624 41L664 30V0H430V30L471 41Q478 43 483 45T491 53T495 67T497
93V363Q497 416 478 437T410 458Q392 458 372 455T334 447T300 437T273 427V93Q273 77 274 68T278 53T286 46T299 41L340 30V0H105V30Z" />
<glyph unicode="&#x14a;" glyph-name="Eng" horiz-adv-x="705" d="M451 -188Q464 -188 481 -178T515 -147T542 -92T553 -10L166 603H162V110Q162 87 164 74T170 54T183 43T204 38L246 31V0H31V31L66 38Q77 40 85 43T98 53T105 74T108 110V594Q108 613 107 624T101
641T91 649T76 654L31 663V693H234L549 188H553V584Q553 606 551 619T545 640T532 651T511 656L464 663V693H683V663L648 656Q637 654 629 651T616 641T609 620T606 584V-7Q606 -55 594 -96T559 -166T500 -212T420 -229Q363 -229 334 -208T305 -155Q305 -135 318
-120T360 -105Q391 -105 403 -120T423 -164Q428 -179 432 -183T451 -188Z" />
<glyph unicode="&#x14b;" glyph-name="eng" horiz-adv-x="588" d="M335 -228Q288 -228 265 -207T242 -159Q242 -139 257 -126T295 -112Q324 -112 334 -126T347 -157Q350 -180 354 -185T366 -191Q389 -191 403 -173T417 -127V363Q417 416 398 437T330 458Q312 458
292 455T254 447T220 437T193 427V93Q193 77 194 68T198 53T206 46T219 41L260 30V0H25V30L66 41Q81 45 87 54T93 93V403Q93 418 92 426T88 440T78 449T63 457L25 476V502L183 523L193 517L188 461H192Q211 473 233 484T281 504T331 518T381 524Q457 524 487 492T517
391V-22Q517 -79 503 -118T464 -181T406 -217T335 -228Z" />
<glyph unicode="&#x14c;" glyph-name="Omacron" horiz-adv-x="714" d="M352 -12Q286 -12 229 10T130 77T63 186T39 337Q39 434 66 503T138 618T241 684T362 705Q428 705 485 682T584 614T650 503T675 351Q675 254 648 185T576 73T473 9T352 -12ZM360 37Q412 37
449 53T512 105T549 197T561 334Q561 394 552 452T518 555T454 629T353 657Q301 657 264 640T202 586T165 492T153 354Q153 294 162 237T195 136T259 64T360 37ZM215 842H499V777H215V842Z" />
<glyph unicode="&#x14d;" glyph-name="omacron" horiz-adv-x="573" d="M287 -13Q233 -13 187 4T107 54T54 138T34 255Q34 321 55 371T111 455T192 507T287 525Q340 525 386 509T466 459T519 377T539 261Q539 195 518 144T462 58T382 5T287 -13ZM291 30Q359 30
394 82T429 247Q429 374 393 428T283 483Q215 483 180 433T144 269Q144 141 180 86T291 30ZM144 693H428V628H144V693Z" />
<glyph unicode="&#x14e;" glyph-name="Obreve" horiz-adv-x="714" d="M352 -12Q286 -12 229 10T130 77T63 186T39 337Q39 434 66 503T138 618T241 684T362 705Q428 705 485 682T584 614T650 503T675 351Q675 254 648 185T576 73T473 9T352 -12ZM360 37Q412 37
449 53T512 105T549 197T561 334Q561 394 552 452T518 555T454 629T353 657Q301 657 264 640T202 586T165 492T153 354Q153 294 162 237T195 136T259 64T360 37ZM359 755Q331 755 307 765T265 794T236 835T222 885L251 893Q262 865 289 846T358 827Q400 827 427
846T465 893L493 885Q491 859 480 836T452 794T411 766T359 755Z" />
<glyph unicode="&#x14f;" glyph-name="obreve" horiz-adv-x="573" d="M287 -13Q233 -13 187 4T107 54T54 138T34 255Q34 321 55 371T111 455T192 507T287 525Q340 525 386 509T466 459T519 377T539 261Q539 195 518 144T462 58T382 5T287 -13ZM291 30Q359 30 394
82T429 247Q429 374 393 428T283 483Q215 483 180 433T144 269Q144 141 180 86T291 30ZM288 594Q260 594 236 605T194 635T165 682T151 740L180 748Q191 713 218 689T287 664Q329 664 356 688T394 748L422 740Q420 709 409 682T381 636T340 605T288 594Z" />
<glyph unicode="&#x150;" glyph-name="Ohungarumlaut" horiz-adv-x="714" d="M352 -12Q286 -12 229 10T130 77T63 186T39 337Q39 434 66 503T138 618T241 684T362 705Q428 705 485 682T584 614T650 503T675 351Q675 254 648 185T576 73T473 9T352 -12ZM360 37Q412
37 449 53T512 105T549 197T561 334Q561 394 552 452T518 555T454 629T353 657Q301 657 264 640T202 586T165 492T153 354Q153 294 162 237T195 136T259 64T360 37ZM421 782L517 905Q533 926 551 926Q564 926 579 915T595 886Q595 875 591 866T570 846L438 762L421
782ZM246 782L341 905Q356 926 376 926Q388 926 404 915T420 886Q420 875 416 866T394 846L264 762L246 782Z" />
<glyph unicode="&#x151;" glyph-name="ohungarumlaut" horiz-adv-x="573" d="M287 -13Q233 -13 187 4T107 54T54 138T34 255Q34 321 55 371T111 455T192 507T287 525Q340 525 386 509T466 459T519 377T539 261Q539 195 518 144T462 58T382 5T287 -13ZM291 30Q359
30 394 82T429 247Q429 374 393 428T283 483Q215 483 180 433T144 269Q144 141 180 86T291 30ZM336 612L432 735Q448 756 466 756Q479 756 494 745T510 716Q510 705 506 696T485 676L353 592L336 612ZM161 612L256 735Q271 756 291 756Q303 756 319 745T335 716Q335
705 331 696T309 676L179 592L161 612Z" />
<glyph unicode="&#x152;" glyph-name="OE" horiz-adv-x="980" d="M383 651Q317 651 273 630T202 570T164 478T153 359Q153 276 166 216T207 118T279 61T385 42Q410 42 428 45T458 58T475 90T481 148V555Q481 585 479 603T467 632T437 647T383 651ZM370 0Q302 0
242 17T137 74T66 179T39 340Q39 428 64 494T135 604T241 670T376 693H911L924 516H888Q872 553 861 575T840 610Q829 624 820 632T796 643T760 648T704 649Q676 649 658 649T627 647T606 644T590 640V383H624Q682 383 708 388T745 414Q753 431 759 445T770 483H805V237H770Q767
249 765 258T759 274T753 289T745 306Q740 317 733 323T713 333T679 336T624 337H590V152Q590 112 593 90T608 58T644 46T713 44Q748 44 770 45T806 49T829 60T850 81Q862 97 878 132T910 209H947L932 0H370Z" />
<glyph unicode="&#x153;" glyph-name="oe" horiz-adv-x="903" d="M665 -12Q592 -12 544 14T470 89Q438 38 390 13T282 -13Q228 -13 183 4T104 54T53 138T34 255Q34 321 54 371T109 455T188 507T282 525Q348 525 398 500T477 423Q509 471 557 498T665 525Q713 525
750 512T814 468T855 389T869 270H524Q525 213 538 172T574 104T628 65T698 52Q756 52 793 66T859 94V54Q849 46 831 35T788 13T732 -5T665 -12ZM286 30Q354 30 386 82T418 247Q418 374 385 428T278 483Q210 483 177 433T144 269Q144 141 178 86T286 30ZM661 483Q606
483 569 442T525 312L757 324Q757 367 753 397T738 447T709 474T661 483Z" />
<glyph unicode="&#x154;" glyph-name="Racute" horiz-adv-x="652" d="M31 31L76 40Q85 41 91 44T101 53T106 70T108 100V594Q108 613 107 624T101 641T91 649T76 654L31 663V693H322Q443 693 499 649T556 517Q556 461 516 414T397 344V341Q417 306 440 269T486
195T533 126T578 65Q586 54 596 49T630 37L652 31V0H500Q443 72 393 152T302 313H215V100Q215 81 216 70T221 53T231 45T249 40L297 31V0H31V31ZM275 359Q365 359 404 394T443 507Q443 553 435 581T411 624T369 644T309 649Q276 649 253 647T215 642V363Q223 362
234 361Q242 360 253 360T275 359ZM208 772L370 886Q392 901 409 901Q426 901 438 888T450 858Q450 845 442 832T413 812L219 748L208 772Z" />
<glyph unicode="&#x155;" glyph-name="racute" horiz-adv-x="421" d="M25 30L66 41Q81 45 87 54T93 93V403Q93 418 92 426T88 440T78 449T63 457L25 476V502L183 523L193 515L188 457H192Q205 470 222 482T259 504T299 519T339 525Q370 525 387 510T405 465Q405
437 389 423T351 409Q323 409 312 416T294 441Q289 452 284 455T271 458Q263 458 253 454T231 444T210 429T193 414V93Q193 77 194 68T198 53T206 45T219 41L270 30V0H25V30ZM379 617L541 731Q563 746 580 746Q597 746 609 733T621 703Q621 690 613 677T584 657L390
593L379 617Z" />
<glyph unicode="&#x156;" glyph-name="Rcommaaccent" horiz-adv-x="652" d="M31 31L76 40Q85 41 91 44T101 53T106 70T108 100V594Q108 613 107 624T101 641T91 649T76 654L31 663V693H322Q443 693 499 649T556 517Q556 461 516 414T397 344V341Q417 306 440 269T486
195T533 126T578 65Q586 54 596 49T630 37L652 31V0H500Q443 72 393 152T302 313H215V100Q215 81 216 70T221 53T231 45T249 40L297 31V0H31V31ZM275 359Q365 359 404 394T443 507Q443 553 435 581T411 624T369 644T309 649Q276 649 253 647T215 642V363Q223 362
234 361Q242 360 253 360T275 359ZM274 -257Q300 -248 316 -238T342 -216T355 -192T359 -168Q356 -170 350 -172T334 -175Q307 -175 294 -160T281 -123Q281 -100 299 -84T345 -67Q377 -67 400 -85T423 -146Q423 -192 389 -231T282 -284L274 -257Z" />
<glyph unicode="&#x157;" glyph-name="rcommaaccent" horiz-adv-x="421" d="M25 30L66 41Q81 45 87 54T93 93V403Q93 418 92 426T88 440T78 449T63 457L25 476V502L183 523L193 515L188 457H192Q205 470 222 482T259 504T299 519T339 525Q370 525 387 510T405
465Q405 437 389 423T351 409Q323 409 312 416T294 441Q289 452 284 455T271 458Q263 458 253 454T231 444T210 429T193 414V93Q193 77 194 68T198 53T206 45T219 41L270 30V0H25V30ZM323 -257Q349 -248 365 -238T391 -216T404 -192T408 -168Q405 -170 399 -172T383
-175Q356 -175 343 -160T330 -123Q330 -100 348 -84T394 -67Q426 -67 449 -85T472 -146Q472 -192 438 -231T331 -284L323 -257Z" />
<glyph unicode="&#x158;" glyph-name="Rcaron" horiz-adv-x="652" d="M31 31L76 40Q85 41 91 44T101 53T106 70T108 100V594Q108 613 107 624T101 641T91 649T76 654L31 663V693H322Q443 693 499 649T556 517Q556 461 516 414T397 344V341Q417 306 440 269T486
195T533 126T578 65Q586 54 596 49T630 37L652 31V0H500Q443 72 393 152T302 313H215V100Q215 81 216 70T221 53T231 45T249 40L297 31V0H31V31ZM275 359Q365 359 404 394T443 507Q443 553 435 581T411 624T369 644T309 649Q276 649 253 647T215 642V363Q223 362
234 361Q242 360 253 360T275 359ZM153 885L170 909L311 839L452 909L470 885L337 758H286L153 885Z" />
<glyph unicode="&#x159;" glyph-name="rcaron" horiz-adv-x="421" d="M25 30L66 41Q81 45 87 54T93 93V403Q93 418 92 426T88 440T78 449T63 457L25 476V502L183 523L193 515L188 457H192Q205 470 222 482T259 504T299 519T339 525Q370 525 387 510T405 465Q405
437 389 423T351 409Q323 409 312 416T294 441Q289 452 284 455T271 458Q263 458 253 454T231 444T210 429T193 414V93Q193 77 194 68T198 53T206 45T219 41L270 30V0H25V30ZM333 739L350 763L491 679L632 763L650 739L517 598H466L333 739Z" />
<glyph unicode="&#x15a;" glyph-name="Sacute" horiz-adv-x="526" d="M242 -13Q180 -13 130 -4T46 17L35 204H72Q87 169 99 142T132 86Q142 72 152 63T176 47T208 39T252 36Q286 36 312 45T357 71T384 108T394 153Q394 177 386 197T358 235T306 272T227 311Q181
332 148 352T92 397T59 450T48 517Q48 557 64 591T109 651T179 691T270 706Q328 706 368 701T435 688L448 520H412Q403 540 397 554T385 579T374 599T360 619Q346 635 326 646T263 658Q235 658 211 650T168 628T140 593T130 548Q130 526 136 509T158 476T201 445T272
410Q328 385 368 362T434 314T472 263T484 204Q484 159 469 119T424 50T348 4T242 -13ZM168 772L330 886Q352 901 369 901Q386 901 398 888T410 858Q410 845 402 832T373 812L179 748L168 772Z" />
<glyph unicode="&#x15b;" glyph-name="sacute" horiz-adv-x="425" d="M190 -12Q147 -12 108 -7T38 10L33 159H65Q78 130 86 111T113 69Q127 52 145 42T200 31Q246 31 275 52T304 113Q304 133 297 148T276 175T239 198T186 221Q153 234 126 248T80 281T49 323T38
375Q38 410 52 437T92 484T152 514T226 525Q268 525 299 521T357 507L361 373H331Q318 399 306 418T280 456Q269 470 255 476T214 483Q164 483 142 462T119 403Q119 374 146 352T236 306Q271 292 300 278T349 245T381 205T392 154Q392 119 378 89T338 36T275 1T190
-12ZM366 617L528 731Q550 746 567 746Q584 746 596 733T608 703Q608 690 600 677T571 657L377 593L366 617Z" />
<glyph unicode="&#x15c;" glyph-name="Scircumflex" horiz-adv-x="526" d="M242 -13Q180 -13 130 -4T46 17L35 204H72Q87 169 99 142T132 86Q142 72 152 63T176 47T208 39T252 36Q286 36 312 45T357 71T384 108T394 153Q394 177 386 197T358 235T306 272T227 311Q181
332 148 352T92 397T59 450T48 517Q48 557 64 591T109 651T179 691T270 706Q328 706 368 701T435 688L448 520H412Q403 540 397 554T385 579T374 599T360 619Q346 635 326 646T263 658Q235 658 211 650T168 628T140 593T130 548Q130 526 136 509T158 476T201 445T272
410Q328 385 368 362T434 314T472 263T484 204Q484 159 469 119T424 50T348 4T242 -13ZM430 770L412 746L271 816L130 746L113 770L245 897H296L430 770Z" />
<glyph unicode="&#x15d;" glyph-name="scircumflex" horiz-adv-x="425" d="M190 -12Q147 -12 108 -7T38 10L33 159H65Q78 130 86 111T113 69Q127 52 145 42T200 31Q246 31 275 52T304 113Q304 133 297 148T276 175T239 198T186 221Q153 234 126 248T80 281T49
323T38 375Q38 410 52 437T92 484T152 514T226 525Q268 525 299 521T357 507L361 373H331Q318 399 306 418T280 456Q269 470 255 476T214 483Q164 483 142 462T119 403Q119 374 146 352T236 306Q271 292 300 278T349 245T381 205T392 154Q392 119 378 89T338 36T275
1T190 -12ZM637 610L619 586L478 670L337 586L320 610L452 751H503L637 610Z" />
<glyph unicode="&#x15e;" glyph-name="Scedilla" horiz-adv-x="526" d="M140 -212Q202 -198 225 -180T249 -142Q249 -109 179 -103L170 -94L212 -12Q160 -10 118 -2T46 17L35 204H72Q87 169 99 142T132 86Q142 72 152 63T176 47T208 39T252 36Q286 36 312 45T357
71T384 108T394 153Q394 177 386 197T358 235T306 272T227 311Q181 332 148 352T92 397T59 450T48 517Q48 557 64 591T109 651T179 691T270 706Q328 706 368 701T435 688L448 520H412Q403 540 397 554T385 579T374 599T360 619Q346 635 326 646T263 658Q235 658
211 650T168 628T140 593T130 548Q130 526 136 509T158 476T201 445T272 410Q328 385 368 362T434 314T472 263T484 204Q484 160 470 122T428 54T357 8T258 -13L226 -57Q276 -61 301 -80T326 -128Q326 -145 315 -162T282 -195T224 -223T140 -239V-212Z" />
<glyph unicode="&#x15f;" glyph-name="scedilla" horiz-adv-x="425" d="M81 -212Q143 -198 166 -180T190 -142Q190 -109 120 -103L111 -94L154 -11Q121 -9 91 -4T38 10L33 159H65Q78 130 86 111T113 69Q127 52 145 42T200 31Q246 31 275 52T304 113Q304 133 297
148T276 175T239 198T186 221Q153 234 126 248T80 281T49 323T38 375Q38 410 52 437T92 484T152 514T226 525Q268 525 299 521T357 507L361 373H331Q318 399 306 418T280 456Q269 470 255 476T214 483Q164 483 142 462T119 403Q119 374 146 352T236 306Q271 292
300 278T349 245T381 205T392 154Q392 119 379 90T341 38T281 3T200 -12L167 -57Q217 -61 242 -80T267 -128Q267 -145 256 -162T223 -195T165 -223T81 -239V-212Z" />
<glyph unicode="&#x160;" glyph-name="Scaron" horiz-adv-x="526" d="M242 -13Q180 -13 130 -4T46 17L35 204H72Q87 169 99 142T132 86Q142 72 152 63T176 47T208 39T252 36Q286 36 312 45T357 71T384 108T394 153Q394 177 386 197T358 235T306 272T227 311Q181
332 148 352T92 397T59 450T48 517Q48 557 64 591T109 651T179 691T270 706Q328 706 368 701T435 688L448 520H412Q403 540 397 554T385 579T374 599T360 619Q346 635 326 646T263 658Q235 658 211 650T168 628T140 593T130 548Q130 526 136 509T158 476T201 445T272
410Q328 385 368 362T434 314T472 263T484 204Q484 159 469 119T424 50T348 4T242 -13ZM113 885L130 909L271 839L412 909L430 885L297 758H246L113 885Z" />
<glyph unicode="&#x161;" glyph-name="scaron" horiz-adv-x="425" d="M190 -12Q147 -12 108 -7T38 10L33 159H65Q78 130 86 111T113 69Q127 52 145 42T200 31Q246 31 275 52T304 113Q304 133 297 148T276 175T239 198T186 221Q153 234 126 248T80 281T49 323T38
375Q38 410 52 437T92 484T152 514T226 525Q268 525 299 521T357 507L361 373H331Q318 399 306 418T280 456Q269 470 255 476T214 483Q164 483 142 462T119 403Q119 374 146 352T236 306Q271 292 300 278T349 245T381 205T392 154Q392 119 378 89T338 36T275 1T190
-12ZM320 739L337 763L478 679L619 763L637 739L504 598H453L320 739Z" />
<glyph unicode="&#x162;" glyph-name="Tcommaaccent" horiz-adv-x="619" d="M174 31L223 40Q232 42 238 44T248 53T253 70T255 100V651H248Q209 651 186 650T149 645T125 629T104 599Q89 573 80 548T58 481H21L31 693H588L598 481H561Q554 502 549 518T539 547T528
573T515 599Q504 618 495 629T471 644T433 650T371 651H364V100Q364 81 365 70T369 53T379 45T396 40L445 31V0H174V31ZM235 -257Q261 -248 277 -238T303 -216T316 -192T320 -168Q317 -170 311 -172T295 -175Q268 -175 255 -160T242 -123Q242 -100 260 -84T306
-67Q338 -67 361 -85T384 -146Q384 -192 350 -231T243 -284L235 -257Z" />
<glyph unicode="&#x163;" glyph-name="tcommaaccent" horiz-adv-x="339" d="M196 -12Q172 -12 151 -7T115 12T90 44T80 93V456H10V485Q62 499 91 535T141 632H180V509H324L311 456H180V108Q180 46 248 46Q270 46 291 50T327 60V28Q313 15 280 2T196 -12ZM358 -257Q384
-248 400 -238T426 -216T439 -192T443 -168Q440 -170 434 -172T418 -175Q391 -175 378 -160T365 -123Q365 -100 383 -84T429 -67Q461 -67 484 -85T507 -146Q507 -192 473 -231T366 -284L358 -257Z" />
<glyph unicode="&#x164;" glyph-name="Tcaron" horiz-adv-x="619" d="M174 31L223 40Q232 42 238 44T248 53T253 70T255 100V651H248Q209 651 186 650T149 645T125 629T104 599Q89 573 80 548T58 481H21L31 693H588L598 481H561Q554 502 549 518T539 547T528 573T515
599Q504 618 495 629T471 644T433 650T371 651H364V100Q364 81 365 70T369 53T379 45T396 40L445 31V0H174V31ZM151 885L168 909L309 839L450 909L468 885L335 758H284L151 885Z" />
<glyph unicode="&#x165;" glyph-name="tcaron" horiz-adv-x="339" d="M196 -12Q172 -12 151 -7T115 12T90 44T80 93V456H10V485Q62 499 91 535T141 632H180V509H324L311 456H180V108Q180 46 248 46Q270 46 291 50T327 60V28Q313 15 280 2T196 -12ZM502 572L510
715Q511 734 520 749T556 765Q573 765 585 755T597 726Q597 719 596 712T590 695L527 565L502 572Z" />
<glyph unicode="&#x166;" glyph-name="Tbar" horiz-adv-x="619" d="M97 404H255V651H248Q209 651 186 650T149 645T125 629T104 599Q89 573 80 548T58 481H21L31 693H588L598 481H561Q554 502 549 518T539 547T528 573T515 599Q504 618 495 629T471 644T433 650T371
651H364V404H522V359H364V100Q364 81 365 70T369 53T379 45T396 40L445 31V0H174V31L223 40Q232 42 238 44T248 53T253 70T255 100V359H97V404Z" />
<glyph unicode="&#x167;" glyph-name="tbar" horiz-adv-x="339" d="M10 361H80V456H10V485Q62 499 91 535T141 632H180V509H324L311 456H180V361H318V317H180V108Q180 46 248 46Q270 46 291 50T327 60V28Q313 15 280 2T196 -12Q172 -12 151 -7T115 12T90 44T80
93V317H10V361Z" />
<glyph unicode="&#x168;" glyph-name="Utilde" horiz-adv-x="701" d="M356 -12Q296 -12 248 1T165 44T113 117T94 225V594Q94 613 93 624T88 641T78 649T62 654L16 663V693H278V663L235 654Q224 652 218 649T209 640T204 624T203 594V215Q203 127 243 87T382 46Q473
46 513 92T554 224V584Q554 606 552 619T546 640T533 651T512 656L462 663V693H684V663L649 656Q638 654 630 651T617 641T610 620T607 584V217Q607 171 593 130T549 57T471 7T356 -12ZM209 777Q231 836 253 863T307 891Q322 891 342 885T381 871T417 857T443 850Q459
850 472 861T503 906L535 893Q513 833 491 806T437 779Q422 779 403 785T364 799T328 813T301 820Q285 820 273 809T243 763L209 777Z" />
<glyph unicode="&#x169;" glyph-name="utilde" horiz-adv-x="598" d="M224 -12Q161 -12 125 21T89 119V413Q89 427 88 435T84 447T76 454T62 461L21 479V506L174 523L189 513V142Q189 98 209 76T275 53Q312 53 348 65T413 90V413Q413 427 412 435T409 447T401
454T386 461L346 479V506L499 523L513 513V115Q513 98 514 88T519 72T528 61T543 53L580 36V9L424 -12L413 -4L418 56H414Q374 30 326 9T224 -12ZM142 597Q164 660 186 690T240 721Q255 721 275 715T314 701T350 687T376 680Q392 680 405 695T436 746L468 733Q446
670 424 640T370 609Q355 609 336 615T297 629T261 643T234 650Q218 650 206 634T176 583L142 597Z" />
<glyph unicode="&#x16a;" glyph-name="Umacron" horiz-adv-x="701" d="M356 -12Q296 -12 248 1T165 44T113 117T94 225V594Q94 613 93 624T88 641T78 649T62 654L16 663V693H278V663L235 654Q224 652 218 649T209 640T204 624T203 594V215Q203 127 243 87T382
46Q473 46 513 92T554 224V584Q554 606 552 619T546 640T533 651T512 656L462 663V693H684V663L649 656Q638 654 630 651T617 641T610 620T607 584V217Q607 171 593 130T549 57T471 7T356 -12ZM230 842H514V777H230V842Z" />
<glyph unicode="&#x16b;" glyph-name="umacron" horiz-adv-x="598" d="M224 -12Q161 -12 125 21T89 119V413Q89 427 88 435T84 447T76 454T62 461L21 479V506L174 523L189 513V142Q189 98 209 76T275 53Q312 53 348 65T413 90V413Q413 427 412 435T409 447T401
454T386 461L346 479V506L499 523L513 513V115Q513 98 514 88T519 72T528 61T543 53L580 36V9L424 -12L413 -4L418 56H414Q374 30 326 9T224 -12ZM163 693H447V628H163V693Z" />
<glyph unicode="&#x16c;" glyph-name="Ubreve" horiz-adv-x="701" d="M356 -12Q296 -12 248 1T165 44T113 117T94 225V594Q94 613 93 624T88 641T78 649T62 654L16 663V693H278V663L235 654Q224 652 218 649T209 640T204 624T203 594V215Q203 127 243 87T382 46Q473
46 513 92T554 224V584Q554 606 552 619T546 640T533 651T512 656L462 663V693H684V663L649 656Q638 654 630 651T617 641T610 620T607 584V217Q607 171 593 130T549 57T471 7T356 -12ZM374 755Q346 755 322 765T280 794T251 835T237 885L266 893Q277 865 304 846T373
827Q415 827 442 846T480 893L508 885Q506 859 495 836T467 794T426 766T374 755Z" />
<glyph unicode="&#x16d;" glyph-name="ubreve" horiz-adv-x="598" d="M224 -12Q161 -12 125 21T89 119V413Q89 427 88 435T84 447T76 454T62 461L21 479V506L174 523L189 513V142Q189 98 209 76T275 53Q312 53 348 65T413 90V413Q413 427 412 435T409 447T401
454T386 461L346 479V506L499 523L513 513V115Q513 98 514 88T519 72T528 61T543 53L580 36V9L424 -12L413 -4L418 56H414Q374 30 326 9T224 -12ZM307 594Q279 594 255 605T213 635T184 682T170 740L199 748Q210 713 237 689T306 664Q348 664 375 688T413 748L441
740Q439 709 428 682T400 636T359 605T307 594Z" />
<glyph unicode="&#x16e;" glyph-name="Uring" horiz-adv-x="701" d="M356 -12Q296 -12 248 1T165 44T113 117T94 225V594Q94 613 93 624T88 641T78 649T62 654L16 663V693H278V663L235 654Q224 652 218 649T209 640T204 624T203 594V215Q203 127 243 87T382 46Q473
46 513 92T554 224V584Q554 606 552 619T546 640T533 651T512 656L462 663V693H684V663L649 656Q638 654 630 651T617 641T610 620T607 584V217Q607 171 593 130T549 57T471 7T356 -12ZM377 970Q355 970 337 978T305 999T283 1030T275 1068Q275 1110 304 1138T377
1167Q421 1167 450 1139T479 1068Q479 1048 471 1031T450 1000T418 978T377 970ZM377 1008Q403 1008 419 1025T435 1068Q435 1094 419 1111T377 1129Q351 1129 335 1112T319 1068Q319 1042 335 1025T377 1008Z" />
<glyph unicode="&#x16f;" glyph-name="uring" horiz-adv-x="598" d="M224 -12Q161 -12 125 21T89 119V413Q89 427 88 435T84 447T76 454T62 461L21 479V506L174 523L189 513V142Q189 98 209 76T275 53Q312 53 348 65T413 90V413Q413 427 412 435T409 447T401 454T386
461L346 479V506L499 523L513 513V115Q513 98 514 88T519 72T528 61T543 53L580 36V9L424 -12L413 -4L418 56H414Q374 30 326 9T224 -12ZM305 588Q283 588 265 596T233 617T211 648T203 686Q203 728 232 756T305 785Q349 785 378 757T407 686Q407 666 399 649T378
618T346 596T305 588ZM305 626Q331 626 347 643T363 686Q363 712 347 729T305 747Q279 747 263 730T247 686Q247 660 263 643T305 626Z" />
<glyph unicode="&#x170;" glyph-name="Uhungarumlaut" horiz-adv-x="701" d="M356 -12Q296 -12 248 1T165 44T113 117T94 225V594Q94 613 93 624T88 641T78 649T62 654L16 663V693H278V663L235 654Q224 652 218 649T209 640T204 624T203 594V215Q203 127 243 87T382
46Q473 46 513 92T554 224V584Q554 606 552 619T546 640T533 651T512 656L462 663V693H684V663L649 656Q638 654 630 651T617 641T610 620T607 584V217Q607 171 593 130T549 57T471 7T356 -12ZM436 782L532 905Q548 926 566 926Q579 926 594 915T610 886Q610 875
606 866T585 846L453 762L436 782ZM261 782L356 905Q371 926 391 926Q403 926 419 915T435 886Q435 875 431 866T409 846L279 762L261 782Z" />
<glyph unicode="&#x171;" glyph-name="uhungarumlaut" horiz-adv-x="598" d="M224 -12Q161 -12 125 21T89 119V413Q89 427 88 435T84 447T76 454T62 461L21 479V506L174 523L189 513V142Q189 98 209 76T275 53Q312 53 348 65T413 90V413Q413 427 412 435T409 447T401
454T386 461L346 479V506L499 523L513 513V115Q513 98 514 88T519 72T528 61T543 53L580 36V9L424 -12L413 -4L418 56H414Q374 30 326 9T224 -12ZM355 612L451 735Q467 756 485 756Q498 756 513 745T529 716Q529 705 525 696T504 676L372 592L355 612ZM180 612L275
735Q290 756 310 756Q322 756 338 745T354 716Q354 705 350 696T328 676L198 592L180 612Z" />
<glyph unicode="&#x172;" glyph-name="Uogonek" horiz-adv-x="701" d="M389 -223Q347 -223 320 -201T293 -139Q293 -119 300 -101T320 -67T348 -37T379 -11Q371 -12 367 -12T356 -12Q296 -12 248 1T165 44T113 117T94 225V594Q94 613 93 624T88 641T78 649T62
654L16 663V693H278V663L235 654Q224 652 218 649T209 640T204 624T203 594V215Q203 127 243 87T382 46Q473 46 513 92T554 224V584Q554 606 552 619T546 640T533 651T512 656L462 663V693H684V663L649 656Q638 654 630 651T617 641T610 620T607 584V217Q607 154
581 103T497 20Q474 8 453 -5T416 -35T391 -72T382 -119Q382 -139 389 -151T413 -168Q424 -170 438 -171T472 -171V-199Q460 -207 441 -215T389 -223Z" />
<glyph unicode="&#x173;" glyph-name="uogonek" horiz-adv-x="598" d="M411 -223Q369 -223 342 -201T315 -139Q315 -117 324 -98T348 -62T381 -31T416 -4L418 56H414Q374 30 326 9T224 -12Q161 -12 125 21T89 119V413Q89 427 88 435T84 447T76 454T62 461L21 479V506L174
523L189 513V142Q189 98 209 76T275 53Q312 53 348 65T413 90V413Q413 427 412 435T409 447T401 454T386 461L346 479V506L499 523L513 513V115Q513 98 514 88T519 72T528 61T543 53L580 36V9L536 4Q499 0 474 -12T434 -41T411 -78T404 -119Q404 -139 411 -151T435
-168Q446 -170 460 -171T494 -171V-199Q482 -207 463 -215T411 -223Z" />
<glyph unicode="&#x174;" glyph-name="Wcircumflex" horiz-adv-x="962" d="M99 564Q90 591 83 608T70 634T56 648T37 656L10 663V693H262V663L230 656Q198 649 198 619Q198 607 202 590T212 555L335 143H340L464 509L446 564Q437 591 430 608T417 634T402 648T383
656L356 663V693H607V663L575 656Q560 653 551 644T541 619Q541 607 545 590T554 555L688 143H693L804 555Q809 572 812 590T816 621Q816 634 809 643T785 656L751 663V693H953V663L922 656Q910 653 902 646T887 627T874 594T859 546L700 0H630L492 430H488L342
0H276L99 564ZM650 770L632 746L491 816L350 746L333 770L465 897H516L650 770Z" />
<glyph unicode="&#x175;" glyph-name="wcircumflex" horiz-adv-x="790" d="M78 405Q66 438 56 451T24 472L-1 480V509H227V480L200 473Q183 468 178 461T172 441Q172 432 176 419T186 389L275 117H280L373 383L366 405Q357 434 346 450T317 472L293 480V509H506V480L478
473Q464 469 460 461T456 441Q456 432 459 419T469 389L563 117H567L654 389Q661 409 663 422T666 443Q666 454 661 461T640 473L612 480V509H790V480L762 472Q742 467 733 450T711 395L570 0H510L399 321H396L282 0H222L78 405ZM569 610L551 586L410 670L269 586L252
610L384 751H435L569 610Z" />
<glyph unicode="&#x176;" glyph-name="Ycircumflex" horiz-adv-x="630" d="M186 31L235 40Q244 42 250 44T259 53T264 70T266 100V280L109 567Q95 591 85 607T67 632T49 647T30 656L5 663V693H268V663L243 657Q219 652 210 644T201 621Q201 611 207 599T223 567L343
337H347L463 567Q480 602 480 621Q480 647 444 656L412 663V693H626V663L604 656Q591 652 581 647T561 630T540 601T514 553L375 288V100Q375 81 376 70T380 53T390 45T407 40L456 31V0H186V31ZM501 770L483 746L342 816L201 746L184 770L316 897H367L501 770Z"
/>
<glyph unicode="&#x177;" glyph-name="ycircumflex" horiz-adv-x="532" d="M103 -226Q56 -226 37 -206T17 -161Q17 -138 30 -123T66 -107Q90 -107 102 -119T120 -148Q124 -159 126 -162T136 -166Q153 -166 175 -141T221 -61L245 -4L77 405Q69 425 64 436T53 455T42
465T25 472L1 480V509H229V480L202 473Q185 468 179 463T173 443Q173 425 188 389L296 121H300L398 389Q405 409 407 423T410 447Q410 460 403 464T382 473L354 480V509H535V480L507 472Q498 469 492 465T481 453T470 430T456 395L275 -59Q260 -96 244 -126T207
-179T161 -213T103 -226ZM454 610L436 586L295 670L154 586L137 610L269 751H320L454 610Z" />
<glyph unicode="&#x178;" glyph-name="Ydieresis" horiz-adv-x="630" d="M186 31L235 40Q244 42 250 44T259 53T264 70T266 100V280L109 567Q95 591 85 607T67 632T49 647T30 656L5 663V693H268V663L243 657Q219 652 210 644T201 621Q201 611 207 599T223 567L343
337H347L463 567Q480 602 480 621Q480 647 444 656L412 663V693H626V663L604 656Q591 652 581 647T561 630T540 601T514 553L375 288V100Q375 81 376 70T380 53T390 45T407 40L456 31V0H186V31ZM234 751Q207 751 188 770T168 814Q168 840 187 858T234 877Q261 877
280 859T300 814Q300 790 281 771T234 751ZM451 752Q423 752 404 771T385 815Q385 841 404 859T451 878Q478 878 497 860T516 815Q516 791 497 772T451 752Z" />
<glyph unicode="&#x179;" glyph-name="Zacute" horiz-adv-x="571" d="M24 44L410 646V650H340Q279 650 242 649T183 644T150 630T128 606Q113 583 102 559T75 497H43L53 693H523V650L141 47V43H195Q259 43 300 44T366 50T406 63T430 85Q445 106 457 134T490 213H522L509
0H24V44ZM179 772L341 886Q363 901 380 901Q397 901 409 888T421 858Q421 845 413 832T384 812L190 748L179 772Z" />
<glyph unicode="&#x17a;" glyph-name="zacute" horiz-adv-x="476" d="M25 33L335 466V470H252Q222 470 203 469T171 464T151 455T138 440Q122 417 111 396T85 342H54L61 509H454V478L142 43V39H215Q256 39 281 41T322 49T346 62T363 83Q381 109 392 131T413 179H445L433
0H25V33ZM141 617L303 731Q325 746 342 746Q359 746 371 733T383 703Q383 690 375 677T346 657L152 593L141 617Z" />
<glyph unicode="&#x17b;" glyph-name="Zdotaccent" horiz-adv-x="571" d="M24 44L410 646V650H340Q279 650 242 649T183 644T150 630T128 606Q113 583 102 559T75 497H43L53 693H523V650L141 47V43H195Q259 43 300 44T366 50T406 63T430 85Q445 106 457 134T490
213H522L509 0H24V44ZM283 750Q254 750 235 770T215 815Q215 842 234 861T283 880Q311 880 330 861T350 815Q350 790 331 770T283 750Z" />
<glyph unicode="&#x17c;" glyph-name="zdotaccent" horiz-adv-x="476" d="M25 33L335 466V470H252Q222 470 203 469T171 464T151 455T138 440Q122 417 111 396T85 342H54L61 509H454V478L142 43V39H215Q256 39 281 41T322 49T346 62T363 83Q381 109 392 131T413
179H445L433 0H25V33ZM255 614Q226 614 207 634T187 679Q187 706 206 725T255 744Q283 744 302 725T322 679Q322 654 303 634T255 614Z" />
<glyph unicode="&#x17d;" glyph-name="Zcaron" horiz-adv-x="571" d="M24 44L410 646V650H340Q279 650 242 649T183 644T150 630T128 606Q113 583 102 559T75 497H43L53 693H523V650L141 47V43H195Q259 43 300 44T366 50T406 63T430 85Q445 106 457 134T490 213H522L509
0H24V44ZM124 885L141 909L282 839L423 909L441 885L308 758H257L124 885Z" />
<glyph unicode="&#x17e;" glyph-name="zcaron" horiz-adv-x="476" d="M25 33L335 466V470H252Q222 470 203 469T171 464T151 455T138 440Q122 417 111 396T85 342H54L61 509H454V478L142 43V39H215Q256 39 281 41T322 49T346 62T363 83Q381 109 392 131T413 179H445L433
0H25V33ZM352 739L369 763L510 679L651 763L669 739L536 598H485L352 739Z" />
<glyph unicode="&#x192;" glyph-name="florin" horiz-adv-x="430" d="M42 394H129L146 507Q153 558 172 595T219 655T279 690T348 702Q407 702 433 680T460 631Q460 607 446 593T409 578Q386 578 375 589T357 636Q355 653 350 659T329 665Q317 665 307 661T287
645T270 613T257 561L232 394H341V349H225L176 23Q167 -37 149 -78T107 -146T55 -184T-4 -196Q-54 -196 -78 -177T-103 -131Q-103 -114 -91 -102T-58 -89Q-40 -89 -30 -99T-12 -132Q-7 -149 -4 -155T9 -162Q18 -162 25 -160T39 -150T49 -128T57 -90L122 349H42V394Z"
/>
<glyph unicode="&#x1fa;" glyph-name="Aringacute" horiz-adv-x="667" d="M1 31L31 38Q41 41 49 44T64 57T79 82T98 128L301 693H361L574 117Q584 92 591 78T606 55T621 44T638 38L666 31V0H415V31L443 38Q463 43 470 49T478 67Q478 78 474 92T462 126L423 233H191L155
126Q148 106 145 95T142 72Q142 56 151 49T178 38L212 31V0H1V31ZM206 278H407L307 560H302L206 278ZM330 734Q308 734 290 742T258 763T236 794T228 832Q228 874 257 902T330 931Q374 931 403 903T432 832Q432 812 424 795T403 764T371 742T330 734ZM330 772Q356
772 372 789T388 832Q388 858 372 875T330 893Q304 893 288 876T272 832Q272 806 288 789T330 772ZM227 974L389 1088Q411 1103 428 1103Q445 1103 457 1090T469 1060Q469 1047 461 1034T432 1014L238 950L227 974Z" />
<glyph unicode="&#x1fb;" glyph-name="aringacute" horiz-adv-x="510" d="M179 -13Q109 -13 68 21T27 120Q27 182 70 216T202 270L319 296V389Q319 414 316 432T304 463T275 480T224 486Q191 486 182 478T169 446Q165 417 154 398T109 379Q79 379 68 394T56 429Q56
454 73 472T119 502T180 519T245 525Q336 525 377 493T419 395V100Q419 80 425 68T446 48Q454 43 466 42T495 39V11Q483 3 458 -4T407 -12Q369 -12 349 4T323 46H318Q300 21 262 4T179 -13ZM222 44Q258 44 283 58T319 91V245L242 237Q188 232 159 208T129 128Q129
84 153 64T222 44ZM504 588Q482 588 464 596T432 617T410 648T402 686Q402 728 431 756T504 785Q548 785 577 757T606 686Q606 666 598 649T577 618T545 596T504 588ZM504 626Q530 626 546 643T562 686Q562 712 546 729T504 747Q478 747 462 730T446 686Q446 660
462 643T504 626ZM144 837L306 951Q328 966 345 966Q362 966 374 953T386 923Q386 910 378 897T349 877L155 813L144 837Z" />
<glyph unicode="&#x1fc;" glyph-name="AEacute" horiz-adv-x="941" d="M366 31L411 40Q420 41 426 44T436 53T441 70T443 100V221H223L177 139Q163 114 156 97T148 67Q148 44 176 38L212 31V0H1V31L24 38Q34 41 43 45T63 59T87 89T120 141L414 652H413L356 663V693H872L885
516H849Q834 553 823 575T801 610Q791 624 781 632T757 643T721 648T666 649Q614 649 591 647T551 640V383H581Q639 383 665 388T702 414Q710 431 716 445T727 483H763V237H727Q724 249 722 258T716 274T710 289T702 306Q697 317 690 323T670 333T636 336T581 337H551V152Q551
112 555 90T571 58T608 46T675 44Q710 44 731 45T767 49T791 60T811 81Q824 97 840 132T872 209H908L893 0H366V31ZM248 266H443V610H440L248 266ZM527 772L689 886Q711 901 728 901Q745 901 757 888T769 858Q769 845 761 832T732 812L538 748L527 772Z" />
<glyph unicode="&#x1fd;" glyph-name="aeacute" horiz-adv-x="786" d="M547 -12Q480 -12 435 10T361 75H360Q328 33 286 10T179 -13Q109 -13 68 21T27 120Q27 151 40 175T74 216T121 245T173 262L317 294V389Q317 414 314 432T302 463T274 480T225 486Q192 486
181 478T167 446Q163 417 152 398T107 379Q77 379 66 394T54 429Q54 454 72 472T118 502T180 519T246 525Q310 525 345 508T395 456Q453 525 550 525Q645 525 698 464T752 264H417Q420 153 462 103T581 52Q639 52 676 66T742 94V54Q732 46 714 35T670 13T614 -5T547
-12ZM222 44Q257 44 287 59T342 112Q319 166 317 242V243L242 235Q192 230 161 207T129 128Q129 84 153 64T222 44ZM546 483Q494 483 459 441T418 307L640 319Q640 361 636 392T622 443T593 473T546 483ZM308 617L470 731Q492 746 509 746Q526 746 538 733T550
703Q550 690 542 677T513 657L319 593L308 617Z" />
<glyph unicode="&#x1fe;" glyph-name="Oslashacute" horiz-adv-x="714" d="M129 76Q87 121 63 185T39 337Q39 434 66 503T138 618T241 684T362 705Q469 705 548 646L603 720H662L584 614Q626 569 650 503T675 351Q675 254 648 185T576 73T473 9T352 -12Q298 -12
251 2T164 46L91 -54H33L129 76ZM153 354Q153 292 159 241T182 148L506 588Q482 621 445 639T353 657Q301 657 264 640T202 586T165 492T153 354ZM360 37Q412 37 449 53T512 105T549 197T561 334Q561 396 555 448T531 542L207 103Q230 71 267 54T360 37ZM254 772L416
886Q438 901 455 901Q472 901 484 888T496 858Q496 845 488 832T459 812L265 748L254 772Z" />
<glyph unicode="&#x1ff;" glyph-name="oslashacute" horiz-adv-x="573" d="M110 51Q75 85 55 135T34 255Q34 321 55 371T111 455T192 507T287 525Q328 525 364 516T431 486L484 558H536L464 461Q499 428 519 378T539 261Q539 195 518 144T462 58T382 5T287 -13Q205
-13 143 25L85 -54H33L110 51ZM144 269Q144 218 147 181T159 117L396 438Q379 464 352 473T283 483Q215 483 180 433T144 269ZM291 30Q359 30 394 82T429 247Q429 295 426 331T415 394L179 74Q196 49 223 40T291 30ZM174 617L336 731Q358 746 375 746Q392 746 404
733T416 703Q416 690 408 677T379 657L185 593L174 617Z" />
<glyph unicode="&#x218;" glyph-name="Scommaaccent" horiz-adv-x="526" d="M242 -13Q180 -13 130 -4T46 17L35 204H72Q87 169 99 142T132 86Q142 72 152 63T176 47T208 39T252 36Q286 36 312 45T357 71T384 108T394 153Q394 177 386 197T358 235T306 272T227
311Q181 332 148 352T92 397T59 450T48 517Q48 557 64 591T109 651T179 691T270 706Q328 706 368 701T435 688L448 520H412Q403 540 397 554T385 579T374 599T360 619Q346 635 326 646T263 658Q235 658 211 650T168 628T140 593T130 548Q130 526 136 509T158 476T201
445T272 410Q328 385 368 362T434 314T472 263T484 204Q484 159 469 119T424 50T348 4T242 -13ZM175 -257Q201 -248 217 -238T243 -216T256 -192T260 -168Q257 -170 251 -172T235 -175Q208 -175 195 -160T182 -123Q182 -100 200 -84T246 -67Q278 -67 301 -85T324
-146Q324 -192 290 -231T183 -284L175 -257Z" />
<glyph unicode="&#x219;" glyph-name="scommaaccent" horiz-adv-x="425" d="M190 -12Q147 -12 108 -7T38 10L33 159H65Q78 130 86 111T113 69Q127 52 145 42T200 31Q246 31 275 52T304 113Q304 133 297 148T276 175T239 198T186 221Q153 234 126 248T80 281T49
323T38 375Q38 410 52 437T92 484T152 514T226 525Q268 525 299 521T357 507L361 373H331Q318 399 306 418T280 456Q269 470 255 476T214 483Q164 483 142 462T119 403Q119 374 146 352T236 306Q271 292 300 278T349 245T381 205T392 154Q392 119 378 89T338 36T275
1T190 -12ZM380 -257Q406 -248 422 -238T448 -216T461 -192T465 -168Q462 -170 456 -172T440 -175Q413 -175 400 -160T387 -123Q387 -100 405 -84T451 -67Q483 -67 506 -85T529 -146Q529 -192 495 -231T388 -284L380 -257Z" />
<glyph unicode="&#x237;" glyph-name="uni0237" horiz-adv-x="271" d="M11 -228Q-36 -228 -59 -207T-82 -159Q-82 -139 -67 -126T-29 -112Q0 -112 10 -126T23 -157Q26 -180 30 -185T42 -191Q65 -191 79 -173T93 -127V403Q93 418 92 426T88 440T78 449T63 457L25
476V502L190 523L200 517Q198 505 196 487Q193 457 193 400V-22Q193 -79 179 -118T140 -181T82 -217T11 -228Z" />
<glyph unicode="&#x2c6;" glyph-name="circumflex" horiz-adv-x="510" d="M414 610L396 586L255 670L114 586L97 610L229 751H280L414 610Z" />
<glyph unicode="&#x2c7;" glyph-name="caron" horiz-adv-x="510" d="M97 739L114 763L255 679L396 763L414 739L281 598H230L97 739Z" />
<glyph unicode="&#x2d8;" glyph-name="breve" horiz-adv-x="510" d="M256 594Q228 594 204 605T162 635T133 682T119 740L148 748Q159 713 186 689T255 664Q297 664 324 688T362 748L390 740Q388 709 377 682T349 636T308 605T256 594Z" />
<glyph unicode="&#x2d9;" glyph-name="dotaccent" horiz-adv-x="510" d="M255 614Q226 614 207 634T187 679Q187 706 206 725T255 744Q283 744 302 725T322 679Q322 654 303 634T255 614Z" />
<glyph unicode="&#x2da;" glyph-name="ring" horiz-adv-x="510" d="M255 588Q233 588 215 596T183 617T161 648T153 686Q153 728 182 756T255 785Q299 785 328 757T357 686Q357 666 349 649T328 618T296 596T255 588ZM255 626Q281 626 297 643T313 686Q313 712
297 729T255 747Q229 747 213 730T197 686Q197 660 213 643T255 626Z" />
<glyph unicode="&#x2db;" glyph-name="ogonek" horiz-adv-x="510" d="M242 -223Q200 -223 173 -201T146 -139Q146 -117 155 -97T180 -60T213 -27T248 0H292Q266 -29 251 -58T235 -119Q235 -139 242 -151T266 -168Q277 -170 291 -171T325 -171V-199Q313 -207 294
-215T242 -223Z" />
<glyph unicode="&#x2dc;" glyph-name="tilde" horiz-adv-x="510" d="M86 597Q108 660 130 690T184 721Q199 721 219 715T258 701T294 687T320 680Q336 680 349 695T380 746L412 733Q390 670 368 640T314 609Q299 609 280 615T241 629T205 643T178 650Q162 650
150 634T120 583L86 597Z" />
<glyph unicode="&#x2dd;" glyph-name="hungarumlaut" horiz-adv-x="510" d="M298 612L394 735Q410 756 428 756Q441 756 456 745T472 716Q472 705 468 696T447 676L315 592L298 612ZM123 612L218 735Q233 756 253 756Q265 756 281 745T297 716Q297 705 293 696T271
676L141 592L123 612Z" />
</font>
</defs>
</svg>
