<?xml version="1.0" standalone="no"?> <!DOCTYPE svg PUBLIC "-//W3C//DTD SVG 1.0//EN" "http://www.w3.org/TR/2001/REC-SVG-20010904/DTD/svg10.dtd" > <svg xmlns="http://www.w3.org/2000/svg" width="100%" height="100%">
<defs >
<font id="PublicoHeadline-Roman" horiz-adv-x="533" ><font-face
    font-family=""
    units-per-em="1000"
    panose-1="2 0 6 3 8 0 0 2 0 4"
    ascent="801"
    descent="-199"
    alphabetic="0" />
<missing-glyph horiz-adv-x="500" />
<glyph unicode=" " glyph-name="space" horiz-adv-x="214" />
<glyph unicode="!" glyph-name="exclam" horiz-adv-x="260" d="M132 -5Q106 -5 88 13T70 56Q70 82 88 99T132 117Q157 117 176 100T195 56Q195 31 176 13T132 -5ZM69 623Q67 643 71 658T85 682T106 697T132 702Q159 702 179 683T196 623L145 194H120L69 623Z" />
<glyph unicode="&quot;" glyph-name="quotedbl" horiz-adv-x="329" d="M39 631Q34 650 36 664T47 687T66 700T88 704Q99 704 110 700T128 688T139 665T137 631L98 474H82L39 631ZM191 631Q186 650 189 664T199 687T218 700T240 704Q251 704 262 700T281 687T291
664T289 631L246 474H230L191 631Z" />
<glyph unicode="#" glyph-name="numbersign" horiz-adv-x="523" d="M125 196H33L45 270H141L173 426H81L93 500H189L229 693H269L229 500H357L397 693H437L397 500H490L478 426H381L349 270H442L430 196H333L293 0H253L293 196H165L125 0H85L125 196ZM309 270L341
426H213L181 270H309Z" />
<glyph unicode="$" glyph-name="dollar" horiz-adv-x="492" d="M13 105Q13 128 28 141T63 154Q92 154 104 137T121 80Q122 65 126 54T141 35T171 23T224 18V306Q173 328 137 350T78 398T45 452T34 519Q34 555 48 586T88 642T148 681T224 700V764H259V701Q307 699
341 690T398 666T431 635T442 600Q442 577 428 564T389 550Q363 550 350 566T333 621Q330 647 317 657T259 670V404Q313 380 351 357T413 308T448 253T459 186Q459 143 444 108T402 47T339 6T259 -12V-110H224V-13Q113 -10 63 23T13 105ZM371 151Q371 172 366 190T348
225T314 258T259 290V19Q320 24 345 61T371 151ZM117 553Q117 531 122 513T140 480T173 450T224 421V668Q170 662 144 630T117 553Z" />
<glyph unicode="%" glyph-name="percent" horiz-adv-x="722" d="M188 348Q162 348 134 358T83 389T45 442T30 519Q30 566 45 601T85 658T137 692T191 703Q216 703 244 693T295 661T334 607T349 529Q349 482 333 448T293 392T241 359T188 348ZM189 373Q225 373
244 406T263 519Q263 604 244 641T189 678Q154 678 135 644T116 530Q116 447 135 410T189 373ZM530 -14Q504 -14 477 -4T426 27T387 80T372 158Q372 205 387 239T427 296T479 330T534 341Q559 341 587 331T638 299T676 246T692 168Q692 121 676 87T636 31T584 -3T530
-14ZM532 11Q567 11 586 45T606 157Q606 242 587 279T532 316Q496 316 477 283T458 169Q458 85 477 48T532 11ZM583 714H629L122 -50H76L583 714Z" />
<glyph unicode="&amp;" glyph-name="ampersand" horiz-adv-x="675" d="M266 -13Q195 -13 150 5T78 51T41 113T30 179Q30 217 44 247T81 301T135 346T198 384Q167 427 152 463T137 537Q137 576 152 607T193 660T248 693T308 705Q338 705 367 697T419 672T457 630T472
569Q472 540 460 517T425 473T372 436T304 400Q321 374 341 345T384 284T431 222T479 160Q503 202 512 241T522 301Q522 322 513 330T486 342L455 348V366H655V348L625 340Q607 335 599 323T579 287Q566 259 549 219T503 131Q511 121 520 110T540 87T558 67T573
51Q581 43 588 36T607 27L643 18V0H487Q477 11 464 26T441 54Q408 27 364 7T266 -13ZM288 28Q333 28 366 43T419 79Q363 147 309 221T213 361Q176 330 160 291T143 199Q143 163 152 132T179 78T224 41T288 28ZM289 421Q339 450 362 481T385 563Q385 622 362 647T308
672Q268 672 247 646T226 580Q226 540 243 500T289 421Z" />
<glyph unicode="&apos;" glyph-name="quotesingle" horiz-adv-x="177" d="M39 631Q34 650 36 664T47 687T66 700T88 704Q99 704 110 700T129 687T139 664T137 631L96 474H80L39 631Z" />
<glyph unicode="(" glyph-name="parenleft" horiz-adv-x="313" d="M282 -141Q241 -108 199 -65T123 33T66 154T44 302Q44 375 66 441T122 564T199 666T282 745L302 727Q267 690 238 645T187 547T153 438T141 322Q141 244 153 179T187 58T238 -41T302 -123L282 -141V-141Z" />
<glyph unicode=")" glyph-name="parenright" horiz-adv-x="313" d="M11 -123Q45 -86 74 -41T126 57T160 166T172 282Q172 360 160 425T126 546T75 645T11 727L31 745Q72 712 114 669T190 571T247 450T269 302Q269 228 247 162T191 40T114 -62T31 -141L11 -123Z" />
<glyph unicode="*" glyph-name="asterisk" horiz-adv-x="350" d="M87 432Q73 442 71 460T88 492L169 551L70 556Q46 558 39 572T36 602Q41 616 56 624T91 618L171 560L142 655Q138 668 140 677T147 692T159 700T175 703Q191 703 203 692T208 655L179 560L259 618Q278
632 293 624T314 600Q319 585 312 572T280 556L181 551L261 492Q281 477 279 459T262 432Q250 424 233 427T208 453L175 547L141 453Q133 430 117 427T87 432Z" />
<glyph unicode="+" glyph-name="plus" horiz-adv-x="450" d="M199 316H35V360H199V545H251V360H415V316H251V131H199V316Z" />
<glyph unicode="," glyph-name="comma" horiz-adv-x="220" d="M30 -101Q80 -78 101 -51T123 12Q121 10 115 7T99 4Q74 4 58 20T42 60Q42 86 60 101T105 117Q134 117 156 95T178 35Q178 -20 143 -59T36 -117L30 -101Z" />
<glyph unicode="-" glyph-name="hyphen" horiz-adv-x="269" d="M36 328H242L233 254H27L36 328Z" />
<glyph unicode="." glyph-name="period" horiz-adv-x="208" d="M104 -5Q78 -5 60 12T42 56Q42 82 60 99T104 117Q130 117 148 100T166 56Q166 30 148 13T104 -5Z" />
<glyph unicode="/" glyph-name="slash" horiz-adv-x="369" d="M303 734H349L46 -130H0L303 734Z" />
<glyph unicode="0" glyph-name="zero" horiz-adv-x="619" d="M307 -12Q261 -12 213 7T125 67T60 175T34 335Q34 434 60 504T127 618T217 684T313 705Q359 705 407 686T494 624T559 516T585 354Q585 256 559 187T492 73T402 9T307 -12ZM310 22Q391 22 432 96T474
335Q474 509 433 590T310 671Q230 671 188 596T146 354Q146 183 187 103T310 22Z" />
<glyph unicode="1" glyph-name="one" horiz-adv-x="343" d="M32 18L89 27Q98 28 104 31T115 40T121 57T123 87V588H30V606Q64 613 91 621T139 641T179 666T215 700L230 697V87Q230 68 231 57T235 40T245 32T261 27L313 18V0H32V18Z" />
<glyph unicode="2" glyph-name="two" horiz-adv-x="503" d="M16 53Q46 78 76 104T133 156T184 206T226 250Q256 283 279 312T319 371T344 436T353 514Q353 559 343 589T315 638T276 663T231 671Q186 671 172 660T154 623Q150 590 136 572T93 553Q64 553 52 569T39
605Q39 624 53 642T93 674T156 696T241 705Q288 705 328 693T399 656T446 594T463 507Q463 452 433 399T352 294T239 192T108 92V88H357Q377 88 390 90T413 101T432 124T454 166H472L456 0H16V53Z" />
<glyph unicode="3" glyph-name="three" horiz-adv-x="496" d="M199 -12Q111 -12 61 14T11 90Q11 109 24 125T66 141Q110 141 125 92Q131 71 135 57T146 36T167 25T207 22Q244 22 270 35T314 72T338 126T346 194Q346 265 315 304T204 343H150V377H194Q265 377 296
413T327 527Q327 671 208 671Q178 671 165 663T148 620Q140 553 90 553Q61 553 48 569T35 604Q35 629 51 648T95 679T155 698T224 705Q276 705 315 692T380 657T420 604T433 539Q433 481 395 434T268 366V363Q359 353 408 309T457 190Q457 151 442 115T394 51T314
5T199 -12Z" />
<glyph unicode="4" glyph-name="four" horiz-adv-x="545" d="M235 18L280 27Q289 28 294 31T304 40T309 57T311 87V204H18V244L360 693H415V259H523L512 204H415V87Q415 68 416 57T420 40T430 32T446 27L493 18V0H235V18ZM311 259V570H308L74 261V259H311Z" />
<glyph unicode="5" glyph-name="five" horiz-adv-x="506" d="M212 -12Q174 -12 141 -6T84 12T46 42T32 86Q32 105 45 122T87 140Q113 140 128 127T151 78Q154 61 157 50T168 33T186 25T216 22Q298 22 337 66T376 195Q376 238 363 268T325 317T269 344T199 353Q163
353 132 348T82 335L75 341L114 693H382Q392 693 398 694T410 701T422 717T436 745H455L437 605H142L120 428Q137 434 164 439T227 444Q274 444 317 432T394 392T447 324T467 225Q467 170 446 126T390 52T308 5T212 -12Z" />
<glyph unicode="6" glyph-name="six" horiz-adv-x="551" d="M288 -12Q234 -12 188 8T108 68T54 164T34 294Q34 403 64 481T142 608T248 681T364 705Q395 705 422 700T470 685T501 659T513 622Q513 599 501 585T463 570Q434 570 421 584T399 628Q393 651 385 661T352
671Q319 671 285 656T222 606T172 511T147 365Q176 387 216 403T311 419Q356 419 393 405T458 364T501 298T517 210Q517 158 498 117T447 47T374 3T288 -12ZM289 22Q324 22 347 34T384 69T403 124T409 197Q409 284 377 329T280 374Q201 374 146 336Q146 330 146
326T145 319T145 312T145 301Q145 254 149 205T168 115T211 48T289 22Z" />
<glyph unicode="7" glyph-name="seven" horiz-adv-x="479" d="M110 0Q134 99 167 185T240 345T322 484T405 606H103Q89 606 81 604T67 594T54 573T39 538H20L37 693H468V648Q420 576 381 504T312 354T258 188T219 0H110V0Z" />
<glyph unicode="8" glyph-name="eight" horiz-adv-x="532" d="M268 -13Q226 -13 184 -3T108 29T53 84T31 165Q31 194 43 220T75 269T124 312T184 350V353Q127 385 95 428T62 528Q62 566 78 598T122 654T189 691T272 705Q311 705 347 695T413 665T459 615T477 546Q477
519 466 496T437 452T394 413T344 377V374Q380 353 409 333T458 291T490 242T501 184Q501 145 484 109T436 46T363 3T268 -13ZM274 21Q340 21 376 56T412 152Q412 182 395 207T348 254T283 296T208 338Q194 326 179 311T151 277T130 232T121 174Q121 99 163 60T274
21ZM321 390Q334 403 346 417T369 449T385 490T391 543Q391 607 358 639T268 671Q211 671 179 641T146 560Q146 532 162 508T203 463T260 424T321 390Z" />
<glyph unicode="9" glyph-name="nine" horiz-adv-x="551" d="M195 -12Q163 -12 136 -7T89 8T58 34T46 71Q46 94 58 108T96 123Q125 123 138 109T160 65Q166 42 174 32T207 22Q247 22 281 36T342 86T384 180T404 328Q375 306 335 290T245 274Q200 274 162 288T95
328T50 391T34 477Q34 531 53 573T104 645T177 689T263 705Q317 705 363 685T443 625T497 529T517 399Q517 290 491 212T420 85T317 12T195 -12ZM271 319Q350 319 405 357Q405 363 405 367T406 374T406 381T406 392Q406 439 402 488T383 578T340 645T262 671Q227
671 204 659T167 623T148 566T142 490Q142 407 174 363T271 319Z" />
<glyph unicode=":" glyph-name="colon" horiz-adv-x="216" d="M108 -5Q82 -5 64 12T46 56Q46 82 64 99T108 117Q134 117 152 100T170 56Q170 30 152 13T108 -5ZM108 290Q82 290 64 307T46 351Q46 377 64 394T108 412Q134 412 152 395T170 351Q170 325 152 308T108 290Z" />
<glyph unicode=";" glyph-name="semicolon" horiz-adv-x="217" d="M31 -101Q81 -78 102 -51T124 12Q122 10 116 7T100 4Q75 4 59 20T43 60Q43 86 61 101T106 117Q135 117 157 95T179 35Q179 -20 144 -59T37 -117L31 -101ZM108 290Q82 290 64 307T46 351Q46 377
64 394T108 412Q134 412 152 395T170 351Q170 325 152 308T108 290Z" />
<glyph unicode="&lt;" glyph-name="less" horiz-adv-x="450" d="M32 307V348L412 525V475L88 328L412 181V130L32 307Z" />
<glyph unicode="=" glyph-name="equal" horiz-adv-x="480" d="M35 285H445V241H35V285ZM35 435H445V391H35V435Z" />
<glyph unicode="&gt;" glyph-name="greater" horiz-adv-x="450" d="M38 130V181L362 328L38 475V525L418 348V307L38 130Z" />
<glyph unicode="?" glyph-name="question" horiz-adv-x="430" d="M147 367Q174 378 202 393T252 429T289 480T304 547Q304 584 295 608T270 646T236 665T195 671Q167 671 157 664T142 630Q137 599 124 585T85 570Q57 570 46 585T34 620Q34 641 46 657T78 683T124
699T177 705Q274 705 332 658T390 514Q390 472 375 438T333 377T269 330T188 294V194H147V367ZM166 -5Q140 -5 122 13T104 56Q104 82 122 99T166 117Q191 117 210 100T229 56Q229 31 210 13T166 -5Z" />
<glyph unicode="@" glyph-name="at" horiz-adv-x="835" d="M393 -135Q313 -135 247 -111T133 -43T59 64T32 206Q32 299 67 381T163 524T302 620T471 656Q546 656 607 635T711 574T779 481T803 360Q803 270 779 209T718 110T638 56T558 39Q529 39 511 47T484 71T472
108T471 153H467Q437 105 399 73T319 41Q278 41 251 70T223 156Q223 230 248 291T310 396T390 464T472 488Q505 488 525 479T567 455H571L607 485L619 479Q615 468 611 452Q603 425 593 374L560 187Q551 136 557 108T595 79Q620 79 645 92T692 135T726 211T740
325Q740 392 724 447T674 541T590 602T471 624Q390 624 323 594T209 511T135 387T109 234Q109 162 127 102T184 -1T280 -68T419 -92Q477 -92 531 -80T644 -41V-69Q626 -81 598 -92T537 -113T466 -129T393 -135ZM355 98Q384 98 414 128T473 201L517 425Q512 441
501 450T466 459Q439 459 412 435T362 371T327 279T313 170Q313 131 322 115T355 98Z" />
<glyph unicode="A" glyph-name="A" horiz-adv-x="640" d="M-4 18L25 25Q35 28 42 32T57 46T71 76T91 128L290 693H345L554 117Q564 90 571 74T586 47T600 33T617 25L644 18V0H389V18L417 25Q437 30 444 38T451 59Q451 70 447 88T435 126L393 245H173L134 126Q127
106 125 91T122 64Q122 32 157 25L190 18V0H-4V18ZM184 278H382L283 560H278L184 278Z" />
<glyph unicode="B" glyph-name="B" horiz-adv-x="602" d="M25 18L70 27Q79 28 84 31T94 40T99 57T101 87V606Q101 625 100 636T94 653T85 661T70 666L25 675V693H295Q350 693 394 684T470 656T519 605T536 530Q536 459 493 421T370 368V364Q470 356 521 315T573
195Q573 147 555 111T504 50T424 13T320 0H25V18ZM310 34Q379 34 419 70T459 181Q459 263 424 303T306 343H208V112Q208 86 211 71T224 47T255 37T310 34ZM292 376Q357 376 392 412T428 510Q428 593 394 626T286 659Q263 659 242 658T208 653V376H292Z" />
<glyph unicode="C" glyph-name="C" horiz-adv-x="610" d="M344 -12Q279 -12 223 8T125 70T59 180T35 341Q35 441 62 510T136 623T245 685T377 705Q434 705 482 698T563 681L572 483H549Q537 521 519 558T484 622Q470 645 444 657T366 669Q313 669 273 653T205
600T163 504T149 360Q149 268 162 205T200 101T264 42T352 24Q385 24 408 27T446 38T472 55T491 78Q512 110 526 141T555 212H575L565 32Q531 15 474 2T344 -12Z" />
<glyph unicode="D" glyph-name="D" horiz-adv-x="686" d="M25 18L70 27Q79 28 84 31T94 40T99 57T101 87V606Q101 625 100 636T94 653T85 661T70 666L25 675V693H317Q387 693 448 676T554 619T625 514T651 353Q651 265 626 199T556 89T449 22T311 0H25V18ZM304
32Q373 32 418 55T490 118T528 214T539 334Q539 500 485 580T302 661Q266 661 244 659T208 652V126Q208 96 210 78T222 49T251 36T304 32Z" />
<glyph unicode="E" glyph-name="E" horiz-adv-x="582" d="M25 18L70 27Q79 28 84 31T94 40T99 57T101 87V606Q101 625 100 636T94 653T85 661T70 666L25 675V693H520L532 516H510Q494 553 483 575T463 610Q452 626 443 635T419 650T384 657T329 659Q276 659 249
657T208 650V377H263Q291 377 311 378T345 382T367 392T381 409Q389 426 395 444T406 487H428V233H406Q400 258 395 274T381 311Q376 322 369 328T350 338T317 342T263 343H208V152Q208 112 210 89T225 53T264 38T338 34Q372 34 393 35T429 42T452 57T473 81Q484
97 500 132T531 209H555L540 0H25V18Z" />
<glyph unicode="F" glyph-name="F" horiz-adv-x="553" d="M25 18L70 27Q79 28 84 31T94 40T99 57T101 87V606Q101 625 100 636T94 653T85 661T70 666L25 675V693H513L523 506H499Q482 551 471 574T450 612Q439 628 430 637T406 652T371 658T317 659Q275 659 250
657T208 652V365H241Q275 365 297 366T332 372T353 381T365 395Q375 411 382 430T395 474H417V216H395Q389 242 382 262T365 304Q361 313 355 318T336 326T301 330T241 331H208V87Q208 68 209 58T213 41T223 33T239 28L297 18V0H25V18Z" />
<glyph unicode="G" glyph-name="G" horiz-adv-x="669" d="M371 -12Q294 -12 232 9T126 73T59 183T35 341Q35 441 63 510T138 623T247 686T377 705Q446 705 491 700T574 686L587 487H564Q547 536 533 565T508 611Q496 628 486 639T462 657T427 666T372 669Q262
669 205 597T147 365Q147 191 198 108T369 24Q411 24 439 31T488 49V198Q488 217 487 227T482 244T472 252T457 257L410 267V285H660V267L626 259Q617 257 611 254T602 245T597 228T595 198V19Q556 8 499 -2T371 -12Z" />
<glyph unicode="H" glyph-name="H" horiz-adv-x="716" d="M25 18L70 27Q79 28 84 31T94 40T99 57T101 87V606Q101 625 100 636T94 653T85 661T70 666L25 675V693H286V675L239 666Q229 664 223 661T214 652T209 636T208 606V370H508V606Q508 625 507 635T503 652T493
661T477 666L430 675V693H691V675L646 666Q637 664 631 662T622 653T617 636T615 606V87Q615 68 616 57T621 40T631 32T646 27L691 18V0H430V18L477 27Q487 29 493 31T502 40T507 57T508 87V336H208V87Q208 68 209 57T213 40T223 32T239 27L286 18V0H25V18Z" />
<glyph unicode="I" glyph-name="I" horiz-adv-x="317" d="M25 18L74 27Q83 28 89 31T98 40T103 57T105 87V606Q105 625 104 636T99 653T89 661T74 666L25 675V693H292V675L243 666Q233 664 227 662T218 653T213 636T212 606V87Q212 68 213 57T217 40T227 32T243
27L292 18V0H25V18Z" />
<glyph unicode="J" glyph-name="J" horiz-adv-x="309" d="M16 -163Q-41 -163 -68 -145T-96 -98Q-96 -78 -83 -63T-43 -48Q-13 -48 -1 -63T19 -107Q24 -122 27 -125T46 -128Q68 -128 84 -105T101 -26V606Q101 625 100 635T96 652T86 661T70 666L23 675V693H284V675L239
666Q230 664 224 662T215 653T210 636T208 606V59Q208 11 196 -30T160 -100T100 -146T16 -163Z" />
<glyph unicode="K" glyph-name="K" horiz-adv-x="635" d="M479 0Q447 36 415 78T352 164T293 254T240 344V357L448 598Q465 618 465 636Q465 658 429 667L396 675V693H611V675L584 668Q572 665 563 661T543 649T521 628T490 594L319 404Q344 359 376 310T442 213T510
122T572 47Q583 35 588 32T604 26L638 18V0H479ZM25 18L70 27Q79 28 84 31T94 40T99 57T101 87V606Q101 625 100 636T94 653T85 661T70 666L25 675V693H286V675L239 666Q229 664 223 661T214 652T209 636T208 606V87Q208 68 209 57T213 40T223 32T239 27L286 18V0H25V18Z"
/>
<glyph unicode="L" glyph-name="L" horiz-adv-x="550" d="M25 18L70 27Q79 28 84 31T94 40T99 57T101 87V606Q101 625 100 636T94 653T85 661T70 666L25 675V693H290V675L239 665Q230 663 224 661T215 652T210 636T208 606V129Q208 98 210 79T222 50T255 37T317
34Q350 34 371 35T407 42T432 57T453 81Q464 97 480 131T512 216H536L524 0H25V18Z" />
<glyph unicode="M" glyph-name="M" horiz-adv-x="828" d="M25 18L60 25Q70 27 78 30T91 40T98 61T101 97V606Q101 625 100 636T94 653T85 661T70 666L25 675V693H226L415 173H418L599 693H803V675L758 666Q749 664 743 662T734 653T729 636T727 606V87Q727 68
728 57T733 40T743 32T758 27L803 18V0H548V18L589 27Q599 29 605 31T614 40T619 57T620 87V620H616L404 16H363L145 620H141V97Q141 74 143 61T149 41T162 30T182 25L219 18V0H25V18Z" />
<glyph unicode="N" glyph-name="N" horiz-adv-x="676" d="M145 607H141V97Q141 74 143 61T149 41T162 30T182 25L224 18V0H25V18L60 25Q70 27 78 30T91 40T98 61T101 97V606Q101 625 100 636T94 653T85 661T70 666L25 675V693H212L540 183H544V596Q544 618 542
631T536 652T523 663T503 668L457 675V693H660V675L625 668Q614 666 607 663T594 653T587 632T584 596V-4H540L145 607Z" />
<glyph unicode="O" glyph-name="O" horiz-adv-x="690" d="M340 -12Q275 -12 219 10T122 77T57 186T33 337Q33 434 59 503T130 618T232 684T350 705Q414 705 470 682T568 614T633 503T657 351Q657 254 631 185T560 73T458 9T340 -12ZM348 24Q450 24 497 98T545
334Q545 394 536 454T503 561T441 639T341 669Q239 669 192 592T145 354Q145 294 154 235T187 129T249 53T348 24Z" />
<glyph unicode="P" glyph-name="P" horiz-adv-x="567" d="M25 18L70 27Q79 28 84 31T94 40T99 57T101 87V606Q101 643 96 652T79 663L25 675V693H304Q425 693 487 643T549 498Q549 451 533 411T485 343T407 298T303 282Q277 282 262 285T241 290V313Q341 308 389
347T438 488Q438 536 430 568T406 621T362 650T298 659Q268 659 244 657T208 652V87Q208 68 209 57T213 40T222 31T239 27L297 18V0H25V18Z" />
<glyph unicode="Q" glyph-name="Q" horiz-adv-x="690" d="M589 -167Q563 -167 541 -164T499 -155T459 -138T417 -114Q398 -102 382 -90T350 -65T316 -38T277 -6Q222 5 177 32T100 103T51 205T33 337Q33 434 59 504T130 619T232 685T350 706Q414 706 470 683T568
614T633 503T657 351Q657 273 640 213T591 110T518 40T424 -1V-4Q444 -21 469 -39T514 -68Q555 -92 590 -102T661 -112Q683 -112 702 -106T732 -95V-115Q723 -123 711 -132T681 -149T641 -162T589 -167ZM348 24Q450 24 497 98T545 334Q545 394 536 454T503 562T441
640T341 670Q239 670 192 593T145 354Q145 294 154 235T187 129T249 53T348 24Z" />
<glyph unicode="R" glyph-name="R" horiz-adv-x="629" d="M25 18L70 27Q79 28 84 31T94 40T99 57T101 87V606Q101 625 100 636T94 653T85 661T70 666L25 675V693H311Q430 693 485 649T540 517Q540 461 500 416T381 348V345Q401 310 425 270T474 191T525 115T572
52Q580 41 589 35T613 24L634 18V0H480Q425 72 373 156T281 322H208V87Q208 68 209 57T213 40T223 32T239 27L286 18V0H25V18ZM265 354Q352 354 390 389T429 507Q429 553 421 582T397 629T357 652T298 659Q266 659 244 657T208 652V358Q216 357 226 356Q234 355
244 355T265 354Z" />
<glyph unicode="S" glyph-name="S" horiz-adv-x="506" d="M232 -13Q172 -13 122 -3T40 22L29 204H53Q67 169 80 139T114 78Q133 47 162 35T244 23Q318 23 350 57T383 148Q383 175 375 195T347 235T296 272T218 311Q173 332 140 352T85 397T53 450T42 517Q42 557
57 591T101 651T170 691T260 706Q320 706 359 699T422 684L434 520H411Q403 540 397 554T384 580T372 600T359 621Q350 634 341 643T320 659T291 667T249 670Q189 670 156 643T122 560Q122 535 128 516T150 480T193 446T262 410Q317 385 356 362T421 314T458 263T470
204Q470 159 455 119T410 50T336 4T232 -13Z" />
<glyph unicode="T" glyph-name="T" horiz-adv-x="597" d="M166 18L214 27Q223 29 229 31T238 40T243 57T245 87V661H226Q188 661 166 660T130 653T107 637T87 606Q79 593 74 581T63 556T52 528T40 491H16L25 693H572L581 491H557Q550 512 545 527T534 556T523
581T510 606Q499 625 490 636T467 653T431 659T371 661H352V87Q352 68 353 57T357 40T367 32T383 27L431 18V0H166V18Z" />
<glyph unicode="U" glyph-name="U" horiz-adv-x="677" d="M344 -12Q285 -12 238 1T157 44T105 117T87 225V606Q87 625 86 636T81 653T71 661T56 666L11 675V693H268V675L225 666Q215 664 209 661T200 652T195 636T194 606V215Q194 124 236 80T375 36Q468 36 509
86T550 224V596Q550 618 548 631T542 652T529 663T509 668L460 675V693H666V675L631 668Q620 666 613 663T600 653T593 632T590 596V217Q590 171 577 130T533 57T457 7T344 -12Z" />
<glyph unicode="V" glyph-name="V" horiz-adv-x="634" d="M84 576Q75 601 69 617T56 644T41 659T21 668L-4 675V693H249V675L221 668Q187 659 187 634Q187 623 191 605T203 567L355 133H360L504 567Q509 583 513 601T518 630Q518 647 509 655T481 668L448 675V693H638V675L611
668Q600 665 593 660T580 644T567 615T549 565L350 0H293L84 576Z" />
<glyph unicode="W" glyph-name="W" horiz-adv-x="927" d="M84 576Q75 603 69 620T56 646T42 660T24 668L-3 675V693H244V675L213 668Q181 661 181 631Q181 619 185 602T195 567L328 143H333L455 509L433 576Q424 603 418 620T405 646T390 660T372 668L345 675V693H591V675L560
668Q529 661 529 631Q529 619 533 602T542 567L676 143H681L797 567Q802 584 805 602T809 633Q809 646 802 655T778 668L745 675V693H930V675L900 668Q877 663 866 639T838 558L674 0H620L476 447H473L323 0H271L84 576Z" />
<glyph unicode="X" glyph-name="X" horiz-adv-x="641" d="M17 18L45 24Q55 26 63 30T79 44T97 67T122 106L267 333L108 596Q97 614 90 626T76 647T62 660T44 668L17 675V693H278V675L242 668Q231 666 225 659T218 640Q218 631 222 618T238 585L345 400H348L456
595Q465 612 468 623T471 643Q471 663 449 668L415 675V693H598V675L570 668Q560 665 553 661T537 647T520 624T497 587L367 372L529 103Q552 64 564 46T597 24L624 18V0H367V18L399 23Q416 25 422 31T428 48Q428 57 422 72T404 106L288 304H285L163 98Q144 66
144 51Q144 39 150 32T168 23L195 18V0H17V18Z" />
<glyph unicode="Y" glyph-name="Y" horiz-adv-x="602" d="M181 18L229 27Q238 29 244 31T253 40T258 57T260 87V280L94 579Q81 603 72 619T55 644T39 659T21 668L-4 675V693H255V675L230 669Q207 664 198 656T189 633Q189 614 208 579L343 324H347L464 579Q473
598 476 609T479 631Q479 645 471 654T440 668L409 675V693H606V675L584 668Q572 664 563 659T544 642T525 613T501 565L367 288V87Q367 68 368 57T372 40T382 32T398 27L446 18V0H181V18Z" />
<glyph unicode="Z" glyph-name="Z" horiz-adv-x="550" d="M25 31L409 655V659H344Q283 659 246 658T187 652T154 638T132 614Q117 591 106 565T79 501H57L67 693H527V662L146 38V34H209Q274 34 314 35T379 42T417 55T440 77Q455 98 468 127T502 208H526L513 0H25V31Z" />
<glyph unicode="[" glyph-name="bracketleft" horiz-adv-x="343" d="M100 734H313V716L224 705Q212 703 205 701T194 692T189 673T187 642V-38Q187 -58 188 -69T193 -87T204 -97T224 -101L313 -112V-130H100V734Z" />
<glyph unicode="\" glyph-name="backslash" horiz-adv-x="369" d="M20 734H66L369 -130H323L20 734Z" />
<glyph unicode="]" glyph-name="bracketright" horiz-adv-x="343" d="M30 -112L119 -101Q131 -100 138 -97T149 -88T154 -70T156 -38V642Q156 661 155 673T150 691T139 700T119 705L30 716V734H243V-130H30V-112Z" />
<glyph unicode="^" glyph-name="asciicircum" horiz-adv-x="399" d="M44 488L182 703H217L355 488L342 476L200 602L57 476L44 488Z" />
<glyph unicode="_" glyph-name="underscore" horiz-adv-x="336" d="M-2 -130H338V-174H-2V-130Z" />
<glyph unicode="`" glyph-name="grave" horiz-adv-x="500" d="M165 639Q144 646 136 659T128 685Q128 701 140 714T169 728Q188 728 207 713L364 593L358 579L165 639Z" />
<glyph unicode="a" glyph-name="a" horiz-adv-x="490" d="M171 -13Q102 -13 62 21T22 120Q22 151 35 173T69 211T115 236T165 252L308 286V389Q308 414 305 434T293 467T265 488T215 495Q183 495 171 487T156 456Q154 442 152 431T144 410T129 396T103 391Q74
391 62 406T50 440Q50 463 67 479T112 506T171 520T235 525Q324 525 365 493T406 395V87Q406 49 432 35Q440 30 452 29T480 26V11Q469 3 445 -4T394 -12Q356 -12 337 4T312 46H307Q289 21 252 4T171 -13ZM213 36Q248 36 272 50T308 83V245L232 237Q183 232 153
208T122 128Q122 84 146 60T213 36Z" />
<glyph unicode="b" glyph-name="b" horiz-adv-x="561" d="M249 -12Q192 -12 149 -4T64 25V650Q64 665 63 673T58 687T49 696T35 703L-7 723V739L159 755L166 749Q165 736 164 718Q163 703 163 681T162 630V549Q162 532 162 517T161 490Q160 477 160 465H164Q196
489 239 506T332 524Q368 524 403 513T466 473T511 398T529 279Q529 208 508 154T450 62T362 7T249 -12ZM260 20Q302 20 333 32T385 73T416 147T426 259Q426 367 386 416T273 466Q231 466 205 455T162 436V57Q182 39 205 30T260 20Z" />
<glyph unicode="c" glyph-name="c" horiz-adv-x="467" d="M260 -12Q203 -12 160 7T88 61T43 143T28 248Q28 329 54 382T122 467T213 512T308 525Q379 525 412 502T446 441Q446 418 430 403T388 387Q359 387 348 401T333 441Q328 475 318 484T282 493Q252 493 225
482T177 447T144 382T132 284Q132 167 171 107T293 47Q343 47 385 61T452 89V61Q441 51 423 39T380 15T325 -4T260 -12Z" />
<glyph unicode="d" glyph-name="d" horiz-adv-x="575" d="M229 -12Q193 -12 158 0T95 42T50 119T32 239Q32 312 55 365T117 454T206 507T309 524Q340 524 362 521T400 512Q399 523 399 536V588V650Q399 665 398 673T393 687T384 696T370 703L328 723V739L493 755L500
749Q499 736 498 718Q497 703 497 681T497 630V102Q497 85 498 75T503 59T511 48T526 40L563 23V9L407 -12L400 -6L402 47H398Q366 23 322 6T229 -12ZM283 43Q328 43 355 55T399 76V450Q382 466 359 479T302 492Q263 492 233 480T180 440T147 368T135 259Q135 145
173 94T283 43Z" />
<glyph unicode="e" glyph-name="e" horiz-adv-x="499" d="M271 -12Q210 -12 165 7T89 63T43 149T28 260Q28 320 47 369T100 452T178 506T271 525Q317 525 354 512T417 469T457 392T471 276H132Q132 214 144 171T179 100T233 60T303 47Q359 47 396 61T461 89V61Q451
53 433 41T391 17T337 -3T271 -12ZM267 495Q212 495 175 450T132 306L361 318Q361 408 342 451T267 495Z" />
<glyph unicode="f" glyph-name="f" horiz-adv-x="303" d="M20 17L60 28Q74 32 80 41T86 80V468H17V486L86 510V555Q86 601 102 638T147 702T217 743T306 757Q354 757 375 741T397 699Q397 679 385 666T349 652Q321 652 309 666T293 702Q291 716 288 721T274 727Q258
727 242 721T213 701T192 664T184 608V509H296L286 468H184V85Q184 50 189 41T210 28L263 17V0H20V17Z" />
<glyph unicode="g" glyph-name="g" horiz-adv-x="488" d="M201 -204Q101 -204 45 -171T-12 -84Q-12 -47 18 -20T101 24V28Q72 37 54 56T35 108Q35 126 42 141T60 170T84 195T110 215V219Q77 233 52 268T27 350Q27 394 44 427T89 481T152 513T222 524Q281 524 329
499Q349 516 377 529T438 543Q461 543 476 531T492 496Q492 477 482 464T451 451Q431 451 422 459T407 481Q399 498 384 498T348 488V485Q379 467 398 434T417 359Q417 315 400 283T355 230T292 199T222 189Q197 189 176 193T135 205Q124 197 113 184T101 152Q101
113 163 113H327Q359 113 385 107T430 87T459 48T470 -14Q470 -43 457 -76T413 -138T330 -185T201 -204ZM218 -174Q254 -174 287 -167T346 -145T387 -108T402 -55Q402 -21 382 0T309 22H145Q122 16 101 -6T79 -68Q79 -174 218 -174ZM222 217Q268 217 292 246T316
347Q316 426 292 461T222 496Q176 496 152 465T128 362Q128 283 152 250T222 217Z" />
<glyph unicode="h" glyph-name="h" horiz-adv-x="583" d="M20 17L60 28Q74 32 80 41T86 80V650Q86 665 85 673T80 687T71 696T57 703L15 723V739L181 755L188 749Q187 733 186 715Q185 699 185 677T184 630V549Q184 532 184 516T182 488Q181 474 181 461H185Q222
485 271 504T369 524Q443 524 472 491T502 391V80Q502 51 508 42T528 28L568 17V0H338V17L378 28Q385 30 390 32T398 40T402 54T404 80V369Q404 422 385 442T319 462Q301 462 282 459T244 452T211 444T184 436V80Q184 64 185 55T189 40T197 33T210 28L250 17V0H20V17Z"
/>
<glyph unicode="i" glyph-name="i" horiz-adv-x="264" d="M20 17L60 28Q74 32 80 41T86 80V415Q86 430 85 438T81 452T72 461T57 469L20 488V502L181 523L188 519Q187 506 186 491Q185 478 185 461T184 425V80Q184 64 185 55T189 40T197 33T210 28L250 17V0H20V17ZM131
602Q106 602 89 620T71 661Q71 685 88 702T131 720Q156 720 173 703T191 661Q191 638 174 620T131 602Z" />
<glyph unicode="j" glyph-name="j" horiz-adv-x="256" d="M6 -208Q-40 -208 -61 -189T-82 -143Q-82 -124 -69 -112T-33 -99Q-4 -99 6 -113T18 -144Q21 -167 24 -172T36 -178Q59 -178 72 -161T86 -107V415Q86 430 85 438T81 452T72 461T57 469L20 488V502L181 523L188
519Q187 506 186 491Q185 478 185 461T184 425V-2Q184 -59 170 -98T132 -161T76 -197T6 -208ZM129 602Q104 602 87 620T69 661Q69 685 86 702T129 720Q154 720 171 703T189 661Q189 638 172 620T129 602Z" />
<glyph unicode="k" glyph-name="k" horiz-adv-x="522" d="M395 0Q338 62 294 121T201 252V259L317 391Q346 425 354 441T363 466Q363 474 357 478T336 487L322 492V509H498V492L468 482Q457 479 449 475T431 464T412 447T386 420L277 303Q298 271 323 237T374
168T426 102T478 43Q485 35 491 32T505 26L533 17V0H395ZM20 17L60 28Q74 32 80 41T86 80V650Q86 665 85 673T80 687T71 696T57 703L15 723V739L181 755L188 749Q187 733 186 715Q185 699 185 677T184 630V80Q184 64 185 55T189 40T197 33T210 28L250 17V0H20V17Z"
/>
<glyph unicode="l" glyph-name="l" horiz-adv-x="265" d="M20 17L60 28Q74 32 80 41T86 80V650Q86 665 85 673T80 687T71 696T57 703L15 723V739L181 755L188 749Q187 733 186 715Q185 699 185 677T184 630V80Q184 64 185 55T189 40T197 33T210 28L250 17V0H20V17Z" />
<glyph unicode="m" glyph-name="m" horiz-adv-x="869" d="M20 17L60 28Q74 32 80 41T86 80V415Q86 430 85 438T81 452T72 461T57 469L20 488V502L176 523L183 517L181 461H185Q222 485 268 504T360 524Q414 524 439 507T478 459H482Q523 483 568 503T669 524Q734
524 761 491T788 390V80Q788 51 794 42T814 28L854 17V0H624V17L664 28Q671 30 676 32T684 40T688 54T690 80V368Q690 419 675 440T614 462Q578 462 543 453T484 434Q485 426 485 417T486 390V80Q486 51 492 42T512 28L552 17V0H322V17L362 28Q369 30 374 32T382
40T386 54T388 80V368Q388 418 373 440T312 462Q276 462 241 453T184 436V80Q184 64 185 55T189 40T197 33T210 28L250 17V0H20V17Z" />
<glyph unicode="n" glyph-name="n" horiz-adv-x="583" d="M20 17L60 28Q74 32 80 41T86 80V415Q86 430 85 438T81 452T72 461T57 469L20 488V502L176 523L183 519L181 461H185Q222 485 271 504T369 524Q443 524 472 491T502 391V80Q502 51 508 42T528 28L568 17V0H338V17L378
28Q385 30 390 32T398 40T402 54T404 80V369Q404 422 385 442T319 462Q301 462 282 459T244 452T211 444T184 436V80Q184 64 185 55T189 40T197 33T210 28L250 17V0H20V17Z" />
<glyph unicode="o" glyph-name="o" horiz-adv-x="552" d="M276 -13Q223 -13 178 4T100 54T47 138T28 255Q28 321 48 371T103 455T183 507T276 525Q328 525 373 509T452 459T505 377T524 261Q524 195 503 144T448 58T369 5T276 -13ZM280 17Q347 17 381 72T416 247Q416
381 381 438T273 495Q206 495 171 442T136 269Q136 135 172 76T280 17Z" />
<glyph unicode="p" glyph-name="p" horiz-adv-x="583" d="M20 -182L60 -171Q75 -167 80 -158T86 -119V415Q86 430 85 438T81 452T72 461T57 469L20 488V502L176 523L183 519L182 465H186Q218 489 261 506T354 524Q390 524 425 513T488 473T533 398T551 279Q551
208 531 154T474 62T385 7T269 -12Q249 -12 226 -9T183 1V-18Q183 -27 183 -38T184 -63V-119Q184 -135 185 -144T189 -159T197 -167T210 -171L263 -182V-199H20V-182ZM280 20Q322 20 353 32T406 73T437 147T448 259Q448 367 408 416T295 466Q253 466 227 455T184
436V57Q204 39 226 30T280 20Z" />
<glyph unicode="q" glyph-name="q" horiz-adv-x="567" d="M320 -182L373 -171Q381 -170 386 -168T394 -160T398 -145T399 -119V-21V26Q399 37 400 46H396Q366 23 322 6T229 -12Q193 -12 158 0T95 42T50 119T32 239Q32 312 55 365T117 454T206 507T309 524Q357
524 389 514T449 488H453L485 526L497 522V-119Q497 -148 502 -157T523 -171L563 -182V-199H320V-182ZM283 43Q328 43 355 55T399 76V450Q382 466 359 479T302 492Q263 492 233 480T180 440T147 368T135 259Q135 145 173 94T283 43Z" />
<glyph unicode="r" glyph-name="r" horiz-adv-x="403" d="M20 17L60 28Q74 32 80 41T86 80V415Q86 430 85 438T81 452T72 461T57 469L20 488V502L176 523L183 517L181 457H185Q198 470 215 482T250 504T289 519T327 525Q358 525 375 510T392 466Q392 438 377 424T339
409Q312 409 301 420T284 447Q280 458 277 461T267 464Q259 464 248 461T225 451T202 438T184 423V80Q184 64 185 55T189 40T197 32T210 28L260 17V0H20V17Z" />
<glyph unicode="s" glyph-name="s" horiz-adv-x="407" d="M181 -12Q139 -12 101 -6T32 12L29 159H49Q61 130 73 109T101 63Q109 50 116 42T134 28T157 20T191 18Q236 18 265 41T295 107Q295 148 267 172T177 221Q145 234 119 248T73 281T43 323T32 375Q32 410
46 437T86 484T144 514T217 525Q258 525 288 520T345 504L349 377H331Q319 403 307 422T281 461Q263 484 246 489T205 495Q156 495 133 475T109 417Q109 383 136 357T226 306Q261 292 289 278T337 245T368 205T379 154Q379 119 366 89T327 36T264 1T181 -12Z" />
<glyph unicode="t" glyph-name="t" horiz-adv-x="323" d="M187 -12Q164 -12 144 -7T108 12T83 44T74 93V468H5V485Q108 517 148 629H172V509H312L302 468H172V103Q172 41 238 41Q260 41 280 45T316 54V34Q309 29 298 21T270 6T233 -7T187 -12Z" />
<glyph unicode="u" glyph-name="u" horiz-adv-x="576" d="M215 -12Q152 -12 117 21T82 119V425Q82 439 81 447T77 459T69 466T56 473L16 491V506L170 523L180 515V139Q180 95 200 72T265 49Q301 49 337 60T400 81V425Q400 439 399 447T396 459T388 466T374 473L334
491V506L488 523L498 515V102Q498 85 499 75T504 59T512 48T527 40L564 23V9L408 -12L401 -6L403 56H399Q360 30 313 9T215 -12Z" />
<glyph unicode="v" glyph-name="v" horiz-adv-x="506" d="M69 417Q63 433 58 444T47 462T34 475T16 484L-8 492V509H220V492L193 485Q174 480 170 473T166 453Q166 444 169 431T179 401L283 120H287L390 401Q397 421 399 434T402 455Q402 466 397 473T376 485L349
492V509H512V492L484 484Q474 481 468 476T456 461T446 439T434 407L278 0H231L69 417Z" />
<glyph unicode="w" glyph-name="w" horiz-adv-x="762" d="M69 417Q63 433 58 444T48 463T35 475T16 484L-8 492V509H220V492L193 485Q174 480 170 473T166 453Q166 444 170 431T179 401L271 120H275L366 382L354 417Q343 450 333 464T306 484L282 492V509H493V492L466
485Q452 481 448 473T444 453Q444 444 447 431T457 401L553 120H557L648 401Q655 421 657 434T660 455Q660 466 655 473T634 485L607 492V509H770V492L742 484Q732 481 726 476T714 462T704 440T692 407L548 0H501L386 328H383L266 0H219L69 417Z" />
<glyph unicode="x" glyph-name="x" horiz-adv-x="535" d="M17 17L45 25Q58 29 68 34T87 48T105 68T126 98L221 237L101 413Q86 435 76 448T59 470T44 481T26 488L10 492V509H239V492L215 487Q202 484 198 478T193 462Q193 446 214 413L286 300H289L345 399Q359
425 364 439T370 464Q370 480 349 485L319 492V509H499V492L471 484Q456 480 446 475T428 461T412 441T391 409L308 277L434 96Q447 78 456 65T474 43T492 29T513 20L525 17V0H296V17L322 22Q336 25 340 31T345 45Q345 55 338 68T321 96L242 215H239L174 108Q159
83 153 69T146 44Q146 36 152 31T179 21L197 17V0H17V17Z" />
<glyph unicode="y" glyph-name="y" horiz-adv-x="503" d="M96 -206Q53 -206 32 -189T11 -146Q11 -123 26 -110T64 -97Q87 -97 99 -109T117 -138Q121 -149 124 -152T137 -156Q153 -156 174 -130T220 -41L235 -4L71 417Q63 437 58 448T48 467T36 477T20 484L-4 492V509H220V492L193
485Q176 480 171 475T165 455Q165 438 179 401L285 119H289L390 401Q404 441 404 459Q404 472 397 476T376 485L349 492V509H511V492L483 484Q474 481 469 477T458 465T447 442T433 407L263 -39Q251 -71 238 -101T205 -154T160 -192T96 -206Z" />
<glyph unicode="z" glyph-name="z" horiz-adv-x="457" d="M20 23L320 476V480H229Q199 480 181 479T152 474T134 465T121 450Q113 439 106 429T93 407T81 383T66 354H48L55 509H440V488L138 33V29H218Q258 29 282 31T322 37T345 50T361 70Q378 96 390 118T412
166H431L420 0H20V23Z" />
<glyph unicode="{" glyph-name="braceleft" horiz-adv-x="355" d="M318 -130Q208 -126 159 -103T110 -26Q110 -6 118 30T135 104T152 175T160 223Q160 235 156 246T139 267T104 283T45 291V317Q81 318 103 325T138 341T155 363T160 387Q160 402 152 434T135 503T118
575T110 630Q110 683 159 706T318 734V716Q282 711 260 706T226 693T209 671T204 634Q204 602 208 572T219 514T229 459T234 410Q234 368 203 344T112 306V302Q181 290 207 266T234 200Q234 177 230 150T219 94T209 33T204 -30Q204 -53 208 -66T225 -88T260 -102T318
-112V-130V-130Z" />
<glyph unicode="|" glyph-name="bar" horiz-adv-x="226" d="M90 734H136V-130H90V734Z" />
<glyph unicode="}" glyph-name="braceright" horiz-adv-x="355" d="M37 -112Q73 -107 95 -102T129 -89T146 -67T151 -30Q151 2 147 33T136 93T126 148T121 198Q121 240 152 264T243 302V306Q174 318 148 342T121 408Q121 431 125 457T136 512T146 571T151 634Q151
657 147 670T130 692T95 706T37 716V734Q147 730 196 707T245 630Q245 610 237 575T220 503T203 433T195 385Q195 373 199 362T216 341T251 325T310 317V291Q274 289 252 283T217 267T200 245T195 221Q195 211 198 193T208 151T220 103T232 53T241 8T245 -26Q245
-79 196 -102T37 -130V-112Z" />
<glyph unicode="~" glyph-name="asciitilde" horiz-adv-x="368" d="M30 237Q52 285 71 315T122 345Q139 345 158 340T197 329T235 318T270 313Q285 313 296 324T322 358L338 350Q316 302 297 272T246 242Q229 242 210 247T171 258T133 269T98 274Q83 274 72 263T46
229L30 237Z" />
<glyph unicode="&#xa0;" glyph-name="uni00A0" horiz-adv-x="214" />
<glyph unicode="&#xa1;" glyph-name="exclamdown" horiz-adv-x="260" d="M128 500Q103 500 84 517T65 561Q65 586 84 604T128 622Q154 622 172 604T190 561Q190 535 172 518T128 500ZM128 -85Q114 -85 102 -81T80 -66T67 -41T64 -6L115 423H140L191 -6Q195 -47
175 -66T128 -85Z" />
<glyph unicode="&#xa2;" glyph-name="cent" horiz-adv-x="469" d="M249 596H286V524Q292 524 298 524T310 525Q381 525 415 502T449 441Q449 418 435 404T394 389Q365 389 354 403T339 443Q334 476 323 484T286 493V47H298Q348 47 389 61T454 89V61Q444 51 428
40T391 18T343 -1T286 -11V-110H249V-11Q196 -8 155 12T85 67T43 149T28 253Q28 319 47 366T98 445T168 495T249 520V596ZM134 284Q134 185 161 127T249 53V489Q225 484 204 470T168 431T143 370T134 284Z" />
<glyph unicode="&#xa3;" glyph-name="sterling" horiz-adv-x="510" d="M48 373H115Q109 406 105 439T100 500Q100 546 117 584T164 649T237 690T330 705Q361 705 388 700T436 684T467 658T479 621Q479 597 464 583T428 569Q404 569 390 583T367 626Q362 642 359
651T350 664T336 670T314 671Q267 671 237 635T206 517Q206 490 207 451T211 373H378V340H212Q213 319 213 302T214 273Q214 213 184 172T102 93V88H376Q392 88 402 90T421 100T439 123T462 166H480L453 0H19V64Q80 100 107 142T135 243Q135 261 131 286T122 340H48V373Z"
/>
<glyph unicode="&#xa5;" glyph-name="yen" horiz-adv-x="570" d="M56 331H225L89 579Q75 604 67 620T51 645T38 660T22 668L-3 675V693H250V675L225 669Q202 664 193 656T184 633Q184 623 188 611T203 579L318 354H322L427 579Q442 612 442 633Q442 646 434 654T403
668L377 675V693H562V675L540 668Q530 665 522 659T506 642T488 612T464 565L348 331H521V298H342V221H521V188H342V87Q342 68 343 57T347 40T357 32T373 27L421 18V0H156V18L204 27Q213 29 219 31T228 40T233 57T235 87V188H56V221H235V298H56V331Z" />
<glyph unicode="&#xa6;" glyph-name="brokenbar" horiz-adv-x="226" d="M90 254H136V-130H90V254ZM90 734H136V328H90V734Z" />
<glyph unicode="&#xa7;" glyph-name="section" horiz-adv-x="532" d="M237 -204Q165 -204 126 -180T86 -118Q86 -96 98 -83T136 -69Q161 -69 174 -81T192 -124Q194 -140 197 -149T206 -164T224 -171T253 -173Q299 -173 319 -147T339 -80Q339 -56 332 -37T306 3T259
49T187 109Q147 142 117 168T65 220T34 271T23 328Q23 375 54 409T131 468Q123 485 119 501T114 538Q114 574 127 604T164 656T224 690T303 702Q368 702 406 680T444 620Q444 598 429 585T390 572Q366 572 355 584T339 631Q335 655 325 663T286 671Q241 671 220
645T199 578Q199 553 205 534T229 494T274 449T346 389Q386 357 416 330T467 278T498 227T509 170Q509 125 481 92T407 29Q423 -5 423 -40Q423 -76 411 -106T374 -158T316 -192T237 -204ZM393 53Q432 80 432 139Q432 158 424 175T399 210T355 252T287 307Q240 345
203 378T143 445Q120 432 111 412T101 359Q101 339 108 323T133 288T178 246T246 191Q293 153 331 120T393 53Z" />
<glyph unicode="&#xa8;" glyph-name="dieresis" horiz-adv-x="500" d="M155 589Q132 589 116 605T99 644Q99 667 115 683T155 699Q178 699 194 683T211 644Q211 622 195 606T155 589ZM345 589Q322 589 306 605T289 644Q289 667 305 683T345 699Q368 699 384 683T401
644Q401 622 385 606T345 589Z" />
<glyph unicode="&#xa9;" glyph-name="copyright" horiz-adv-x="788" d="M396 130Q355 130 319 142T255 180T213 245T197 339Q197 399 214 441T259 509T326 548T408 560Q453 560 479 555T525 545L528 426H510Q499 450 493 465T475 499Q470 507 465 513T451 523T431
529T401 531Q371 531 350 522T315 492T295 438T288 355Q288 299 295 262T317 201T354 169T408 159Q435 159 451 166T478 193Q489 212 496 228T515 271H533L527 154Q507 146 475 138T396 130ZM393 -14Q318 -14 253 14T141 91T66 205T39 344Q39 418 66 483T140 596T253
672T393 700Q468 700 533 672T646 596T721 483T749 344Q749 270 722 205T646 91T533 14T393 -14ZM393 17Q462 17 520 43T621 113T686 216T710 344Q710 411 687 470T621 574T521 644T393 670Q323 670 265 645T165 575T100 471T76 344Q76 276 99 217T165 113T265
43T393 17Z" />
<glyph unicode="&#xaa;" glyph-name="ordfeminine" horiz-adv-x="411" d="M146 268Q91 268 59 295T26 375Q26 399 36 417T62 447T98 468T139 481L253 509V582Q253 604 251 621T241 649T219 666T179 672Q153 672 147 664T138 637Q134 616 126 600T92 583Q69 583
58 596T46 626Q46 646 59 660T94 683T142 696T195 700Q266 700 304 672T343 587V355Q343 338 346 328T362 313Q375 307 402 305V290Q390 283 371 276T326 269Q291 269 275 282T256 316H252Q238 297 210 283T146 268ZM181 311Q208 311 226 322T253 348V472L192 465Q154
460 135 443T116 380Q116 345 133 328T181 311Z" />
<glyph unicode="&#xab;" glyph-name="guillemotleft" horiz-adv-x="440" d="M43 243V262L213 460H243L135 253L243 45H213L43 243ZM206 243V262L376 460H406L298 253L406 45H376L206 243Z" />
<glyph unicode="&#xae;" glyph-name="registered" horiz-adv-x="394" d="M106 436L121 440Q126 442 127 444T129 455V586Q129 595 128 597T121 602L107 606V617H194Q236 617 254 605T272 566Q272 531 232 520V518Q241 499 252 480T274 447Q276 445 280 443T287
439L298 436V425H241Q226 445 215 465T194 506H172V455Q172 447 173 445T180 440L195 436V425H106V436ZM197 336Q159 336 127 350T71 389T34 447T20 518Q20 556 33 589T70 647T126 686T197 700Q234 700 266 686T323 647T361 589T375 518Q375 480 361 447T323 390T267
351T197 336ZM197 358Q230 358 258 370T306 405T338 456T349 518Q349 551 338 580T307 631T258 665T197 678Q163 678 136 666T88 632T57 581T46 518Q46 485 57 456T88 405T135 371T197 358ZM189 521Q213 521 221 532T229 563Q229 601 191 601H172V521H189Z" />
<glyph unicode="&#xaf;" glyph-name="macron" horiz-adv-x="500" d="M130 670H370V605H130V670Z" />
<glyph unicode="&#xb0;" glyph-name="degree" horiz-adv-x="304" d="M152 457Q125 457 103 467T65 493T39 532T30 580Q30 605 39 627T64 665T103 692T152 702Q179 702 201 692T239 666T265 627T274 580Q274 555 265 533T240 494T201 467T152 457ZM152 487Q190
487 213 514T237 580Q237 618 214 645T152 672Q114 672 91 645T67 580Q67 542 90 515T152 487Z" />
<glyph unicode="&#xb1;" glyph-name="plusminus" horiz-adv-x="450" d="M35 44H415V0H35V44ZM199 326H35V370H199V545H251V370H415V326H251V151H199V326Z" />
<glyph unicode="&#xb2;" glyph-name="twosuperior" horiz-adv-x="293" d="M14 364Q49 392 77 417T128 467Q156 498 173 527T191 602Q191 646 176 661T130 676Q112 676 107 671T100 648Q97 622 88 611T58 600Q41 600 31 610T21 635Q21 659 52 679T138 700Q198 700
235 674T273 594Q273 567 258 542T216 491T153 440T77 389V386H210Q220 386 226 387T238 394T248 408T259 431H273L265 326H14V364Z" />
<glyph unicode="&#xb3;" glyph-name="threesuperior" horiz-adv-x="292" d="M123 320Q73 320 42 338T10 384Q10 398 18 406T43 415Q59 415 69 408T85 378Q90 357 96 350T128 343Q163 343 177 366T192 429Q192 472 176 488T122 504H93V528H119Q154 528 169 545T184
605Q184 644 170 660T130 676Q113 676 107 672T98 653Q95 632 87 620T58 608Q41 608 33 618T24 640Q24 669 58 684T140 700Q197 700 227 676T257 612Q257 582 237 556T167 520V518Q214 514 243 492T272 427Q272 405 264 386T237 352T190 329T123 320Z" />
<glyph unicode="&#xb4;" glyph-name="acute" horiz-adv-x="500" d="M136 593L293 713Q312 728 331 728Q348 728 360 715T372 685Q372 672 364 659T335 639L142 579L136 593Z" />
<glyph unicode="&#xb6;" glyph-name="paragraph" horiz-adv-x="522" d="M255 346Q248 345 242 345T225 344Q121 344 72 392T23 523Q23 601 74 647T224 693H497V675L452 666Q443 664 437 662T428 653T423 636T421 606V-100H379V661H297V-100H255V346Z" />
<glyph unicode="&#xb7;" glyph-name="periodcentered" horiz-adv-x="210" d="M107 277Q81 277 63 295T45 338Q45 364 63 381T107 399Q132 399 151 382T170 338Q170 313 151 295T107 277Z" />
<glyph unicode="&#xb8;" glyph-name="cedilla" horiz-adv-x="500" d="M170 -187Q218 -176 236 -161T255 -127Q255 -111 241 -104T201 -93L196 -86L239 0H273L241 -51Q276 -55 299 -71T322 -116Q322 -150 285 -173T170 -203V-187Z" />
<glyph unicode="&#xb9;" glyph-name="onesuperior" horiz-adv-x="213" d="M16 341L42 345Q59 347 63 353T67 382V618H16V636Q58 644 86 659T135 698L148 695V382Q148 359 152 354T173 345L197 341V326H16V341Z" />
<glyph unicode="&#xba;" glyph-name="ordmasculine" horiz-adv-x="459" d="M230 270Q188 270 152 283T88 324T45 391T29 484Q29 536 46 576T90 644T154 686T230 700Q272 700 308 687T372 648T414 582T430 489Q430 436 414 396T369 327T305 285T230 270ZM233 298Q286
298 311 340T337 478Q337 532 331 569T311 629T277 662T227 672Q173 672 148 632T123 495Q123 388 149 343T233 298Z" />
<glyph unicode="&#xbb;" glyph-name="guillemotright" horiz-adv-x="440" d="M142 252L34 460H64L234 262V243L64 45H34L142 252ZM305 252L197 460H227L397 262V243L227 45H197L305 252Z" />
<glyph unicode="&#xbc;" glyph-name="onequarter" horiz-adv-x="640" d="M17 341L43 345Q60 347 64 353T68 382V618H17V636Q59 644 87 659T136 698L149 695V382Q149 359 153 354T174 345L198 341V326H17V341ZM545 714H591L84 -50H38L545 714ZM448 15L469 19Q485
22 489 27T494 56V102H335V128L529 367H573V136H626L620 102H573V56Q573 33 577 28T598 19L617 15V0H448V15ZM494 136V287H493L372 138V136H494Z" />
<glyph unicode="&#xbd;" glyph-name="onehalf" horiz-adv-x="667" d="M17 341L43 345Q60 347 64 353T68 382V618H17V636Q59 644 87 659T136 698L149 695V382Q149 359 153 354T174 345L198 341V326H17V341ZM535 714H581L74 -50H28L535 714ZM388 38Q423 66 451 91T502
141Q530 172 547 201T565 276Q565 320 550 335T504 350Q486 350 481 345T474 322Q471 296 462 285T432 274Q415 274 405 284T395 309Q395 333 426 353T512 374Q572 374 609 348T647 268Q647 241 632 216T590 165T527 114T451 63V60H584Q594 60 600 61T612 68T622
82T633 105H647L639 0H388V38Z" />
<glyph unicode="&#xbe;" glyph-name="threequarters" horiz-adv-x="677" d="M135 320Q85 320 54 338T22 384Q22 398 30 406T55 415Q71 415 81 408T97 378Q102 357 108 350T140 343Q175 343 189 366T204 429Q204 472 188 488T134 504H105V528H131Q166 528 181 545T196
605Q196 644 182 660T142 676Q125 676 119 672T110 653Q107 632 99 620T70 608Q53 608 45 618T36 640Q36 669 70 684T152 700Q209 700 239 676T269 612Q269 582 249 556T179 520V518Q226 514 255 492T284 427Q284 405 276 386T249 352T202 329T135 320ZM592 714H638L131
-50H85L592 714ZM485 15L506 19Q522 22 526 27T531 56V102H372V128L566 367H610V136H663L657 102H610V56Q610 33 614 28T635 19L654 15V0H485V15ZM531 136V287H530L409 138V136H531Z" />
<glyph unicode="&#xbf;" glyph-name="questiondown" horiz-adv-x="430" d="M253 -88Q156 -88 98 -41T40 103Q40 145 55 179T97 240T161 287T242 323V423H283V250Q256 239 228 224T178 188T141 137T126 70Q126 32 135 8T160 -29T194 -48T235 -54Q263 -54 273 -47T288
-13Q293 18 306 32T345 47Q373 47 384 32T396 -3Q396 -24 384 -40T352 -66T306 -82T253 -88ZM264 500Q239 500 220 517T201 561Q201 586 220 604T264 622Q290 622 308 604T326 561Q326 535 308 518T264 500Z" />
<glyph unicode="&#xc0;" glyph-name="Agrave" horiz-adv-x="640" d="M429 724L232 769Q210 774 201 785T191 812Q191 831 203 844T233 858Q248 858 268 846L434 738L429 724ZM-4 18L25 25Q35 28 42 32T57 46T71 76T91 128L290 693H345L554 117Q564 90 571 74T586
47T600 33T617 25L644 18V0H389V18L417 25Q437 30 444 38T451 59Q451 70 447 88T435 126L393 245H173L134 126Q127 106 125 91T122 64Q122 32 157 25L190 18V0H-4V18ZM184 278H382L283 560H278L184 278Z" />
<glyph unicode="&#xc1;" glyph-name="Aacute" horiz-adv-x="640" d="M205 738L371 846Q390 858 406 858Q424 858 436 845T448 812Q448 797 439 786T407 769L210 724L205 738ZM-4 18L25 25Q35 28 42 32T57 46T71 76T91 128L290 693H345L554 117Q564 90 571 74T586
47T600 33T617 25L644 18V0H389V18L417 25Q437 30 444 38T451 59Q451 70 447 88T435 126L393 245H173L134 126Q127 106 125 91T122 64Q122 32 157 25L190 18V0H-4V18ZM184 278H382L283 560H278L184 278Z" />
<glyph unicode="&#xc2;" glyph-name="Acircumflex" horiz-adv-x="640" d="M176 732L299 857H334L458 732L450 721L317 780L184 721L176 732ZM-4 18L25 25Q35 28 42 32T57 46T71 76T91 128L290 693H345L554 117Q564 90 571 74T586 47T600 33T617 25L644 18V0H389V18L417
25Q437 30 444 38T451 59Q451 70 447 88T435 126L393 245H173L134 126Q127 106 125 91T122 64Q122 32 157 25L190 18V0H-4V18ZM184 278H382L283 560H278L184 278Z" />
<glyph unicode="&#xc3;" glyph-name="Atilde" horiz-adv-x="640" d="M158 725Q180 773 198 801T248 830Q265 830 286 827T329 819T371 812T408 808Q423 808 434 820T460 855L476 847Q454 799 436 771T386 742Q369 742 348 745T305 753T263 760T226 764Q211 764
200 752T174 717L158 725ZM-4 18L25 25Q35 28 42 32T57 46T71 76T91 128L290 693H345L554 117Q564 90 571 74T586 47T600 33T617 25L644 18V0H389V18L417 25Q437 30 444 38T451 59Q451 70 447 88T435 126L393 245H173L134 126Q127 106 125 91T122 64Q122 32 157
25L190 18V0H-4V18ZM184 278H382L283 560H278L184 278Z" />
<glyph unicode="&#xc4;" glyph-name="Adieresis" horiz-adv-x="640" d="M214 734Q191 734 175 750T158 789Q158 812 174 828T214 844Q237 844 253 828T270 789Q270 767 254 751T214 734ZM420 734Q397 734 381 750T364 789Q364 812 380 828T420 844Q443 844 459
828T476 789Q476 767 460 751T420 734ZM-4 18L25 25Q35 28 42 32T57 46T71 76T91 128L290 693H345L554 117Q564 90 571 74T586 47T600 33T617 25L644 18V0H389V18L417 25Q437 30 444 38T451 59Q451 70 447 88T435 126L393 245H173L134 126Q127 106 125 91T122 64Q122
32 157 25L190 18V0H-4V18ZM184 278H382L283 560H278L184 278Z" />
<glyph unicode="&#xc5;" glyph-name="Aring" horiz-adv-x="640" d="M317 720Q278 720 252 746T226 809Q226 847 252 873T317 899Q356 899 382 873T408 809Q408 773 382 747T317 720ZM317 749Q343 749 358 766T374 809Q374 836 359 853T317 870Q291 870 276 853T260
809Q260 783 275 766T317 749ZM-4 18L25 25Q35 28 42 32T57 46T71 76T91 128L290 693H345L554 117Q564 90 571 74T586 47T600 33T617 25L644 18V0H389V18L417 25Q437 30 444 38T451 59Q451 70 447 88T435 126L393 245H173L134 126Q127 106 125 91T122 64Q122 32
157 25L190 18V0H-4V18ZM184 278H382L283 560H278L184 278Z" />
<glyph unicode="&#xc6;" glyph-name="AE" horiz-adv-x="898" d="M-4 18L25 25Q35 28 44 32T63 46T86 76T118 128L416 655Q404 663 391 666L344 675V693H836L848 516H826Q810 553 799 575T779 610Q768 626 759 635T735 650T700 657T645 659Q597 659 573 657T534
650V377H579Q607 377 627 378T661 382T683 392T697 409Q705 426 711 444T722 487H744V233H722Q716 258 711 274T697 311Q692 322 685 328T666 338T633 342T579 343H534V152Q534 112 536 89T551 53T587 38T654 34Q688 34 709 35T745 42T768 57T789 81Q800 97 816
132T847 209H871L856 0H353V18L398 27Q407 28 412 31T422 40T427 57T429 87V233H222L164 126Q137 76 137 54Q137 31 165 25L198 18V0H-4V18ZM240 266H429V610H426L240 266Z" />
<glyph unicode="&#xc7;" glyph-name="Ccedilla" horiz-adv-x="610" d="M252 -187Q300 -176 318 -161T337 -127Q337 -111 323 -104T283 -93L278 -86L315 -11Q255 -7 204 15T115 80T56 187T35 341Q35 441 62 510T136 623T245 685T377 705Q434 705 482 698T563 681L572
483H549Q537 521 519 558T484 622Q470 645 444 657T366 669Q313 669 273 653T205 600T163 504T149 360Q149 268 162 205T200 101T264 42T352 24Q385 24 408 27T446 38T472 55T491 78Q512 110 526 141T555 212H575L565 32Q531 15 475 2T347 -12L323 -51Q358 -55
381 -71T404 -116Q404 -150 367 -173T252 -203V-187Z" />
<glyph unicode="&#xc8;" glyph-name="Egrave" horiz-adv-x="582" d="M417 724L220 769Q198 774 189 785T179 812Q179 831 191 844T221 858Q236 858 256 846L422 738L417 724ZM25 18L70 27Q79 28 84 31T94 40T99 57T101 87V606Q101 625 100 636T94 653T85 661T70
666L25 675V693H520L532 516H510Q494 553 483 575T463 610Q452 626 443 635T419 650T384 657T329 659Q276 659 249 657T208 650V377H263Q291 377 311 378T345 382T367 392T381 409Q389 426 395 444T406 487H428V233H406Q400 258 395 274T381 311Q376 322 369 328T350
338T317 342T263 343H208V152Q208 112 210 89T225 53T264 38T338 34Q372 34 393 35T429 42T452 57T473 81Q484 97 500 132T531 209H555L540 0H25V18Z" />
<glyph unicode="&#xc9;" glyph-name="Eacute" horiz-adv-x="582" d="M193 738L359 846Q378 858 394 858Q412 858 424 845T436 812Q436 797 427 786T395 769L198 724L193 738ZM25 18L70 27Q79 28 84 31T94 40T99 57T101 87V606Q101 625 100 636T94 653T85 661T70
666L25 675V693H520L532 516H510Q494 553 483 575T463 610Q452 626 443 635T419 650T384 657T329 659Q276 659 249 657T208 650V377H263Q291 377 311 378T345 382T367 392T381 409Q389 426 395 444T406 487H428V233H406Q400 258 395 274T381 311Q376 322 369 328T350
338T317 342T263 343H208V152Q208 112 210 89T225 53T264 38T338 34Q372 34 393 35T429 42T452 57T473 81Q484 97 500 132T531 209H555L540 0H25V18Z" />
<glyph unicode="&#xca;" glyph-name="Ecircumflex" horiz-adv-x="582" d="M164 732L287 857H322L446 732L438 721L305 780L172 721L164 732ZM25 18L70 27Q79 28 84 31T94 40T99 57T101 87V606Q101 625 100 636T94 653T85 661T70 666L25 675V693H520L532 516H510Q494
553 483 575T463 610Q452 626 443 635T419 650T384 657T329 659Q276 659 249 657T208 650V377H263Q291 377 311 378T345 382T367 392T381 409Q389 426 395 444T406 487H428V233H406Q400 258 395 274T381 311Q376 322 369 328T350 338T317 342T263 343H208V152Q208
112 210 89T225 53T264 38T338 34Q372 34 393 35T429 42T452 57T473 81Q484 97 500 132T531 209H555L540 0H25V18Z" />
<glyph unicode="&#xcb;" glyph-name="Edieresis" horiz-adv-x="582" d="M202 734Q179 734 163 750T146 789Q146 812 162 828T202 844Q225 844 241 828T258 789Q258 767 242 751T202 734ZM408 734Q385 734 369 750T352 789Q352 812 368 828T408 844Q431 844 447
828T464 789Q464 767 448 751T408 734ZM25 18L70 27Q79 28 84 31T94 40T99 57T101 87V606Q101 625 100 636T94 653T85 661T70 666L25 675V693H520L532 516H510Q494 553 483 575T463 610Q452 626 443 635T419 650T384 657T329 659Q276 659 249 657T208 650V377H263Q291
377 311 378T345 382T367 392T381 409Q389 426 395 444T406 487H428V233H406Q400 258 395 274T381 311Q376 322 369 328T350 338T317 342T263 343H208V152Q208 112 210 89T225 53T264 38T338 34Q372 34 393 35T429 42T452 57T473 81Q484 97 500 132T531 209H555L540
0H25V18Z" />
<glyph unicode="&#xcc;" glyph-name="Igrave" horiz-adv-x="317" d="M270 724L73 769Q51 774 42 785T32 812Q32 831 44 844T74 858Q89 858 109 846L275 738L270 724ZM25 18L74 27Q83 28 89 31T98 40T103 57T105 87V606Q105 625 104 636T99 653T89 661T74 666L25
675V693H292V675L243 666Q233 664 227 662T218 653T213 636T212 606V87Q212 68 213 57T217 40T227 32T243 27L292 18V0H25V18Z" />
<glyph unicode="&#xcd;" glyph-name="Iacute" horiz-adv-x="317" d="M46 738L212 846Q231 858 247 858Q265 858 277 845T289 812Q289 797 280 786T248 769L51 724L46 738ZM25 18L74 27Q83 28 89 31T98 40T103 57T105 87V606Q105 625 104 636T99 653T89 661T74
666L25 675V693H292V675L243 666Q233 664 227 662T218 653T213 636T212 606V87Q212 68 213 57T217 40T227 32T243 27L292 18V0H25V18Z" />
<glyph unicode="&#xce;" glyph-name="Icircumflex" horiz-adv-x="317" d="M17 732L140 857H175L299 732L291 721L158 780L25 721L17 732ZM25 18L74 27Q83 28 89 31T98 40T103 57T105 87V606Q105 625 104 636T99 653T89 661T74 666L25 675V693H292V675L243 666Q233
664 227 662T218 653T213 636T212 606V87Q212 68 213 57T217 40T227 32T243 27L292 18V0H25V18Z" />
<glyph unicode="&#xcf;" glyph-name="Idieresis" horiz-adv-x="317" d="M55 734Q32 734 16 750T-1 789Q-1 812 15 828T55 844Q78 844 94 828T111 789Q111 767 95 751T55 734ZM261 734Q238 734 222 750T205 789Q205 812 221 828T261 844Q284 844 300 828T317 789Q317
767 301 751T261 734ZM25 18L74 27Q83 28 89 31T98 40T103 57T105 87V606Q105 625 104 636T99 653T89 661T74 666L25 675V693H292V675L243 666Q233 664 227 662T218 653T213 636T212 606V87Q212 68 213 57T217 40T227 32T243 27L292 18V0H25V18Z" />
<glyph unicode="&#xd0;" glyph-name="Eth" horiz-adv-x="686" d="M28 366H101V606Q101 625 100 636T94 653T85 661T70 666L25 675V693H317Q387 693 448 676T554 619T625 514T651 353Q651 265 626 199T556 89T449 22T311 0H25V18L70 27Q79 28 84 31T94 40T99 57T101
87V335H28V366ZM304 32Q373 32 418 55T490 118T528 214T539 334Q539 500 485 580T302 661Q266 661 244 659T208 652V366H388V335H208V126Q208 96 210 78T222 49T251 36T304 32Z" />
<glyph unicode="&#xd1;" glyph-name="Ntilde" horiz-adv-x="676" d="M195 725Q217 773 235 801T285 830Q302 830 323 827T366 819T408 812T445 808Q460 808 471 820T497 855L513 847Q491 799 473 771T423 742Q406 742 385 745T342 753T300 760T263 764Q248 764
237 752T211 717L195 725ZM145 607H141V97Q141 74 143 61T149 41T162 30T182 25L224 18V0H25V18L60 25Q70 27 78 30T91 40T98 61T101 97V606Q101 625 100 636T94 653T85 661T70 666L25 675V693H212L540 183H544V596Q544 618 542 631T536 652T523 663T503 668L457
675V693H660V675L625 668Q614 666 607 663T594 653T587 632T584 596V-4H540L145 607Z" />
<glyph unicode="&#xd2;" glyph-name="Ograve" horiz-adv-x="690" d="M457 724L260 769Q238 774 229 785T219 812Q219 831 231 844T261 858Q276 858 296 846L462 738L457 724ZM340 -12Q275 -12 219 10T122 77T57 186T33 337Q33 434 59 503T130 618T232 684T350
705Q414 705 470 682T568 614T633 503T657 351Q657 254 631 185T560 73T458 9T340 -12ZM348 24Q450 24 497 98T545 334Q545 394 536 454T503 561T441 639T341 669Q239 669 192 592T145 354Q145 294 154 235T187 129T249 53T348 24Z" />
<glyph unicode="&#xd3;" glyph-name="Oacute" horiz-adv-x="690" d="M233 738L399 846Q418 858 434 858Q452 858 464 845T476 812Q476 797 467 786T435 769L238 724L233 738ZM340 -12Q275 -12 219 10T122 77T57 186T33 337Q33 434 59 503T130 618T232 684T350
705Q414 705 470 682T568 614T633 503T657 351Q657 254 631 185T560 73T458 9T340 -12ZM348 24Q450 24 497 98T545 334Q545 394 536 454T503 561T441 639T341 669Q239 669 192 592T145 354Q145 294 154 235T187 129T249 53T348 24Z" />
<glyph unicode="&#xd4;" glyph-name="Ocircumflex" horiz-adv-x="690" d="M204 732L327 857H362L486 732L478 721L345 780L212 721L204 732ZM340 -12Q275 -12 219 10T122 77T57 186T33 337Q33 434 59 503T130 618T232 684T350 705Q414 705 470 682T568 614T633
503T657 351Q657 254 631 185T560 73T458 9T340 -12ZM348 24Q450 24 497 98T545 334Q545 394 536 454T503 561T441 639T341 669Q239 669 192 592T145 354Q145 294 154 235T187 129T249 53T348 24Z" />
<glyph unicode="&#xd5;" glyph-name="Otilde" horiz-adv-x="690" d="M186 725Q208 773 226 801T276 830Q293 830 314 827T357 819T399 812T436 808Q451 808 462 820T488 855L504 847Q482 799 464 771T414 742Q397 742 376 745T333 753T291 760T254 764Q239 764
228 752T202 717L186 725ZM340 -12Q275 -12 219 10T122 77T57 186T33 337Q33 434 59 503T130 618T232 684T350 705Q414 705 470 682T568 614T633 503T657 351Q657 254 631 185T560 73T458 9T340 -12ZM348 24Q450 24 497 98T545 334Q545 394 536 454T503 561T441
639T341 669Q239 669 192 592T145 354Q145 294 154 235T187 129T249 53T348 24Z" />
<glyph unicode="&#xd6;" glyph-name="Odieresis" horiz-adv-x="690" d="M242 734Q219 734 203 750T186 789Q186 812 202 828T242 844Q265 844 281 828T298 789Q298 767 282 751T242 734ZM448 734Q425 734 409 750T392 789Q392 812 408 828T448 844Q471 844 487
828T504 789Q504 767 488 751T448 734ZM340 -12Q275 -12 219 10T122 77T57 186T33 337Q33 434 59 503T130 618T232 684T350 705Q414 705 470 682T568 614T633 503T657 351Q657 254 631 185T560 73T458 9T340 -12ZM348 24Q450 24 497 98T545 334Q545 394 536 454T503
561T441 639T341 669Q239 669 192 592T145 354Q145 294 154 235T187 129T249 53T348 24Z" />
<glyph unicode="&#xd7;" glyph-name="multiply" horiz-adv-x="432" d="M42 190L182 338L42 486L78 521L216 374L356 521L390 486L250 338L390 190L356 155L216 302L78 155L42 190Z" />
<glyph unicode="&#xd8;" glyph-name="Oslash" horiz-adv-x="690" d="M145 54Q93 98 63 168T33 337Q33 434 59 503T130 618T232 684T350 705Q395 705 436 694T512 660L555 730H597L541 639Q595 594 626 522T657 351Q657 254 631 185T560 73T458 9T340 -12Q294 -12
252 -1T175 33L116 -64H74L145 54ZM348 24Q450 24 497 98T545 334Q545 406 535 467T502 574L207 86Q231 57 265 41T348 24ZM145 354Q145 283 153 224T185 120L481 608Q457 637 423 653T341 669Q239 669 192 592T145 354Z" />
<glyph unicode="&#xd9;" glyph-name="Ugrave" horiz-adv-x="677" d="M478 724L281 769Q259 774 250 785T240 812Q240 831 252 844T282 858Q297 858 317 846L483 738L478 724ZM344 -12Q285 -12 238 1T157 44T105 117T87 225V606Q87 625 86 636T81 653T71 661T56
666L11 675V693H268V675L225 666Q215 664 209 661T200 652T195 636T194 606V215Q194 124 236 80T375 36Q468 36 509 86T550 224V596Q550 618 548 631T542 652T529 663T509 668L460 675V693H666V675L631 668Q620 666 613 663T600 653T593 632T590 596V217Q590 171
577 130T533 57T457 7T344 -12Z" />
<glyph unicode="&#xda;" glyph-name="Uacute" horiz-adv-x="677" d="M254 738L420 846Q439 858 455 858Q473 858 485 845T497 812Q497 797 488 786T456 769L259 724L254 738ZM344 -12Q285 -12 238 1T157 44T105 117T87 225V606Q87 625 86 636T81 653T71 661T56
666L11 675V693H268V675L225 666Q215 664 209 661T200 652T195 636T194 606V215Q194 124 236 80T375 36Q468 36 509 86T550 224V596Q550 618 548 631T542 652T529 663T509 668L460 675V693H666V675L631 668Q620 666 613 663T600 653T593 632T590 596V217Q590 171
577 130T533 57T457 7T344 -12Z" />
<glyph unicode="&#xdb;" glyph-name="Ucircumflex" horiz-adv-x="677" d="M225 732L348 857H383L507 732L499 721L366 780L233 721L225 732ZM344 -12Q285 -12 238 1T157 44T105 117T87 225V606Q87 625 86 636T81 653T71 661T56 666L11 675V693H268V675L225 666Q215
664 209 661T200 652T195 636T194 606V215Q194 124 236 80T375 36Q468 36 509 86T550 224V596Q550 618 548 631T542 652T529 663T509 668L460 675V693H666V675L631 668Q620 666 613 663T600 653T593 632T590 596V217Q590 171 577 130T533 57T457 7T344 -12Z" />
<glyph unicode="&#xdc;" glyph-name="Udieresis" horiz-adv-x="677" d="M263 734Q240 734 224 750T207 789Q207 812 223 828T263 844Q286 844 302 828T319 789Q319 767 303 751T263 734ZM469 734Q446 734 430 750T413 789Q413 812 429 828T469 844Q492 844 508
828T525 789Q525 767 509 751T469 734ZM344 -12Q285 -12 238 1T157 44T105 117T87 225V606Q87 625 86 636T81 653T71 661T56 666L11 675V693H268V675L225 666Q215 664 209 661T200 652T195 636T194 606V215Q194 124 236 80T375 36Q468 36 509 86T550 224V596Q550
618 548 631T542 652T529 663T509 668L460 675V693H666V675L631 668Q620 666 613 663T600 653T593 632T590 596V217Q590 171 577 130T533 57T457 7T344 -12Z" />
<glyph unicode="&#xdd;" glyph-name="Yacute" horiz-adv-x="602" d="M223 738L389 846Q408 858 424 858Q442 858 454 845T466 812Q466 797 457 786T425 769L228 724L223 738ZM181 18L229 27Q238 29 244 31T253 40T258 57T260 87V280L94 579Q81 603 72 619T55 644T39
659T21 668L-4 675V693H255V675L230 669Q207 664 198 656T189 633Q189 614 208 579L343 324H347L464 579Q473 598 476 609T479 631Q479 645 471 654T440 668L409 675V693H606V675L584 668Q572 664 563 659T544 642T525 613T501 565L367 288V87Q367 68 368 57T372
40T382 32T398 27L446 18V0H181V18Z" />
<glyph unicode="&#xde;" glyph-name="Thorn" horiz-adv-x="570" d="M25 18L70 27Q79 28 84 31T94 40T99 57T101 87V606Q101 625 100 636T94 653T85 661T70 666L25 675V693H286V675L239 666Q229 664 223 661T214 652T209 636T208 606V556H301Q422 556 485 509T549
371Q549 326 533 288T485 223T407 180T303 165Q277 165 262 168T241 173V196Q291 194 328 201T389 227T426 280T438 361Q438 407 430 437T404 487T359 514T294 522Q265 522 242 520T208 515V87Q208 68 209 57T213 40T223 32T239 27L286 18V0H25V18Z" />
<glyph unicode="&#xdf;" glyph-name="germandbls" horiz-adv-x="593" d="M395 -7Q322 -7 290 13T258 69Q258 90 271 103T308 117Q334 117 345 104T360 68Q363 53 366 44T374 31T388 25T410 23Q451 23 472 45T493 101Q493 119 488 134T471 162T440 190T393 221Q362
240 340 256T302 288T280 320T273 357Q273 389 291 418T330 477T369 542T387 618Q387 640 382 660T364 695T334 720T288 729Q237 729 211 695T184 589V80Q184 64 184 55T187 39T195 30T208 25L240 17V0H20V17L60 28Q74 32 80 41T86 80V468H17V486L86 510V531Q86
596 106 639T158 709T225 746T293 757Q341 757 375 746T432 718T464 678T474 633Q474 597 452 565T403 505T354 453T331 407Q331 398 336 389T354 368T391 340T452 300Q486 279 509 261T545 224T565 185T571 140Q571 104 557 77T519 31T463 3T395 -7Z" />
<glyph unicode="&#xe0;" glyph-name="agrave" horiz-adv-x="490" d="M171 -13Q102 -13 62 21T22 120Q22 151 35 173T69 211T115 236T165 252L308 286V389Q308 414 305 434T293 467T265 488T215 495Q183 495 171 487T156 456Q154 442 152 431T144 410T129 396T103
391Q74 391 62 406T50 440Q50 463 67 479T112 506T171 520T235 525Q324 525 365 493T406 395V87Q406 49 432 35Q440 30 452 29T480 26V11Q469 3 445 -4T394 -12Q356 -12 337 4T312 46H307Q289 21 252 4T171 -13ZM213 36Q248 36 272 50T308 83V245L232 237Q183 232
153 208T122 128Q122 84 146 60T213 36ZM399 639Q378 646 370 659T362 685Q362 701 374 714T403 728Q422 728 441 713L598 593L592 579L399 639Z" />
<glyph unicode="&#xe1;" glyph-name="aacute" horiz-adv-x="490" d="M171 -13Q102 -13 62 21T22 120Q22 151 35 173T69 211T115 236T165 252L308 286V389Q308 414 305 434T293 467T265 488T215 495Q183 495 171 487T156 456Q154 442 152 431T144 410T129 396T103
391Q74 391 62 406T50 440Q50 463 67 479T112 506T171 520T235 525Q324 525 365 493T406 395V87Q406 49 432 35Q440 30 452 29T480 26V11Q469 3 445 -4T394 -12Q356 -12 337 4T312 46H307Q289 21 252 4T171 -13ZM213 36Q248 36 272 50T308 83V245L232 237Q183 232
153 208T122 128Q122 84 146 60T213 36ZM143 593L300 713Q319 728 338 728Q355 728 367 715T379 685Q379 672 371 659T342 639L149 579L143 593Z" />
<glyph unicode="&#xe2;" glyph-name="acircumflex" horiz-adv-x="490" d="M171 -13Q102 -13 62 21T22 120Q22 151 35 173T69 211T115 236T165 252L308 286V389Q308 414 305 434T293 467T265 488T215 495Q183 495 171 487T156 456Q154 442 152 431T144 410T129
396T103 391Q74 391 62 406T50 440Q50 463 67 479T112 506T171 520T235 525Q324 525 365 493T406 395V87Q406 49 432 35Q440 30 452 29T480 26V11Q469 3 445 -4T394 -12Q356 -12 337 4T312 46H307Q289 21 252 4T171 -13ZM213 36Q248 36 272 50T308 83V245L232 237Q183
232 153 208T122 128Q122 84 146 60T213 36ZM352 587L475 723H510L634 587L626 576L493 646L360 576L352 587Z" />
<glyph unicode="&#xe3;" glyph-name="atilde" horiz-adv-x="490" d="M171 -13Q102 -13 62 21T22 120Q22 151 35 173T69 211T115 236T165 252L308 286V389Q308 414 305 434T293 467T265 488T215 495Q183 495 171 487T156 456Q154 442 152 431T144 410T129 396T103
391Q74 391 62 406T50 440Q50 463 67 479T112 506T171 520T235 525Q324 525 365 493T406 395V87Q406 49 432 35Q440 30 452 29T480 26V11Q469 3 445 -4T394 -12Q356 -12 337 4T312 46H307Q289 21 252 4T171 -13ZM213 36Q248 36 272 50T308 83V245L232 237Q183 232
153 208T122 128Q122 84 146 60T213 36ZM334 580Q356 628 374 656T424 685Q441 685 462 682T505 674T547 667T584 663Q599 663 610 675T636 710L652 702Q630 654 612 626T562 597Q545 597 524 600T481 608T439 615T402 619Q387 619 376 607T350 572L334 580Z" />
<glyph unicode="&#xe4;" glyph-name="adieresis" horiz-adv-x="490" d="M171 -13Q102 -13 62 21T22 120Q22 151 35 173T69 211T115 236T165 252L308 286V389Q308 414 305 434T293 467T265 488T215 495Q183 495 171 487T156 456Q154 442 152 431T144 410T129 396T103
391Q74 391 62 406T50 440Q50 463 67 479T112 506T171 520T235 525Q324 525 365 493T406 395V87Q406 49 432 35Q440 30 452 29T480 26V11Q469 3 445 -4T394 -12Q356 -12 337 4T312 46H307Q289 21 252 4T171 -13ZM213 36Q248 36 272 50T308 83V245L232 237Q183 232
153 208T122 128Q122 84 146 60T213 36ZM398 589Q375 589 359 605T342 644Q342 667 358 683T398 699Q421 699 437 683T454 644Q454 622 438 606T398 589ZM588 589Q565 589 549 605T532 644Q532 667 548 683T588 699Q611 699 627 683T644 644Q644 622 628 606T588
589Z" />
<glyph unicode="&#xe5;" glyph-name="aring" horiz-adv-x="490" d="M171 -13Q102 -13 62 21T22 120Q22 151 35 173T69 211T115 236T165 252L308 286V389Q308 414 305 434T293 467T265 488T215 495Q183 495 171 487T156 456Q154 442 152 431T144 410T129 396T103
391Q74 391 62 406T50 440Q50 463 67 479T112 506T171 520T235 525Q324 525 365 493T406 395V87Q406 49 432 35Q440 30 452 29T480 26V11Q469 3 445 -4T394 -12Q356 -12 337 4T312 46H307Q289 21 252 4T171 -13ZM213 36Q248 36 272 50T308 83V245L232 237Q183 232
153 208T122 128Q122 84 146 60T213 36ZM493 575Q454 575 428 601T402 664Q402 702 428 728T493 754Q532 754 558 728T584 664Q584 628 558 602T493 575ZM493 604Q519 604 534 621T550 664Q550 691 535 708T493 725Q467 725 452 708T436 664Q436 638 451 621T493
604Z" />
<glyph unicode="&#xe6;" glyph-name="ae" horiz-adv-x="760" d="M535 -12Q468 -12 422 11T349 77Q317 35 276 11T171 -13Q102 -13 62 21T22 120Q22 151 35 175T68 216T113 245T165 262L306 294V389Q306 414 303 434T291 467T263 488T213 495Q181 495 169 487T154
456Q152 442 150 431T142 410T127 396T101 391Q72 391 60 406T48 440Q48 463 65 479T110 506T169 520T233 525Q296 525 331 507T381 456Q409 489 448 507T535 525Q581 525 618 512T680 467T718 387T732 268H404Q406 149 449 98T567 47Q623 47 658 61T722 89V61Q712
53 695 41T654 17T600 -3T535 -12ZM213 36Q248 36 278 52T333 108Q306 169 306 255L232 247Q183 242 153 214T122 128Q122 84 146 60T213 36ZM531 495Q474 495 441 448T404 298L622 310Q622 358 619 392T605 450T577 484T531 495Z" />
<glyph unicode="&#xe7;" glyph-name="ccedilla" horiz-adv-x="467" d="M153 -187Q201 -176 219 -161T238 -127Q238 -111 224 -104T184 -93L179 -86L217 -9Q171 -2 136 20T76 75T40 153T28 248Q28 329 54 382T122 467T213 512T308 525Q379 525 412 502T446 441Q446
418 430 403T388 387Q359 387 348 401T333 441Q328 475 318 484T282 493Q252 493 225 482T177 447T144 382T132 284Q132 167 171 107T293 47Q343 47 385 61T452 89V61Q441 51 423 39T380 15T325 -4T260 -12H248L224 -51Q259 -55 282 -71T305 -116Q305 -150 268
-173T153 -203V-187Z" />
<glyph unicode="&#xe8;" glyph-name="egrave" horiz-adv-x="499" d="M271 -12Q210 -12 165 7T89 63T43 149T28 260Q28 320 47 369T100 452T178 506T271 525Q317 525 354 512T417 469T457 392T471 276H132Q132 214 144 171T179 100T233 60T303 47Q359 47 396 61T461
89V61Q451 53 433 41T391 17T337 -3T271 -12ZM267 495Q212 495 175 450T132 306L361 318Q361 408 342 451T267 495ZM175 639Q154 646 146 659T138 685Q138 701 150 714T179 728Q198 728 217 713L374 593L368 579L175 639Z" />
<glyph unicode="&#xe9;" glyph-name="eacute" horiz-adv-x="499" d="M271 -12Q210 -12 165 7T89 63T43 149T28 260Q28 320 47 369T100 452T178 506T271 525Q317 525 354 512T417 469T457 392T471 276H132Q132 214 144 171T179 100T233 60T303 47Q359 47 396 61T461
89V61Q451 53 433 41T391 17T337 -3T271 -12ZM267 495Q212 495 175 450T132 306L361 318Q361 408 342 451T267 495ZM176 593L333 713Q352 728 371 728Q388 728 400 715T412 685Q412 672 404 659T375 639L182 579L176 593Z" />
<glyph unicode="&#xea;" glyph-name="ecircumflex" horiz-adv-x="499" d="M271 -12Q210 -12 165 7T89 63T43 149T28 260Q28 320 47 369T100 452T178 506T271 525Q317 525 354 512T417 469T457 392T471 276H132Q132 214 144 171T179 100T233 60T303 47Q359 47 396
61T461 89V61Q451 53 433 41T391 17T337 -3T271 -12ZM267 495Q212 495 175 450T132 306L361 318Q361 408 342 451T267 495ZM128 587L251 723H286L410 587L402 576L269 646L136 576L128 587Z" />
<glyph unicode="&#xeb;" glyph-name="edieresis" horiz-adv-x="499" d="M271 -12Q210 -12 165 7T89 63T43 149T28 260Q28 320 47 369T100 452T178 506T271 525Q317 525 354 512T417 469T457 392T471 276H132Q132 214 144 171T179 100T233 60T303 47Q359 47 396
61T461 89V61Q451 53 433 41T391 17T337 -3T271 -12ZM267 495Q212 495 175 450T132 306L361 318Q361 408 342 451T267 495ZM174 589Q151 589 135 605T118 644Q118 667 134 683T174 699Q197 699 213 683T230 644Q230 622 214 606T174 589ZM364 589Q341 589 325 605T308
644Q308 667 324 683T364 699Q387 699 403 683T420 644Q420 622 404 606T364 589Z" />
<glyph unicode="&#xec;" glyph-name="igrave" horiz-adv-x="264" d="M20 23L60 32Q69 34 77 39T86 55V435Q86 450 80 456T57 471L20 488V502L181 523L188 517Q186 490 185 466T184 425V55Q184 42 190 39T210 32L250 23V0H20V23ZM297 639Q276 646 268 659T260 685Q260
701 272 714T301 728Q320 728 339 713L496 593L490 579L297 639Z" />
<glyph unicode="&#xed;" glyph-name="iacute" horiz-adv-x="264" d="M20 23L60 32Q69 34 77 39T86 55V435Q86 450 80 456T57 471L20 488V502L181 523L188 517Q186 490 185 466T184 425V55Q184 42 190 39T210 32L250 23V0H20V23ZM298 593L455 713Q474 728 493 728Q510
728 522 715T534 685Q534 672 526 659T497 639L304 579L298 593Z" />
<glyph unicode="&#xee;" glyph-name="icircumflex" horiz-adv-x="264" d="M20 23L60 32Q69 34 77 39T86 55V435Q86 450 80 456T57 471L20 488V502L181 523L188 517Q186 490 185 466T184 425V55Q184 42 190 39T210 32L250 23V0H20V23ZM250 587L373 723H408L532
587L524 576L391 646L258 576L250 587Z" />
<glyph unicode="&#xef;" glyph-name="idieresis" horiz-adv-x="264" d="M20 23L60 32Q69 34 77 39T86 55V435Q86 450 80 456T57 471L20 488V502L181 523L188 517Q186 490 185 466T184 425V55Q184 42 190 39T210 32L250 23V0H20V23ZM296 589Q273 589 257 605T240
644Q240 667 256 683T296 699Q319 699 335 683T352 644Q352 622 336 606T296 589ZM486 589Q463 589 447 605T430 644Q430 667 446 683T486 699Q509 699 525 683T542 644Q542 622 526 606T486 589Z" />
<glyph unicode="&#xf0;" glyph-name="eth" horiz-adv-x="553" d="M141 610L251 660Q222 683 190 704T119 742L128 760Q178 743 221 725T302 683L423 738L434 711L331 664Q428 598 476 508T524 293Q524 207 503 149T446 54T367 3T276 -13Q223 -13 178 4T100 54T47
138T28 255Q28 321 49 371T104 455T182 507T271 525Q306 525 332 517T381 488Q370 523 344 562T275 639L152 583L141 610ZM280 17Q347 17 381 72T416 247Q416 381 381 438T273 495Q206 495 171 442T136 269Q136 135 172 76T280 17Z" />
<glyph unicode="&#xf1;" glyph-name="ntilde" horiz-adv-x="583" d="M20 17L60 28Q74 32 80 41T86 80V415Q86 430 85 438T81 452T72 461T57 469L20 488V502L176 523L183 519L181 461H185Q222 485 271 504T369 524Q443 524 472 491T502 391V80Q502 51 508 42T528
28L568 17V0H338V17L378 28Q385 30 390 32T398 40T402 54T404 80V369Q404 422 385 442T319 462Q301 462 282 459T244 452T211 444T184 436V80Q184 64 185 55T189 40T197 33T210 28L250 17V0H20V17ZM137 580Q159 628 177 656T227 685Q244 685 265 682T308 674T350
667T387 663Q402 663 413 675T439 710L455 702Q433 654 415 626T365 597Q348 597 327 600T284 608T242 615T205 619Q190 619 179 607T153 572L137 580Z" />
<glyph unicode="&#xf2;" glyph-name="ograve" horiz-adv-x="552" d="M276 -13Q223 -13 178 4T100 54T47 138T28 255Q28 321 48 371T103 455T183 507T276 525Q328 525 373 509T452 459T505 377T524 261Q524 195 503 144T448 58T369 5T276 -13ZM280 17Q347 17 381
72T416 247Q416 381 381 438T273 495Q206 495 171 442T136 269Q136 135 172 76T280 17ZM182 639Q161 646 153 659T145 685Q145 701 157 714T186 728Q205 728 224 713L381 593L375 579L182 639Z" />
<glyph unicode="&#xf3;" glyph-name="oacute" horiz-adv-x="552" d="M276 -13Q223 -13 178 4T100 54T47 138T28 255Q28 321 48 371T103 455T183 507T276 525Q328 525 373 509T452 459T505 377T524 261Q524 195 503 144T448 58T369 5T276 -13ZM280 17Q347 17 381
72T416 247Q416 381 381 438T273 495Q206 495 171 442T136 269Q136 135 172 76T280 17ZM183 593L340 713Q359 728 378 728Q395 728 407 715T419 685Q419 672 411 659T382 639L189 579L183 593Z" />
<glyph unicode="&#xf4;" glyph-name="ocircumflex" horiz-adv-x="552" d="M276 -13Q223 -13 178 4T100 54T47 138T28 255Q28 321 48 371T103 455T183 507T276 525Q328 525 373 509T452 459T505 377T524 261Q524 195 503 144T448 58T369 5T276 -13ZM280 17Q347
17 381 72T416 247Q416 381 381 438T273 495Q206 495 171 442T136 269Q136 135 172 76T280 17ZM135 587L258 723H293L417 587L409 576L276 646L143 576L135 587Z" />
<glyph unicode="&#xf5;" glyph-name="otilde" horiz-adv-x="552" d="M276 -13Q223 -13 178 4T100 54T47 138T28 255Q28 321 48 371T103 455T183 507T276 525Q328 525 373 509T452 459T505 377T524 261Q524 195 503 144T448 58T369 5T276 -13ZM280 17Q347 17 381
72T416 247Q416 381 381 438T273 495Q206 495 171 442T136 269Q136 135 172 76T280 17ZM117 580Q139 628 157 656T207 685Q224 685 245 682T288 674T330 667T367 663Q382 663 393 675T419 710L435 702Q413 654 395 626T345 597Q328 597 307 600T264 608T222 615T185
619Q170 619 159 607T133 572L117 580Z" />
<glyph unicode="&#xf6;" glyph-name="odieresis" horiz-adv-x="552" d="M276 -13Q223 -13 178 4T100 54T47 138T28 255Q28 321 48 371T103 455T183 507T276 525Q328 525 373 509T452 459T505 377T524 261Q524 195 503 144T448 58T369 5T276 -13ZM280 17Q347 17
381 72T416 247Q416 381 381 438T273 495Q206 495 171 442T136 269Q136 135 172 76T280 17ZM181 589Q158 589 142 605T125 644Q125 667 141 683T181 699Q204 699 220 683T237 644Q237 622 221 606T181 589ZM371 589Q348 589 332 605T315 644Q315 667 331 683T371
699Q394 699 410 683T427 644Q427 622 411 606T371 589Z" />
<glyph unicode="&#xf7;" glyph-name="divide" horiz-adv-x="450" d="M224 113Q199 113 182 130T164 172Q164 198 181 214T224 231Q248 231 266 215T284 172Q284 148 266 131T224 113ZM224 445Q199 445 182 462T164 504Q164 530 181 546T224 563Q248 563 266 547T284
504Q284 480 266 463T224 445ZM35 360H415V316H35V360Z" />
<glyph unicode="&#xf8;" glyph-name="oslash" horiz-adv-x="552" d="M122 34Q78 67 53 122T28 255Q28 321 48 371T103 455T183 507T276 525Q346 525 402 496L445 568H485L430 478Q474 446 499 392T524 261Q524 195 503 144T448 58T369 5T276 -13Q207 -13 151 16L103
-64H63L122 34ZM136 269Q136 151 159 95L375 452Q358 476 332 485T273 495Q206 495 171 442T136 269ZM280 17Q347 17 381 72T416 247Q416 305 411 346T394 417L178 60Q196 36 221 27T280 17Z" />
<glyph unicode="&#xf9;" glyph-name="ugrave" horiz-adv-x="576" d="M215 -12Q152 -12 117 21T82 119V425Q82 439 81 447T77 459T69 466T56 473L16 491V506L170 523L180 515V139Q180 95 200 72T265 49Q301 49 337 60T400 81V425Q400 439 399 447T396 459T388 466T374
473L334 491V506L488 523L498 515V102Q498 85 499 75T504 59T512 48T527 40L564 23V9L408 -12L401 -6L403 56H399Q360 30 313 9T215 -12ZM197 639Q176 646 168 659T160 685Q160 701 172 714T201 728Q220 728 239 713L396 593L390 579L197 639Z" />
<glyph unicode="&#xfa;" glyph-name="uacute" horiz-adv-x="576" d="M215 -12Q152 -12 117 21T82 119V425Q82 439 81 447T77 459T69 466T56 473L16 491V506L170 523L180 515V139Q180 95 200 72T265 49Q301 49 337 60T400 81V425Q400 439 399 447T396 459T388 466T374
473L334 491V506L488 523L498 515V102Q498 85 499 75T504 59T512 48T527 40L564 23V9L408 -12L401 -6L403 56H399Q360 30 313 9T215 -12ZM198 593L355 713Q374 728 393 728Q410 728 422 715T434 685Q434 672 426 659T397 639L204 579L198 593Z" />
<glyph unicode="&#xfb;" glyph-name="ucircumflex" horiz-adv-x="576" d="M215 -12Q152 -12 117 21T82 119V425Q82 439 81 447T77 459T69 466T56 473L16 491V506L170 523L180 515V139Q180 95 200 72T265 49Q301 49 337 60T400 81V425Q400 439 399 447T396 459T388
466T374 473L334 491V506L488 523L498 515V102Q498 85 499 75T504 59T512 48T527 40L564 23V9L408 -12L401 -6L403 56H399Q360 30 313 9T215 -12ZM150 587L273 723H308L432 587L424 576L291 646L158 576L150 587Z" />
<glyph unicode="&#xfc;" glyph-name="udieresis" horiz-adv-x="576" d="M215 -12Q152 -12 117 21T82 119V425Q82 439 81 447T77 459T69 466T56 473L16 491V506L170 523L180 515V139Q180 95 200 72T265 49Q301 49 337 60T400 81V425Q400 439 399 447T396 459T388
466T374 473L334 491V506L488 523L498 515V102Q498 85 499 75T504 59T512 48T527 40L564 23V9L408 -12L401 -6L403 56H399Q360 30 313 9T215 -12ZM196 589Q173 589 157 605T140 644Q140 667 156 683T196 699Q219 699 235 683T252 644Q252 622 236 606T196 589ZM386
589Q363 589 347 605T330 644Q330 667 346 683T386 699Q409 699 425 683T442 644Q442 622 426 606T386 589Z" />
<glyph unicode="&#xfd;" glyph-name="yacute" horiz-adv-x="503" d="M96 -206Q53 -206 32 -189T11 -146Q11 -123 26 -110T64 -97Q87 -97 99 -109T117 -138Q121 -149 124 -152T137 -156Q153 -156 174 -130T220 -41L235 -4L71 417Q63 437 58 448T48 467T36 477T20
484L-4 492V509H220V492L193 485Q176 480 171 475T165 455Q165 438 179 401L285 119H289L390 401Q404 441 404 459Q404 472 397 476T376 485L349 492V509H511V492L483 484Q474 481 469 477T458 465T447 442T433 407L263 -39Q251 -71 238 -101T205 -154T160 -192T96
-206ZM188 593L345 713Q364 728 383 728Q400 728 412 715T424 685Q424 672 416 659T387 639L194 579L188 593Z" />
<glyph unicode="&#xfe;" glyph-name="thorn" horiz-adv-x="561" d="M-2 -182L38 -171Q53 -167 58 -158T64 -119V650Q64 665 63 673T58 687T49 696T35 703L-7 723V739L159 755L166 749Q165 736 164 718Q163 703 163 681T162 630V549Q162 532 162 517T161 490Q160
477 160 465H164Q196 489 239 506T332 524Q368 524 403 513T466 473T511 398T529 279Q529 208 509 154T452 62T363 7T247 -12Q227 -12 204 -9T161 1V-18Q161 -27 161 -38T162 -63V-119Q162 -135 163 -144T167 -159T175 -167T188 -171L241 -182V-199H-2V-182ZM258
20Q300 20 331 32T384 73T415 147T426 259Q426 367 386 416T273 466Q231 466 205 455T162 436V57Q182 39 204 30T258 20Z" />
<glyph unicode="&#xff;" glyph-name="ydieresis" horiz-adv-x="503" d="M96 -206Q53 -206 32 -189T11 -146Q11 -123 26 -110T64 -97Q87 -97 99 -109T117 -138Q121 -149 124 -152T137 -156Q153 -156 174 -130T220 -41L235 -4L71 417Q63 437 58 448T48 467T36 477T20
484L-4 492V509H220V492L193 485Q176 480 171 475T165 455Q165 438 179 401L285 119H289L390 401Q404 441 404 459Q404 472 397 476T376 485L349 492V509H511V492L483 484Q474 481 469 477T458 465T447 442T433 407L263 -39Q251 -71 238 -101T205 -154T160 -192T96
-206ZM186 589Q163 589 147 605T130 644Q130 667 146 683T186 699Q209 699 225 683T242 644Q242 622 226 606T186 589ZM376 589Q353 589 337 605T320 644Q320 667 336 683T376 699Q399 699 415 683T432 644Q432 622 416 606T376 589Z" />
<glyph unicode="&#x100;" glyph-name="Amacron" horiz-adv-x="640" d="M189 815H446V750H189V815ZM-4 18L25 25Q35 28 42 32T57 46T71 76T91 128L290 693H345L554 117Q564 90 571 74T586 47T600 33T617 25L644 18V0H389V18L417 25Q437 30 444 38T451 59Q451 70
447 88T435 126L393 245H173L134 126Q127 106 125 91T122 64Q122 32 157 25L190 18V0H-4V18ZM184 278H382L283 560H278L184 278Z" />
<glyph unicode="&#x101;" glyph-name="amacron" horiz-adv-x="490" d="M171 -13Q102 -13 62 21T22 120Q22 151 35 173T69 211T115 236T165 252L308 286V389Q308 414 305 434T293 467T265 488T215 495Q183 495 171 487T156 456Q154 442 152 431T144 410T129 396T103
391Q74 391 62 406T50 440Q50 463 67 479T112 506T171 520T235 525Q324 525 365 493T406 395V87Q406 49 432 35Q440 30 452 29T480 26V11Q469 3 445 -4T394 -12Q356 -12 337 4T312 46H307Q289 21 252 4T171 -13ZM213 36Q248 36 272 50T308 83V245L232 237Q183 232
153 208T122 128Q122 84 146 60T213 36ZM373 670H613V605H373V670Z" />
<glyph unicode="&#x102;" glyph-name="Abreve" horiz-adv-x="640" d="M318 726Q289 726 266 737T227 768T201 810T190 858L205 860Q216 832 243 812T317 792Q364 792 391 812T429 860L444 858Q442 834 433 811T408 768T370 738T318 726ZM-4 18L25 25Q35 28 42
32T57 46T71 76T91 128L290 693H345L554 117Q564 90 571 74T586 47T600 33T617 25L644 18V0H389V18L417 25Q437 30 444 38T451 59Q451 70 447 88T435 126L393 245H173L134 126Q127 106 125 91T122 64Q122 32 157 25L190 18V0H-4V18ZM184 278H382L283 560H278L184
278Z" />
<glyph unicode="&#x103;" glyph-name="abreve" horiz-adv-x="490" d="M171 -13Q102 -13 62 21T22 120Q22 151 35 173T69 211T115 236T165 252L308 286V389Q308 414 305 434T293 467T265 488T215 495Q183 495 171 487T156 456Q154 442 152 431T144 410T129 396T103
391Q74 391 62 406T50 440Q50 463 67 479T112 506T171 520T235 525Q324 525 365 493T406 395V87Q406 49 432 35Q440 30 452 29T480 26V11Q469 3 445 -4T394 -12Q356 -12 337 4T312 46H307Q289 21 252 4T171 -13ZM213 36Q248 36 272 50T308 83V245L232 237Q183 232
153 208T122 128Q122 84 146 60T213 36ZM494 576Q468 576 448 587T412 618T388 660T378 708L393 710Q404 682 428 662T493 642Q533 642 557 662T593 710L608 708Q606 684 598 661T575 618T540 588T494 576Z" />
<glyph unicode="&#x104;" glyph-name="Aogonek" horiz-adv-x="640" d="M393 245H173L134 126Q127 106 125 91T122 64Q122 32 157 25L190 18V0H-4V18L25 25Q35 28 42 32T57 46T71 76T91 128L290 693H345L554 117Q564 90 571 74T586 47T600 33T617 25L644 18V0H565Q525
0 499 -10T458 -37T436 -74T429 -114Q429 -140 437 -150T457 -164Q467 -167 479 -168T512 -169V-185Q499 -193 481 -198T439 -203Q399 -203 374 -183T348 -128Q348 -105 359 -87T388 -52T429 -23T477 5L393 245ZM184 278H381L283 560H278L184 278Z" />
<glyph unicode="&#x105;" glyph-name="aogonek" horiz-adv-x="490" d="M387 -203Q347 -203 322 -183T296 -128Q296 -110 304 -94T327 -62T359 -35T396 -12Q355 -12 336 5T312 46H307Q289 21 252 4T171 -13Q102 -13 62 21T22 120Q22 151 35 173T69 211T115 236T165
252L308 286V389Q308 414 305 434T293 467T265 488T215 495Q183 495 171 487T156 456Q154 442 152 431T144 410T129 396T103 391Q74 391 62 406T50 440Q50 463 67 479T112 506T171 520T235 525Q324 525 365 493T406 395V87Q406 49 432 35Q440 30 452 29T480 26V11Q458
1 440 -11T407 -38T385 -73T377 -118Q377 -141 385 -150T405 -164Q415 -167 427 -168T460 -169V-185Q447 -193 429 -198T387 -203ZM213 36Q248 36 272 50T308 83V245L232 237Q183 232 153 208T122 128Q122 84 146 60T213 36Z" />
<glyph unicode="&#x106;" glyph-name="Cacute" horiz-adv-x="610" d="M242 738L408 846Q427 858 443 858Q461 858 473 845T485 812Q485 797 476 786T444 769L247 724L242 738ZM344 -12Q279 -12 223 8T125 70T59 180T35 341Q35 441 62 510T136 623T245 685T377
705Q434 705 482 698T563 681L572 483H549Q537 521 519 558T484 622Q470 645 444 657T366 669Q313 669 273 653T205 600T163 504T149 360Q149 268 162 205T200 101T264 42T352 24Q385 24 408 27T446 38T472 55T491 78Q512 110 526 141T555 212H575L565 32Q531 15
474 2T344 -12Z" />
<glyph unicode="&#x107;" glyph-name="cacute" horiz-adv-x="467" d="M260 -12Q203 -12 160 7T88 61T43 143T28 248Q28 329 54 382T122 467T213 512T308 525Q379 525 412 502T446 441Q446 418 430 403T388 387Q359 387 348 401T333 441Q328 475 318 484T282 493Q252
493 225 482T177 447T144 382T132 284Q132 167 171 107T293 47Q343 47 385 61T452 89V61Q441 51 423 39T380 15T325 -4T260 -12ZM185 593L342 713Q361 728 380 728Q397 728 409 715T421 685Q421 672 413 659T384 639L191 579L185 593Z" />
<glyph unicode="&#x108;" glyph-name="Ccircumflex" horiz-adv-x="610" d="M213 732L336 857H371L495 732L487 721L354 780L221 721L213 732ZM344 -12Q279 -12 223 8T125 70T59 180T35 341Q35 441 62 510T136 623T245 685T377 705Q434 705 482 698T563 681L572
483H549Q537 521 519 558T484 622Q470 645 444 657T366 669Q313 669 273 653T205 600T163 504T149 360Q149 268 162 205T200 101T264 42T352 24Q385 24 408 27T446 38T472 55T491 78Q512 110 526 141T555 212H575L565 32Q531 15 474 2T344 -12Z" />
<glyph unicode="&#x109;" glyph-name="ccircumflex" horiz-adv-x="467" d="M260 -12Q203 -12 160 7T88 61T43 143T28 248Q28 329 54 382T122 467T213 512T308 525Q379 525 412 502T446 441Q446 418 430 403T388 387Q359 387 348 401T333 441Q328 475 318 484T282
493Q252 493 225 482T177 447T144 382T132 284Q132 167 171 107T293 47Q343 47 385 61T452 89V61Q441 51 423 39T380 15T325 -4T260 -12ZM137 587L260 723H295L419 587L411 576L278 646L145 576L137 587Z" />
<glyph unicode="&#x10a;" glyph-name="Cdotaccent" horiz-adv-x="610" d="M354 731Q331 731 315 747T298 786Q298 809 314 825T354 841Q377 841 393 825T410 786Q410 764 394 748T354 731ZM344 -12Q279 -12 223 8T125 70T59 180T35 341Q35 441 62 510T136 623T245
685T377 705Q434 705 482 698T563 681L572 483H549Q537 521 519 558T484 622Q470 645 444 657T366 669Q313 669 273 653T205 600T163 504T149 360Q149 268 162 205T200 101T264 42T352 24Q385 24 408 27T446 38T472 55T491 78Q512 110 526 141T555 212H575L565
32Q531 15 474 2T344 -12Z" />
<glyph unicode="&#x10b;" glyph-name="cdotaccent" horiz-adv-x="467" d="M260 -12Q203 -12 160 7T88 61T43 143T28 248Q28 329 54 382T122 467T213 512T308 525Q379 525 412 502T446 441Q446 418 430 403T388 387Q359 387 348 401T333 441Q328 475 318 484T282
493Q252 493 225 482T177 447T144 382T132 284Q132 167 171 107T293 47Q343 47 385 61T452 89V61Q441 51 423 39T380 15T325 -4T260 -12ZM278 586Q255 586 239 602T222 641Q222 664 238 680T278 696Q301 696 317 680T334 641Q334 619 318 603T278 586Z" />
<glyph unicode="&#x10c;" glyph-name="Ccaron" horiz-adv-x="610" d="M213 850L221 861L354 802L487 861L495 850L372 725H337L213 850ZM344 -12Q279 -12 223 8T125 70T59 180T35 341Q35 441 62 510T136 623T245 685T377 705Q434 705 482 698T563 681L572 483H549Q537
521 519 558T484 622Q470 645 444 657T366 669Q313 669 273 653T205 600T163 504T149 360Q149 268 162 205T200 101T264 42T352 24Q385 24 408 27T446 38T472 55T491 78Q512 110 526 141T555 212H575L565 32Q531 15 474 2T344 -12Z" />
<glyph unicode="&#x10d;" glyph-name="ccaron" horiz-adv-x="467" d="M260 -12Q203 -12 160 7T88 61T43 143T28 248Q28 329 54 382T122 467T213 512T308 525Q379 525 412 502T446 441Q446 418 430 403T388 387Q359 387 348 401T333 441Q328 475 318 484T282 493Q252
493 225 482T177 447T144 382T132 284Q132 167 171 107T293 47Q343 47 385 61T452 89V61Q441 51 423 39T380 15T325 -4T260 -12ZM137 716L145 727L278 657L411 727L419 716L296 580H261L137 716Z" />
<glyph unicode="&#x10e;" glyph-name="Dcaron" horiz-adv-x="686" d="M198 850L206 861L339 802L472 861L480 850L357 725H322L198 850ZM25 18L70 27Q79 28 84 31T94 40T99 57T101 87V606Q101 625 100 636T94 653T85 661T70 666L25 675V693H317Q387 693 448 676T554
619T625 514T651 353Q651 265 626 199T556 89T449 22T311 0H25V18ZM304 32Q373 32 418 55T490 118T528 214T539 334Q539 500 485 580T302 661Q266 661 244 659T208 652V126Q208 96 210 78T222 49T251 36T304 32Z" />
<glyph unicode="&#x10f;" glyph-name="dcaron" horiz-adv-x="575" d="M229 -12Q193 -12 158 0T95 42T50 119T32 239Q32 312 55 365T117 454T206 507T309 524Q340 524 362 521T400 512Q399 523 399 536V588V650Q399 665 398 673T393 687T384 696T370 703L328 723V739L493
755L500 749Q499 736 498 718Q497 703 497 681T497 630V102Q497 85 498 75T503 59T511 48T526 40L563 23V9L407 -12L400 -6L402 47H398Q366 23 322 6T229 -12ZM283 43Q328 43 355 55T399 76V450Q382 466 359 479T302 492Q263 492 233 480T180 440T147 368T135 259Q135
145 173 94T283 43ZM545 562L553 705Q554 724 563 739T599 755Q616 755 628 745T640 716Q640 709 638 701T631 684L560 558L545 562Z" />
<glyph unicode="&#x110;" glyph-name="Dcroat" horiz-adv-x="686" d="M28 366H101V606Q101 625 100 636T94 653T85 661T70 666L25 675V693H317Q387 693 448 676T554 619T625 514T651 353Q651 265 626 199T556 89T449 22T311 0H25V18L70 27Q79 28 84 31T94 40T99
57T101 87V335H28V366ZM304 32Q373 32 418 55T490 118T528 214T539 334Q539 500 485 580T302 661Q266 661 244 659T208 652V366H388V335H208V126Q208 96 210 78T222 49T251 36T304 32Z" />
<glyph unicode="&#x111;" glyph-name="dcroat" horiz-adv-x="575" d="M229 -12Q193 -12 158 0T95 42T50 119T32 239Q32 312 55 365T117 454T206 507T309 524Q340 524 362 521T400 512Q399 523 399 536V605H243V641H399V650Q399 665 398 673T393 687T384 696T370
703L328 723V739L493 755L500 749Q499 736 498 718Q497 703 497 681V641H560V605H497V102Q497 85 498 75T503 59T511 48T526 40L563 23V9L407 -12L400 -6L402 47H398Q366 23 322 6T229 -12ZM283 43Q328 43 355 55T399 76V450Q382 466 359 479T302 492Q263 492 233
480T180 440T147 368T135 259Q135 145 173 94T283 43Z" />
<glyph unicode="&#x112;" glyph-name="Emacron" horiz-adv-x="582" d="M177 815H434V750H177V815ZM25 18L70 27Q79 28 84 31T94 40T99 57T101 87V606Q101 625 100 636T94 653T85 661T70 666L25 675V693H520L532 516H510Q494 553 483 575T463 610Q452 626 443 635T419
650T384 657T329 659Q276 659 249 657T208 650V377H263Q291 377 311 378T345 382T367 392T381 409Q389 426 395 444T406 487H428V233H406Q400 258 395 274T381 311Q376 322 369 328T350 338T317 342T263 343H208V152Q208 112 210 89T225 53T264 38T338 34Q372 34
393 35T429 42T452 57T473 81Q484 97 500 132T531 209H555L540 0H25V18Z" />
<glyph unicode="&#x113;" glyph-name="emacron" horiz-adv-x="499" d="M271 -12Q210 -12 165 7T89 63T43 149T28 260Q28 320 47 369T100 452T178 506T271 525Q317 525 354 512T417 469T457 392T471 276H132Q132 214 144 171T179 100T233 60T303 47Q359 47 396
61T461 89V61Q451 53 433 41T391 17T337 -3T271 -12ZM267 495Q212 495 175 450T132 306L361 318Q361 408 342 451T267 495ZM149 670H389V605H149V670Z" />
<glyph unicode="&#x114;" glyph-name="Ebreve" horiz-adv-x="582" d="M306 726Q277 726 254 737T215 768T189 810T178 858L193 860Q204 832 231 812T305 792Q352 792 379 812T417 860L432 858Q430 834 421 811T396 768T358 738T306 726ZM25 18L70 27Q79 28 84
31T94 40T99 57T101 87V606Q101 625 100 636T94 653T85 661T70 666L25 675V693H520L532 516H510Q494 553 483 575T463 610Q452 626 443 635T419 650T384 657T329 659Q276 659 249 657T208 650V377H263Q291 377 311 378T345 382T367 392T381 409Q389 426 395 444T406
487H428V233H406Q400 258 395 274T381 311Q376 322 369 328T350 338T317 342T263 343H208V152Q208 112 210 89T225 53T264 38T338 34Q372 34 393 35T429 42T452 57T473 81Q484 97 500 132T531 209H555L540 0H25V18Z" />
<glyph unicode="&#x115;" glyph-name="ebreve" horiz-adv-x="499" d="M271 -12Q210 -12 165 7T89 63T43 149T28 260Q28 320 47 369T100 452T178 506T271 525Q317 525 354 512T417 469T457 392T471 276H132Q132 214 144 171T179 100T233 60T303 47Q359 47 396 61T461
89V61Q451 53 433 41T391 17T337 -3T271 -12ZM267 495Q212 495 175 450T132 306L361 318Q361 408 342 451T267 495ZM270 576Q244 576 224 587T188 618T164 660T154 708L169 710Q180 682 204 662T269 642Q309 642 333 662T369 710L384 708Q382 684 374 661T351 618T316
588T270 576Z" />
<glyph unicode="&#x116;" glyph-name="Edotaccent" horiz-adv-x="582" d="M305 731Q282 731 266 747T249 786Q249 809 265 825T305 841Q328 841 344 825T361 786Q361 764 345 748T305 731ZM25 18L70 27Q79 28 84 31T94 40T99 57T101 87V606Q101 625 100 636T94
653T85 661T70 666L25 675V693H520L532 516H510Q494 553 483 575T463 610Q452 626 443 635T419 650T384 657T329 659Q276 659 249 657T208 650V377H263Q291 377 311 378T345 382T367 392T381 409Q389 426 395 444T406 487H428V233H406Q400 258 395 274T381 311Q376
322 369 328T350 338T317 342T263 343H208V152Q208 112 210 89T225 53T264 38T338 34Q372 34 393 35T429 42T452 57T473 81Q484 97 500 132T531 209H555L540 0H25V18Z" />
<glyph unicode="&#x117;" glyph-name="edotaccent" horiz-adv-x="499" d="M271 -12Q210 -12 165 7T89 63T43 149T28 260Q28 320 47 369T100 452T178 506T271 525Q317 525 354 512T417 469T457 392T471 276H132Q132 214 144 171T179 100T233 60T303 47Q359 47 396
61T461 89V61Q451 53 433 41T391 17T337 -3T271 -12ZM267 495Q212 495 175 450T132 306L361 318Q361 408 342 451T267 495ZM269 586Q246 586 230 602T213 641Q213 664 229 680T269 696Q292 696 308 680T325 641Q325 619 309 603T269 586Z" />
<glyph unicode="&#x118;" glyph-name="Eogonek" horiz-adv-x="582" d="M408 -203Q368 -203 343 -183T317 -128Q317 -107 329 -88T358 -53T395 -23T432 0H25V18L70 27Q79 28 84 31T94 40T99 57T101 87V606Q101 625 100 636T94 653T85 661T70 666L25 675V693H520L532
516H510Q494 553 483 575T463 610Q452 626 443 635T419 650T384 657T329 659Q276 659 249 657T208 650V377H263Q291 377 311 378T345 382T367 392T381 409Q389 426 395 444T406 487H428V233H406Q400 258 395 274T381 311Q376 322 369 328T350 338T317 342T263 343H208V152Q208
112 210 89T225 53T264 38T338 34Q372 34 393 35T429 42T452 57T473 81Q484 97 500 132T531 209H555L540 0H452Q428 -27 413 -55T398 -118Q398 -141 406 -150T426 -164Q436 -167 448 -168T481 -169V-185Q468 -193 450 -198T408 -203Z" />
<glyph unicode="&#x119;" glyph-name="eogonek" horiz-adv-x="499" d="M28 260Q28 320 47 369T100 452T178 506T271 525Q317 525 354 512T417 469T457 392T471 276H132Q132 214 144 171T179 100T233 60T303 47Q359 47 396 61T461 89V61Q447 50 424 34T380 4Q345
-22 323 -52T300 -118Q300 -141 308 -150T328 -164Q338 -167 350 -168T383 -169V-185Q370 -193 352 -198T310 -203Q270 -203 245 -183T219 -128Q219 -108 230 -89T259 -54T298 -23Q318 -10 337 0Q321 -5 305 -8Q288 -12 265 -12Q206 -12 162 7T88 63T43 149T28
260ZM267 495Q212 495 175 450T132 306L361 318Q361 408 342 451T267 495Z" />
<glyph unicode="&#x11a;" glyph-name="Ecaron" horiz-adv-x="582" d="M164 850L172 861L305 802L438 861L446 850L323 725H288L164 850ZM25 18L70 27Q79 28 84 31T94 40T99 57T101 87V606Q101 625 100 636T94 653T85 661T70 666L25 675V693H520L532 516H510Q494
553 483 575T463 610Q452 626 443 635T419 650T384 657T329 659Q276 659 249 657T208 650V377H263Q291 377 311 378T345 382T367 392T381 409Q389 426 395 444T406 487H428V233H406Q400 258 395 274T381 311Q376 322 369 328T350 338T317 342T263 343H208V152Q208
112 210 89T225 53T264 38T338 34Q372 34 393 35T429 42T452 57T473 81Q484 97 500 132T531 209H555L540 0H25V18Z" />
<glyph unicode="&#x11b;" glyph-name="ecaron" horiz-adv-x="499" d="M271 -12Q210 -12 165 7T89 63T43 149T28 260Q28 320 47 369T100 452T178 506T271 525Q317 525 354 512T417 469T457 392T471 276H132Q132 214 144 171T179 100T233 60T303 47Q359 47 396 61T461
89V61Q451 53 433 41T391 17T337 -3T271 -12ZM267 495Q212 495 175 450T132 306L361 318Q361 408 342 451T267 495ZM128 716L136 727L269 657L402 727L410 716L287 580H252L128 716Z" />
<glyph unicode="&#x11c;" glyph-name="Gcircumflex" horiz-adv-x="669" d="M225 732L348 857H383L507 732L499 721L366 780L233 721L225 732ZM371 -12Q294 -12 232 9T126 73T59 183T35 341Q35 441 63 510T138 623T247 686T377 705Q446 705 491 700T574 686L587
487H564Q547 536 533 565T508 611Q496 628 486 639T462 657T427 666T372 669Q262 669 205 597T147 365Q147 191 198 108T369 24Q411 24 439 31T488 49V198Q488 217 487 227T482 244T472 252T457 257L410 267V285H660V267L626 259Q617 257 611 254T602 245T597 228T595
198V19Q556 8 499 -2T371 -12Z" />
<glyph unicode="&#x11d;" glyph-name="gcircumflex" horiz-adv-x="488" d="M201 -204Q101 -204 45 -171T-12 -84Q-12 -47 18 -20T101 24V28Q72 37 54 56T35 108Q35 126 42 141T60 170T84 195T110 215V219Q77 233 52 268T27 350Q27 394 44 427T89 481T152 513T222
524Q281 524 329 499Q349 516 377 529T438 543Q461 543 476 531T492 496Q492 477 482 464T451 451Q431 451 422 459T407 481Q399 498 384 498T348 488V485Q379 467 398 434T417 359Q417 315 400 283T355 230T292 199T222 189Q197 189 176 193T135 205Q124 197 113
184T101 152Q101 113 163 113H327Q359 113 385 107T430 87T459 48T470 -14Q470 -43 457 -76T413 -138T330 -185T201 -204ZM218 -174Q254 -174 287 -167T346 -145T387 -108T402 -55Q402 -21 382 0T309 22H145Q122 16 101 -6T79 -68Q79 -174 218 -174ZM222 217Q268
217 292 246T316 347Q316 426 292 461T222 496Q176 496 152 465T128 362Q128 283 152 250T222 217ZM347 587L470 723H505L629 587L621 576L488 646L355 576L347 587Z" />
<glyph unicode="&#x11e;" glyph-name="Gbreve" horiz-adv-x="669" d="M367 726Q338 726 315 737T276 768T250 810T239 858L254 860Q265 832 292 812T366 792Q413 792 440 812T478 860L493 858Q491 834 482 811T457 768T419 738T367 726ZM371 -12Q294 -12 232 9T126
73T59 183T35 341Q35 441 63 510T138 623T247 686T377 705Q446 705 491 700T574 686L587 487H564Q547 536 533 565T508 611Q496 628 486 639T462 657T427 666T372 669Q262 669 205 597T147 365Q147 191 198 108T369 24Q411 24 439 31T488 49V198Q488 217 487 227T482
244T472 252T457 257L410 267V285H660V267L626 259Q617 257 611 254T602 245T597 228T595 198V19Q556 8 499 -2T371 -12Z" />
<glyph unicode="&#x11f;" glyph-name="gbreve" horiz-adv-x="488" d="M201 -204Q101 -204 45 -171T-12 -84Q-12 -47 18 -20T101 24V28Q72 37 54 56T35 108Q35 126 42 141T60 170T84 195T110 215V219Q77 233 52 268T27 350Q27 394 44 427T89 481T152 513T222 524Q281
524 329 499Q349 516 377 529T438 543Q461 543 476 531T492 496Q492 477 482 464T451 451Q431 451 422 459T407 481Q399 498 384 498T348 488V485Q379 467 398 434T417 359Q417 315 400 283T355 230T292 199T222 189Q197 189 176 193T135 205Q124 197 113 184T101
152Q101 113 163 113H327Q359 113 385 107T430 87T459 48T470 -14Q470 -43 457 -76T413 -138T330 -185T201 -204ZM218 -174Q254 -174 287 -167T346 -145T387 -108T402 -55Q402 -21 382 0T309 22H145Q122 16 101 -6T79 -68Q79 -174 218 -174ZM222 217Q268 217 292
246T316 347Q316 426 292 461T222 496Q176 496 152 465T128 362Q128 283 152 250T222 217ZM489 576Q463 576 443 587T407 618T383 660T373 708L388 710Q399 682 423 662T488 642Q528 642 552 662T588 710L603 708Q601 684 593 661T570 618T535 588T489 576Z" />
<glyph unicode="&#x120;" glyph-name="Gdotaccent" horiz-adv-x="669" d="M366 731Q343 731 327 747T310 786Q310 809 326 825T366 841Q389 841 405 825T422 786Q422 764 406 748T366 731ZM371 -12Q294 -12 232 9T126 73T59 183T35 341Q35 441 63 510T138 623T247
686T377 705Q446 705 491 700T574 686L587 487H564Q547 536 533 565T508 611Q496 628 486 639T462 657T427 666T372 669Q262 669 205 597T147 365Q147 191 198 108T369 24Q411 24 439 31T488 49V198Q488 217 487 227T482 244T472 252T457 257L410 267V285H660V267L626
259Q617 257 611 254T602 245T597 228T595 198V19Q556 8 499 -2T371 -12Z" />
<glyph unicode="&#x121;" glyph-name="gdotaccent" horiz-adv-x="488" d="M201 -204Q101 -204 45 -171T-12 -84Q-12 -47 18 -20T101 24V28Q72 37 54 56T35 108Q35 126 42 141T60 170T84 195T110 215V219Q77 233 52 268T27 350Q27 394 44 427T89 481T152 513T222
524Q281 524 329 499Q349 516 377 529T438 543Q461 543 476 531T492 496Q492 477 482 464T451 451Q431 451 422 459T407 481Q399 498 384 498T348 488V485Q379 467 398 434T417 359Q417 315 400 283T355 230T292 199T222 189Q197 189 176 193T135 205Q124 197 113
184T101 152Q101 113 163 113H327Q359 113 385 107T430 87T459 48T470 -14Q470 -43 457 -76T413 -138T330 -185T201 -204ZM218 -174Q254 -174 287 -167T346 -145T387 -108T402 -55Q402 -21 382 0T309 22H145Q122 16 101 -6T79 -68Q79 -174 218 -174ZM222 217Q268
217 292 246T316 347Q316 426 292 461T222 496Q176 496 152 465T128 362Q128 283 152 250T222 217ZM488 586Q465 586 449 602T432 641Q432 664 448 680T488 696Q511 696 527 680T544 641Q544 619 528 603T488 586Z" />
<glyph unicode="&#x122;" glyph-name="Gcommaaccent" horiz-adv-x="669" d="M371 -12Q294 -12 232 9T126 73T59 183T35 341Q35 441 63 510T138 623T247 686T377 705Q446 705 491 700T574 686L587 487H564Q547 536 533 565T508 611Q496 628 486 639T462 657T427
666T372 669Q262 669 205 597T147 365Q147 191 198 108T369 24Q411 24 439 31T488 49V198Q488 217 487 227T482 244T472 252T457 257L410 267V285H660V267L626 259Q617 257 611 254T602 245T597 228T595 198V19Q556 8 499 -2T371 -12ZM291 -229Q336 -212 351 -191T367
-144Q364 -146 358 -148T344 -151Q321 -151 309 -138T296 -105Q296 -86 312 -72T351 -57Q379 -57 397 -74T416 -127Q416 -167 388 -199T297 -245L291 -229Z" />
<glyph unicode="&#x123;" glyph-name="gcommaaccent" horiz-adv-x="488" d="M201 -204Q101 -204 45 -171T-12 -84Q-12 -47 18 -20T101 24V28Q72 37 54 56T35 108Q35 126 42 141T60 170T84 195T110 215V219Q77 233 52 268T27 350Q27 394 44 427T89 481T152 513T222
524Q281 524 329 499Q349 516 377 529T438 543Q461 543 476 531T492 496Q492 477 482 464T451 451Q431 451 422 459T407 481Q399 498 384 498T348 488V485Q379 467 398 434T417 359Q417 315 400 283T355 230T292 199T222 189Q197 189 176 193T135 205Q124 197 113
184T101 152Q101 113 163 113H327Q359 113 385 107T430 87T459 48T470 -14Q470 -43 457 -76T413 -138T330 -185T201 -204ZM218 -174Q254 -174 287 -167T346 -145T387 -108T402 -55Q402 -21 382 0T309 22H145Q122 16 101 -6T79 -68Q79 -174 218 -174ZM222 217Q268
217 292 246T316 347Q316 426 292 461T222 496Q176 496 152 465T128 362Q128 283 152 250T222 217ZM295 759Q250 742 235 721T219 674Q222 676 228 678T242 681Q265 681 277 668T290 635Q290 616 274 602T235 587Q207 587 189 604T170 657Q170 697 198 729T289
775L295 759Z" />
<glyph unicode="&#x124;" glyph-name="Hcircumflex" horiz-adv-x="716" d="M217 732L340 857H375L499 732L491 721L358 780L225 721L217 732ZM25 18L70 27Q79 28 84 31T94 40T99 57T101 87V606Q101 625 100 636T94 653T85 661T70 666L25 675V693H286V675L239 666Q229
664 223 661T214 652T209 636T208 606V370H508V606Q508 625 507 635T503 652T493 661T477 666L430 675V693H691V675L646 666Q637 664 631 662T622 653T617 636T615 606V87Q615 68 616 57T621 40T631 32T646 27L691 18V0H430V18L477 27Q487 29 493 31T502 40T507
57T508 87V336H208V87Q208 68 209 57T213 40T223 32T239 27L286 18V0H25V18Z" />
<glyph unicode="&#x125;" glyph-name="hcircumflex" horiz-adv-x="583" d="M150 802L273 927H308L432 802L424 791L291 850L158 791L150 802ZM20 17L60 28Q74 32 80 41T86 80V650Q86 665 85 673T80 687T71 696T57 703L15 723V739L181 755L188 749Q187 733 186
715Q185 699 185 677T184 630V549Q184 532 184 516T182 488Q181 474 181 461H185Q222 485 271 504T369 524Q443 524 472 491T502 391V80Q502 51 508 42T528 28L568 17V0H338V17L378 28Q385 30 390 32T398 40T402 54T404 80V369Q404 422 385 442T319 462Q301 462
282 459T244 452T211 444T184 436V80Q184 64 185 55T189 40T197 33T210 28L250 17V0H20V17Z" />
<glyph unicode="&#x126;" glyph-name="Hbar" horiz-adv-x="716" d="M25 18L70 27Q79 28 84 31T94 40T99 57T101 87V495H16V529H101V606Q101 625 100 636T94 653T85 661T70 666L25 675V693H286V675L239 666Q229 664 223 661T214 652T209 636T208 606V529H508V606Q508
625 507 635T503 652T493 661T477 666L430 675V693H691V675L646 666Q637 664 631 662T622 653T617 636T615 606V529H700V495H615V87Q615 68 616 57T621 40T631 32T646 27L691 18V0H430V18L477 27Q487 29 493 31T502 40T507 57T508 87V336H208V87Q208 68 209 57T213
40T223 32T239 27L286 18V0H25V18ZM508 370V495H208V370H508Z" />
<glyph unicode="&#x127;" glyph-name="hbar" horiz-adv-x="583" d="M20 17L60 28Q74 32 80 41T86 80V605H8V641H86V650Q86 665 85 673T80 687T71 696T57 703L15 723V739L181 755L188 749Q187 733 186 715Q185 699 184 677Q184 660 184 641H340V605H184V549Q184
532 184 516T182 488Q181 474 181 461H185Q222 485 271 504T369 524Q443 524 472 491T502 391V80Q502 51 508 42T528 28L568 17V0H338V17L378 28Q385 30 390 32T398 40T402 54T404 80V369Q404 422 385 442T319 462Q301 462 282 459T244 452T211 444T184 436V80Q184
64 185 55T189 40T197 33T210 28L250 17V0H20V17Z" />
<glyph unicode="&#x128;" glyph-name="Itilde" horiz-adv-x="317" d="M-1 725Q21 773 39 801T89 830Q106 830 127 827T170 819T212 812T249 808Q264 808 275 820T301 855L317 847Q295 799 277 771T227 742Q210 742 189 745T146 753T104 760T67 764Q52 764 41 752T15
717L-1 725ZM25 18L74 27Q83 28 89 31T98 40T103 57T105 87V606Q105 625 104 636T99 653T89 661T74 666L25 675V693H292V675L243 666Q233 664 227 662T218 653T213 636T212 606V87Q212 68 213 57T217 40T227 32T243 27L292 18V0H25V18Z" />
<glyph unicode="&#x129;" glyph-name="itilde" horiz-adv-x="264" d="M20 23L60 32Q69 34 77 39T86 55V435Q86 450 80 456T57 471L20 488V502L181 523L188 517Q186 490 185 466T184 425V55Q184 42 190 39T210 32L250 23V0H20V23ZM232 580Q254 628 272 656T322
685Q339 685 360 682T403 674T445 667T482 663Q497 663 508 675T534 710L550 702Q528 654 510 626T460 597Q443 597 422 600T379 608T337 615T300 619Q285 619 274 607T248 572L232 580Z" />
<glyph unicode="&#x12a;" glyph-name="Imacron" horiz-adv-x="317" d="M30 815H287V750H30V815ZM25 18L74 27Q83 28 89 31T98 40T103 57T105 87V606Q105 625 104 636T99 653T89 661T74 666L25 675V693H292V675L243 666Q233 664 227 662T218 653T213 636T212 606V87Q212
68 213 57T217 40T227 32T243 27L292 18V0H25V18Z" />
<glyph unicode="&#x12b;" glyph-name="imacron" horiz-adv-x="264" d="M20 23L60 32Q69 34 77 39T86 55V435Q86 450 80 456T57 471L20 488V502L181 523L188 517Q186 490 185 466T184 425V55Q184 42 190 39T210 32L250 23V0H20V23ZM14 670H254V605H14V670Z" />
<glyph unicode="&#x12c;" glyph-name="Ibreve" horiz-adv-x="317" d="M159 726Q130 726 107 737T68 768T42 810T31 858L46 860Q57 832 84 812T158 792Q205 792 232 812T270 860L285 858Q283 834 274 811T249 768T211 738T159 726ZM25 18L74 27Q83 28 89 31T98
40T103 57T105 87V606Q105 625 104 636T99 653T89 661T74 666L25 675V693H292V675L243 666Q233 664 227 662T218 653T213 636T212 606V87Q212 68 213 57T217 40T227 32T243 27L292 18V0H25V18Z" />
<glyph unicode="&#x12d;" glyph-name="ibreve" horiz-adv-x="264" d="M20 23L60 32Q69 34 77 39T86 55V435Q86 450 80 456T57 471L20 488V502L181 523L188 517Q186 490 185 466T184 425V55Q184 42 190 39T210 32L250 23V0H20V23ZM392 576Q366 576 346 587T310
618T286 660T276 708L291 710Q302 682 326 662T391 642Q431 642 455 662T491 710L506 708Q504 684 496 661T473 618T438 588T392 576Z" />
<glyph unicode="&#x12e;" glyph-name="Iogonek" horiz-adv-x="317" d="M25 18L74 27Q83 28 89 31T98 40T103 57T105 87V606Q105 625 104 636T99 653T89 661T74 666L25 675V693H292V675L243 666Q233 664 227 662T218 653T213 636T212 606V87Q212 68 213 57T217
40T227 32T243 27L292 18V0H201Q183 -27 171 -53T159 -115Q159 -138 167 -149T187 -164Q197 -167 209 -168T242 -169V-185Q229 -193 211 -198T169 -203Q129 -203 104 -182T78 -125Q78 -104 89 -86T116 -51T149 -22T181 0H25V18Z" />
<glyph unicode="&#x12f;" glyph-name="iogonek" horiz-adv-x="264" d="M20 17L60 28Q74 32 80 41T86 80V415Q86 430 85 438T81 452T72 461T57 469L20 488V502L181 523L188 519Q187 506 186 491Q185 478 185 461T184 425V80Q184 64 185 55T189 40T197 33T210 28L250
17V0H176Q158 -27 146 -53T134 -115Q134 -138 142 -149T162 -164Q172 -167 184 -168T217 -169V-185Q204 -193 186 -198T144 -203Q104 -203 79 -182T53 -125Q53 -104 64 -86T91 -51T124 -22T156 0H20V17ZM131 602Q106 602 89 620T71 661Q71 685 88 702T131 720Q156
720 173 703T191 661Q191 638 174 620T131 602Z" />
<glyph unicode="&#x130;" glyph-name="Idotaccent" horiz-adv-x="317" d="M158 731Q135 731 119 747T102 786Q102 809 118 825T158 841Q181 841 197 825T214 786Q214 764 198 748T158 731ZM25 18L74 27Q83 28 89 31T98 40T103 57T105 87V606Q105 625 104 636T99
653T89 661T74 666L25 675V693H292V675L243 666Q233 664 227 662T218 653T213 636T212 606V87Q212 68 213 57T217 40T227 32T243 27L292 18V0H25V18Z" />
<glyph unicode="&#x131;" glyph-name="dotlessi" horiz-adv-x="264" d="M20 23L60 32Q69 34 77 39T86 55V435Q86 450 80 456T57 471L20 488V502L181 523L188 517Q186 490 185 466T184 425V55Q184 42 190 39T210 32L250 23V0H20V23Z" />
<glyph unicode="&#x132;" glyph-name="IJ" horiz-adv-x="626" d="M25 18L74 27Q83 28 89 31T98 40T103 57T105 87V606Q105 625 104 636T99 653T89 661T74 666L25 675V693H292V675L243 666Q233 664 227 662T218 653T213 636T212 606V87Q212 68 213 57T217 40T227
32T243 27L292 18V0H25V18ZM333 -163Q276 -163 249 -145T221 -98Q221 -78 234 -63T274 -48Q304 -48 316 -63T336 -107Q341 -122 344 -125T363 -128Q385 -128 401 -105T418 -26V606Q418 625 417 635T413 652T403 661T387 666L340 675V693H601V675L556 666Q547 664
541 662T532 653T527 636T525 606V59Q525 11 513 -30T477 -100T417 -146T333 -163Z" />
<glyph unicode="&#x133;" glyph-name="ij" horiz-adv-x="520" d="M20 17L60 28Q74 32 80 41T86 80V415Q86 430 85 438T81 452T72 461T57 469L20 488V502L181 523L188 519Q187 506 186 491Q185 478 185 461T184 425V80Q184 64 185 55T189 40T197 33T210 28L250
17V0H20V17ZM131 602Q106 602 89 620T71 661Q71 685 88 702T131 720Q156 720 173 703T191 661Q191 638 174 620T131 602ZM270 -208Q224 -208 203 -189T182 -143Q182 -124 195 -112T231 -99Q260 -99 270 -113T282 -144Q285 -167 288 -172T300 -178Q323 -178 336
-161T350 -107V415Q350 430 349 438T345 452T336 461T321 469L284 488V502L445 523L452 519Q451 506 450 491Q449 478 449 461T448 425V-2Q448 -59 434 -98T396 -161T340 -197T270 -208ZM393 602Q368 602 351 620T333 661Q333 685 350 702T393 720Q418 720 435
703T453 661Q453 638 436 620T393 602Z" />
<glyph unicode="&#x134;" glyph-name="Jcircumflex" horiz-adv-x="309" d="M13 732L136 857H171L295 732L287 721L154 780L21 721L13 732ZM16 -163Q-41 -163 -68 -145T-96 -98Q-96 -78 -83 -63T-43 -48Q-13 -48 -1 -63T19 -107Q24 -122 27 -125T46 -128Q68 -128
84 -105T101 -26V606Q101 625 100 635T96 652T86 661T70 666L23 675V693H284V675L239 666Q230 664 224 662T215 653T210 636T208 606V59Q208 11 196 -30T160 -100T100 -146T16 -163Z" />
<glyph unicode="&#x135;" glyph-name="jcircumflex" horiz-adv-x="256" d="M6 -208Q-40 -208 -61 -189T-82 -143Q-82 -124 -69 -112T-33 -99Q-4 -99 6 -113T18 -144Q21 -167 24 -172T36 -178Q59 -178 72 -161T86 -107V415Q86 430 85 438T81 452T72 461T57 469L20
488V502L181 523L188 519Q187 506 186 491Q185 478 185 461T184 425V-2Q184 -59 170 -98T132 -161T76 -197T6 -208ZM250 587L373 723H408L532 587L524 576L391 646L258 576L250 587Z" />
<glyph unicode="&#x136;" glyph-name="Kcommaaccent" horiz-adv-x="635" d="M479 0Q447 36 415 78T352 164T293 254T240 344V357L448 598Q465 618 465 636Q465 658 429 667L396 675V693H611V675L584 668Q572 665 563 661T543 649T521 628T490 594L319 404Q344
359 376 310T442 213T510 122T572 47Q583 35 588 32T604 26L638 18V0H479ZM25 18L70 27Q79 28 84 31T94 40T99 57T101 87V606Q101 625 100 636T94 653T85 661T70 666L25 675V693H286V675L239 666Q229 664 223 661T214 652T209 636T208 606V87Q208 68 209 57T213
40T223 32T239 27L286 18V0H25V18ZM273 -229Q318 -212 333 -191T349 -144Q346 -146 340 -148T326 -151Q303 -151 291 -138T278 -105Q278 -86 294 -72T333 -57Q361 -57 379 -74T398 -127Q398 -167 370 -199T279 -245L273 -229Z" />
<glyph unicode="&#x137;" glyph-name="kcommaaccent" horiz-adv-x="522" d="M395 0Q338 62 294 121T201 252V259L317 391Q346 425 354 441T363 466Q363 474 357 478T336 487L322 492V509H498V492L468 482Q457 479 449 475T431 464T412 447T386 420L277 303Q298
271 323 237T374 168T426 102T478 43Q485 35 491 32T505 26L533 17V0H395ZM20 17L60 28Q74 32 80 41T86 80V650Q86 665 85 673T80 687T71 696T57 703L15 723V739L181 755L188 749Q187 733 186 715Q185 699 185 677T184 630V80Q184 64 185 55T189 40T197 33T210
28L250 17V0H20V17ZM226 -229Q271 -212 286 -191T302 -144Q299 -146 293 -148T279 -151Q256 -151 244 -138T231 -105Q231 -86 247 -72T286 -57Q314 -57 332 -74T351 -127Q351 -167 323 -199T232 -245L226 -229Z" />
<glyph unicode="&#x139;" glyph-name="Lacute" horiz-adv-x="550" d="M44 738L210 846Q229 858 245 858Q263 858 275 845T287 812Q287 797 278 786T246 769L49 724L44 738ZM25 18L70 27Q79 28 84 31T94 40T99 57T101 87V606Q101 625 100 636T94 653T85 661T70
666L25 675V693H290V675L239 665Q230 663 224 661T215 652T210 636T208 606V129Q208 98 210 79T222 50T255 37T317 34Q350 34 371 35T407 42T432 57T453 81Q464 97 480 131T512 216H536L524 0H25V18Z" />
<glyph unicode="&#x13a;" glyph-name="lacute" horiz-adv-x="265" d="M20 798L186 906Q205 918 221 918Q239 918 251 905T263 872Q263 857 254 846T222 829L25 784L20 798ZM20 17L60 28Q74 32 80 41T86 80V650Q86 665 85 673T80 687T71 696T57 703L15 723V739L181
755L188 749Q187 733 186 715Q185 699 185 677T184 630V80Q184 64 185 55T189 40T197 33T210 28L250 17V0H20V17Z" />
<glyph unicode="&#x13b;" glyph-name="Lcommaaccent" horiz-adv-x="550" d="M25 18L70 27Q79 28 84 31T94 40T99 57T101 87V606Q101 625 100 636T94 653T85 661T70 666L25 675V693H290V675L239 665Q230 663 224 661T215 652T210 636T208 606V129Q208 98 210 79T222
50T255 37T317 34Q350 34 371 35T407 42T432 57T453 81Q464 97 480 131T512 216H536L524 0H25V18ZM233 -229Q278 -212 293 -191T309 -144Q306 -146 300 -148T286 -151Q263 -151 251 -138T238 -105Q238 -86 254 -72T293 -57Q321 -57 339 -74T358 -127Q358 -167 330
-199T239 -245L233 -229Z" />
<glyph unicode="&#x13c;" glyph-name="lcommaaccent" horiz-adv-x="265" d="M20 17L60 28Q74 32 80 41T86 80V650Q86 665 85 673T80 687T71 696T57 703L15 723V739L181 755L188 749Q187 733 186 715Q185 699 185 677T184 630V80Q184 64 185 55T189 40T197 33T210
28L250 17V0H20V17ZM70 -229Q115 -212 130 -191T146 -144Q143 -146 137 -148T123 -151Q100 -151 88 -138T75 -105Q75 -86 91 -72T130 -57Q158 -57 176 -74T195 -127Q195 -167 167 -199T76 -245L70 -229Z" />
<glyph unicode="&#x13d;" glyph-name="Lcaron" horiz-adv-x="550" d="M352 519L360 662Q361 681 370 696T406 712Q423 712 435 702T447 673Q447 666 445 658T438 641L367 515L352 519ZM25 18L70 27Q79 28 84 31T94 40T99 57T101 87V606Q101 625 100 636T94 653T85
661T70 666L25 675V693H290V675L239 665Q230 663 224 661T215 652T210 636T208 606V129Q208 98 210 79T222 50T255 37T317 34Q350 34 371 35T407 42T432 57T453 81Q464 97 480 131T512 216H536L524 0H25V18Z" />
<glyph unicode="&#x13e;" glyph-name="lcaron" horiz-adv-x="265" d="M20 17L60 28Q74 32 80 41T86 80V650Q86 665 85 673T80 687T71 696T57 703L15 723V739L181 755L188 749Q187 733 186 715Q185 699 185 677T184 630V80Q184 64 185 55T189 40T197 33T210 28L250
17V0H20V17ZM489 562L497 705Q498 724 507 739T543 755Q560 755 572 745T584 716Q584 709 582 701T575 684L504 558L489 562Z" />
<glyph unicode="&#x13f;" glyph-name="Ldot" horiz-adv-x="550" d="M25 18L70 27Q79 28 84 31T94 40T99 57T101 87V606Q101 625 100 636T94 653T85 661T70 666L25 675V693H290V675L239 665Q230 663 224 661T215 652T210 636T208 606V129Q208 98 210 79T222 50T255
37T317 34Q350 34 371 35T407 42T432 57T453 81Q464 97 480 131T512 216H536L524 0H25V18ZM466 310Q440 310 422 328T404 371Q404 397 422 414T466 432Q491 432 510 415T529 371Q529 346 510 328T466 310Z" />
<glyph unicode="&#x140;" glyph-name="ldot" horiz-adv-x="307" d="M20 17L60 28Q74 32 80 41T86 80V650Q86 665 85 673T80 687T71 696T57 703L15 723V739L181 755L188 749Q187 733 186 715Q185 699 185 677T184 630V80Q184 64 185 55T189 40T197 33T210 28L250
17V0H20V17ZM288 287Q265 287 250 302T235 340Q235 362 250 377T288 392Q309 392 325 377T342 340Q342 318 326 303T288 287Z" />
<glyph unicode="&#x141;" glyph-name="Lslash" horiz-adv-x="550" d="M12 282L101 319V606Q101 625 100 636T94 653T85 661T70 666L25 675V693H290V675L239 665Q230 663 224 661T215 652T210 636T208 606V363L402 444V407L208 326V129Q208 98 210 79T222 50T255
37T317 34Q350 34 371 35T407 42T432 57T453 81Q464 97 480 131T512 216H536L524 0H25V18L70 27Q79 28 84 31T94 40T99 57T101 87V282L12 245V282Z" />
<glyph unicode="&#x142;" glyph-name="lslash" horiz-adv-x="265" d="M9 341L86 383V650Q86 665 85 673T80 687T71 696T57 703L15 723V739L181 755L188 749Q187 733 186 715Q185 699 185 677T184 630V436L264 480V443L184 399V80Q184 64 185 55T189 40T197 33T210
28L250 17V0H20V17L60 28Q74 32 80 41T86 80V346L9 304V341Z" />
<glyph unicode="&#x143;" glyph-name="Nacute" horiz-adv-x="676" d="M242 738L408 846Q427 858 443 858Q461 858 473 845T485 812Q485 797 476 786T444 769L247 724L242 738ZM145 607H141V97Q141 74 143 61T149 41T162 30T182 25L224 18V0H25V18L60 25Q70 27
78 30T91 40T98 61T101 97V606Q101 625 100 636T94 653T85 661T70 666L25 675V693H212L540 183H544V596Q544 618 542 631T536 652T523 663T503 668L457 675V693H660V675L625 668Q614 666 607 663T594 653T587 632T584 596V-4H540L145 607Z" />
<glyph unicode="&#x144;" glyph-name="nacute" horiz-adv-x="583" d="M20 17L60 28Q74 32 80 41T86 80V415Q86 430 85 438T81 452T72 461T57 469L20 488V502L176 523L183 519L181 461H185Q222 485 271 504T369 524Q443 524 472 491T502 391V80Q502 51 508 42T528
28L568 17V0H338V17L378 28Q385 30 390 32T398 40T402 54T404 80V369Q404 422 385 442T319 462Q301 462 282 459T244 452T211 444T184 436V80Q184 64 185 55T189 40T197 33T210 28L250 17V0H20V17ZM203 593L360 713Q379 728 398 728Q415 728 427 715T439 685Q439
672 431 659T402 639L209 579L203 593Z" />
<glyph unicode="&#x145;" glyph-name="Ncommaaccent" horiz-adv-x="676" d="M145 607H141V97Q141 74 143 61T149 41T162 30T182 25L224 18V0H25V18L60 25Q70 27 78 30T91 40T98 61T101 97V606Q101 625 100 636T94 653T85 661T70 666L25 675V693H212L540 183H544V596Q544
618 542 631T536 652T523 663T503 668L457 675V693H660V675L625 668Q614 666 607 663T594 653T587 632T584 596V-4H540L145 607ZM275 -229Q320 -212 335 -191T351 -144Q348 -146 342 -148T328 -151Q305 -151 293 -138T280 -105Q280 -86 296 -72T335 -57Q363 -57
381 -74T400 -127Q400 -167 372 -199T281 -245L275 -229Z" />
<glyph unicode="&#x146;" glyph-name="ncommaaccent" horiz-adv-x="583" d="M20 17L60 28Q74 32 80 41T86 80V415Q86 430 85 438T81 452T72 461T57 469L20 488V502L176 523L183 519L181 461H185Q222 485 271 504T369 524Q443 524 472 491T502 391V80Q502 51 508
42T528 28L568 17V0H338V17L378 28Q385 30 390 32T398 40T402 54T404 80V369Q404 422 385 442T319 462Q301 462 282 459T244 452T211 444T184 436V80Q184 64 185 55T189 40T197 33T210 28L250 17V0H20V17ZM234 -229Q279 -212 294 -191T310 -144Q307 -146 301 -148T287
-151Q264 -151 252 -138T239 -105Q239 -86 255 -72T294 -57Q322 -57 340 -74T359 -127Q359 -167 331 -199T240 -245L234 -229Z" />
<glyph unicode="&#x147;" glyph-name="Ncaron" horiz-adv-x="676" d="M213 850L221 861L354 802L487 861L495 850L372 725H337L213 850ZM145 607H141V97Q141 74 143 61T149 41T162 30T182 25L224 18V0H25V18L60 25Q70 27 78 30T91 40T98 61T101 97V606Q101 625
100 636T94 653T85 661T70 666L25 675V693H212L540 183H544V596Q544 618 542 631T536 652T523 663T503 668L457 675V693H660V675L625 668Q614 666 607 663T594 653T587 632T584 596V-4H540L145 607Z" />
<glyph unicode="&#x148;" glyph-name="ncaron" horiz-adv-x="583" d="M20 17L60 28Q74 32 80 41T86 80V415Q86 430 85 438T81 452T72 461T57 469L20 488V502L176 523L183 519L181 461H185Q222 485 271 504T369 524Q443 524 472 491T502 391V80Q502 51 508 42T528
28L568 17V0H338V17L378 28Q385 30 390 32T398 40T402 54T404 80V369Q404 422 385 442T319 462Q301 462 282 459T244 452T211 444T184 436V80Q184 64 185 55T189 40T197 33T210 28L250 17V0H20V17ZM155 716L163 727L296 657L429 727L437 716L314 580H279L155 716Z"
/>
<glyph unicode="&#x149;" glyph-name="napostrophe" horiz-adv-x="629" d="M-55 508Q-13 529 5 553T24 609Q22 607 16 605T1 602Q-20 602 -34 616T-49 654Q-49 677 -32 691T9 706Q36 706 56 686T77 631Q77 580 46 544T-49 492L-55 508ZM66 17L106 28Q120 32 126
41T132 80V415Q132 430 131 438T127 452T118 461T103 469L66 488V502L222 523L229 519L227 461H231Q268 485 317 504T415 524Q489 524 518 491T548 391V80Q548 51 554 42T574 28L614 17V0H384V17L424 28Q431 30 436 32T444 40T448 54T450 80V369Q450 422 431 442T365
462Q347 462 328 459T290 452T257 444T230 436V80Q230 64 231 55T235 40T243 33T256 28L296 17V0H66V17Z" />
<glyph unicode="&#x14a;" glyph-name="Eng" horiz-adv-x="676" d="M145 607H141V97Q141 74 143 61T149 41T162 30T182 25L224 18V0H25V18L60 25Q70 27 78 30T91 40T98 61T101 97V606Q101 625 100 636T94 653T85 661T70 666L25 675V693H212L540 183H544V596Q544
618 542 631T536 652T523 663T503 668L457 675V693H660V675L625 668Q614 666 607 663T594 653T587 632T584 596V4Q584 -69 554 -116T456 -163Q399 -163 372 -144T344 -97Q344 -77 356 -64T394 -50Q423 -50 434 -65T454 -107Q459 -121 463 -124T482 -128Q509 -128
526 -97Q542 -69 544 -11L145 607Z" />
<glyph unicode="&#x14b;" glyph-name="eng" horiz-adv-x="569" d="M324 -208Q278 -208 257 -189T236 -143Q236 -124 249 -112T285 -99Q314 -99 324 -113T336 -144Q339 -167 342 -172T354 -178Q377 -178 390 -161T404 -107V369Q404 422 385 442T319 462Q301 462
282 459T244 452T211 444T184 436V80Q184 64 185 55T189 40T197 33T210 28L250 17V0H20V17L60 28Q74 32 80 41T86 80V415Q86 430 85 438T81 452T72 461T57 469L20 488V502L176 523L183 519L181 461H185Q222 485 271 504T369 524Q443 524 472 491T502 391V-2Q502
-59 488 -98T450 -161T394 -197T324 -208Z" />
<glyph unicode="&#x14c;" glyph-name="Omacron" horiz-adv-x="690" d="M217 815H474V750H217V815ZM340 -12Q275 -12 219 10T122 77T57 186T33 337Q33 434 59 503T130 618T232 684T350 705Q414 705 470 682T568 614T633 503T657 351Q657 254 631 185T560 73T458
9T340 -12ZM348 24Q450 24 497 98T545 334Q545 394 536 454T503 561T441 639T341 669Q239 669 192 592T145 354Q145 294 154 235T187 129T249 53T348 24Z" />
<glyph unicode="&#x14d;" glyph-name="omacron" horiz-adv-x="552" d="M276 -13Q223 -13 178 4T100 54T47 138T28 255Q28 321 48 371T103 455T183 507T276 525Q328 525 373 509T452 459T505 377T524 261Q524 195 503 144T448 58T369 5T276 -13ZM280 17Q347 17
381 72T416 247Q416 381 381 438T273 495Q206 495 171 442T136 269Q136 135 172 76T280 17ZM156 670H396V605H156V670Z" />
<glyph unicode="&#x14e;" glyph-name="Obreve" horiz-adv-x="690" d="M346 726Q317 726 294 737T255 768T229 810T218 858L233 860Q244 832 271 812T345 792Q392 792 419 812T457 860L472 858Q470 834 461 811T436 768T398 738T346 726ZM340 -12Q275 -12 219 10T122
77T57 186T33 337Q33 434 59 503T130 618T232 684T350 705Q414 705 470 682T568 614T633 503T657 351Q657 254 631 185T560 73T458 9T340 -12ZM348 24Q450 24 497 98T545 334Q545 394 536 454T503 561T441 639T341 669Q239 669 192 592T145 354Q145 294 154 235T187
129T249 53T348 24Z" />
<glyph unicode="&#x14f;" glyph-name="obreve" horiz-adv-x="552" d="M276 -13Q223 -13 178 4T100 54T47 138T28 255Q28 321 48 371T103 455T183 507T276 525Q328 525 373 509T452 459T505 377T524 261Q524 195 503 144T448 58T369 5T276 -13ZM280 17Q347 17 381
72T416 247Q416 381 381 438T273 495Q206 495 171 442T136 269Q136 135 172 76T280 17ZM277 576Q251 576 231 587T195 618T171 660T161 708L176 710Q187 682 211 662T276 642Q316 642 340 662T376 710L391 708Q389 684 381 661T358 618T323 588T277 576Z" />
<glyph unicode="&#x150;" glyph-name="Ohungarumlaut" horiz-adv-x="690" d="M235 736L318 852Q333 873 352 873Q364 873 379 862T395 833Q395 822 391 813T370 793L249 721L235 736ZM400 736L483 852Q498 873 517 873Q529 873 544 862T560 833Q560 822 556 813T535
793L414 721L400 736ZM340 -12Q275 -12 219 10T122 77T57 186T33 337Q33 434 59 503T130 618T232 684T350 705Q414 705 470 682T568 614T633 503T657 351Q657 254 631 185T560 73T458 9T340 -12ZM348 24Q450 24 497 98T545 334Q545 394 536 454T503 561T441 639T341
669Q239 669 192 592T145 354Q145 294 154 235T187 129T249 53T348 24Z" />
<glyph unicode="&#x151;" glyph-name="ohungarumlaut" horiz-adv-x="552" d="M276 -13Q223 -13 178 4T100 54T47 138T28 255Q28 321 48 371T103 455T183 507T276 525Q328 525 373 509T452 459T505 377T524 261Q524 195 503 144T448 58T369 5T276 -13ZM280 17Q347
17 381 72T416 247Q416 381 381 438T273 495Q206 495 171 442T136 269Q136 135 172 76T280 17ZM164 591L257 717Q273 738 291 738Q303 738 318 727T334 698Q334 687 330 678T309 658L178 576L164 591ZM329 591L422 717Q438 738 456 738Q468 738 483 727T499 698Q499
687 495 678T474 658L343 576L329 591Z" />
<glyph unicode="&#x152;" glyph-name="OE" horiz-adv-x="957" d="M367 0Q297 0 236 17T130 74T59 179T33 340Q33 428 58 494T128 604T235 670T373 693H895L907 516H885Q869 553 858 575T838 610Q827 626 818 635T794 650T759 657T704 659Q651 659 624 657T583
650V377H638Q666 377 686 378T720 382T742 392T756 409Q764 426 770 444T781 487H803V233H781Q775 258 770 274T756 311Q751 322 744 328T725 338T692 342T638 343H583V152Q583 112 585 89T600 53T639 38T713 34Q747 34 768 35T804 42T827 57T848 81Q859 97 875
132T906 209H930L915 0H367ZM382 32Q413 32 432 36T460 53T473 87T476 144V567Q476 597 474 615T462 644T433 657T380 661Q311 661 266 638T194 575T156 479T145 359Q145 193 199 113T382 32Z" />
<glyph unicode="&#x153;" glyph-name="oe" horiz-adv-x="880" d="M273 -13Q220 -13 176 4T98 54T47 138T28 255Q28 321 48 371T102 455T180 507T273 525Q339 525 388 499T466 420Q496 470 544 497T652 525Q698 525 735 512T798 469T838 392T852 276H514Q514 214
526 171T561 100T615 60T684 47Q740 47 777 61T842 89V61Q832 53 814 41T772 17T718 -3T652 -12Q579 -12 532 15T459 93Q429 41 381 14T273 -13ZM277 17Q344 17 376 72T409 247Q409 381 376 438T270 495Q203 495 170 442T136 269Q136 135 170 76T277 17ZM648 495Q593
495 556 450T514 306L742 318Q742 408 723 451T648 495Z" />
<glyph unicode="&#x154;" glyph-name="Racute" horiz-adv-x="629" d="M190 738L356 846Q375 858 391 858Q409 858 421 845T433 812Q433 797 424 786T392 769L195 724L190 738ZM25 18L70 27Q79 28 84 31T94 40T99 57T101 87V606Q101 625 100 636T94 653T85 661T70
666L25 675V693H311Q430 693 485 649T540 517Q540 461 500 416T381 348V345Q401 310 425 270T474 191T525 115T572 52Q580 41 589 35T613 24L634 18V0H480Q425 72 373 156T281 322H208V87Q208 68 209 57T213 40T223 32T239 27L286 18V0H25V18ZM265 354Q352 354
390 389T429 507Q429 553 421 582T397 629T357 652T298 659Q266 659 244 657T208 652V358Q216 357 226 356Q234 355 244 355T265 354Z" />
<glyph unicode="&#x155;" glyph-name="racute" horiz-adv-x="403" d="M20 17L60 28Q74 32 80 41T86 80V415Q86 430 85 438T81 452T72 461T57 469L20 488V502L176 523L183 517L181 457H185Q198 470 215 482T250 504T289 519T327 525Q358 525 375 510T392 466Q392
438 377 424T339 409Q312 409 301 420T284 447Q280 458 277 461T267 464Q259 464 248 461T225 451T202 438T184 423V80Q184 64 185 55T189 40T197 32T210 28L260 17V0H20V17ZM139 593L296 713Q315 728 334 728Q351 728 363 715T375 685Q375 672 367 659T338 639L145
579L139 593Z" />
<glyph unicode="&#x156;" glyph-name="Rcommaaccent" horiz-adv-x="629" d="M25 18L70 27Q79 28 84 31T94 40T99 57T101 87V606Q101 625 100 636T94 653T85 661T70 666L25 675V693H311Q430 693 485 649T540 517Q540 461 500 416T381 348V345Q401 310 425 270T474
191T525 115T572 52Q580 41 589 35T613 24L634 18V0H480Q425 72 373 156T281 322H208V87Q208 68 209 57T213 40T223 32T239 27L286 18V0H25V18ZM265 354Q352 354 390 389T429 507Q429 553 421 582T397 629T357 652T298 659Q266 659 244 657T208 652V358Q216 357
226 356Q234 355 244 355T265 354ZM279 -229Q324 -212 339 -191T355 -144Q352 -146 346 -148T332 -151Q309 -151 297 -138T284 -105Q284 -86 300 -72T339 -57Q367 -57 385 -74T404 -127Q404 -167 376 -199T285 -245L279 -229Z" />
<glyph unicode="&#x157;" glyph-name="rcommaaccent" horiz-adv-x="403" d="M20 17L60 28Q74 32 80 41T86 80V415Q86 430 85 438T81 452T72 461T57 469L20 488V502L176 523L183 517L181 457H185Q198 470 215 482T250 504T289 519T327 525Q358 525 375 510T392
466Q392 438 377 424T339 409Q312 409 301 420T284 447Q280 458 277 461T267 464Q259 464 248 461T225 451T202 438T184 423V80Q184 64 185 55T189 40T197 32T210 28L260 17V0H20V17ZM67 -229Q112 -212 127 -191T143 -144Q140 -146 134 -148T120 -151Q97 -151 85
-138T72 -105Q72 -86 88 -72T127 -57Q155 -57 173 -74T192 -127Q192 -167 164 -199T73 -245L67 -229Z" />
<glyph unicode="&#x158;" glyph-name="Rcaron" horiz-adv-x="629" d="M161 850L169 861L302 802L435 861L443 850L320 725H285L161 850ZM25 18L70 27Q79 28 84 31T94 40T99 57T101 87V606Q101 625 100 636T94 653T85 661T70 666L25 675V693H311Q430 693 485 649T540
517Q540 461 500 416T381 348V345Q401 310 425 270T474 191T525 115T572 52Q580 41 589 35T613 24L634 18V0H480Q425 72 373 156T281 322H208V87Q208 68 209 57T213 40T223 32T239 27L286 18V0H25V18ZM265 354Q352 354 390 389T429 507Q429 553 421 582T397 629T357
652T298 659Q266 659 244 657T208 652V358Q216 357 226 356Q234 355 244 355T265 354Z" />
<glyph unicode="&#x159;" glyph-name="rcaron" horiz-adv-x="403" d="M20 17L60 28Q74 32 80 41T86 80V415Q86 430 85 438T81 452T72 461T57 469L20 488V502L176 523L183 517L181 457H185Q198 470 215 482T250 504T289 519T327 525Q358 525 375 510T392 466Q392
438 377 424T339 409Q312 409 301 420T284 447Q280 458 277 461T267 464Q259 464 248 461T225 451T202 438T184 423V80Q184 64 185 55T189 40T197 32T210 28L260 17V0H20V17ZM348 716L356 727L489 657L622 727L630 716L507 580H472L348 716Z" />
<glyph unicode="&#x15a;" glyph-name="Sacute" horiz-adv-x="506" d="M153 738L319 846Q338 858 354 858Q372 858 384 845T396 812Q396 797 387 786T355 769L158 724L153 738ZM232 -13Q172 -13 122 -3T40 22L29 204H53Q67 169 80 139T114 78Q133 47 162 35T244
23Q318 23 350 57T383 148Q383 175 375 195T347 235T296 272T218 311Q173 332 140 352T85 397T53 450T42 517Q42 557 57 591T101 651T170 691T260 706Q320 706 359 699T422 684L434 520H411Q403 540 397 554T384 580T372 600T359 621Q350 634 341 643T320 659T291
667T249 670Q189 670 156 643T122 560Q122 535 128 516T150 480T193 446T262 410Q317 385 356 362T421 314T458 263T470 204Q470 159 455 119T410 50T336 4T232 -13Z" />
<glyph unicode="&#x15b;" glyph-name="sacute" horiz-adv-x="407" d="M181 -12Q139 -12 101 -6T32 12L29 159H49Q61 130 73 109T101 63Q109 50 116 42T134 28T157 20T191 18Q236 18 265 41T295 107Q295 148 267 172T177 221Q145 234 119 248T73 281T43 323T32
375Q32 410 46 437T86 484T144 514T217 525Q258 525 288 520T345 504L349 377H331Q319 403 307 422T281 461Q263 484 246 489T205 495Q156 495 133 475T109 417Q109 383 136 357T226 306Q261 292 289 278T337 245T368 205T379 154Q379 119 366 89T327 36T264 1T181
-12ZM369 593L526 713Q545 728 564 728Q581 728 593 715T605 685Q605 672 597 659T568 639L375 579L369 593Z" />
<glyph unicode="&#x15c;" glyph-name="Scircumflex" horiz-adv-x="506" d="M124 732L247 857H282L406 732L398 721L265 780L132 721L124 732ZM232 -13Q172 -13 122 -3T40 22L29 204H53Q67 169 80 139T114 78Q133 47 162 35T244 23Q318 23 350 57T383 148Q383 175
375 195T347 235T296 272T218 311Q173 332 140 352T85 397T53 450T42 517Q42 557 57 591T101 651T170 691T260 706Q320 706 359 699T422 684L434 520H411Q403 540 397 554T384 580T372 600T359 621Q350 634 341 643T320 659T291 667T249 670Q189 670 156 643T122
560Q122 535 128 516T150 480T193 446T262 410Q317 385 356 362T421 314T458 263T470 204Q470 159 455 119T410 50T336 4T232 -13Z" />
<glyph unicode="&#x15d;" glyph-name="scircumflex" horiz-adv-x="407" d="M181 -12Q139 -12 101 -6T32 12L29 159H49Q61 130 73 109T101 63Q109 50 116 42T134 28T157 20T191 18Q236 18 265 41T295 107Q295 148 267 172T177 221Q145 234 119 248T73 281T43 323T32
375Q32 410 46 437T86 484T144 514T217 525Q258 525 288 520T345 504L349 377H331Q319 403 307 422T281 461Q263 484 246 489T205 495Q156 495 133 475T109 417Q109 383 136 357T226 306Q261 292 289 278T337 245T368 205T379 154Q379 119 366 89T327 36T264 1T181
-12ZM321 587L444 723H479L603 587L595 576L462 646L329 576L321 587Z" />
<glyph unicode="&#x15e;" glyph-name="Scedilla" horiz-adv-x="506" d="M232 -13Q172 -13 122 -3T40 22L29 204H53Q67 169 80 139T114 78Q133 47 162 35T244 23Q318 23 350 57T383 148Q383 175 375 195T347 235T296 272T218 311Q173 332 140 352T85 397T53 450T42
517Q42 557 57 591T101 651T170 691T260 706Q320 706 359 699T422 684L434 520H411Q403 540 397 554T384 580T372 600T359 621Q350 634 341 643T320 659T291 667T249 670Q189 670 156 643T122 560Q122 535 128 516T150 480T193 446T262 410Q317 385 356 362T421
314T458 263T470 204Q470 159 455 119T410 50T336 4T232 -13ZM406 -187Q454 -176 472 -161T491 -127Q491 -111 477 -104T437 -93L432 -86L475 0H509L477 -51Q512 -55 535 -71T558 -116Q558 -150 521 -173T406 -203V-187Z" />
<glyph unicode="&#x15f;" glyph-name="scedilla" horiz-adv-x="407" d="M181 -12Q139 -12 101 -6T32 12L29 159H49Q61 130 73 109T101 63Q109 50 116 42T134 28T157 20T191 18Q236 18 265 41T295 107Q295 148 267 172T177 221Q145 234 119 248T73 281T43 323T32
375Q32 410 46 437T86 484T144 514T217 525Q258 525 288 520T345 504L349 377H331Q319 403 307 422T281 461Q263 484 246 489T205 495Q156 495 133 475T109 417Q109 383 136 357T226 306Q261 292 289 278T337 245T368 205T379 154Q379 119 366 89T327 36T264 1T181
-12ZM357 -187Q405 -176 423 -161T442 -127Q442 -111 428 -104T388 -93L383 -86L426 0H460L428 -51Q463 -55 486 -71T509 -116Q509 -150 472 -173T357 -203V-187Z" />
<glyph unicode="&#x160;" glyph-name="Scaron" horiz-adv-x="506" d="M124 850L132 861L265 802L398 861L406 850L283 725H248L124 850ZM232 -13Q172 -13 122 -3T40 22L29 204H53Q67 169 80 139T114 78Q133 47 162 35T244 23Q318 23 350 57T383 148Q383 175 375
195T347 235T296 272T218 311Q173 332 140 352T85 397T53 450T42 517Q42 557 57 591T101 651T170 691T260 706Q320 706 359 699T422 684L434 520H411Q403 540 397 554T384 580T372 600T359 621Q350 634 341 643T320 659T291 667T249 670Q189 670 156 643T122 560Q122
535 128 516T150 480T193 446T262 410Q317 385 356 362T421 314T458 263T470 204Q470 159 455 119T410 50T336 4T232 -13Z" />
<glyph unicode="&#x161;" glyph-name="scaron" horiz-adv-x="407" d="M181 -12Q139 -12 101 -6T32 12L29 159H49Q61 130 73 109T101 63Q109 50 116 42T134 28T157 20T191 18Q236 18 265 41T295 107Q295 148 267 172T177 221Q145 234 119 248T73 281T43 323T32
375Q32 410 46 437T86 484T144 514T217 525Q258 525 288 520T345 504L349 377H331Q319 403 307 422T281 461Q263 484 246 489T205 495Q156 495 133 475T109 417Q109 383 136 357T226 306Q261 292 289 278T337 245T368 205T379 154Q379 119 366 89T327 36T264 1T181
-12ZM321 716L329 727L462 657L595 727L603 716L480 580H445L321 716Z" />
<glyph unicode="&#x162;" glyph-name="Tcommaaccent" horiz-adv-x="597" d="M166 18L214 27Q223 29 229 31T238 40T243 57T245 87V661H226Q188 661 166 660T130 653T107 637T87 606Q79 593 74 581T63 556T52 528T40 491H16L25 693H572L581 491H557Q550 512 545
527T534 556T523 581T510 606Q499 625 490 636T467 653T431 659T371 661H352V87Q352 68 353 57T357 40T367 32T383 27L431 18V0H166V18ZM226 -229Q271 -212 286 -191T302 -144Q299 -146 293 -148T279 -151Q256 -151 244 -138T231 -105Q231 -86 247 -72T286 -57Q314
-57 332 -74T351 -127Q351 -167 323 -199T232 -245L226 -229Z" />
<glyph unicode="&#x163;" glyph-name="tcommaaccent" horiz-adv-x="323" d="M187 -12Q164 -12 144 -7T108 12T83 44T74 93V468H5V485Q108 517 148 629H172V509H312L302 468H172V103Q172 41 238 41Q260 41 280 45T316 54V34Q309 29 298 21T270 6T233 -7T187 -12ZM107
-229Q152 -212 167 -191T183 -144Q180 -146 174 -148T160 -151Q137 -151 125 -138T112 -105Q112 -86 128 -72T167 -57Q195 -57 213 -74T232 -127Q232 -167 204 -199T113 -245L107 -229Z" />
<glyph unicode="&#x164;" glyph-name="Tcaron" horiz-adv-x="597" d="M157 850L165 861L298 802L431 861L439 850L316 725H281L157 850ZM166 18L214 27Q223 29 229 31T238 40T243 57T245 87V661H226Q188 661 166 660T130 653T107 637T87 606Q79 593 74 581T63
556T52 528T40 491H16L25 693H572L581 491H557Q550 512 545 527T534 556T523 581T510 606Q499 625 490 636T467 653T431 659T371 661H352V87Q352 68 353 57T357 40T367 32T383 27L431 18V0H166V18Z" />
<glyph unicode="&#x165;" glyph-name="tcaron" horiz-adv-x="323" d="M187 -12Q164 -12 144 -7T108 12T83 44T74 93V468H5V485Q108 517 148 629H172V509H312L302 468H172V103Q172 41 238 41Q260 41 280 45T316 54V34Q309 29 298 21T270 6T233 -7T187 -12ZM503
562L511 705Q512 724 521 739T557 755Q574 755 586 745T598 716Q598 709 596 701T589 684L518 558L503 562Z" />
<glyph unicode="&#x166;" glyph-name="Tbar" horiz-adv-x="597" d="M167 18L215 27Q224 29 230 31T239 40T244 57T246 87V366H87V400H246V661H227Q189 661 167 660T131 653T108 637T88 606Q80 593 75 581T64 556T53 528T41 491H17L26 693H573L582 491H558Q551
512 546 527T535 556T524 581T511 606Q500 625 491 636T468 653T432 659T372 661H353V400H512V366H353V87Q353 68 354 57T358 40T368 32T384 27L432 18V0H167V18Z" />
<glyph unicode="&#x167;" glyph-name="tbar" horiz-adv-x="323" d="M187 -12Q164 -12 144 -7T108 12T83 44T74 93V328H6V364H74V468H5V485Q108 517 148 629H172V509H312L302 468H172V364H309V328H172V103Q172 41 238 41Q260 41 280 45T316 54V34Q309 29 298 21T270
6T233 -7T187 -12Z" />
<glyph unicode="&#x168;" glyph-name="Utilde" horiz-adv-x="677" d="M207 725Q229 773 247 801T297 830Q314 830 335 827T378 819T420 812T457 808Q472 808 483 820T509 855L525 847Q503 799 485 771T435 742Q418 742 397 745T354 753T312 760T275 764Q260 764
249 752T223 717L207 725ZM344 -12Q285 -12 238 1T157 44T105 117T87 225V606Q87 625 86 636T81 653T71 661T56 666L11 675V693H268V675L225 666Q215 664 209 661T200 652T195 636T194 606V215Q194 124 236 80T375 36Q468 36 509 86T550 224V596Q550 618 548 631T542
652T529 663T509 668L460 675V693H666V675L631 668Q620 666 613 663T600 653T593 632T590 596V217Q590 171 577 130T533 57T457 7T344 -12Z" />
<glyph unicode="&#x169;" glyph-name="utilde" horiz-adv-x="576" d="M215 -12Q152 -12 117 21T82 119V425Q82 439 81 447T77 459T69 466T56 473L16 491V506L170 523L180 515V139Q180 95 200 72T265 49Q301 49 337 60T400 81V425Q400 439 399 447T396 459T388
466T374 473L334 491V506L488 523L498 515V102Q498 85 499 75T504 59T512 48T527 40L564 23V9L408 -12L401 -6L403 56H399Q360 30 313 9T215 -12ZM132 580Q154 628 172 656T222 685Q239 685 260 682T303 674T345 667T382 663Q397 663 408 675T434 710L450 702Q428
654 410 626T360 597Q343 597 322 600T279 608T237 615T200 619Q185 619 174 607T148 572L132 580Z" />
<glyph unicode="&#x16a;" glyph-name="Umacron" horiz-adv-x="677" d="M238 815H495V750H238V815ZM344 -12Q285 -12 238 1T157 44T105 117T87 225V606Q87 625 86 636T81 653T71 661T56 666L11 675V693H268V675L225 666Q215 664 209 661T200 652T195 636T194 606V215Q194
124 236 80T375 36Q468 36 509 86T550 224V596Q550 618 548 631T542 652T529 663T509 668L460 675V693H666V675L631 668Q620 666 613 663T600 653T593 632T590 596V217Q590 171 577 130T533 57T457 7T344 -12Z" />
<glyph unicode="&#x16b;" glyph-name="umacron" horiz-adv-x="576" d="M215 -12Q152 -12 117 21T82 119V425Q82 439 81 447T77 459T69 466T56 473L16 491V506L170 523L180 515V139Q180 95 200 72T265 49Q301 49 337 60T400 81V425Q400 439 399 447T396 459T388
466T374 473L334 491V506L488 523L498 515V102Q498 85 499 75T504 59T512 48T527 40L564 23V9L408 -12L401 -6L403 56H399Q360 30 313 9T215 -12ZM171 670H411V605H171V670Z" />
<glyph unicode="&#x16c;" glyph-name="Ubreve" horiz-adv-x="677" d="M367 726Q338 726 315 737T276 768T250 810T239 858L254 860Q265 832 292 812T366 792Q413 792 440 812T478 860L493 858Q491 834 482 811T457 768T419 738T367 726ZM344 -12Q285 -12 238 1T157
44T105 117T87 225V606Q87 625 86 636T81 653T71 661T56 666L11 675V693H268V675L225 666Q215 664 209 661T200 652T195 636T194 606V215Q194 124 236 80T375 36Q468 36 509 86T550 224V596Q550 618 548 631T542 652T529 663T509 668L460 675V693H666V675L631 668Q620
666 613 663T600 653T593 632T590 596V217Q590 171 577 130T533 57T457 7T344 -12Z" />
<glyph unicode="&#x16d;" glyph-name="ubreve" horiz-adv-x="576" d="M215 -12Q152 -12 117 21T82 119V425Q82 439 81 447T77 459T69 466T56 473L16 491V506L170 523L180 515V139Q180 95 200 72T265 49Q301 49 337 60T400 81V425Q400 439 399 447T396 459T388
466T374 473L334 491V506L488 523L498 515V102Q498 85 499 75T504 59T512 48T527 40L564 23V9L408 -12L401 -6L403 56H399Q360 30 313 9T215 -12ZM292 576Q266 576 246 587T210 618T186 660T176 708L191 710Q202 682 226 662T291 642Q331 642 355 662T391 710L406
708Q404 684 396 661T373 618T338 588T292 576Z" />
<glyph unicode="&#x16e;" glyph-name="Uring" horiz-adv-x="677" d="M367 694Q328 694 302 720T276 783Q276 821 302 847T367 873Q406 873 432 847T458 783Q458 747 432 721T367 694ZM367 723Q393 723 408 740T424 783Q424 810 409 827T367 844Q341 844 326 827T310
783Q310 757 325 740T367 723ZM344 -12Q285 -12 238 1T157 44T105 117T87 225V606Q87 625 86 636T81 653T71 661T56 666L11 675V693H268V675L225 666Q215 664 209 661T200 652T195 636T194 606V215Q194 124 236 80T375 36Q468 36 509 86T550 224V596Q550 618 548
631T542 652T529 663T509 668L460 675V693H666V675L631 668Q620 666 613 663T600 653T593 632T590 596V217Q590 171 577 130T533 57T457 7T344 -12Z" />
<glyph unicode="&#x16f;" glyph-name="uring" horiz-adv-x="576" d="M215 -12Q152 -12 117 21T82 119V425Q82 439 81 447T77 459T69 466T56 473L16 491V506L170 523L180 515V139Q180 95 200 72T265 49Q301 49 337 60T400 81V425Q400 439 399 447T396 459T388 466T374
473L334 491V506L488 523L498 515V102Q498 85 499 75T504 59T512 48T527 40L564 23V9L408 -12L401 -6L403 56H399Q360 30 313 9T215 -12ZM291 575Q252 575 226 601T200 664Q200 702 226 728T291 754Q330 754 356 728T382 664Q382 628 356 602T291 575ZM291 604Q317
604 332 621T348 664Q348 691 333 708T291 725Q265 725 250 708T234 664Q234 638 249 621T291 604Z" />
<glyph unicode="&#x170;" glyph-name="Uhungarumlaut" horiz-adv-x="677" d="M256 736L339 852Q354 873 373 873Q385 873 400 862T416 833Q416 822 412 813T391 793L270 721L256 736ZM421 736L504 852Q519 873 538 873Q550 873 565 862T581 833Q581 822 577 813T556
793L435 721L421 736ZM344 -12Q285 -12 238 1T157 44T105 117T87 225V606Q87 625 86 636T81 653T71 661T56 666L11 675V693H268V675L225 666Q215 664 209 661T200 652T195 636T194 606V215Q194 124 236 80T375 36Q468 36 509 86T550 224V596Q550 618 548 631T542
652T529 663T509 668L460 675V693H666V675L631 668Q620 666 613 663T600 653T593 632T590 596V217Q590 171 577 130T533 57T457 7T344 -12Z" />
<glyph unicode="&#x171;" glyph-name="uhungarumlaut" horiz-adv-x="576" d="M215 -12Q152 -12 117 21T82 119V425Q82 439 81 447T77 459T69 466T56 473L16 491V506L170 523L180 515V139Q180 95 200 72T265 49Q301 49 337 60T400 81V425Q400 439 399 447T396 459T388
466T374 473L334 491V506L488 523L498 515V102Q498 85 499 75T504 59T512 48T527 40L564 23V9L408 -12L401 -6L403 56H399Q360 30 313 9T215 -12ZM179 591L272 717Q288 738 306 738Q318 738 333 727T349 698Q349 687 345 678T324 658L193 576L179 591ZM344 591L437
717Q453 738 471 738Q483 738 498 727T514 698Q514 687 510 678T489 658L358 576L344 591Z" />
<glyph unicode="&#x172;" glyph-name="Uogonek" horiz-adv-x="677" d="M385 -203Q345 -203 320 -183T294 -128Q294 -110 303 -93T328 -60T362 -31T401 -7Q388 -9 373 -10T344 -12Q285 -12 238 1T157 44T105 117T87 225V606Q87 625 86 636T81 653T71 661T56 666L11
675V693H268V675L225 666Q215 664 209 661T200 652T195 636T194 606V215Q194 124 236 80T375 36Q468 36 509 86T550 224V596Q550 618 548 631T542 652T529 663T509 668L460 675V693H666V675L631 668Q620 666 613 663T600 653T593 632T590 596V217Q590 153 564 100T479
17Q456 6 437 -7T405 -35T383 -71T375 -118Q375 -141 383 -150T403 -164Q413 -167 425 -168T458 -169V-185Q445 -193 427 -198T385 -203Z" />
<glyph unicode="&#x173;" glyph-name="uogonek" horiz-adv-x="576" d="M387 -203Q347 -203 322 -183T296 -128Q296 -109 306 -92T332 -61T366 -34T401 -12L403 56H399Q360 30 313 9T215 -12Q152 -12 117 21T82 119V425Q82 439 81 447T77 459T69 466L56 473L16
491V506L170 523L180 515V139Q180 95 200 72T265 49Q301 49 337 60T400 81V425Q400 439 399 447T396 459T388 466T374 473L334 491V506L488 523L498 515V102Q498 85 499 75T504 59T512 48T527 40L564 23V9L529 6Q448 -1 413 -36T377 -118Q377 -141 385 -150T405
-164Q415 -167 427 -168T460 -169V-185Q447 -193 429 -198T387 -203Z" />
<glyph unicode="&#x174;" glyph-name="Wcircumflex" horiz-adv-x="927" d="M333 732L456 857H491L615 732L607 721L474 780L341 721L333 732ZM84 576Q75 603 69 620T56 646T42 660T24 668L-3 675V693H244V675L213 668Q181 661 181 631Q181 619 185 602T195 567L328
143H333L455 509L433 576Q424 603 418 620T405 646T390 660T372 668L345 675V693H591V675L560 668Q529 661 529 631Q529 619 533 602T542 567L676 143H681L797 567Q802 584 805 602T809 633Q809 646 802 655T778 668L745 675V693H930V675L900 668Q877 663 866 639T838
558L674 0H620L476 447H473L323 0H271L84 576Z" />
<glyph unicode="&#x175;" glyph-name="wcircumflex" horiz-adv-x="762" d="M69 417Q63 433 58 444T48 463T35 475T16 484L-8 492V509H220V492L193 485Q174 480 170 473T166 453Q166 444 170 431T179 401L271 120H275L366 382L354 417Q343 450 333 464T306 484L282
492V509H493V492L466 485Q452 481 448 473T444 453Q444 444 447 431T457 401L553 120H557L648 401Q655 421 657 434T660 455Q660 466 655 473T634 485L607 492V509H770V492L742 484Q732 481 726 476T714 462T704 440T692 407L548 0H501L386 328H383L266 0H219L69
417ZM252 587L375 723H410L534 587L526 576L393 646L260 576L252 587Z" />
<glyph unicode="&#x176;" glyph-name="Ycircumflex" horiz-adv-x="602" d="M194 732L317 857H352L476 732L468 721L335 780L202 721L194 732ZM181 18L229 27Q238 29 244 31T253 40T258 57T260 87V280L94 579Q81 603 72 619T55 644T39 659T21 668L-4 675V693H255V675L230
669Q207 664 198 656T189 633Q189 614 208 579L343 324H347L464 579Q473 598 476 609T479 631Q479 645 471 654T440 668L409 675V693H606V675L584 668Q572 664 563 659T544 642T525 613T501 565L367 288V87Q367 68 368 57T372 40T382 32T398 27L446 18V0H181V18Z"
/>
<glyph unicode="&#x177;" glyph-name="ycircumflex" horiz-adv-x="503" d="M96 -206Q53 -206 32 -189T11 -146Q11 -123 26 -110T64 -97Q87 -97 99 -109T117 -138Q121 -149 124 -152T137 -156Q153 -156 174 -130T220 -41L235 -4L71 417Q63 437 58 448T48 467T36
477T20 484L-4 492V509H220V492L193 485Q176 480 171 475T165 455Q165 438 179 401L285 119H289L390 401Q404 441 404 459Q404 472 397 476T376 485L349 492V509H511V492L483 484Q474 481 469 477T458 465T447 442T433 407L263 -39Q251 -71 238 -101T205 -154T160
-192T96 -206ZM140 587L263 723H298L422 587L414 576L281 646L148 576L140 587Z" />
<glyph unicode="&#x178;" glyph-name="Ydieresis" horiz-adv-x="602" d="M232 734Q209 734 193 750T176 789Q176 812 192 828T232 844Q255 844 271 828T288 789Q288 767 272 751T232 734ZM438 734Q415 734 399 750T382 789Q382 812 398 828T438 844Q461 844 477
828T494 789Q494 767 478 751T438 734ZM181 18L229 27Q238 29 244 31T253 40T258 57T260 87V280L94 579Q81 603 72 619T55 644T39 659T21 668L-4 675V693H255V675L230 669Q207 664 198 656T189 633Q189 614 208 579L343 324H347L464 579Q473 598 476 609T479 631Q479
645 471 654T440 668L409 675V693H606V675L584 668Q572 664 563 659T544 642T525 613T501 565L367 288V87Q367 68 368 57T372 40T382 32T398 27L446 18V0H181V18Z" />
<glyph unicode="&#x179;" glyph-name="Zacute" horiz-adv-x="550" d="M186 738L352 846Q371 858 387 858Q405 858 417 845T429 812Q429 797 420 786T388 769L191 724L186 738ZM25 31L409 655V659H344Q283 659 246 658T187 652T154 638T132 614Q117 591 106 565T79
501H57L67 693H527V662L146 38V34H209Q274 34 314 35T379 42T417 55T440 77Q455 98 468 127T502 208H526L513 0H25V31Z" />
<glyph unicode="&#x17a;" glyph-name="zacute" horiz-adv-x="457" d="M20 23L320 476V480H229Q199 480 181 479T152 474T134 465T121 450Q113 439 106 429T93 407T81 383T66 354H48L55 509H440V488L138 33V29H218Q258 29 282 31T322 37T345 50T361 70Q378 96 390
118T412 166H431L420 0H20V23ZM151 593L308 713Q327 728 346 728Q363 728 375 715T387 685Q387 672 379 659T350 639L157 579L151 593Z" />
<glyph unicode="&#x17b;" glyph-name="Zdotaccent" horiz-adv-x="550" d="M298 731Q275 731 259 747T242 786Q242 809 258 825T298 841Q321 841 337 825T354 786Q354 764 338 748T298 731ZM25 31L409 655V659H344Q283 659 246 658T187 652T154 638T132 614Q117
591 106 565T79 501H57L67 693H527V662L146 38V34H209Q274 34 314 35T379 42T417 55T440 77Q455 98 468 127T502 208H526L513 0H25V31Z" />
<glyph unicode="&#x17c;" glyph-name="zdotaccent" horiz-adv-x="457" d="M20 23L320 476V480H229Q199 480 181 479T152 474T134 465T121 450Q113 439 106 429T93 407T81 383T66 354H48L55 509H440V488L138 33V29H218Q258 29 282 31T322 37T345 50T361 70Q378
96 390 118T412 166H431L420 0H20V23ZM501 586Q478 586 462 602T445 641Q445 664 461 680T501 696Q524 696 540 680T557 641Q557 619 541 603T501 586Z" />
<glyph unicode="&#x17d;" glyph-name="Zcaron" horiz-adv-x="550" d="M157 850L165 861L298 802L431 861L439 850L316 725H281L157 850ZM25 31L409 655V659H344Q283 659 246 658T187 652T154 638T132 614Q117 591 106 565T79 501H57L67 693H527V662L146 38V34H209Q274
34 314 35T379 42T417 55T440 77Q455 98 468 127T502 208H526L513 0H25V31Z" />
<glyph unicode="&#x17e;" glyph-name="zcaron" horiz-adv-x="457" d="M20 23L320 476V480H229Q199 480 181 479T152 474T134 465T121 450Q113 439 106 429T93 407T81 383T66 354H48L55 509H440V488L138 33V29H218Q258 29 282 31T322 37T345 50T361 70Q378 96 390
118T412 166H431L420 0H20V23ZM360 716L368 727L501 657L634 727L642 716L519 580H484L360 716Z" />
<glyph unicode="&#x192;" glyph-name="florin" horiz-adv-x="412" d="M36 389H121L138 507Q145 558 164 595T209 655T268 690T336 702Q394 702 419 680T445 632Q445 609 432 596T396 582Q374 582 363 593T345 640Q341 662 337 667T318 672Q306 672 296 668T276
652T260 618T247 561L222 389H329V356H217L168 23Q159 -37 142 -78T101 -146T49 -184T-9 -196Q-58 -196 -82 -177T-106 -131Q-106 -114 -94 -103T-63 -91Q-45 -91 -35 -101T-19 -134Q-13 -157 -9 -163T4 -169Q22 -169 33 -153T51 -90L116 356H36V389Z" />
<glyph unicode="&#x1fa;" glyph-name="Aringacute" horiz-adv-x="640" d="M204 927L370 1035Q389 1047 405 1047Q423 1047 435 1034T447 1001Q447 986 438 975T406 958L209 913L204 927ZM317 720Q278 720 252 746T226 809Q226 847 252 873T317 899Q356 899 382
873T408 809Q408 773 382 747T317 720ZM317 749Q343 749 358 766T374 809Q374 836 359 853T317 870Q291 870 276 853T260 809Q260 783 275 766T317 749ZM-4 18L25 25Q35 28 42 32T57 46T71 76T91 128L290 693H345L554 117Q564 90 571 74T586 47T600 33T617 25L644
18V0H389V18L417 25Q437 30 444 38T451 59Q451 70 447 88T435 126L393 245H173L134 126Q127 106 125 91T122 64Q122 32 157 25L190 18V0H-4V18ZM184 278H382L283 560H278L184 278Z" />
<glyph unicode="&#x1fb;" glyph-name="aringacute" horiz-adv-x="490" d="M126 790L292 898Q311 910 327 910Q345 910 357 897T369 864Q369 849 360 838T328 821L131 776L126 790ZM171 -13Q102 -13 62 21T22 120Q22 151 35 173T69 211T115 236T165 252L308 286V389Q308
414 305 434T293 467T265 488T215 495Q183 495 171 487T156 456Q154 442 152 431T144 410T129 396T103 391Q74 391 62 406T50 440Q50 463 67 479T112 506T171 520T235 525Q324 525 365 493T406 395V87Q406 49 432 35Q440 30 452 29T480 26V11Q469 3 445 -4T394
-12Q356 -12 337 4T312 46H307Q289 21 252 4T171 -13ZM213 36Q248 36 272 50T308 83V245L232 237Q183 232 153 208T122 128Q122 84 146 60T213 36ZM238 575Q199 575 173 601T147 664Q147 702 173 728T238 754Q277 754 303 728T329 664Q329 628 303 602T238 575ZM238
604Q264 604 279 621T295 664Q295 691 280 708T238 725Q212 725 197 708T181 664Q181 638 196 621T238 604Z" />
<glyph unicode="&#x1fc;" glyph-name="AEacute" horiz-adv-x="898" d="M517 738L683 846Q702 858 718 858Q736 858 748 845T760 812Q760 797 751 786T719 769L522 724L517 738ZM-4 18L25 25Q35 28 44 32T63 46T86 76T118 128L416 655Q404 663 391 666L344 675V693H836L848
516H826Q810 553 799 575T779 610Q768 626 759 635T735 650T700 657T645 659Q597 659 573 657T534 650V377H579Q607 377 627 378T661 382T683 392T697 409Q705 426 711 444T722 487H744V233H722Q716 258 711 274T697 311Q692 322 685 328T666 338T633 342T579 343H534V152Q534
112 536 89T551 53T587 38T654 34Q688 34 709 35T745 42T768 57T789 81Q800 97 816 132T847 209H871L856 0H353V18L398 27Q407 28 412 31T422 40T427 57T429 87V233H222L164 126Q137 76 137 54Q137 31 165 25L198 18V0H-4V18ZM240 266H429V610H426L240 266Z" />
<glyph unicode="&#x1fd;" glyph-name="aeacute" horiz-adv-x="760" d="M535 -12Q468 -12 422 11T349 77Q317 35 276 11T171 -13Q102 -13 62 21T22 120Q22 151 35 175T68 216T113 245T165 262L306 294V389Q306 414 303 434T291 467T263 488T213 495Q181 495 169
487T154 456Q152 442 150 431T142 410T127 396T101 391Q72 391 60 406T48 440Q48 463 65 479T110 506T169 520T233 525Q296 525 331 507T381 456Q409 489 448 507T535 525Q581 525 618 512T680 467T718 387T732 268H404Q406 149 449 98T567 47Q623 47 658 61T722
89V61Q712 53 695 41T654 17T600 -3T535 -12ZM213 36Q248 36 278 52T333 108Q306 169 306 255L232 247Q183 242 153 214T122 128Q122 84 146 60T213 36ZM531 495Q474 495 441 448T404 298L622 310Q622 358 619 392T605 450T577 484T531 495ZM285 593L442 713Q461
728 480 728Q497 728 509 715T521 685Q521 672 513 659T484 639L291 579L285 593Z" />
<glyph unicode="&#x1fe;" glyph-name="Oslashacute" horiz-adv-x="690" d="M233 738L399 846Q418 858 434 858Q452 858 464 845T476 812Q476 797 467 786T435 769L238 724L233 738ZM145 54Q93 98 63 168T33 337Q33 434 59 503T130 618T232 684T350 705Q395 705
436 694T512 660L555 730H597L541 639Q595 594 626 522T657 351Q657 254 631 185T560 73T458 9T340 -12Q294 -12 252 -1T175 33L116 -64H74L145 54ZM348 24Q450 24 497 98T545 334Q545 406 535 467T502 574L207 86Q231 57 265 41T348 24ZM145 354Q145 283 153 224T185
120L481 608Q457 637 423 653T341 669Q239 669 192 592T145 354Z" />
<glyph unicode="&#x1ff;" glyph-name="oslashacute" horiz-adv-x="552" d="M122 34Q78 67 53 122T28 255Q28 321 48 371T103 455T183 507T276 525Q346 525 402 496L445 568H485L430 478Q474 446 499 392T524 261Q524 195 503 144T448 58T369 5T276 -13Q207 -13
151 16L103 -64H63L122 34ZM136 269Q136 151 159 95L375 452Q358 476 332 485T273 495Q206 495 171 442T136 269ZM280 17Q347 17 381 72T416 247Q416 305 411 346T394 417L178 60Q196 36 221 27T280 17ZM183 593L340 713Q359 728 378 728Q395 728 407 715T419 685Q419
672 411 659T382 639L189 579L183 593Z" />
<glyph unicode="&#x218;" glyph-name="Scommaaccent" horiz-adv-x="506" d="M232 -13Q172 -13 122 -3T40 22L29 204H53Q67 169 80 139T114 78Q133 47 162 35T244 23Q318 23 350 57T383 148Q383 175 375 195T347 235T296 272T218 311Q173 332 140 352T85 397T53
450T42 517Q42 557 57 591T101 651T170 691T260 706Q320 706 359 699T422 684L434 520H411Q403 540 397 554T384 580T372 600T359 621Q350 634 341 643T320 659T291 667T249 670Q189 670 156 643T122 560Q122 535 128 516T150 480T193 446T262 410Q317 385 356
362T421 314T458 263T470 204Q470 159 455 119T410 50T336 4T232 -13ZM169 -229Q214 -212 229 -191T245 -144Q242 -146 236 -148T222 -151Q199 -151 187 -138T174 -105Q174 -86 190 -72T229 -57Q257 -57 275 -74T294 -127Q294 -167 266 -199T175 -245L169 -229Z"
/>
<glyph unicode="&#x219;" glyph-name="scommaaccent" horiz-adv-x="407" d="M181 -12Q139 -12 101 -6T32 12L29 159H49Q61 130 73 109T101 63Q109 50 116 42T134 28T157 20T191 18Q236 18 265 41T295 107Q295 148 267 172T177 221Q145 234 119 248T73 281T43 323T32
375Q32 410 46 437T86 484T144 514T217 525Q258 525 288 520T345 504L349 377H331Q319 403 307 422T281 461Q263 484 246 489T205 495Q156 495 133 475T109 417Q109 383 136 357T226 306Q261 292 289 278T337 245T368 205T379 154Q379 119 366 89T327 36T264 1T181
-12ZM125 -229Q170 -212 185 -191T201 -144Q198 -146 192 -148T178 -151Q155 -151 143 -138T130 -105Q130 -86 146 -72T185 -57Q213 -57 231 -74T250 -127Q250 -167 222 -199T131 -245L125 -229Z" />
<glyph unicode="&#x21a;" glyph-name="uni021A" horiz-adv-x="597" d="M166 18L214 27Q223 29 229 31T238 40T243 57T245 87V661H226Q188 661 166 660T130 653T107 637T87 606Q79 593 74 581T63 556T52 528T40 491H16L25 693H572L581 491H557Q550 512 545 527T534
556T523 581T510 606Q499 625 490 636T467 653T431 659T371 661H352V87Q352 68 353 57T357 40T367 32T383 27L431 18V0H166V18ZM226 -229Q271 -212 286 -191T302 -144Q299 -146 293 -148T279 -151Q256 -151 244 -138T231 -105Q231 -86 247 -72T286 -57Q314 -57
332 -74T351 -127Q351 -167 323 -199T232 -245L226 -229Z" />
<glyph unicode="&#x21b;" glyph-name="uni021B" horiz-adv-x="323" d="M187 -12Q164 -12 144 -7T108 12T83 44T74 93V468H5V485Q108 517 148 629H172V509H312L302 468H172V103Q172 41 238 41Q260 41 280 45T316 54V34Q309 29 298 21T270 6T233 -7T187 -12ZM107
-229Q152 -212 167 -191T183 -144Q180 -146 174 -148T160 -151Q137 -151 125 -138T112 -105Q112 -86 128 -72T167 -57Q195 -57 213 -74T232 -127Q232 -167 204 -199T113 -245L107 -229Z" />
<glyph unicode="&#x237;" glyph-name="uni0237" horiz-adv-x="256" d="M6 -208Q-40 -208 -61 -189T-82 -143Q-82 -124 -69 -112T-33 -99Q-4 -99 6 -113T18 -144Q21 -167 24 -172T36 -178Q59 -178 72 -161T86 -107V415Q86 430 85 438T81 452T72 461T57 469L20 488V502L181
523L188 519Q187 506 186 491Q185 478 185 461T184 425V-2Q184 -59 170 -98T132 -161T76 -197T6 -208Z" />
<glyph unicode="&#x2c6;" glyph-name="circumflex" horiz-adv-x="500" d="M109 587L232 723H267L391 587L383 576L250 646L117 576L109 587Z" />
<glyph unicode="&#x2c7;" glyph-name="caron" horiz-adv-x="500" d="M109 716L117 727L250 657L383 727L391 716L268 580H233L109 716Z" />
<glyph unicode="&#x2d8;" glyph-name="breve" horiz-adv-x="500" d="M251 576Q225 576 205 587T169 618T145 660T135 708L150 710Q161 682 185 662T250 642Q290 642 314 662T350 710L365 708Q363 684 355 661T332 618T297 588T251 576Z" />
<glyph unicode="&#x2d9;" glyph-name="dotaccent" horiz-adv-x="500" d="M250 586Q227 586 211 602T194 641Q194 664 210 680T250 696Q273 696 289 680T306 641Q306 619 290 603T250 586Z" />
<glyph unicode="&#x2da;" glyph-name="ring" horiz-adv-x="500" d="M250 575Q211 575 185 601T159 664Q159 702 185 728T250 754Q289 754 315 728T341 664Q341 628 315 602T250 575ZM250 604Q276 604 291 621T307 664Q307 691 292 708T250 725Q224 725 209 708T193
664Q193 638 208 621T250 604Z" />
<glyph unicode="&#x2db;" glyph-name="ogonek" horiz-adv-x="500" d="M263 -203Q223 -203 198 -183T172 -128Q172 -107 184 -88T213 -53T250 -23T287 0H307Q283 -27 268 -55T253 -118Q253 -141 261 -150T281 -164Q291 -167 303 -168T336 -169V-185Q323 -193 305
-198T263 -203Z" />
<glyph unicode="&#x2dc;" glyph-name="tilde" horiz-adv-x="500" d="M91 580Q113 628 131 656T181 685Q198 685 219 682T262 674T304 667T341 663Q356 663 367 675T393 710L409 702Q387 654 369 626T319 597Q302 597 281 600T238 608T196 615T159 619Q144 619
133 607T107 572L91 580Z" />
<glyph unicode="&#x2dd;" glyph-name="hungarumlaut" horiz-adv-x="500" d="M125 591L218 717Q234 738 252 738Q264 738 279 727T295 698Q295 687 291 678T270 658L139 576L125 591ZM290 591L383 717Q399 738 417 738Q429 738 444 727T460 698Q460 687 456 678T435
658L304 576L290 591Z" />
</font>
</defs>
</svg>
