<?xml version="1.0" encoding="UTF-8"?>
<svg width="16px" height="16px" viewBox="0 0 16 16" version="1.1" xmlns="http://www.w3.org/2000/svg" xmlns:xlink="http://www.w3.org/1999/xlink">
    <title>arrow-down</title>
    <g id="arrow-down" stroke="none" stroke-width="1" fill="none" fill-rule="evenodd">
        <path d="M7.68138277,1.04257479 L7.75047088,1.09056811 L15.9960408,7.99604076 L7.75047088,14.9015134 C7.55266189,15.0671738 7.2614894,15.0368493 7.10011891,14.8337817 C6.95667848,14.6532771 6.9640803,14.3970428 7.10642359,14.2259817 L7.16609665,14.1661405 L13.9569592,8.47804076 L0.475067364,8.47859733 C0.214881534,8.47859733 0.00395924493,8.2547397 0.00395924493,7.97859733 C0.00395924493,7.73313744 0.170613893,7.52898896 0.390385084,7.486653 L0.475067364,7.47859733 L13.9149592,7.47804076 L7.16609665,1.82594096 C6.99026644,1.67868726 6.94739011,1.42614747 7.05336843,1.22922459 L7.10011891,1.15829982 C7.24355935,0.977795285 7.48955939,0.933779111 7.68138277,1.04257479 Z" id="Path" fill="#000000" fill-rule="nonzero" transform="translate(8.000000, 7.996041) rotate(90.000000) translate(-8.000000, -7.996041) "></path>
    </g>
</svg>