<?xml version="1.0" encoding="UTF-8"?>
<svg width="16px" height="16px" viewBox="0 0 16 16" version="1.1" xmlns="http://www.w3.org/2000/svg" xmlns:xlink="http://www.w3.org/1999/xlink">
    <title>arrow-left</title>
    <g id="arrow-left" stroke="none" stroke-width="1" fill="none" fill-rule="evenodd">
        <path d="M7.68534201,1.04653404 L7.75443012,1.09452736 L16,8 L7.75443012,14.9054726 C7.55662114,15.0711331 7.26544865,15.0408085 7.10407816,14.8377409 C6.96063773,14.6572364 6.96803955,14.4010021 7.11038284,14.229941 L7.17005589,14.1700998 L13.9609185,8.482 L0.479026609,8.48255657 C0.218840779,8.48255657 0.00791848986,8.25869895 0.00791848986,7.98255657 C0.00791848986,7.73709668 0.174573138,7.5329482 0.394344329,7.49061224 L0.479026609,7.48255657 L13.9189185,7.482 L7.17005589,1.82990021 C6.99422569,1.68264651 6.95134935,1.43010672 7.05732767,1.23318384 L7.10407816,1.16225907 C7.24751859,0.98175453 7.49351863,0.937738356 7.68534201,1.04653404 Z" id="Path" fill="#000000" fill-rule="nonzero" transform="translate(8.003959, 8.000000) scale(-1, 1) translate(-8.003959, -8.000000) "></path>
    </g>
</svg>