<?xml version="1.0" encoding="UTF-8"?>
<svg width="16px" height="16px" viewBox="0 0 16 16" version="1.1" xmlns="http://www.w3.org/2000/svg" xmlns:xlink="http://www.w3.org/1999/xlink">
    <title>arrow-up</title>
    <g id="arrow-up" stroke="none" stroke-width="1" fill="none" fill-rule="evenodd">
        <path d="M7.68138277,1.05049328 L7.75047088,1.0984866 L15.9960408,8.00395924 L7.75047088,14.9094319 C7.55266189,15.0750923 7.2614894,15.0447678 7.10011891,14.8417002 C6.95667848,14.6611956 6.9640803,14.4049613 7.10642359,14.2339002 L7.16609665,14.174059 L13.9569592,8.48595924 L0.475067364,8.48651582 C0.214881534,8.48651582 0.00395924493,8.26265819 0.00395924493,7.98651582 C0.00395924493,7.74105593 0.170613893,7.53690745 0.390385084,7.49457149 L0.475067364,7.48651582 L13.9149592,7.48595924 L7.16609665,1.83385945 C6.99026644,1.68660575 6.94739011,1.43406596 7.05336843,1.23714308 L7.10011891,1.16621831 C7.24355935,0.985713775 7.48955939,0.941697601 7.68138277,1.05049328 Z" id="Path" fill="#000000" fill-rule="nonzero" transform="translate(8.000000, 8.003959) rotate(-90.000000) translate(-8.000000, -8.003959) "></path>
    </g>
</svg>