<?xml version="1.0" standalone="no"?>
<!DOCTYPE svg PUBLIC "-//W3C//DTD SVG 20010904//EN"
 "http://www.w3.org/TR/2001/REC-SVG-20010904/DTD/svg10.dtd">
<svg version="1.0" xmlns="http://www.w3.org/2000/svg"
 width="500.000000pt" height="500.000000pt" viewBox="0 0 500.000000 500.000000"
 preserveAspectRatio="xMidYMid meet">
<metadata>
Created by potrace 1.11, written by Peter Selinger 2001-2013
</metadata>
<g transform="translate(0.000000,500.000000) scale(0.100000,-0.100000)"
fill="#000000" stroke="none">
<path d="M0 2500 l0 -2500 2500 0 2500 0 0 2500 0 2500 -2500 0 -2500 0 0
-2500z m1750 1535 c42 -22 60 -53 60 -106 0 -36 -6 -55 -26 -78 -73 -88 -214
-38 -214 75 0 56 12 79 53 104 38 24 87 26 127 5z m589 -706 c20 -11 48 -36
61 -56 23 -33 25 -48 30 -172 l5 -136 34 50 c60 86 113 145 176 192 296 225
715 178 971 -107 239 -266 302 -696 149 -1017 -110 -232 -305 -396 -532 -447
-93 -21 -262 -21 -356 0 -153 34 -307 141 -403 280 l-39 56 -5 -404 -5 -405
-25 -36 c-28 -41 -86 -77 -124 -77 -36 0 -76 41 -76 78 0 27 14 48 59 84 l21
18 0 970 0 970 -21 18 c-67 54 -77 95 -34 137 30 30 65 32 114 4z m-509 -11
c33 -35 26 -75 -20 -118 l-40 -37 0 -879 c0 -934 -2 -959 -48 -1050 -51 -100
-164 -169 -292 -180 -67 -6 -78 -4 -102 16 -61 48 -19 120 71 120 53 0 116 27
148 61 12 13 32 47 45 74 l23 50 5 925 5 925 24 39 c46 73 137 101 181 54z"/>
<path d="M2990 3190 c-347 -45 -595 -411 -550 -812 20 -178 85 -315 205 -435
184 -181 452 -223 694 -108 153 73 288 249 337 440 27 105 25 285 -4 394 -52
193 -164 354 -309 445 -96 59 -254 92 -373 76z"/>
</g>
</svg>
