<svg width="32" height="32" viewBox="0 0 32 32" fill="none" xmlns="http://www.w3.org/2000/svg"><g clip-path="url(#a)"><path fill="#fff" d="M0 0h32v32H0z"/><circle cx="4" cy="28" r="4" fill="currentColor"/><path fill-rule="evenodd" clip-rule="evenodd" d="M15.967 32c.022-.33.033-.664.033-1 0-8.284-6.716-15-15-15-.336 0-.67.011-1 .033v2.005C.33 18.013.664 18 1 18c7.18 0 13 5.82 13 13 0 .337-.013.67-.038 1h2.005Z" fill="currentColor"/><path fill-rule="evenodd" clip-rule="evenodd" d="M23.91 32c.06-.659.09-1.326.09-2C24 17.85 14.15 8 2 8c-.674 0-1.341.03-2 .09v2.009A20.212 20.212 0 0 1 2 10c11.046 0 20 8.954 20 20 0 .675-.033 1.342-.099 2h2.01Z" fill="currentColor"/><path fill-rule="evenodd" clip-rule="evenodd" d="M29.93 32c.046-.66.07-1.328.07-2C30 14.536 17.464 2 2 2c-.672 0-1.34.024-2 .07V.066A30.449 30.449 0 0 1 2 0c16.569 0 30 13.431 30 30 0 .672-.022 1.339-.066 2H29.93Z" fill="currentColor"/></g><defs><clipPath id="a"><path fill="#fff" transform="scale(2)" d="M0 0h16v16H0z"/></clipPath></defs></svg>
