<?xml version="1.0" encoding="UTF-8" standalone="no"?>
<svg width="292px" height="72px" viewBox="0 0 292 72" version="1.1" xmlns="http://www.w3.org/2000/svg" xmlns:xlink="http://www.w3.org/1999/xlink" xmlns:sketch="http://www.bohemiancoding.com/sketch/ns">
    <!-- Generator: Sketch 3.2.2 (9983) - http://www.bohemiancoding.com/sketch -->
    <title>logo-prints</title>
    <desc>Created with Sketch.</desc>
    <defs></defs>
    <g id="assets/icons" stroke="none" stroke-width="1" fill="none" fill-rule="evenodd" sketch:type="MSPage">
        <g id="logo-prints" sketch:type="MSLayerGroup" fill="#000000">
            <path d="M1.80566802,68.4787925 L2.5951417,68.4787925 C4.09649123,68.4787925 5.28205128,67.8416604 6.1511471,67.0462642 C7.41565452,65.7740377 7.96761134,63.4686792 7.96761134,61.8765283 L7.96761134,21.7922264 C7.96761134,17.8953962 10.5755735,16.8609057 11.6815115,16.8609057 C11.6815115,16.8609057 13.5775978,16.8609057 13.5775978,18.7695849 C13.5775978,19.1676226 13.4993252,19.9623396 12.1558704,20.6789434 C11.7604588,20.9173585 11.6032389,21.3948679 11.6032389,21.7922264 L11.6032389,62.0361509 C11.6032389,65.2978868 10.6551957,67.6820377 9.07489879,69.2728302 C7.49460189,70.8636226 5.12348178,71.7398491 2.12213225,71.7398491 C1.0951417,71.7398491 0.226045884,71.1033962 0.226045884,70.0695849 C0.22537112,69.114566 0.857624831,68.4787925 1.80566802,68.4787925 L1.80566802,68.4787925 Z M9.70647773,5.88566038 C7.88933873,5.88566038 6.70310391,4.61343396 6.70310391,2.86369811 C6.70310391,1.19275472 7.88866397,0 9.70647773,0 C11.4439946,0 12.7078273,1.19275472 12.7078273,2.86301887 C12.7078273,4.61343396 11.4433198,5.88566038 9.70647773,5.88566038 L9.70647773,5.88566038 Z" id="Shape" sketch:type="MSShapeGroup"></path>
            <path d="M48.659919,50.981434 C46.0519568,56.0710189 39.9696356,58.6161509 34.8340081,58.6161509 C27.2489879,58.6161509 19.8211876,54.2411321 19.8211876,45.6527547 C19.8211876,35.3927547 28.197031,30.8587925 37.6781377,30.8587925 C41.234143,30.8587925 45.7361673,31.9720755 48.659919,33.8019623 L48.659919,29.5064151 C48.659919,27.6778868 48.4230769,25.9274717 48.1869096,25.2916981 C46.6045884,21.2352453 41.4703104,20.1226415 36.4919028,20.1226415 C33.4109312,20.1226415 29.9345479,20.7590943 26.4581646,21.633283 C26.4581646,21.633283 26.0647773,21.713434 25.8259109,21.713434 C24.8778677,21.713434 24.1680162,20.8378868 24.1680162,19.8842264 C24.1680162,18.6113208 25.668691,18.1344906 25.668691,18.1344906 C28.5128205,17.2603019 33.0168691,16.4642264 36.2550607,16.4642264 C42.5755735,16.4642264 49.3711201,18.2941132 51.5836707,24.0996226 C52.2935223,25.9288302 52.2935223,28.3951698 52.2935223,30.3038491 L52.2935223,53.2888302 C52.2935223,53.6855094 52.4520918,54.1636981 52.8481781,54.4021132 C54.1896086,55.1180377 54.2692308,55.9127547 54.2692308,56.3107925 C54.2692308,58.2201509 52.3731444,58.2201509 52.3731444,58.2201509 C51.0296896,58.2996226 48.6605938,57.1856604 48.6605938,53.2895094 L48.6605938,50.981434 L48.659919,50.981434 Z M37.4412955,34.5172075 C30.4089069,34.5172075 23.4561404,37.697434 23.4561404,45.5726038 C23.4561404,52.2536604 29.5384615,54.9563774 35.2267206,54.9563774 C41.5472335,54.9563774 48.6592443,50.1846792 48.6592443,42.9473208 L48.6592443,37.4590189 C45.4197031,35.5510189 41.9433198,34.5172075 37.4412955,34.5172075 L37.4412955,34.5172075 Z" id="Shape" sketch:type="MSShapeGroup"></path>
            <path d="M76.2388664,49.5489057 L77.8191633,54.7987925 L77.8967611,54.7987925 L79.5566802,49.5489057 L90.6180837,19.7246038 C91.2503374,18.1338113 92.6727395,16.8615849 94.5688259,16.8615849 C95.8333333,16.8615849 96.9385965,17.4980377 96.9385965,18.8504151 C96.9385965,19.8047547 96.3859649,20.5987925 95.2807018,20.5987925 C94.962888,20.5987925 94.8852901,20.52 94.648448,20.52 C94.4095816,20.52 94.3306343,20.7590943 94.1734143,21.0769811 L79.6363023,58.6168302 C78.1356275,62.5123019 76.0802969,67.682717 72.4466937,70.2278491 C70.9439946,71.3424906 69.2860999,71.7405283 67.5472335,71.7405283 C65.5735493,71.7405283 63.5182186,71.1828679 61.5425101,70.4683019 C60.8306343,70.1483774 60.437247,69.4338113 60.437247,68.6377358 C60.437247,67.6833962 61.2267206,66.8893585 62.0951417,66.8893585 C62.3340081,66.8893585 62.5701754,66.9674717 62.8070175,67.0469434 C64.2300945,67.6032453 65.8879892,68.081434 67.3900135,68.081434 C68.4156545,68.081434 69.4433198,67.8423396 70.3124157,67.206566 C73.1585695,65.1382642 74.8164642,60.6043019 75.8434548,58.2194717 L61.6221323,21.0769811 C61.4635628,20.7590943 61.3852901,20.52 61.1491228,20.52 C60.9102564,20.52 60.831309,20.5987925 60.5168691,20.5987925 C59.4095816,20.5987925 58.8569501,19.8047547 58.8569501,18.8504151 C58.8569501,17.4980377 59.9622132,16.8615849 61.2267206,16.8615849 C63.122807,16.8615849 64.5458839,18.1344906 65.1774629,19.7246038 L76.2388664,49.5489057 L76.2388664,49.5489057 Z" id="Shape" sketch:type="MSShapeGroup"></path>
            <path d="M109.507422,26.166566 C113.695682,19.0073208 119.383941,16.8609057 124.75641,16.8609057 C135.817814,16.8609057 143.481781,26.7228679 143.481781,38.0173585 C143.481781,48.8343396 135.580972,58.2181132 124.75641,58.2181132 C118.751687,58.2181132 113.931849,56.5471698 109.507422,49.7085283 L109.507422,66.8078491 C109.507422,70.7053585 106.901484,71.7398491 105.794197,71.7398491 C105.794197,71.7398491 103.898111,71.7398491 103.898111,69.8311698 C103.898111,69.4324528 103.977733,68.6363774 105.321188,67.9218113 C105.71525,67.6813585 105.873819,67.2052075 105.873819,66.8071698 L105.873819,21.7922264 C105.873819,21.3948679 105.71525,20.9166792 105.321188,20.6789434 C103.977733,19.9623396 103.898111,19.1676226 103.898111,18.7695849 C103.898111,16.8609057 105.794197,16.8609057 105.794197,16.8609057 C106.901484,16.8609057 109.507422,17.8953962 109.507422,21.7922264 L109.507422,26.166566 L109.507422,26.166566 Z M124.676788,54.5610566 C133.921053,54.5610566 139.846154,46.7653585 139.846154,38.0180377 C139.846154,29.4283019 134.079622,20.52 124.676788,20.52 C115.275304,20.52 109.507422,29.3488302 109.507422,37.4596981 L109.507422,38.0961509 C109.507422,47.0839245 115.750337,54.5610566 124.676788,54.5610566 L124.676788,54.5610566 Z" id="Shape" sketch:type="MSShapeGroup"></path>
            <path d="M153.444669,39.4485283 C154.076923,47.561434 160.159244,54.9570566 168.928475,54.9570566 C173.748313,54.9570566 178.409582,53.7649811 182.044534,50.106566 C182.439946,49.7085283 182.91363,49.4701132 183.465587,49.4701132 C184.572874,49.4701132 185.441296,50.4224151 185.441296,51.3794717 C185.441296,51.7754717 185.361673,52.3317736 184.968286,52.7298113 C180.623482,57.1836226 174.934548,58.6161509 168.928475,58.6161509 C157.551282,58.6161509 149.809042,48.6740377 149.809042,37.4596981 C149.809042,26.6433962 157.868421,16.4628679 169.007422,16.4628679 C180.148448,16.4628679 188.365047,26.7228679 188.365047,37.4596981 C188.365047,38.5743396 187.337382,39.4485283 186.311741,39.4485283 L153.444669,39.4485283 L153.444669,39.4485283 Z M184.652497,35.7901132 C183.784076,27.5977358 177.462888,20.1226415 168.92915,20.1226415 C160.475709,20.1226415 154.313765,27.6778868 153.445344,35.7901132 L184.652497,35.7901132 L184.652497,35.7901132 Z" id="Shape" sketch:type="MSShapeGroup"></path>
            <path d="M210.494602,16.8609057 C212.945344,16.8609057 215.235493,17.4973585 217.684211,18.3715472 C218.475034,18.6106415 218.870445,19.1676226 218.870445,20.0418113 C218.870445,21.4736604 217.605938,22.0306415 216.419703,21.7120755 C214.603239,21.0756226 212.62753,20.4398491 210.494602,20.4398491 C205.992578,20.4398491 200.303644,23.7002264 200.303644,29.9839245 L200.303644,53.2874717 C200.303644,57.1829434 197.696356,58.2181132 196.589069,58.2181132 C196.589069,58.2181132 194.692308,58.2181132 194.692308,56.3087547 C194.692308,55.910717 194.77193,55.116 196.115385,54.4000755 C196.510796,54.1616604 196.668016,53.6834717 196.668016,53.2867925 L196.668016,21.7922264 C196.668016,21.3948679 196.510796,20.9166792 196.115385,20.6789434 C194.77193,19.9623396 194.692308,19.1676226 194.692308,18.7695849 C194.692308,16.8609057 196.589069,16.8609057 196.589069,16.8609057 C197.696356,16.8609057 200.145074,17.8953962 200.303644,21.5531321 L200.303644,22.5876226 C202.200405,19.326566 206.624831,16.8609057 210.494602,16.8609057 L210.494602,16.8609057 Z" id="Shape" sketch:type="MSShapeGroup"></path>
            <path d="M239.809717,16.8609057 C242.258435,16.8609057 244.549933,17.4973585 247.000675,18.3715472 C247.789474,18.6106415 248.18556,19.1676226 248.18556,20.0418113 C248.18556,21.4736604 246.921053,22.0306415 245.736842,21.7120755 C243.918354,21.0756226 241.943995,20.4398491 239.809717,20.4398491 C235.305668,20.4398491 229.617409,23.7002264 229.617409,29.9839245 L229.617409,53.2874717 C229.617409,57.1829434 227.011471,58.2181132 225.904858,58.2181132 C225.904858,58.2181132 224.008772,58.2181132 224.008772,56.3087547 C224.008772,55.910717 224.088394,55.116 225.431849,54.4000755 C225.825236,54.1616604 225.98448,53.6834717 225.98448,53.2867925 L225.98448,21.7922264 C225.98448,21.3948679 225.825911,20.9166792 225.431849,20.6789434 C224.088394,19.9623396 224.008772,19.1676226 224.008772,18.7695849 C224.008772,16.8609057 225.904858,16.8609057 225.904858,16.8609057 C227.012146,16.8609057 229.460864,17.8953962 229.617409,21.5531321 L229.617409,22.5876226 C231.51417,19.326566 235.937922,16.8609057 239.809717,16.8609057 L239.809717,16.8609057 Z" id="Shape" sketch:type="MSShapeGroup"></path>
            <path d="M270.547908,49.5489057 L272.128205,54.7987925 L272.207827,54.7987925 L273.867072,49.5489057 L284.928475,19.7246038 C285.561404,18.1338113 286.982456,16.8615849 288.878543,16.8615849 C290.14305,16.8615849 291.249663,17.4980377 291.249663,18.8504151 C291.249663,19.8047547 290.697706,20.5987925 289.590418,20.5987925 C289.273954,20.5987925 289.195007,20.52 288.958165,20.52 C288.721323,20.52 288.6417,20.7590943 288.483131,21.0769811 L273.945344,58.6168302 C272.444669,62.5123019 270.391363,67.682717 266.75641,70.2278491 C265.255735,71.3424906 263.595816,71.7405283 261.858974,71.7405283 C259.882591,71.7405283 257.829285,71.1828679 255.854251,70.4683019 C255.142375,70.1483774 254.746964,69.4338113 254.746964,68.6377358 C254.746964,67.6833962 255.538462,66.8893585 256.406883,66.8893585 C256.643725,66.8893585 256.879892,66.9674717 257.118758,67.0469434 C258.539136,67.6032453 260.199055,68.081434 261.69973,68.081434 C262.727395,68.081434 263.755061,67.8423396 264.623482,67.206566 C267.468286,65.1382642 269.12753,60.6043019 270.153171,58.2194717 L255.933198,21.0769811 C255.773954,20.7590943 255.694332,20.52 255.458165,20.52 C255.221997,20.52 255.1417,20.5987925 254.825911,20.5987925 C253.718623,20.5987925 253.165992,19.8047547 253.165992,18.8504151 C253.165992,17.4980377 254.273279,16.8615849 255.537787,16.8615849 C257.433873,16.8615849 258.854926,18.1344906 259.487179,19.7246038 L270.547908,49.5489057 L270.547908,49.5489057 Z" id="Shape" sketch:type="MSShapeGroup"></path>
        </g>
    </g>
</svg>