<?xml version="1.0" encoding="UTF-8" standalone="no"?>
<svg width="500px" height="72px" viewBox="0 0 500 72" version="1.1" xmlns="http://www.w3.org/2000/svg" xmlns:xlink="http://www.w3.org/1999/xlink" xmlns:sketch="http://www.bohemiancoding.com/sketch/ns">
    <!-- Generator: Sketch 3.2.2 (9983) - http://www.bohemiancoding.com/sketch -->
    <title>logo-jpw</title>
    <desc>Created with Sketch.</desc>
    <defs></defs>
    <g id="assets/icons" stroke="none" stroke-width="1" fill="none" fill-rule="evenodd" sketch:type="MSPage">
        <g id="logo-jpw" sketch:type="MSLayerGroup">
            <path d="M1.80566802,68.4787925 L2.5951417,68.4787925 C4.09649123,68.4787925 5.28205128,67.8416604 6.1511471,67.0462642 C7.41565452,65.7740377 7.96761134,63.4686792 7.96761134,61.8765283 L7.96761134,21.7922264 C7.96761134,17.8953962 10.5755735,16.8609057 11.6815115,16.8609057 C11.6815115,16.8609057 13.5775978,16.8609057 13.5775978,18.7695849 C13.5775978,19.1676226 13.4993252,19.9623396 12.1558704,20.6789434 C11.7604588,20.9173585 11.6032389,21.3948679 11.6032389,21.7922264 L11.6032389,62.0361509 C11.6032389,65.2978868 10.6551957,67.6820377 9.07489879,69.2728302 C7.49460189,70.8636226 5.12348178,71.7398491 2.12213225,71.7398491 C1.0951417,71.7398491 0.226045884,71.1033962 0.226045884,70.0695849 C0.22537112,69.114566 0.857624831,68.4787925 1.80566802,68.4787925 L1.80566802,68.4787925 Z M9.70647773,5.88566038 C7.88933873,5.88566038 6.70310391,4.61343396 6.70310391,2.86369811 C6.70310391,1.19275472 7.88866397,0 9.70647773,0 C11.4439946,0 12.7078273,1.19275472 12.7078273,2.86301887 C12.7078273,4.61343396 11.4433198,5.88566038 9.70647773,5.88566038 L9.70647773,5.88566038 Z" id="Shape" fill="#000000" sketch:type="MSShapeGroup"></path>
            <path d="M48.659919,50.981434 C46.0519568,56.0710189 39.9696356,58.6161509 34.8340081,58.6161509 C27.2489879,58.6161509 19.8211876,54.2411321 19.8211876,45.6527547 C19.8211876,35.3927547 28.197031,30.8587925 37.6781377,30.8587925 C41.234143,30.8587925 45.7361673,31.9720755 48.659919,33.8019623 L48.659919,29.5064151 C48.659919,27.6778868 48.4230769,25.9274717 48.1869096,25.2916981 C46.6045884,21.2352453 41.4703104,20.1226415 36.4919028,20.1226415 C33.4109312,20.1226415 29.9345479,20.7590943 26.4581646,21.633283 C26.4581646,21.633283 26.0647773,21.713434 25.8259109,21.713434 C24.8778677,21.713434 24.1680162,20.8378868 24.1680162,19.8842264 C24.1680162,18.6113208 25.668691,18.1344906 25.668691,18.1344906 C28.5128205,17.2603019 33.0168691,16.4642264 36.2550607,16.4642264 C42.5755735,16.4642264 49.3711201,18.2941132 51.5836707,24.0996226 C52.2935223,25.9288302 52.2935223,28.3951698 52.2935223,30.3038491 L52.2935223,53.2888302 C52.2935223,53.6855094 52.4520918,54.1636981 52.8481781,54.4021132 C54.1896086,55.1180377 54.2692308,55.9127547 54.2692308,56.3107925 C54.2692308,58.2201509 52.3731444,58.2201509 52.3731444,58.2201509 C51.0296896,58.2996226 48.6605938,57.1856604 48.6605938,53.2895094 L48.6605938,50.981434 L48.659919,50.981434 Z M37.4412955,34.5172075 C30.4089069,34.5172075 23.4561404,37.697434 23.4561404,45.5726038 C23.4561404,52.2536604 29.5384615,54.9563774 35.2267206,54.9563774 C41.5472335,54.9563774 48.6592443,50.1846792 48.6592443,42.9473208 L48.6592443,37.4590189 C45.4197031,35.5510189 41.9433198,34.5172075 37.4412955,34.5172075 L37.4412955,34.5172075 Z" id="Shape" fill="#000000" sketch:type="MSShapeGroup"></path>
            <path d="M76.2388664,49.5489057 L77.8191633,54.7987925 L77.8967611,54.7987925 L79.5566802,49.5489057 L90.6180837,19.7246038 C91.2503374,18.1338113 92.6727395,16.8615849 94.5688259,16.8615849 C95.8333333,16.8615849 96.9385965,17.4980377 96.9385965,18.8504151 C96.9385965,19.8047547 96.3859649,20.5987925 95.2807018,20.5987925 C94.962888,20.5987925 94.8852901,20.52 94.648448,20.52 C94.4095816,20.52 94.3306343,20.7590943 94.1734143,21.0769811 L79.6363023,58.6168302 C78.1356275,62.5123019 76.0802969,67.682717 72.4466937,70.2278491 C70.9439946,71.3424906 69.2860999,71.7405283 67.5472335,71.7405283 C65.5735493,71.7405283 63.5182186,71.1828679 61.5425101,70.4683019 C60.8306343,70.1483774 60.437247,69.4338113 60.437247,68.6377358 C60.437247,67.6833962 61.2267206,66.8893585 62.0951417,66.8893585 C62.3340081,66.8893585 62.5701754,66.9674717 62.8070175,67.0469434 C64.2300945,67.6032453 65.8879892,68.081434 67.3900135,68.081434 C68.4156545,68.081434 69.4433198,67.8423396 70.3124157,67.206566 C73.1585695,65.1382642 74.8164642,60.6043019 75.8434548,58.2194717 L61.6221323,21.0769811 C61.4635628,20.7590943 61.3852901,20.52 61.1491228,20.52 C60.9102564,20.52 60.831309,20.5987925 60.5168691,20.5987925 C59.4095816,20.5987925 58.8569501,19.8047547 58.8569501,18.8504151 C58.8569501,17.4980377 59.9622132,16.8615849 61.2267206,16.8615849 C63.122807,16.8615849 64.5458839,18.1344906 65.1774629,19.7246038 L76.2388664,49.5489057 L76.2388664,49.5489057 Z" id="Shape" fill="#000000" sketch:type="MSShapeGroup"></path>
            <path d="M109.507422,26.166566 C113.695682,19.0073208 119.383941,16.8609057 124.75641,16.8609057 C135.817814,16.8609057 143.481781,26.7228679 143.481781,38.0173585 C143.481781,48.8343396 135.580972,58.2181132 124.75641,58.2181132 C118.751687,58.2181132 113.931849,56.5471698 109.507422,49.7085283 L109.507422,66.8078491 C109.507422,70.7053585 106.901484,71.7398491 105.794197,71.7398491 C105.794197,71.7398491 103.898111,71.7398491 103.898111,69.8311698 C103.898111,69.4324528 103.977733,68.6363774 105.321188,67.9218113 C105.71525,67.6813585 105.873819,67.2052075 105.873819,66.8071698 L105.873819,21.7922264 C105.873819,21.3948679 105.71525,20.9166792 105.321188,20.6789434 C103.977733,19.9623396 103.898111,19.1676226 103.898111,18.7695849 C103.898111,16.8609057 105.794197,16.8609057 105.794197,16.8609057 C106.901484,16.8609057 109.507422,17.8953962 109.507422,21.7922264 L109.507422,26.166566 L109.507422,26.166566 Z M124.676788,54.5610566 C133.921053,54.5610566 139.846154,46.7653585 139.846154,38.0180377 C139.846154,29.4283019 134.079622,20.52 124.676788,20.52 C115.275304,20.52 109.507422,29.3488302 109.507422,37.4596981 L109.507422,38.0961509 C109.507422,47.0839245 115.750337,54.5610566 124.676788,54.5610566 L124.676788,54.5610566 Z" id="Shape" fill="#000000" sketch:type="MSShapeGroup"></path>
            <path d="M153.444669,39.4485283 C154.076923,47.561434 160.159244,54.9570566 168.928475,54.9570566 C173.748313,54.9570566 178.409582,53.7649811 182.044534,50.106566 C182.439946,49.7085283 182.91363,49.4701132 183.465587,49.4701132 C184.572874,49.4701132 185.441296,50.4224151 185.441296,51.3794717 C185.441296,51.7754717 185.361673,52.3317736 184.968286,52.7298113 C180.623482,57.1836226 174.934548,58.6161509 168.928475,58.6161509 C157.551282,58.6161509 149.809042,48.6740377 149.809042,37.4596981 C149.809042,26.6433962 157.868421,16.4628679 169.007422,16.4628679 C180.148448,16.4628679 188.365047,26.7228679 188.365047,37.4596981 C188.365047,38.5743396 187.337382,39.4485283 186.311741,39.4485283 L153.444669,39.4485283 L153.444669,39.4485283 Z M184.652497,35.7901132 C183.784076,27.5977358 177.462888,20.1226415 168.92915,20.1226415 C160.475709,20.1226415 154.313765,27.6778868 153.445344,35.7901132 L184.652497,35.7901132 L184.652497,35.7901132 Z" id="Shape" fill="#000000" sketch:type="MSShapeGroup"></path>
            <path d="M210.494602,16.8609057 C212.945344,16.8609057 215.235493,17.4973585 217.684211,18.3715472 C218.475034,18.6106415 218.870445,19.1676226 218.870445,20.0418113 C218.870445,21.4736604 217.605938,22.0306415 216.419703,21.7120755 C214.603239,21.0756226 212.62753,20.4398491 210.494602,20.4398491 C205.992578,20.4398491 200.303644,23.7002264 200.303644,29.9839245 L200.303644,53.2874717 C200.303644,57.1829434 197.696356,58.2181132 196.589069,58.2181132 C196.589069,58.2181132 194.692308,58.2181132 194.692308,56.3087547 C194.692308,55.910717 194.77193,55.116 196.115385,54.4000755 C196.510796,54.1616604 196.668016,53.6834717 196.668016,53.2867925 L196.668016,21.7922264 C196.668016,21.3948679 196.510796,20.9166792 196.115385,20.6789434 C194.77193,19.9623396 194.692308,19.1676226 194.692308,18.7695849 C194.692308,16.8609057 196.589069,16.8609057 196.589069,16.8609057 C197.696356,16.8609057 200.145074,17.8953962 200.303644,21.5531321 L200.303644,22.5876226 C202.200405,19.326566 206.624831,16.8609057 210.494602,16.8609057 L210.494602,16.8609057 Z" id="Shape" fill="#000000" sketch:type="MSShapeGroup"></path>
            <path d="M239.809717,16.8609057 C242.258435,16.8609057 244.549933,17.4973585 247.000675,18.3715472 C247.789474,18.6106415 248.18556,19.1676226 248.18556,20.0418113 C248.18556,21.4736604 246.921053,22.0306415 245.736842,21.7120755 C243.918354,21.0756226 241.943995,20.4398491 239.809717,20.4398491 C235.305668,20.4398491 229.617409,23.7002264 229.617409,29.9839245 L229.617409,53.2874717 C229.617409,57.1829434 227.011471,58.2181132 225.904858,58.2181132 C225.904858,58.2181132 224.008772,58.2181132 224.008772,56.3087547 C224.008772,55.910717 224.088394,55.116 225.431849,54.4000755 C225.825236,54.1616604 225.98448,53.6834717 225.98448,53.2867925 L225.98448,21.7922264 C225.98448,21.3948679 225.825911,20.9166792 225.431849,20.6789434 C224.088394,19.9623396 224.008772,19.1676226 224.008772,18.7695849 C224.008772,16.8609057 225.904858,16.8609057 225.904858,16.8609057 C227.012146,16.8609057 229.460864,17.8953962 229.617409,21.5531321 L229.617409,22.5876226 C231.51417,19.326566 235.937922,16.8609057 239.809717,16.8609057 L239.809717,16.8609057 Z" id="Shape" fill="#000000" sketch:type="MSShapeGroup"></path>
            <path d="M270.547908,49.5489057 L272.128205,54.7987925 L272.207827,54.7987925 L273.867072,49.5489057 L284.928475,19.7246038 C285.561404,18.1338113 286.982456,16.8615849 288.878543,16.8615849 C290.14305,16.8615849 291.249663,17.4980377 291.249663,18.8504151 C291.249663,19.8047547 290.697706,20.5987925 289.590418,20.5987925 C289.273954,20.5987925 289.195007,20.52 288.958165,20.52 C288.721323,20.52 288.6417,20.7590943 288.483131,21.0769811 L273.945344,58.6168302 C272.444669,62.5123019 270.391363,67.682717 266.75641,70.2278491 C265.255735,71.3424906 263.595816,71.7405283 261.858974,71.7405283 C259.882591,71.7405283 257.829285,71.1828679 255.854251,70.4683019 C255.142375,70.1483774 254.746964,69.4338113 254.746964,68.6377358 C254.746964,67.6833962 255.538462,66.8893585 256.406883,66.8893585 C256.643725,66.8893585 256.879892,66.9674717 257.118758,67.0469434 C258.539136,67.6032453 260.199055,68.081434 261.69973,68.081434 C262.727395,68.081434 263.755061,67.8423396 264.623482,67.206566 C267.468286,65.1382642 269.12753,60.6043019 270.153171,58.2194717 L255.933198,21.0769811 C255.773954,20.7590943 255.694332,20.52 255.458165,20.52 C255.221997,20.52 255.1417,20.5987925 254.825911,20.5987925 C253.718623,20.5987925 253.165992,19.8047547 253.165992,18.8504151 C253.165992,17.4980377 254.273279,16.8615849 255.537787,16.8615849 C257.433873,16.8615849 258.854926,18.1344906 259.487179,19.7246038 L270.547908,49.5489057 L270.547908,49.5489057 Z" id="Shape" fill="#000000" sketch:type="MSShapeGroup"></path>
            <path d="M342.454116,56.9458868 C342.295547,57.6618113 341.583671,58.2181132 340.871795,58.2181132 C340.082321,58.2181132 339.37112,57.7419623 339.134953,56.9458868 L328.153171,23.7009057 L317.17139,56.9458868 C316.933198,57.7419623 316.221997,58.2181132 315.432524,58.2181132 C314.721323,58.2181132 314.011471,57.6618113 313.852227,56.9458868 L300.815789,21.314717 C300.659244,20.9968302 300.5,20.5193208 300.105938,20.5193208 C299.788124,20.5193208 299.788124,20.5981132 299.473684,20.5981132 C298.446019,20.5981132 297.813765,19.8828679 297.813765,18.8497358 C297.813765,17.6563019 298.919703,16.8609057 300.025641,16.8609057 C302.002024,16.8609057 303.422402,18.1338113 304.055331,19.8040755 L314.010796,47.7998491 L315.352901,52.4112453 L316.616734,47.7998491 L326.414305,18.1331321 C326.652497,17.3377358 327.441296,16.8602264 328.153171,16.8602264 C328.863023,16.8602264 329.654521,17.3377358 329.890013,18.1331321 L339.687584,47.7998491 L340.952092,52.4112453 L342.295547,47.7998491 L352.249663,19.8040755 C352.881916,18.1338113 354.304318,16.8609057 356.280702,16.8609057 C357.385965,16.8609057 358.492578,17.6563019 358.492578,18.8497358 C358.492578,19.8828679 357.860324,20.5981132 356.832659,20.5981132 C356.516869,20.5981132 356.516869,20.5193208 356.200405,20.5193208 C355.804993,20.5193208 355.647773,20.9968302 355.488529,21.314717 L342.454116,56.9458868 L342.454116,56.9458868 Z" id="Shape" fill="#343232" sketch:type="MSShapeGroup"></path>
            <path d="M358.894062,37.6193208 C358.894062,26.0069434 368.298246,16.4628679 379.831984,16.4628679 C391.368421,16.4628679 400.690283,26.0069434 400.690283,37.6193208 C400.690283,49.2303396 391.368421,58.6161509 379.831984,58.6161509 C368.297571,58.6161509 358.894062,49.2303396 358.894062,37.6193208 L358.894062,37.6193208 Z M362.52969,37.6193208 C362.52969,47.1633962 370.351552,54.9563774 379.832659,54.9563774 C389.313765,54.9563774 397.05668,47.162717 397.05668,37.6193208 C397.05668,28.0759245 389.31309,20.1219623 379.832659,20.1219623 C370.352227,20.1219623 362.52969,28.0752453 362.52969,37.6193208 L362.52969,37.6193208 Z" id="Shape" fill="#343232" sketch:type="MSShapeGroup"></path>
            <path d="M422.821188,16.8609057 C425.269906,16.8609057 427.561404,17.4973585 430.010121,18.3715472 C430.800945,18.6106415 431.195007,19.1676226 431.195007,20.0418113 C431.195007,21.4736604 429.931174,22.0306415 428.746289,21.7120755 C426.929825,21.0756226 424.953441,20.4398491 422.821188,20.4398491 C418.317139,20.4398491 412.62888,23.7002264 412.62888,29.9839245 L412.62888,53.2874717 C412.62888,57.1829434 410.021592,58.2181132 408.915655,58.2181132 C408.915655,58.2181132 407.019568,58.2181132 407.019568,56.3087547 C407.019568,55.910717 407.097166,55.116 408.440621,54.4000755 C408.836032,54.1616604 408.992578,53.6834717 408.992578,53.2867925 L408.992578,21.7922264 C408.992578,21.3948679 408.836032,20.9166792 408.440621,20.6789434 C407.097166,19.9623396 407.019568,19.1676226 407.019568,18.7695849 C407.019568,16.8609057 408.915655,16.8609057 408.915655,16.8609057 C410.021592,16.8609057 412.472335,17.8953962 412.62888,21.5531321 L412.62888,22.5876226 C414.524966,19.326566 418.949393,16.8609057 422.821188,16.8609057 L422.821188,16.8609057 Z" id="Shape" fill="#343232" sketch:type="MSShapeGroup"></path>
            <path d="M441.943995,36.4252075 L441.707152,40.6406038 L445.419703,36.7451321 L461.064777,20.9968302 C461.458839,20.5987925 461.617409,20.2802264 461.617409,20.0424906 C461.617409,19.5649811 461.221997,19.4861887 461.221997,18.6901132 C461.221997,17.5775094 462.010796,16.8615849 462.960864,16.8615849 C464.461538,16.8615849 465.489204,17.9748679 465.489204,19.8047547 C465.489204,21.2352453 464.539136,22.6677736 463.592443,23.6227925 L450.556005,36.8246038 L463.512821,53.7656604 C463.906883,54.2418113 464.224696,54.4021132 464.460864,54.4021132 C465.093117,54.4021132 465.093117,54.1636981 465.645749,54.1636981 C466.753036,54.1636981 467.304993,55.0378868 467.304993,55.9120755 C467.304993,57.3446038 465.724696,58.2187925 464.538462,58.2187925 C462.564103,58.2187925 461.537112,57.1061887 460.668691,55.9120755 L447.868421,39.4492075 L441.94332,45.4136604 L441.94332,53.2888302 C441.94332,57.1843019 439.335358,58.2194717 438.230094,58.2194717 C438.230094,58.2194717 436.334008,58.2194717 436.334008,56.3101132 C436.334008,55.9120755 436.412955,55.1173585 437.754386,54.401434 C438.149798,54.1630189 438.309042,53.6848302 438.309042,53.2881509 L438.309042,4.93132075 C438.309042,4.53396226 438.149798,4.05577358 437.754386,3.81803774 C436.412955,3.10143396 436.334008,2.30739623 436.334008,1.90867925 C436.334008,0 438.230094,0 438.230094,0 C439.335358,0 441.94332,1.03449057 441.94332,4.93132075 L441.94332,36.4252075 L441.943995,36.4252075 Z" id="Shape" fill="#343232" sketch:type="MSShapeGroup"></path>
            <path d="M485.247638,58.6161509 C481.218623,58.6161509 476.951417,57.3439245 473.633603,54.9563774 C471.737517,53.604 473.633603,50.4224151 476.082321,52.1728302 C478.610661,54.0013585 482.007422,55.0365283 485.563428,55.0365283 C491.252362,55.0365283 496.22942,52.1728302 496.22942,48.276 C496.22942,43.3453585 490.147099,41.3565283 485.722672,39.6061132 C480.507422,37.5391698 472.686235,34.1986415 472.686235,27.2791698 C472.686235,21.0763019 479.164642,16.4628679 486.275978,16.4628679 C490.541161,16.4628679 494.493252,17.8953962 497.337382,20.201434 C499.47031,22.0313208 496.94197,24.6552453 495.125506,23.1439245 C492.754386,21.1557736 489.516869,20.1226415 486.276653,20.1226415 C480.904184,20.1226415 476.320513,23.3042264 476.320513,27.36 C476.320513,32.4502642 484.696356,35.1543396 488.17274,36.5053585 C493.149798,38.4941887 499.94332,41.7552453 499.94332,48.2766792 C499.94197,55.833283 491.410931,58.6161509 485.247638,58.6161509 L485.247638,58.6161509 Z" id="Shape" fill="#343232" sketch:type="MSShapeGroup"></path>
        </g>
    </g>
</svg>