<?xml version="1.0" encoding="UTF-8"?><!DOCTYPE svg PUBLIC "-//W3C//DTD SVG 1.1//EN" "http://www.w3.org/Graphics/SVG/1.1/DTD/svg11.dtd"><svg xmlns="http://www.w3.org/2000/svg" style="display:none"><symbol id="arrow-down" viewBox="0 0 20 13"><title>arrow-down</title><g fill-rule="evenodd"><path d="M8.75 9.13h2.12l-8-8C2.287.542 1.337.542.75 1.13c-.586.584-.586 1.534 0 2.12l8 8 1.06 1.06 1.06-1.06 8-8c.587-.586.587-1.536 0-2.12-.584-.587-1.534-.587-2.12 0l-8 8z"/></g></symbol><symbol id="arrow-left" viewBox="0 0 12 19"><title>arrow-left</title><g fill-rule="evenodd"><path d="M3.182 8.44v2.12l8-8c.586-.585.586-1.535 0-2.12-.586-.586-1.536-.586-2.12 0l-8 8L0 9.5l1.06 1.06 8 8c.586.586 1.536.586 2.122 0 .586-.585.586-1.535 0-2.12l-8-8z"/></g></symbol><symbol id="arrow-right" viewBox="0 0 12 19"><title>arrow-right</title><g fill-rule="evenodd"><path d="M8.44 10.56V8.44l-8 8c-.586.585-.586 1.535 0 2.12.585.586 1.535.586 2.12 0l8-8 1.06-1.06-1.06-1.06-8-8C1.976-.147 1.026-.147.44.44c-.586.585-.586 1.535 0 2.12l8 8z"/></g></symbol><symbol id="arrow-up" viewBox="0 0 19 13"><title>arrow-up</title><g fill-rule="evenodd"><path d="M10.56 3.87H8.44l8 8c.585.587 1.535.587 2.12 0 .586-.584.586-1.534 0-2.12l-8-8L9.5.69 8.44 1.75l-8 8c-.586.586-.586 1.536 0 2.12.585.587 1.535.587 2.12 0l8-8z"/></g></symbol><symbol id="edition-hand_pulled" viewBox="0 0 29 31"><title>edition-hand_pulled</title><g fill-rule="evenodd"><g class="edition"><rect class="edition-bg" stroke-width="2" width="28.786" height="30.24" rx="2"/><path class="edition-type" d="M19.18 10.9h-3.406v1c.312.04.624.066.923.08v2.833h-4.355V11.98c.286-.014.585-.04.897-.08v-1H9.82v1c.377.04.74.08 1.105.092v6.916c-.35.026-.728.052-1.105.09V20h3.42v-1c-.313-.04-.612-.066-.898-.08v-2.924h4.355v2.925c-.3.014-.61.04-.923.08v1h3.406v-1c-.364-.04-.728-.066-1.08-.092v-6.916c.352-.013.716-.052 1.08-.09V10.9z"/></g></g></symbol><symbol id="edition-large" viewBox="0 0 29 31"><title>edition-large</title><g fill-rule="evenodd"><g class="edition"><rect class="edition-bg" stroke-width="2" width="28.786" height="30.24" rx="2"/><path class="edition-type" d="M18.069 20l-.002-2.64h-.95l-.167 1.51h-3.56l-.002-6.865c.417-.013.82-.04 1.223-.104v-1h-3.704v1c.364.04.714.066 1.066.092v6.916c-.208.013-.52.04-1.04.09V20h7.136z"/></g></g></symbol><symbol id="edition-medium" viewBox="0 0 29 31"><title>edition-medium</title><g fill-rule="evenodd"><g class="edition"><rect class="edition-bg" stroke-width="2" width="28.786" height="30.24" rx="2"/><path class="edition-type" d="M20.233 10.9H17.23l-2.82 6.98h-.027l-2.678-6.98H8.767v1c.52.066.884.092 1.105.105v6.903c-.338.013-.69.052-1.08.09V20h3.368v-1c-.338-.04-.637-.066-.95-.092v-6.28L13.89 20h.948l2.912-7.37v6.29c-.286.014-.572.04-.884.08v1h3.34v-1c-.376-.04-.727-.08-1.09-.092v-6.903c.246-.013.61-.052 1.117-.104v-1z"/></g></g></symbol><symbol id="edition-small" viewBox="0 0 29 31"><title>edition-small</title><g fill-rule="evenodd"><g class="edition"><rect class="edition-bg" stroke-width="2" width="28.786" height="30.24" rx="2"/><path class="edition-type" d="M12.284 17.283h-1.17v2.145c1.208.494 2.002.702 3.275.702h.428c2.237 0 3.12-.702 3.12-2.43v-.573c0-1.3-.454-1.846-1.74-2.17l-2.784-.625c-.662-.182-.883-.48-.883-1.092v-.156c0-.884.47-1.21 1.665-1.21h.338c.69 0 1.325.092 1.86.34l.168 1.377h1.12l-.002-2.248c-1.066-.39-2.04-.572-3.171-.572h-.325c-2.21 0-3.12.69-3.12 2.392v.156c0 1.326.39 1.807 1.742 2.184l2.47.572c.975.247 1.248.507 1.248 1.3v.35c0 1.002-.43 1.3-1.78 1.3h-.184c-.857 0-1.482-.103-2.105-.402l-.17-1.34z"/></g></g></symbol><symbol id="logo-jp" viewBox="0 0 39 40"><title>logo-jp</title><g fill-rule="evenodd"><g><path class="logo-jp-bg" d="M.008 0H39v39.992H.008V0z"/><path class="logo-jp-letter" d="M11.002 29.648h.237c.45 0 .807-.192 1.068-.432.38-.385.546-1.08.546-1.56V15.55c0-1.177.784-1.49 1.117-1.49 0 0 .57 0 .57.577 0 .12-.023.36-.427.577-.12.072-.166.216-.166.336v12.153c0 .985-.285 1.705-.76 2.185-.475.48-1.188.745-2.09.745-.31 0-.57-.192-.57-.504 0-.29.19-.482.475-.482zm2.375-18.902c-.546 0-.903-.384-.903-.912 0-.505.357-.865.903-.865.522 0 .902.36.902.864 0 .528-.38.912-.903.912z"/><path class="logo-jp-letter" d="M18.65 16.87c1.26-2.16 2.97-2.81 4.585-2.81 3.326 0 5.63 2.98 5.63 6.39 0 3.266-2.376 6.1-5.63 6.1-1.806 0-3.255-.505-4.585-2.57v5.164c0 1.177-.783 1.49-1.116 1.49 0 0-.57 0-.57-.577 0-.12.024-.36.428-.577.118-.072.166-.216.166-.336V15.55c0-.12-.048-.264-.166-.336-.404-.217-.428-.456-.428-.577 0-.576.57-.576.57-.576.333 0 1.116.313 1.116 1.49v1.32zm4.56 8.575c2.78 0 4.56-2.354 4.56-4.995 0-2.595-1.732-5.285-4.56-5.285-2.826 0-4.56 2.667-4.56 5.116v.193c0 2.715 1.877 4.972 4.56 4.972z"/></g></g></symbol></svg>
