<?xml version="1.0" encoding="UTF-8"?><!DOCTYPE svg PUBLIC "-//W3C//DTD SVG 1.1//EN" "http://www.w3.org/Graphics/SVG/1.1/DTD/svg11.dtd"><svg xmlns="http://www.w3.org/2000/svg" style="display:none"><symbol id="arrow-down" viewBox="0 0 20 13"><title>arrow-down</title><g fill-rule="evenodd"><path d="M8.75 9.13h2.12l-8-8C2.287.542 1.337.542.75 1.13c-.586.584-.586 1.534 0 2.12l8 8 1.06 1.06 1.06-1.06 8-8c.587-.586.587-1.536 0-2.12-.584-.587-1.534-.587-2.12 0l-8 8z"/></g></symbol><symbol id="arrow-left" viewBox="0 0 12 19"><title>arrow-left</title><g fill-rule="evenodd"><path d="M3.182 8.44v2.12l8-8c.586-.585.586-1.535 0-2.12-.586-.586-1.536-.586-2.12 0l-8 8L0 9.5l1.06 1.06 8 8c.586.586 1.536.586 2.122 0 .586-.585.586-1.535 0-2.12l-8-8z"/></g></symbol><symbol id="arrow-right" viewBox="0 0 12 19"><title>arrow-right</title><g fill-rule="evenodd"><path d="M8.44 10.56V8.44l-8 8c-.586.585-.586 1.535 0 2.12.585.586 1.535.586 2.12 0l8-8 1.06-1.06-1.06-1.06-8-8C1.976-.147 1.026-.147.44.44c-.586.585-.586 1.535 0 2.12l8 8z"/></g></symbol><symbol id="arrow-up" viewBox="0 0 19 13"><title>arrow-up</title><g fill-rule="evenodd"><path d="M10.56 3.87H8.44l8 8c.585.587 1.535.587 2.12 0 .586-.584.586-1.534 0-2.12l-8-8L9.5.69 8.44 1.75l-8 8c-.586.586-.586 1.536 0 2.12.585.587 1.535.587 2.12 0l8-8z"/></g></symbol><symbol id="edition-hand_pulled" viewBox="0 0 18 16"><title>edition-hand_pulled</title><g fill-rule="evenodd"><path d="M18 0h-6.55v1.76c.6.07 1.2.114 1.775.137V6.88H4.85V1.897c.55-.023 1.125-.068 1.725-.137V0H0v1.76c.725.07 1.425.137 2.125.16v12.16c-.675.046-1.4.09-2.125.16V16h6.575v-1.76c-.6-.07-1.175-.114-1.725-.137V8.96h8.375v5.143c-.575.023-1.175.068-1.775.137V16H18v-1.76c-.7-.07-1.4-.114-2.075-.16V1.92C16.6 1.897 17.3 1.83 18 1.76V0z"/></g></symbol><symbol id="edition-large" viewBox="0 0 14 16"><title>edition-large</title><g fill-rule="evenodd"><path d="M13.125 16v-4.64h-1.74l-.31 2.65H4.55V1.944c.762-.023 1.5-.07 2.24-.183V0H0v1.76c.667.07 1.31.114 1.953.16v12.16c-.38.023-.953.07-1.905.16V16h13.077z"/></g></symbol><symbol id="edition-medium" viewBox="0 0 22 16"><title>edition-medium</title><g fill-rule="evenodd"><path d="M22 0h-5.762l-5.413 12.274h-.05L5.638 0H0v1.76c.998.114 1.696.16 2.12.183V14.08c-.648.023-1.322.09-2.07.16V16h6.46v-1.76c-.648-.07-1.222-.114-1.82-.16V3.04L9.827 16h1.82l5.588-12.96v11.063c-.55.023-1.098.068-1.696.137V16h6.41v-1.76c-.723-.07-1.397-.137-2.095-.16V1.943C20.33 1.92 21.027 1.85 22 1.76V0z"/></g></symbol><symbol id="edition-small" viewBox="0 0 14 16"><title>edition-small</title><g fill-rule="evenodd"><path d="M2.332 11.133H.1V14.8c2.307.844 3.82 1.2 6.252 1.2h.818c4.268 0 5.955-1.2 5.955-4.156v-.977c0-2.223-.868-3.156-3.325-3.71L4.49 6.088c-1.265-.312-1.686-.823-1.686-1.868v-.266c0-1.512.893-2.067 3.175-2.067h.645c1.315 0 2.53.154 3.547.577l.323 2.355h2.134V.978C10.593.31 8.732 0 6.574 0h-.62C1.737 0 0 1.178 0 4.09v.266C0 6.622.744 7.444 3.325 8.09l4.714.977c1.86.422 2.38.866 2.38 2.222v.6c0 1.71-.818 2.22-3.398 2.22h-.348c-1.637 0-2.828-.177-4.02-.688l-.322-2.29z"/></g></symbol><symbol id="logo-jp" viewBox="0 0 39 40"><title>logo-jp</title><g fill-rule="evenodd"><g><path class="logo-jp-bg" d="M.008 0H39v39.992H.008V0z"/><path class="logo-jp-letter" d="M11.002 29.648h.237c.45 0 .807-.192 1.068-.432.38-.385.546-1.08.546-1.56V15.55c0-1.177.784-1.49 1.117-1.49 0 0 .57 0 .57.577 0 .12-.023.36-.427.577-.12.072-.166.216-.166.336v12.153c0 .985-.285 1.705-.76 2.185-.475.48-1.188.745-2.09.745-.31 0-.57-.192-.57-.504 0-.29.19-.482.475-.482zm2.375-18.902c-.546 0-.903-.384-.903-.912 0-.505.357-.865.903-.865.522 0 .902.36.902.864 0 .528-.38.912-.903.912z" fill="currentColor"/><path class="logo-jp-letter" d="M18.65 16.87c1.26-2.16 2.97-2.81 4.585-2.81 3.326 0 5.63 2.98 5.63 6.39 0 3.266-2.376 6.1-5.63 6.1-1.806 0-3.255-.505-4.585-2.57v5.164c0 1.177-.783 1.49-1.116 1.49 0 0-.57 0-.57-.577 0-.12.024-.36.428-.577.118-.072.166-.216.166-.336V15.55c0-.12-.048-.264-.166-.336-.404-.217-.428-.456-.428-.577 0-.576.57-.576.57-.576.333 0 1.116.313 1.116 1.49v1.32zm4.56 8.575c2.78 0 4.56-2.354 4.56-4.995 0-2.595-1.732-5.285-4.56-5.285-2.826 0-4.56 2.667-4.56 5.116v.193c0 2.715 1.877 4.972 4.56 4.972z" fill="currentColor"/></g></g></symbol></svg>