<?xml version="1.0" encoding="UTF-8"?><svg xmlns="http://www.w3.org/2000/svg" style="display:none"><symbol id="arrow-down" viewBox="0 0 20 12"><title>arrow-down</title><g fill-rule="evenodd"><path d="M8.75 8.63h2.12l-8-8C2.287.042 1.337.042.75.63c-.586.584-.586 1.534 0 2.12l8 8 1.06 1.06 1.06-1.06 8-8c.587-.586.587-1.536 0-2.12-.584-.587-1.534-.587-2.12 0l-8 8z"/></g></symbol><symbol id="arrow-left" viewBox="0 0 12 20"><title>arrow-left</title><g fill-rule="evenodd"><path d="M3.182 8.94v2.12l8-8c.586-.585.586-1.535 0-2.12-.586-.586-1.536-.586-2.12 0l-8 8L0 10l1.06 1.06 8 8c.586.586 1.536.586 2.122 0 .586-.585.586-1.535 0-2.12l-8-8z"/></g></symbol><symbol id="arrow-right" viewBox="0 0 12 20"><title>arrow-right</title><g fill-rule="evenodd"><path d="M8.44 11.06V8.94l-8 8c-.586.585-.586 1.535 0 2.12.585.586 1.535.586 2.12 0l8-8L11.62 10l-1.06-1.06-8-8C1.976.353 1.026.353.44.94c-.586.585-.586 1.535 0 2.12l8 8z"/></g></symbol><symbol id="arrow-up" viewBox="0 0 19 12"><title>arrow-up</title><g fill-rule="evenodd"><path d="M10.56 3.37H8.44l8 8c.585.587 1.535.587 2.12 0 .586-.584.586-1.534 0-2.12l-8-8L9.5.19 8.44 1.25l-8 8c-.586.586-.586 1.536 0 2.12.585.587 1.535.587 2.12 0l8-8z"/></g></symbol><symbol id="logo-jpw" viewBox="0 0 500 72"><title>logo-jpw</title><g fill-rule="evenodd"><g><path d="M1.806 68.48h.79c1.5 0 2.686-.638 3.555-1.434 1.266-1.272 1.818-3.577 1.818-5.17V21.793c0-3.897 2.608-4.93 3.714-4.93 0 0 1.896 0 1.896 1.908 0 .398-.08 1.192-1.422 1.91-.396.237-.553.715-.553 1.112v40.244c0 3.262-.948 5.646-2.528 7.237-1.58 1.59-3.952 2.467-6.953 2.467-1.027 0-1.896-.637-1.896-1.67 0-.955.632-1.59 1.58-1.59zm7.9-62.594c-1.817 0-3.003-1.273-3.003-3.022C6.703 1.194 7.89 0 9.706 0c1.738 0 3.002 1.193 3.002 2.863 0 1.75-1.265 3.023-3.002 3.023zM48.66 50.98c-2.608 5.09-8.69 7.636-13.826 7.636-7.585 0-15.013-4.375-15.013-12.963 0-10.26 8.377-14.794 17.858-14.794 3.556 0 8.058 1.112 10.982 2.942v-4.296c0-1.828-.237-3.58-.473-4.214-1.582-4.057-6.717-5.17-11.695-5.17-3.08 0-6.557.637-10.034 1.51 0 0-.393.08-.632.08-.948 0-1.658-.874-1.658-1.828 0-1.273 1.5-1.75 1.5-1.75 2.845-.874 7.35-1.67 10.587-1.67 6.32 0 13.116 1.83 15.33 7.636.71 1.83.71 4.295.71 6.204V53.29c0 .396.157.874.553 1.112 1.342.716 1.42 1.51 1.42 1.91 0 1.908-1.895 1.908-1.895 1.908-1.343.08-3.712-1.034-3.712-4.93v-2.31zM37.44 34.518c-7.03 0-13.984 3.18-13.984 11.056 0 6.68 6.082 9.383 11.77 9.383 6.32 0 13.433-4.77 13.433-12.01V37.46c-3.24-1.91-6.717-2.943-11.22-2.943zM76.24 49.55l1.58 5.25h.077l1.66-5.25 11.06-29.825c.633-1.59 2.056-2.863 3.952-2.863 1.263 0 2.37.636 2.37 1.988 0 .955-.554 1.75-1.66 1.75-.317 0-.395-.08-.632-.08-.238 0-.317.24-.475.557l-14.537 37.54c-1.5 3.895-3.556 9.066-7.19 11.61-1.502 1.115-3.16 1.514-4.9 1.514-1.972 0-4.028-.557-6.003-1.272-.712-.32-1.106-1.034-1.106-1.83 0-.955.79-1.75 1.658-1.75.24 0 .475.08.712.16 1.423.555 3.08 1.033 4.583 1.033 1.026 0 2.053-.238 2.922-.873 2.847-2.07 4.504-6.603 5.53-8.988l-14.22-37.143c-.158-.318-.237-.557-.473-.557-.24 0-.32.08-.633.08-1.107 0-1.66-.795-1.66-1.75 0-1.352 1.105-1.988 2.37-1.988 1.896 0 3.32 1.272 3.95 2.863L76.24 49.55zM109.507 26.167c4.19-7.16 9.877-9.306 15.25-9.306 11.06 0 18.725 9.863 18.725 21.157 0 10.817-7.9 20.2-18.726 20.2-6.004 0-10.824-1.67-15.25-8.508v17.098c0 3.897-2.605 4.932-3.712 4.932 0 0-1.896 0-1.896-1.91 0-.398.08-1.194 1.423-1.908.395-.24.554-.717.554-1.115V21.792c0-.397-.16-.875-.553-1.113-1.342-.718-1.422-1.512-1.422-1.91 0-1.91 1.896-1.91 1.896-1.91 1.107 0 3.713 1.035 3.713 4.932v4.375zm15.17 28.394c9.244 0 15.17-7.795 15.17-16.542 0-8.59-5.767-17.498-15.17-17.498-9.402 0-15.17 8.83-15.17 16.94v.636c0 8.988 6.243 16.465 15.17 16.465zM153.445 39.45c.632 8.11 6.714 15.507 15.483 15.507 4.82 0 9.482-1.192 13.117-4.85.395-.398.87-.637 1.42-.637 1.108 0 1.976.952 1.976 1.91 0 .395-.078.952-.472 1.35-4.345 4.454-10.033 5.886-16.04 5.886-11.377 0-19.12-9.942-19.12-21.156 0-10.817 8.06-20.997 19.2-20.997 11.14 0 19.357 10.26 19.357 20.997 0 1.114-1.028 1.99-2.053 1.99h-32.867zm31.207-3.66c-.868-8.192-7.19-15.667-15.723-15.667-8.454 0-14.616 7.555-15.485 15.667h31.207zM210.495 16.86c2.45 0 4.74.637 7.19 1.512.79.24 1.185.796 1.185 1.67 0 1.432-1.264 1.99-2.45 1.67-1.817-.636-3.792-1.272-5.925-1.272-4.502 0-10.19 3.26-10.19 9.544v23.303c0 3.896-2.61 4.93-3.716 4.93 0 0-1.898 0-1.898-1.908 0-.4.08-1.194 1.423-1.91.396-.238.553-.717.553-1.113V21.792c0-.397-.157-.875-.553-1.113-1.343-.718-1.423-1.512-1.423-1.91 0-1.91 1.897-1.91 1.897-1.91 1.106 0 3.555 1.035 3.714 4.693v1.035c1.896-3.26 6.32-5.727 10.19-5.727zM239.81 16.86c2.448 0 4.74.637 7.19 1.512.79.24 1.186.796 1.186 1.67 0 1.432-1.265 1.99-2.45 1.67-1.818-.636-3.792-1.272-5.926-1.272-4.504 0-10.193 3.26-10.193 9.544v23.303c0 3.896-2.606 4.93-3.712 4.93 0 0-1.896 0-1.896-1.908 0-.4.078-1.194 1.422-1.91.393-.238.552-.717.552-1.113V21.792c0-.397-.158-.875-.552-1.113-1.344-.718-1.423-1.512-1.423-1.91 0-1.91 1.895-1.91 1.895-1.91 1.107 0 3.556 1.035 3.712 4.693v1.035c1.897-3.26 6.32-5.727 10.193-5.727zM270.548 49.55l1.58 5.25h.08l1.66-5.25 11.06-29.825c.633-1.59 2.054-2.863 3.95-2.863 1.265 0 2.372.636 2.372 1.988 0 .955-.552 1.75-1.66 1.75-.316 0-.395-.08-.632-.08s-.316.24-.475.557l-14.538 37.54c-1.5 3.895-3.554 9.066-7.19 11.61-1.5 1.115-3.16 1.514-4.896 1.514-1.977 0-4.03-.557-6.006-1.272-.712-.32-1.107-1.034-1.107-1.83 0-.955.79-1.75 1.66-1.75.237 0 .473.08.712.16 1.42.555 3.08 1.033 4.58 1.033 1.027 0 2.055-.238 2.923-.873 2.845-2.07 4.505-6.603 5.53-8.988l-14.22-37.143c-.16-.318-.24-.557-.475-.557-.236 0-.316.08-.632.08-1.107 0-1.66-.795-1.66-1.75 0-1.352 1.107-1.988 2.372-1.988 1.896 0 3.317 1.272 3.95 2.863l11.06 29.824z" id="Shape"/><path d="M342.454 56.946c-.158.716-.87 1.272-1.582 1.272-.79 0-1.5-.476-1.737-1.272L328.153 23.7 317.17 56.947c-.237.796-.948 1.272-1.737 1.272-.712 0-1.422-.556-1.58-1.272l-13.037-35.63c-.157-.32-.316-.797-.71-.797-.318 0-.318.078-.632.078-1.028 0-1.66-.715-1.66-1.748 0-1.194 1.106-1.99 2.212-1.99 1.976 0 3.396 1.274 4.03 2.944L314.01 47.8l1.343 4.61 1.264-4.61 9.797-29.667c.238-.795 1.027-1.273 1.74-1.273.71 0 1.5.478 1.736 1.273l9.798 29.667 1.264 4.61 1.344-4.61 9.954-27.996c.632-1.67 2.054-2.943 4.03-2.943 1.106 0 2.213.796 2.213 1.99 0 1.033-.633 1.748-1.66 1.748-.316 0-.316-.08-.633-.08-.395 0-.552.48-.71.797l-13.036 35.63zM358.894 37.62c0-11.613 9.404-21.157 20.938-21.157 11.536 0 20.858 9.544 20.858 21.156 0 11.61-9.322 20.996-20.858 20.996-11.534 0-20.938-9.386-20.938-20.997zm3.636 0c0 9.543 7.822 17.336 17.303 17.336 9.48 0 17.224-7.793 17.224-17.337s-7.744-17.498-17.224-17.498-17.303 7.953-17.303 17.497zM422.82 16.86c2.45 0 4.74.637 7.19 1.512.79.24 1.185.796 1.185 1.67 0 1.432-1.264 1.99-2.45 1.67-1.815-.636-3.792-1.272-5.924-1.272-4.503 0-10.19 3.26-10.19 9.544v23.303c0 3.896-2.608 4.93-3.714 4.93 0 0-1.896 0-1.896-1.908 0-.4.077-1.194 1.42-1.91.396-.238.553-.717.553-1.113V21.792c0-.397-.157-.875-.552-1.113-1.343-.718-1.42-1.512-1.42-1.91 0-1.91 1.896-1.91 1.896-1.91 1.106 0 3.556 1.035 3.713 4.693v1.035c1.895-3.26 6.32-5.727 10.19-5.727zM441.944 36.425l-.237 4.216 3.713-3.895 15.645-15.748c.394-.398.552-.717.552-.955 0-.477-.395-.556-.395-1.352 0-1.112.79-1.828 1.74-1.828 1.5 0 2.527 1.113 2.527 2.943 0 1.43-.95 2.863-1.898 3.818l-13.036 13.202 12.957 16.94c.394.477.712.637.948.637.633 0 .633-.238 1.186-.238 1.107 0 1.66.874 1.66 1.748 0 1.433-1.58 2.307-2.768 2.307-1.974 0-3-1.114-3.87-2.308l-12.8-16.463-5.925 5.964v7.875c0 3.894-2.608 4.93-3.713 4.93 0 0-1.896 0-1.896-1.91 0-.398.08-1.193 1.42-1.91.396-.237.555-.715.555-1.112V4.93c0-.396-.16-.874-.556-1.112-1.34-.717-1.42-1.51-1.42-1.91C436.334 0 438.23 0 438.23 0c1.105 0 3.713 1.034 3.713 4.93v31.495zM485.248 58.616c-4.03 0-8.297-1.272-11.614-3.66-1.896-1.352 0-4.534 2.448-2.783 2.53 1.828 5.925 2.864 9.48 2.864 5.69 0 10.667-2.864 10.667-6.76 0-4.932-6.083-6.92-10.507-8.67-5.216-2.068-13.037-5.408-13.037-12.328 0-6.204 6.48-10.817 13.59-10.817 4.265 0 8.217 1.432 11.06 3.738 2.134 1.83-.394 4.455-2.21 2.944-2.372-1.988-5.61-3.02-8.85-3.02-5.372 0-9.955 3.18-9.955 7.236 0 5.09 8.376 7.794 11.853 9.145 4.977 1.99 11.77 5.25 11.77 11.772 0 7.556-8.532 10.34-14.695 10.34z"/></g></g></symbol><symbol id="logo-prints" viewBox="0 0 292 72"><title>logo-prints</title><g fill-rule="evenodd"><g><path d="M1.806 68.48h.79c1.5 0 2.686-.638 3.555-1.434 1.266-1.272 1.818-3.577 1.818-5.17V21.793c0-3.897 2.608-4.93 3.714-4.93 0 0 1.896 0 1.896 1.908 0 .398-.08 1.192-1.422 1.91-.396.237-.553.715-.553 1.112v40.244c0 3.262-.948 5.646-2.528 7.237-1.58 1.59-3.952 2.467-6.953 2.467-1.027 0-1.896-.637-1.896-1.67 0-.955.632-1.59 1.58-1.59zm7.9-62.594c-1.817 0-3.003-1.273-3.003-3.022C6.703 1.194 7.89 0 9.706 0c1.738 0 3.002 1.193 3.002 2.863 0 1.75-1.265 3.023-3.002 3.023zM48.66 50.98c-2.608 5.09-8.69 7.636-13.826 7.636-7.585 0-15.013-4.375-15.013-12.963 0-10.26 8.377-14.794 17.858-14.794 3.556 0 8.058 1.112 10.982 2.942v-4.296c0-1.828-.237-3.58-.473-4.214-1.582-4.057-6.717-5.17-11.695-5.17-3.08 0-6.557.637-10.034 1.51 0 0-.393.08-.632.08-.948 0-1.658-.874-1.658-1.828 0-1.273 1.5-1.75 1.5-1.75 2.845-.874 7.35-1.67 10.587-1.67 6.32 0 13.116 1.83 15.33 7.636.71 1.83.71 4.295.71 6.204V53.29c0 .396.157.874.553 1.112 1.342.716 1.42 1.51 1.42 1.91 0 1.908-1.895 1.908-1.895 1.908-1.343.08-3.712-1.034-3.712-4.93v-2.31zM37.44 34.518c-7.03 0-13.984 3.18-13.984 11.056 0 6.68 6.082 9.383 11.77 9.383 6.32 0 13.433-4.77 13.433-12.01V37.46c-3.24-1.91-6.717-2.943-11.22-2.943zM76.24 49.55l1.58 5.25h.077l1.66-5.25 11.06-29.825c.633-1.59 2.056-2.863 3.952-2.863 1.263 0 2.37.636 2.37 1.988 0 .955-.554 1.75-1.66 1.75-.317 0-.395-.08-.632-.08-.238 0-.317.24-.475.557l-14.537 37.54c-1.5 3.895-3.556 9.066-7.19 11.61-1.502 1.115-3.16 1.514-4.9 1.514-1.972 0-4.028-.557-6.003-1.272-.712-.32-1.106-1.034-1.106-1.83 0-.955.79-1.75 1.658-1.75.24 0 .475.08.712.16 1.423.555 3.08 1.033 4.583 1.033 1.026 0 2.053-.238 2.922-.873 2.847-2.07 4.504-6.603 5.53-8.988l-14.22-37.143c-.158-.318-.237-.557-.473-.557-.24 0-.32.08-.633.08-1.107 0-1.66-.795-1.66-1.75 0-1.352 1.105-1.988 2.37-1.988 1.896 0 3.32 1.272 3.95 2.863L76.24 49.55zM109.507 26.167c4.19-7.16 9.877-9.306 15.25-9.306 11.06 0 18.725 9.863 18.725 21.157 0 10.817-7.9 20.2-18.726 20.2-6.004 0-10.824-1.67-15.25-8.508v17.098c0 3.897-2.605 4.932-3.712 4.932 0 0-1.896 0-1.896-1.91 0-.398.08-1.194 1.423-1.908.395-.24.554-.717.554-1.115V21.792c0-.397-.16-.875-.553-1.113-1.342-.718-1.422-1.512-1.422-1.91 0-1.91 1.896-1.91 1.896-1.91 1.107 0 3.713 1.035 3.713 4.932v4.375zm15.17 28.394c9.244 0 15.17-7.795 15.17-16.542 0-8.59-5.767-17.498-15.17-17.498-9.402 0-15.17 8.83-15.17 16.94v.636c0 8.988 6.243 16.465 15.17 16.465zM153.445 39.45c.632 8.11 6.714 15.507 15.483 15.507 4.82 0 9.482-1.192 13.117-4.85.395-.398.87-.637 1.42-.637 1.108 0 1.976.952 1.976 1.91 0 .395-.078.952-.472 1.35-4.345 4.454-10.033 5.886-16.04 5.886-11.377 0-19.12-9.942-19.12-21.156 0-10.817 8.06-20.997 19.2-20.997 11.14 0 19.357 10.26 19.357 20.997 0 1.114-1.028 1.99-2.053 1.99h-32.867zm31.207-3.66c-.868-8.192-7.19-15.667-15.723-15.667-8.454 0-14.616 7.555-15.485 15.667h31.207zM210.495 16.86c2.45 0 4.74.637 7.19 1.512.79.24 1.185.796 1.185 1.67 0 1.432-1.264 1.99-2.45 1.67-1.817-.636-3.792-1.272-5.925-1.272-4.502 0-10.19 3.26-10.19 9.544v23.303c0 3.896-2.61 4.93-3.716 4.93 0 0-1.898 0-1.898-1.908 0-.4.08-1.194 1.423-1.91.396-.238.553-.717.553-1.113V21.792c0-.397-.157-.875-.553-1.113-1.343-.718-1.423-1.512-1.423-1.91 0-1.91 1.897-1.91 1.897-1.91 1.106 0 3.555 1.035 3.714 4.693v1.035c1.896-3.26 6.32-5.727 10.19-5.727zM239.81 16.86c2.448 0 4.74.637 7.19 1.512.79.24 1.186.796 1.186 1.67 0 1.432-1.265 1.99-2.45 1.67-1.818-.636-3.792-1.272-5.926-1.272-4.504 0-10.193 3.26-10.193 9.544v23.303c0 3.896-2.606 4.93-3.712 4.93 0 0-1.896 0-1.896-1.908 0-.4.078-1.194 1.422-1.91.393-.238.552-.717.552-1.113V21.792c0-.397-.158-.875-.552-1.113-1.344-.718-1.423-1.512-1.423-1.91 0-1.91 1.895-1.91 1.895-1.91 1.107 0 3.556 1.035 3.712 4.693v1.035c1.897-3.26 6.32-5.727 10.193-5.727zM270.548 49.55l1.58 5.25h.08l1.66-5.25 11.06-29.825c.633-1.59 2.054-2.863 3.95-2.863 1.265 0 2.372.636 2.372 1.988 0 .955-.552 1.75-1.66 1.75-.316 0-.395-.08-.632-.08s-.316.24-.475.557l-14.538 37.54c-1.5 3.895-3.554 9.066-7.19 11.61-1.5 1.115-3.16 1.514-4.896 1.514-1.977 0-4.03-.557-6.006-1.272-.712-.32-1.107-1.034-1.107-1.83 0-.955.79-1.75 1.66-1.75.237 0 .473.08.712.16 1.42.555 3.08 1.033 4.58 1.033 1.027 0 2.055-.238 2.923-.873 2.845-2.07 4.505-6.603 5.53-8.988l-14.22-37.143c-.16-.318-.24-.557-.475-.557-.236 0-.316.08-.632.08-1.107 0-1.66-.795-1.66-1.75 0-1.352 1.107-1.988 2.372-1.988 1.896 0 3.317 1.272 3.95 2.863l11.06 29.824z"/></g></g></symbol></svg>