<?xml version="1.0" encoding="UTF-8"?><!DOCTYPE svg PUBLIC "-//W3C//DTD SVG 1.1//EN" "http://www.w3.org/Graphics/SVG/1.1/DTD/svg11.dtd"><svg xmlns="http://www.w3.org/2000/svg" style="display:none"><symbol id="arrow-down" viewBox="0 0 20 13"><title>arrow-down</title><g fill-rule="evenodd"><path d="M8.75 9.13h2.12l-8-8C2.287.542 1.337.542.75 1.13c-.586.584-.586 1.534 0 2.12l8 8 1.06 1.06 1.06-1.06 8-8c.587-.586.587-1.536 0-2.12-.584-.587-1.534-.587-2.12 0l-8 8z"/></g></symbol><symbol id="arrow-left" viewBox="0 0 12 19"><title>arrow-left</title><g fill-rule="evenodd"><path d="M3.182 8.44v2.12l8-8c.586-.585.586-1.535 0-2.12-.586-.586-1.536-.586-2.12 0l-8 8L0 9.5l1.06 1.06 8 8c.586.586 1.536.586 2.122 0 .586-.585.586-1.535 0-2.12l-8-8z"/></g></symbol><symbol id="arrow-right" viewBox="0 0 12 19"><title>arrow-right</title><g fill-rule="evenodd"><path d="M8.44 10.56V8.44l-8 8c-.586.585-.586 1.535 0 2.12.585.586 1.535.586 2.12 0l8-8 1.06-1.06-1.06-1.06-8-8C1.976-.147 1.026-.147.44.44c-.586.585-.586 1.535 0 2.12l8 8z"/></g></symbol><symbol id="arrow-up" viewBox="0 0 19 13"><title>arrow-up</title><g fill-rule="evenodd"><path d="M10.56 3.87H8.44l8 8c.585.587 1.535.587 2.12 0 .586-.584.586-1.534 0-2.12l-8-8L9.5.69 8.44 1.75l-8 8c-.586.586-.586 1.536 0 2.12.585.587 1.535.587 2.12 0l8-8z"/></g></symbol><symbol id="edition-hand_pulled" viewBox="0 0 30 30"><title>edition-hand_pulled</title><g fill-rule="evenodd"><g><rect width="30" height="30" rx="2"/><path d="M20 10h-3.64v1.1c.334.043.668.07.987.086V14.3h-4.653v-3.114c.306-.015.625-.043.96-.086V10H10v1.1c.403.043.792.086 1.18.1v7.6c-.374.03-.777.057-1.18.1V20h3.653v-1.1c-.334-.043-.653-.07-.96-.086V15.6h4.654v3.214c-.32.015-.653.043-.986.086V20H20v-1.1c-.39-.043-.778-.07-1.153-.1v-7.6c.375-.014.764-.057 1.153-.1V10z" fill="currentColor"/></g></g></symbol><symbol id="edition-large" viewBox="0 0 30 30"><title>edition-large</title><g fill-rule="evenodd"><g><rect width="30" height="30" rx="2"/><path d="M20 20v-2.9h-1.192l-.213 1.657H14.12v-7.543c.522-.014 1.03-.043 1.535-.114V10H11v1.1c.457.043.898.07 1.34.1v7.6c-.262.014-.654.043-1.307.1V20H20z" fill="currentColor"/></g></g></symbol><symbol id="edition-medium" viewBox="0 0 30 30"><title>edition-medium</title><g fill-rule="evenodd"><g><rect width="30" height="30" rx="2"/><path d="M22 10h-3.667l-3.444 7.67L11.586 10H8v1.1c.635.07 1.08.1 1.35.114V18.8c-.413.014-.842.057-1.318.1V20h4.11v-1.1c-.412-.043-.777-.07-1.158-.1v-6.9l3.27 8.1h1.16l3.554-8.1v6.914c-.35.015-.698.043-1.08.086V20h4.08v-1.1c-.46-.043-.89-.086-1.333-.1v-7.586c.302-.014.746-.057 1.365-.114V10z" fill="currentColor"/></g></g></symbol><symbol id="edition-small" viewBox="0 0 30 30"><title>edition-small</title><g fill-rule="evenodd"><g><rect width="30" height="30" rx="2"/><path d="M12.6 16.958h-1.532v2.292c1.582.528 2.62.75 4.287.75h.562C18.843 20 20 19.25 20 17.403v-.61c0-1.39-.595-1.974-2.28-2.32l-3.64-.667c-.868-.195-1.158-.514-1.158-1.167v-.168c0-.944.613-1.29 2.178-1.29h.443c.9 0 1.735.096 2.432.36l.222 1.472h1.463V10.61c-1.395-.416-2.67-.61-4.15-.61h-.427C12.19 10 11 10.736 11 12.556v.166c0 1.417.51 1.93 2.28 2.334l3.232.61c1.276.265 1.634.542 1.634 1.39v.375c0 1.07-.562 1.39-2.33 1.39h-.24c-1.122 0-1.94-.112-2.756-.43l-.22-1.432z" fill="currentColor"/></g></g></symbol><symbol id="logo-jp" viewBox="0 0 39 40"><title>logo-jp</title><g fill-rule="evenodd"><g><path class="logo-jp-bg" d="M.008 0H39v39.992H.008V0z"/><path class="logo-jp-letter" d="M11.002 29.648h.237c.45 0 .807-.192 1.068-.432.38-.385.546-1.08.546-1.56V15.55c0-1.177.784-1.49 1.117-1.49 0 0 .57 0 .57.577 0 .12-.023.36-.427.577-.12.072-.166.216-.166.336v12.153c0 .985-.285 1.705-.76 2.185-.475.48-1.188.745-2.09.745-.31 0-.57-.192-.57-.504 0-.29.19-.482.475-.482zm2.375-18.902c-.546 0-.903-.384-.903-.912 0-.505.357-.865.903-.865.522 0 .902.36.902.864 0 .528-.38.912-.903.912z" fill="currentColor"/><path class="logo-jp-letter" d="M18.65 16.87c1.26-2.16 2.97-2.81 4.585-2.81 3.326 0 5.63 2.98 5.63 6.39 0 3.266-2.376 6.1-5.63 6.1-1.806 0-3.255-.505-4.585-2.57v5.164c0 1.177-.783 1.49-1.116 1.49 0 0-.57 0-.57-.577 0-.12.024-.36.428-.577.118-.072.166-.216.166-.336V15.55c0-.12-.048-.264-.166-.336-.404-.217-.428-.456-.428-.577 0-.576.57-.576.57-.576.333 0 1.116.313 1.116 1.49v1.32zm4.56 8.575c2.78 0 4.56-2.354 4.56-4.995 0-2.595-1.732-5.285-4.56-5.285-2.826 0-4.56 2.667-4.56 5.116v.193c0 2.715 1.877 4.972 4.56 4.972z" fill="currentColor"/></g></g></symbol></svg>