<?xml version="1.0" encoding="UTF-8" standalone="no"?>
<svg width="29px" height="31px" viewBox="0 0 29 31" version="1.1" xmlns="http://www.w3.org/2000/svg" xmlns:xlink="http://www.w3.org/1999/xlink" xmlns:sketch="http://www.bohemiancoding.com/sketch/ns">
    <!-- Generator: Sketch 3.2.2 (9983) - http://www.bohemiancoding.com/sketch -->
    <title>edition-small</title>
    <desc>Created with Sketch.</desc>
    <defs></defs>
    <g id="assets/icons" stroke="none" stroke-width="1" fill="none" fill-rule="evenodd" sketch:type="MSPage">
        <g class="edition" id="edition-small" sketch:type="MSLayerGroup">
            <rect class="edition-bg" id="Rectangle-12" stroke="#474747" stroke-width="2" fill="#FFFFFF" sketch:type="MSShapeGroup" x="0" y="0" width="28.7855349" height="30.24" rx="2"></rect>
            <path class="edition-type" d="M12.2835,17.283 L11.1135,17.283 L11.1135,19.428 C12.3225,19.922 13.1155,20.13 14.3895,20.13 L14.8185,20.13 C17.0545,20.13 17.9385,19.428 17.9385,17.699 L17.9385,17.127 C17.9385,15.827 17.4835,15.281 16.1965,14.956 L13.4145,14.332 C12.7515,14.15 12.5305,13.851 12.5305,13.24 L12.5305,13.084 C12.5305,12.2 12.9985,11.875 14.1945,11.875 L14.5325,11.875 C15.2215,11.875 15.8585,11.966 16.3915,12.213 L16.5605,13.591 L17.6785,13.591 L17.6785,11.342 C16.6125,10.952 15.6375,10.77 14.5065,10.77 L14.1815,10.77 C11.9715,10.77 11.0615,11.459 11.0615,13.162 L11.0615,13.318 C11.0615,14.644 11.4515,15.125 12.8035,15.502 L15.2735,16.074 C16.2485,16.321 16.5215,16.581 16.5215,17.374 L16.5215,17.725 C16.5215,18.726 16.0925,19.025 14.7405,19.025 L14.5585,19.025 C13.7005,19.025 13.0765,18.921 12.4525,18.622 L12.2835,17.283 Z" id="S" fill="#474747" sketch:type="MSShapeGroup"></path>
        </g>
    </g>
</svg>
