<?xml version="1.0" encoding="UTF-8" standalone="no"?>
<svg width="30px" height="30px" viewBox="0 0 30 30" version="1.1" xmlns="http://www.w3.org/2000/svg" xmlns:xlink="http://www.w3.org/1999/xlink" xmlns:sketch="http://www.bohemiancoding.com/sketch/ns">
    <!-- Generator: Sketch 3.2.2 (9983) - http://www.bohemiancoding.com/sketch -->
    <title>edition-small</title>
    <desc>Created with Sketch.</desc>
    <defs></defs>
    <g id="assets/icons" stroke="none" stroke-width="1" fill="none" fill-rule="evenodd" sketch:type="MSPage">
        <g id="edition-small" sketch:type="MSLayerGroup">
            <rect id="Rectangle-12" fill="#474747" sketch:type="MSShapeGroup" x="0" y="0" width="30" height="30" rx="2"></rect>
            <path d="M12.5992439,16.9583333 L11.0680529,16.9583333 L11.0680529,19.25 C12.6502836,19.7777778 13.6880907,20 15.3553875,20 L15.9168242,20 C18.8431002,20 20,19.25 20,17.4027778 L20,16.7916667 C20,15.4027778 19.4045369,14.8194444 17.7202268,14.4722222 L14.0793951,13.8055556 C13.2117202,13.6111111 12.9224953,13.2916667 12.9224953,12.6388889 L12.9224953,12.4722222 C12.9224953,11.5277778 13.5349716,11.1805556 15.100189,11.1805556 L15.5425331,11.1805556 C16.4442344,11.1805556 17.2778828,11.2777778 17.9754253,11.5416667 L18.1965974,13.0138889 L19.6597353,13.0138889 L19.6597353,10.6111111 C18.2646503,10.1944444 16.9886578,10 15.5085066,10 L15.0831758,10 C12.1909263,10 11,10.7361111 11,12.5555556 L11,12.7222222 C11,14.1388889 11.510397,14.6527778 13.2797732,15.0555556 L16.5122873,15.6666667 C17.7882798,15.9305556 18.1455577,16.2083333 18.1455577,17.0555556 L18.1455577,17.4305556 C18.1455577,18.5 17.584121,18.8194444 15.8147448,18.8194444 L15.5765595,18.8194444 C14.4536862,18.8194444 13.637051,18.7083333 12.8204159,18.3888889 L12.5992439,16.9583333 Z" id="S" fill="currentColor" sketch:type="MSShapeGroup"></path>
        </g>
    </g>
</svg>
