<?xml version="1.0" encoding="UTF-8" standalone="no"?>
<svg width="29px" height="31px" viewBox="0 0 29 31" version="1.1" xmlns="http://www.w3.org/2000/svg" xmlns:xlink="http://www.w3.org/1999/xlink" xmlns:sketch="http://www.bohemiancoding.com/sketch/ns">
    <!-- Generator: Sketch 3.2.2 (9983) - http://www.bohemiancoding.com/sketch -->
    <title>edition-medium</title>
    <desc>Created with Sketch.</desc>
    <defs></defs>
    <g id="assets/icons" stroke="none" stroke-width="1" fill="none" fill-rule="evenodd" sketch:type="MSPage">
        <g class="edition" id="edition-medium" sketch:type="MSLayerGroup">
            <rect class="edition-bg" id="Rectangle-11" stroke="#474747" stroke-width="2" fill="#FFFFFF" sketch:type="MSShapeGroup" x="0" y="0" width="28.7855349" height="30.24" rx="2"></rect>
            <path class="edition-type" d="M20.233,10.9 L17.23,10.9 L14.409,17.881 L14.383,17.881 L11.705,10.9 L8.767,10.9 L8.767,11.901 C9.287,11.966 9.651,11.992 9.872,12.005 L9.872,18.908 C9.534,18.921 9.183,18.96 8.793,18.999 L8.793,20 L12.16,20 L12.16,18.999 C11.822,18.96 11.523,18.934 11.211,18.908 L11.211,12.629 L13.889,20 L14.838,20 L17.75,12.629 L17.75,18.921 C17.464,18.934 17.178,18.96 16.866,18.999 L16.866,20 L20.207,20 L20.207,18.999 C19.83,18.96 19.479,18.921 19.115,18.908 L19.115,12.005 C19.362,11.992 19.726,11.953 20.233,11.901 L20.233,10.9 Z" id="M" fill="#474747" sketch:type="MSShapeGroup"></path>
        </g>
    </g>
</svg>
