<svg width="14" height="16" viewBox="0 0 14 16" xmlns="http://www.w3.org/2000/svg"><title>edition-small</title><path d="M2.332 11.133H.1V14.8c2.307.844 3.82 1.2 6.252 1.2h.818c4.268 0 5.955-1.2 5.955-4.156v-.977c0-2.223-.868-3.156-3.325-3.71L4.49 6.088c-1.265-.312-1.686-.823-1.686-1.868v-.266c0-1.512.893-2.067 3.175-2.067h.645c1.315 0 2.53.154 3.547.577l.323 2.355h2.134V.978C10.593.31 8.732 0 6.574 0h-.62C1.737 0 0 1.178 0 4.09v.266C0 6.622.744 7.444 3.325 8.09l4.714.977c1.86.422 2.38.866 2.38 2.222v.6c0 1.71-.818 2.22-3.398 2.22h-.348c-1.637 0-2.828-.177-4.02-.688l-.322-2.29z" fill="#474747" fill-rule="evenodd"/></svg>