<?xml version="1.0" encoding="UTF-8"?>
<svg width="403px" height="812px" viewBox="0 0 403 812" version="1.1" xmlns="http://www.w3.org/2000/svg" xmlns:xlink="http://www.w3.org/1999/xlink">
    <title>phone</title>
    <g id="phone" stroke="none" stroke-width="1" fill="none" fill-rule="evenodd">
        <g id="Group" transform="translate(-0.000000, 0.000000)" fill-rule="nonzero">
            <path d="M2,250.999262 L2,300.999262 L0,300.999262 L0,250.999262 L2,250.999262 Z M2,191.999262 L2,241.999262 L0,241.999262 L0,191.999262 L2,191.999262 Z" id="Shape" fill="#C9C9C9"></path>
            <rect id="Rectangle" fill="#C9C9C9" x="401.413873" y="191.999262" width="2" height="109"></rect>
            <path d="M344.727369,0 L346.620829,0.0110603817 L347.839724,0.0257853377 L349.604919,0.0588606131 L350.74077,0.0882131513 L352.3851,0.14315628 L353.442841,0.187038373 L354.470718,0.23670484 L355.469522,0.292139998 L356.914942,0.386074718 L357.844515,0.455862981 L359.189788,0.571253838 L360.055063,0.65529718 L360.896001,0.745015105 L362.1135,0.890197527 L362.897046,0.994033292 L363.659016,1.10348875 L364.400201,1.21854821 L365.121389,1.33919598 L365.823369,1.4654164 L366.506931,1.59719376 L366.842051,1.6651614 L366.842051,1.6651614 L367.499466,1.80524478 L368.140436,1.9508459 L368.765749,2.10194907 L369.376197,2.25853862 L369.676092,2.33888588 L370.26572,2.50367558 L370.842454,2.67391244 L371.407085,2.84958077 L372.233062,3.12323298 L372.233062,3.12323298 L372.770886,3.31241138 L373.299368,3.50696636 L373.819299,3.70688224 L374.331466,3.91214334 L375.086888,4.23002294 L375.583102,4.44857844 L376.074315,4.67242426 L376.803485,5.01807802 L377.291445,5.25796842 C377.778127,5.5005426 378.261385,5.75115999 378.744901,6.00974744 C386.078235,9.93165702 391.833478,15.6868999 395.755387,23.0202333 C396.013975,23.5037498 396.264592,23.987008 396.507166,24.4736898 L396.747057,24.9616492 L397.09271,25.6908197 L397.316556,26.1820328 L397.535112,26.6782462 L397.748361,27.1802493 L397.956289,27.6888312 L398.158879,28.2047814 L398.356117,28.7288891 L398.641902,29.5320724 L398.641902,29.5320724 L398.825688,30.080027 L399.004066,30.6389015 L399.177021,31.2094853 L399.426249,32.0890425 L399.426249,32.0890425 L399.585576,32.6923526 L399.739424,33.3101345 L399.95989,34.2656686 L399.95989,34.2656686 L400.167941,35.2582039 L400.167941,35.2582039 L400.299718,35.9417658 L400.425939,36.643746 L400.546586,37.3649337 L400.661646,38.1061181 L400.771101,38.8680887 L400.874937,39.6516346 L400.973137,40.4575451 L401.065687,41.2866097 L401.193881,42.5753466 L401.193881,42.5753466 L401.272234,43.4657491 L401.344881,44.3820681 L401.443119,45.8068664 L401.501432,46.7914296 L401.553985,47.8046717 L401.621978,49.3800345 L401.66006,50.4684272 L401.692327,51.5882613 L401.718762,52.7403261 L401.739349,53.925411 L401.754074,55.1443051 L401.765873,56.3977979 L401.765873,754.960758 L401.754074,756.854218 L401.739349,758.073113 L401.706274,759.838308 L401.676921,760.974159 L401.621978,762.618489 L401.578096,763.67623 L401.52843,764.704107 L401.472995,765.702911 L401.37906,767.148331 L401.309272,768.077904 L401.193881,769.423177 L401.109837,770.288452 L401.020119,771.12939 L400.874937,772.346889 L400.771101,773.130435 L400.661646,773.892405 L400.546586,774.63359 L400.425939,775.354778 L400.299718,776.056758 L400.167941,776.74032 L400.099973,777.07544 L400.099973,777.07544 L399.95989,777.732855 L399.814289,778.373825 L399.663186,778.999138 L399.506596,779.609586 L399.426249,779.909481 L399.261459,780.499109 L399.091222,781.075843 L398.915554,781.640474 L398.641902,782.466451 L398.641902,782.466451 L398.452723,783.004275 L398.258168,783.532757 L398.058252,784.052688 L397.852991,784.564855 L397.535112,785.320277 L397.316556,785.816491 L397.09271,786.307704 L396.747057,787.036874 L396.507166,787.524834 C396.264592,788.011516 396.013975,788.494774 395.755387,788.97829 C391.833478,796.311624 386.078235,802.066867 378.744901,805.988776 C378.261385,806.247364 377.778127,806.497981 377.291445,806.740555 L376.803485,806.980446 L376.074315,807.326099 L375.583102,807.549945 L375.086888,807.768501 L374.584885,807.98175 L374.076303,808.189678 L373.560353,808.392268 L373.036246,808.589506 L372.503191,808.781374 L372.233062,808.875291 L371.685108,809.059077 L371.126233,809.237455 L370.555649,809.41041 L369.972567,809.577925 L369.676092,809.659638 L369.072782,809.818965 L368.455,809.972813 L367.499466,810.193279 L367.499466,810.193279 L366.506931,810.40133 L366.506931,810.40133 L365.823369,810.533107 L365.121389,810.659328 L364.400201,810.779975 L363.659016,810.895035 L362.897046,811.00449 L362.1135,811.108326 L361.307589,811.206526 L360.478525,811.299076 L359.189788,811.42727 L359.189788,811.42727 L358.299385,811.505623 L357.383067,811.57827 L355.958268,811.676508 L354.973705,811.734821 L353.960463,811.787374 L352.3851,811.855367 L351.296707,811.893449 L350.176873,811.925716 L349.024809,811.952151 L347.839724,811.972738 L346.620829,811.987463 L345.367337,811.999262 L58.8043772,811.999262 L56.9109169,811.987463 L55.6920228,811.972738 L53.9268273,811.939663 L52.7909765,811.91031 L51.1466463,811.855367 L50.0889058,811.811485 L49.0610282,811.761819 L48.0622242,811.706384 L46.6168047,811.612449 L45.6872315,811.542661 L44.3419584,811.42727 L43.4766831,811.343226 L42.6357456,811.253508 L41.4182464,811.108326 L40.6347005,811.00449 L39.8727299,810.895035 L39.1315455,810.779975 L38.4103578,810.659328 L37.7083776,810.533107 L37.0248157,810.40133 L36.6896949,810.333362 L36.6896949,810.333362 L36.0322804,810.193279 L35.3913109,810.047678 L34.7659971,809.896575 L34.1555497,809.739985 L33.8556543,809.659638 L33.2660266,809.494848 L32.6892922,809.324611 L32.1246617,809.148943 L31.2986842,808.875291 L31.2986842,808.875291 L30.7608604,808.686112 L30.232378,808.491557 L29.7124478,808.291641 L29.2002804,808.08638 L28.444858,807.768501 L27.9486446,807.549945 L27.4574315,807.326099 L26.728261,806.980446 L26.2403016,806.740555 C25.7536198,806.497981 25.2703616,806.247364 24.7868451,805.988776 C17.4535117,802.066867 11.6982688,796.311624 7.77635928,788.97829 C7.51777183,788.494774 7.26715444,788.011516 7.02458026,787.524834 L6.78468986,787.036874 L6.4390361,786.307704 L6.21519028,785.816491 L5.99663478,785.320277 L5.78338527,784.818274 L5.57545746,784.309692 L5.37286701,783.793742 L5.17562962,783.269635 L4.98376097,782.73658 L4.88984482,782.466451 L4.70605868,781.918497 L4.52768049,781.359622 L4.35472593,780.789038 L4.10549772,779.909481 L4.10549772,779.909481 L3.94617087,779.306171 L3.79232255,778.688389 L3.57185662,777.732855 L3.57185662,777.732855 L3.3638056,776.74032 L3.3638056,776.74032 L3.23202824,776.056758 L3.10580782,775.354778 L2.98516005,774.63359 L2.87010059,773.892405 L2.76064514,773.130435 L2.65680937,772.346889 L2.55860898,771.540978 L2.46605964,770.711914 L2.33786568,769.423177 L2.33786568,769.423177 L2.25951261,768.532774 L2.18686549,767.616456 L2.08862778,766.191657 L2.03031416,765.207094 L1.97776138,764.193852 L1.90976812,762.618489 L1.87168609,761.530096 L1.8394198,760.410262 L1.81298493,759.258198 L1.79239718,758.073113 L1.77767223,756.854218 L1.76587344,755.600726 L1.76587344,57.0377654 L1.77767223,55.1443051 L1.79239718,53.925411 L1.82547246,52.1602155 L1.854825,51.0243647 L1.90976812,49.3800345 L1.95365022,48.322294 L2.00331668,47.2944164 L2.05875184,46.2956124 L2.15268656,44.8501929 L2.22247482,43.9206197 L2.33786568,42.5753466 L2.42190902,41.7100713 L2.51162695,40.8691338 L2.65680937,39.6516346 L2.76064514,38.8680887 L2.87010059,38.1061181 L2.98516005,37.3649337 L3.10580782,36.643746 L3.23202824,35.9417658 L3.3638056,35.2582039 L3.43177324,34.9230831 L3.43177324,34.9230831 L3.57185662,34.2656686 L3.71745774,33.6246991 L3.86856091,32.9993853 L4.10549772,32.0890425 L4.10549772,32.0890425 L4.27028742,31.4994148 L4.44052428,30.9226804 L4.61619261,30.3580499 L4.79727673,29.804734 L4.88984482,29.5320724 L5.07902322,28.9942486 L5.2735782,28.4657662 L5.47349408,27.945836 L5.67875518,27.4336686 L5.99663478,26.6782462 L6.21519028,26.1820328 L6.4390361,25.6908197 L6.78468986,24.9616492 L7.02458026,24.4736898 C7.26715444,23.987008 7.51777183,23.5037498 7.77635928,23.0202333 C11.6982688,15.6868999 17.4535117,9.93165702 24.7868451,6.00974744 C25.2703616,5.75115999 25.7536198,5.5005426 26.2403016,5.25796842 L26.728261,5.01807802 L27.4754355,4.66409 L27.9789385,4.43501613 L28.4877411,4.21149645 L29.0026922,3.99354782 L29.5246407,3.78118712 L30.3225401,3.47316033 L30.8656954,3.27484324 L31.418819,3.08217311 L31.9827597,2.89516681 L32.5583663,2.71384121 L33.1464877,2.53821317 L33.7479726,2.36829957 L34.36367,2.20411727 L34.9944287,2.04568314 L35.6410975,1.89301404 L36.3045252,1.74612685 L36.9855607,1.60503843 L37.6850528,1.46976565 L38.4038504,1.34032538 L39.1428024,1.21673448 L39.9027574,1.09900983 L40.6845644,0.987168282 L41.4890723,0.881226718 L42.3171298,0.781202001 L43.1695858,0.687110997 L44.0472891,0.598970576 L44.9510886,0.516797604 L45.8818331,0.440608949 L46.8403715,0.37042148 L47.8275525,0.306252063 L48.8442251,0.248117567 L49.8912381,0.196034859 L50.9694402,0.150020808 L52.0796804,0.11009228 L53.8069688,0.0616467442 L55.0010177,0.0370058228 L57.4949914,0 L344.727369,0 Z M366.382801,43.9992616 L37.1494243,43.9992616 L36.3326611,43.9992616 L36.3326611,43.9992616 L35.5695675,44.0176959 C35.4466913,44.0207617 35.3259264,44.0242082 35.2072105,44.0280342 L34.5190033,44.0555343 L34.5190033,44.0555343 L33.876975,44.0920829 C32.9470686,44.1536624 32.1629036,44.2455794 31.4789742,44.3669298 L31.0373716,44.4521806 C30.8947877,44.4820444 30.7566544,44.5133518 30.6224722,44.5460928 L30.2312797,44.648607 C30.1045004,44.6842054 29.9811729,44.7212275 29.8607978,44.7596635 L29.5080303,44.8792028 C29.3930606,44.9204564 29.2805439,44.9631139 29.1699809,45.0071654 L28.8436533,45.1434917 L28.8436533,45.1434917 L28.5260513,45.2881223 L28.5260513,45.2881223 L28.2141786,45.4409975 L28.2141786,45.4409975 L27.9050389,45.6020578 L27.9050389,45.6020578 C25.9494833,46.6479004 24.4147519,48.1826318 23.3689093,50.1381874 L23.2827613,50.3014324 L23.2827613,50.3014324 L23.1173109,50.6294716 C23.0904994,50.6844645 23.0640707,50.7396663 23.0380262,50.7951509 L22.8863816,51.1320409 C22.3718451,52.3271603 22.0280449,53.712007 21.8685526,55.9695456 L21.8280103,56.6388933 C21.8161757,56.8703181 21.8060246,57.1102484 21.7975687,57.3592742 L21.7772981,58.1342283 L21.7772981,58.1342283 L21.7661131,58.9672953 L21.7661131,58.9672953 L21.7661131,752.615951 C21.7661131,752.897483 21.7661131,753.169571 21.7707316,753.432714 L21.7845474,754.195808 L21.7845474,754.195808 L21.807501,754.908228 L21.807501,754.908228 L21.8395328,755.572971 L21.8395328,755.572971 L21.8805833,756.193033 L21.8805833,756.193033 L21.9305929,756.771411 L21.9305929,756.771411 L21.9895021,757.311101 C22.0950674,758.180008 22.2374663,758.900199 22.4154584,759.534095 L22.5265149,759.904577 C22.5649509,760.024952 22.6048006,760.142375 22.6460543,760.257345 L22.7740169,760.595394 L22.7740169,760.595394 L22.9103432,760.921722 C22.933758,760.975299 22.9575187,761.028513 22.9816242,761.081426 L23.1303845,761.395789 L23.1303845,761.395789 L23.2873597,761.705921 C23.3142035,761.757423 23.3413871,761.808874 23.3689093,761.860336 C24.4147519,763.815892 25.9494833,765.350623 27.9050389,766.396466 L28.2318978,766.566483 L28.2318978,766.566483 L28.5620023,766.727349 C28.6174869,766.753393 28.6732542,766.779054 28.7293779,766.804328 L29.0709881,766.951336 C29.1288328,766.975062 29.1871814,766.998399 29.2461077,767.021346 L29.6071881,767.154337 C29.976381,767.282623 30.3716814,767.396761 30.8090183,767.496433 L31.2609574,767.591272 L31.2609574,767.591272 L31.7444608,767.676397 C32.4951589,767.796764 33.3643332,767.884109 34.4057448,767.937365 L35.1261257,767.967806 L35.1261257,767.967806 L35.9010798,767.988077 C36.0349832,767.990604 36.171308,767.999262 36.3101279,767.999262 L37.1494243,767.999262 L366.382801,767.999262 C366.664334,767.999262 366.936422,767.999262 367.199565,767.999262 L367.962658,767.980828 C368.085534,767.977762 368.206299,767.974315 368.325015,767.970489 L369.013222,767.942989 L369.013222,767.942989 L369.655251,767.906441 C370.585157,767.844861 371.369322,767.752944 372.053252,767.631594 L372.494854,767.546343 C372.637438,767.516479 372.775571,767.485172 372.909754,767.452431 L373.300946,767.349917 C373.427725,767.314318 373.551053,767.277296 373.671428,767.23886 L374.024195,767.119321 L374.024195,767.119321 L374.362245,766.991358 L374.362245,766.991358 L374.688572,766.855032 L374.688572,766.855032 L375.006174,766.710401 L375.006174,766.710401 L375.318047,766.557526 L375.318047,766.557526 L375.627187,766.396466 L375.627187,766.396466 C377.582742,765.350623 379.117474,763.815892 380.163316,761.860336 L380.333334,761.533477 L380.333334,761.533477 L380.4942,761.203373 C380.520244,761.147888 380.545904,761.092121 380.571179,761.035997 L380.718186,760.694387 C380.741912,760.636542 380.76525,760.578194 380.788197,760.519267 L380.921188,760.158187 C380.942569,760.096655 380.963557,760.034397 380.98415,759.971341 L381.102966,759.582826 L381.102966,759.582826 L381.212244,759.171596 C381.4038,758.394689 381.546914,757.485416 381.639636,756.345621 L381.685202,755.700462 C381.69196,755.588929 381.698298,755.475343 381.704215,755.35963 L381.734657,754.639249 C381.743113,754.390224 381.749874,754.132102 381.754928,753.864295 L381.764957,753.031228 L381.764957,753.031228 L381.764957,58.9672953 L381.764957,58.9672953 L381.755732,58.1777414 L381.755732,58.1777414 L381.73734,57.440359 L381.73734,57.440359 L381.70984,56.7521518 L381.70984,56.7521518 L381.673291,56.1101235 L381.673291,56.1101235 L381.627754,55.5112779 C381.611083,55.3185268 381.592924,55.1324735 381.573287,54.9526186 L381.50995,54.4311494 C381.498658,54.3471706 381.486999,54.2646165 381.474974,54.1834247 L381.398445,53.7121227 C381.331028,53.3321619 381.254526,52.9831381 381.169096,52.6572484 L381.062303,52.2767857 L381.062303,52.2767857 L380.946998,51.9155355 C380.927074,51.8567617 380.906798,51.7986636 380.886171,51.7411788 L380.758209,51.4031294 L380.758209,51.4031294 L380.621883,51.0768018 L380.621883,51.0768018 L380.477252,50.7591998 L380.477252,50.7591998 L380.324377,50.4473271 L380.324377,50.4473271 L380.163316,50.1381874 L380.163316,50.1381874 C379.117474,48.1826318 377.582742,46.6479004 375.627187,45.6020578 L375.318047,45.4409975 L375.318047,45.4409975 L375.006174,45.2881223 L375.006174,45.2881223 L374.688572,45.1434917 L374.688572,45.1434917 L374.362245,45.0071654 L374.362245,45.0071654 L374.024195,44.8792028 L374.024195,44.8792028 L373.671428,44.7596635 C373.551053,44.7212275 373.427725,44.6842054 373.300946,44.648607 L372.909754,44.5460928 C372.775571,44.5133518 372.637438,44.4820444 372.494854,44.4521806 L372.053252,44.3669298 C371.369322,44.2455794 370.585157,44.1536624 369.655251,44.0920829 L369.013222,44.0555343 L369.013222,44.0555343 L368.325015,44.0280342 L368.325015,44.0280342 L367.587633,44.0096421 C367.460471,44.007339 367.331136,43.9992616 367.199565,43.9992616 L366.382801,43.9992616 L366.382801,43.9992616 Z" id="Shape" fill="#FFFFFF"></path>
            <path d="M368.364942,43.0288316 L367.199565,42.9992616 L36.3085108,42.9992616 L35.174999,43.0285531 L34.4790761,43.0563317 L33.8201403,43.0936993 C32.862026,43.1571038 32.0387159,43.2519952 31.3042717,43.3823085 L30.8478226,43.4703093 L30.6857673,43.5050038 L30.3854226,43.5745953 L29.9777838,43.6812705 L29.6905694,43.7651815 C29.6452743,43.7790314 29.6008398,43.7929287 29.5566258,43.8070463 L29.1870943,43.9321019 L28.799849,44.0781862 L28.4581791,44.2207731 L28.1116167,44.3780432 L27.7740296,44.5430727 L27.4429915,44.7152026 C25.303616,45.859287 23.6261385,47.5367645 22.4870961,49.6665885 L22.3983563,49.834712 L22.1327938,50.3702339 L21.9745047,50.721577 C21.3640556,52.1391329 21.0282637,53.6736296 20.8710389,55.8990725 L20.8298396,56.5784342 C20.8171575,56.8255668 20.8067729,57.0712375 20.7981447,57.3253377 L20.77764,58.1080801 L20.7662032,58.9538701 L20.7662032,753.193716 L20.7847112,754.21391 L20.8080196,754.94043 L20.8406917,755.621102 L20.8827675,756.259093 L20.9343102,756.857555 L20.9954067,757.419611 C21.1054555,758.326036 21.2549591,759.100229 21.4526923,759.804431 L21.568626,760.191716 L21.6596511,760.466756 C21.6746113,760.510121 21.6895991,760.55268 21.7048139,760.595082 L21.8387783,760.949412 L22.0716092,761.496002 L22.2264817,761.823527 L22.4238206,762.212393 L22.4870961,762.331935 C23.6261385,764.461759 25.303616,766.139237 27.43344,767.278279 L27.7704372,767.453644 L28.2643511,767.691433 L28.7505939,767.900503 L28.8832294,767.953183 L29.2615718,768.092713 C29.6930707,768.24283 30.1244557,768.366058 30.5868089,768.471432 L31.0555821,768.569955 L31.5710688,768.66125 C32.3877263,768.792311 33.2960146,768.881922 34.3546737,768.93606 L35.0839057,768.966915 L36.2493875,768.999262 L367.199565,768.999262 L368.357227,768.96997 L369.05315,768.942192 L369.712086,768.904824 C370.6702,768.84142 371.49351,768.746528 372.227954,768.616215 L372.684403,768.528214 L372.846458,768.49352 L373.146803,768.423928 L373.554442,768.317253 L373.841656,768.233342 C373.886951,768.219492 373.931386,768.205595 373.9756,768.191477 L374.345132,768.066422 L374.716263,767.926597 L375.074047,767.77775 L375.420609,767.62048 L375.758196,767.455451 L376.089234,767.283321 C378.22861,766.139237 379.906087,764.461759 381.04513,762.331935 L381.220494,761.994938 L381.39314,761.641443 L381.482986,761.446617 L381.667354,761.014781 L381.720034,760.882146 L381.911894,760.350959 L382.059247,759.875275 L382.178703,759.428417 C382.393986,758.555953 382.541924,757.587372 382.636344,756.426702 L382.682718,755.770915 C382.69033,755.646101 382.696842,755.529376 382.70291,755.410701 L382.733765,754.681469 C382.742725,754.418618 382.749611,754.155449 382.75475,753.883163 L382.764957,753.043266 L382.764957,58.9672953 L382.755664,58.1660589 L382.737029,57.4154243 L382.709043,56.7122246 L382.671675,56.0532888 L382.624875,55.4354546 L382.567379,54.8440798 L382.502655,54.3105773 C382.489173,54.2097005 382.476893,54.1227276 382.464184,54.0369177 L382.385516,53.5518425 C382.312045,53.1371501 382.230172,52.7613401 382.136411,52.4036711 L382.025094,52.0065381 L381.855058,51.4815154 L381.693447,51.0491114 L381.544601,50.6913276 L381.387331,50.3447653 L381.222302,50.0071782 L381.050172,49.67614 C379.906087,47.5367645 378.22861,45.859287 376.098786,44.7202446 L375.780095,44.5541423 L375.446323,44.3901975 L375.103007,44.2334126 L374.747719,44.0844468 L374.378213,43.9439642 L373.992364,43.8125626 C373.842958,43.7646935 373.708331,43.7243229 373.571282,43.6858408 L373.163249,43.5787563 C373.001029,43.5390258 372.852181,43.5053231 372.699853,43.4734184 L372.242801,43.3850585 C371.49351,43.2519952 370.6702,43.1571038 369.721327,43.0942683 L369.070057,43.0571507 L368.364942,43.0288316 Z M35.2471377,45.0272368 L36.3568114,44.9989699 L367.325729,44.9989699 L367.569525,45.0094781 L368.300081,45.0277233 L368.973295,45.0547369 L369.598416,45.0904665 C370.468764,45.1481449 371.22041,45.2347766 371.878549,45.351551 L372.305305,45.4340518 L372.672704,45.5175903 L373.04745,45.6159434 C373.145028,45.6435004 373.257093,45.6771055 373.367256,45.7122806 L373.703259,45.8263037 L374.008227,45.942404 L374.303098,46.0662104 L374.59174,46.1982014 L374.877898,46.3389223 L375.16514,46.4889131 C376.936875,47.4365138 378.328861,48.8284992 379.281503,50.6097862 L379.437522,50.9093745 L379.579327,51.1993487 L379.711803,51.4912363 L379.83549,51.7886036 L379.950933,52.0951968 L379.999933,52.2365794 L380.109654,52.5808564 L380.206305,52.9274959 C380.281625,53.215407 380.352045,53.5386449 380.413823,53.8868252 L380.487903,54.343705 L380.51887,54.5644121 L380.580582,55.0731907 L380.615066,55.4151853 C380.620662,55.4749748 380.626148,55.5358718 380.631473,55.5974445 L380.67617,56.1859467 L380.711456,56.8089866 L380.738137,57.4802863 L380.756043,58.2026761 L380.765025,58.9789778 L380.765025,753.031228 L380.755,753.852257 L380.735233,754.605313 L380.705107,755.31741 L380.687033,755.639985 L380.642121,756.275168 C380.556732,757.324127 380.424744,758.188283 380.241321,758.932202 L380.136507,759.326005 L380.01318,759.722866 L379.976589,759.82996 L379.792989,760.314901 L379.588967,760.778456 L379.434393,761.095407 L379.276156,761.398876 C378.328861,763.170024 376.936875,764.56201 375.155588,765.514653 L374.856,765.670671 L374.566026,765.812477 L374.274138,765.944953 L373.976771,766.06864 L373.670177,766.184082 L373.350492,766.291759 L373.14364,766.354732 C373.106627,766.365568 373.06875,766.376441 373.03061,766.38715 L372.656258,766.485094 L372.289855,766.567581 L371.863703,766.649723 C371.22041,766.763747 370.468764,766.850379 369.589174,766.908626 L368.956388,766.944606 L368.285088,766.971287 L367.175414,766.999554 L36.1754578,766.999554 L35.9199477,766.988255 L35.1522739,766.968148 L34.4479647,766.938256 C33.4661753,766.888011 32.6284196,766.805358 31.9027787,766.689009 L31.4343494,766.606419 L31.0143937,766.51775 C30.6399753,766.432265 30.2793732,766.329256 29.9354149,766.209738 L29.5025892,766.047352 L28.9869193,765.822117 L28.6699681,765.667542 L28.3664994,765.509305 C26.5953506,764.56201 25.2033653,763.170024 24.2507225,761.388737 L24.1741355,761.243721 L24.0226037,760.944186 L23.8266604,760.521268 L23.6967355,760.20992 L23.5812929,759.903327 L23.4791321,759.600405 L23.3733474,759.246956 C23.2093299,758.662263 23.079041,757.987571 22.9822027,757.190496 L22.9246883,756.662902 L22.876866,756.10689 L22.8373485,755.506912 L22.806342,754.860097 L22.7840288,754.163605 L22.7661131,753.036552 L22.7661131,58.9672953 L22.777208,58.1476534 L22.7972268,57.3854224 C22.8052389,57.1503617 22.8151411,56.916103 22.8267053,56.6899644 L22.8667233,56.0300047 C23.0083946,54.0254281 23.2967507,52.7077029 23.8048735,51.5274806 L24.0161713,51.0677066 L24.1756254,50.7517586 L24.2533143,50.6049077 C25.2033653,48.8284992 26.5953506,47.4365138 28.3766377,46.483871 L28.676226,46.3278527 L28.9662002,46.1860471 L29.2580878,46.0535709 L29.5554551,45.929884 L29.8457678,45.8204431 L30.1817338,45.7067643 L30.3885862,45.6437921 C30.4255984,45.6329555 30.4634762,45.6220822 30.5016153,45.6113731 L30.875968,45.5134293 L31.2423708,45.4309427 L31.6685232,45.348801 C32.3118162,45.2347766 33.0634617,45.1481449 33.9430514,45.0898975 L34.575838,45.0539179 L35.2471377,45.0272368 Z" id="Shape" fill="#C9C9C9"></path>
            <path d="M376.803485,5.01807802 L377.291445,5.25796842 C377.778127,5.5005426 378.261385,5.75115999 378.744901,6.00974744 C386.078235,9.93165702 391.833478,15.6868999 395.755387,23.0202333 C396.013975,23.5037498 396.264592,23.987008 396.507166,24.4736898 L396.747057,24.9616492 L397.09271,25.6908197 L397.316556,26.1820328 L397.535112,26.6782462 L397.748361,27.1802493 L397.956289,27.6888312 L398.158879,28.2047814 L398.356117,28.7288891 L398.547985,29.2619435 C398.579515,29.3515754 398.610821,29.4416128 398.641902,29.5320724 L398.825688,30.080027 L399.004066,30.6389015 L399.177021,31.2094853 L399.344536,31.7925677 C399.372001,31.8908335 399.399239,31.9896529 399.426249,32.0890425 L399.585576,32.6923526 L399.739424,33.3101345 L399.887778,33.9431775 C399.912045,34.0500003 399.936082,34.1574918 399.95989,34.2656686 L400.099973,34.9230831 C400.12286,35.0340665 400.145516,35.1457679 400.167941,35.2582039 L400.299718,35.9417658 L400.425939,36.643746 L400.546586,37.3649337 L400.661646,38.1061181 L400.771101,38.8680887 L400.874937,39.6516346 L400.973137,40.4575451 L401.065687,41.2866097 L401.152569,42.1396174 C401.166577,42.2838245 401.180347,42.4290621 401.193881,42.5753466 L401.272234,43.4657491 L401.344881,44.3820681 L401.443119,45.8068664 L401.501432,46.7914296 L401.553985,47.8046717 L401.621978,49.3800345 L401.66006,50.4684272 L401.692327,51.5882613 L401.718762,52.7403261 L401.739349,53.925411 L401.754074,55.1443051 L401.765873,56.3977979 L401.765873,57.6866786 L401.765873,754.960758 L401.754074,756.854218 L401.739349,758.073113 L401.706274,759.838308 L401.676921,760.974159 L401.621978,762.618489 L401.578096,763.67623 L401.52843,764.704107 L401.472995,765.702911 L401.37906,767.148331 L401.309272,768.077904 L401.193881,769.423177 L401.109837,770.288452 L401.020119,771.12939 L400.874937,772.346889 L400.771101,773.130435 L400.661646,773.892405 L400.546586,774.63359 L400.425939,775.354778 L400.299718,776.056758 L400.167941,776.74032 C400.145516,776.852756 400.12286,776.964457 400.099973,777.07544 L399.95989,777.732855 L399.814289,778.373825 L399.663186,778.999138 L399.506596,779.609586 C399.480041,779.710132 399.453259,779.810092 399.426249,779.909481 L399.261459,780.499109 L399.091222,781.075843 L398.915554,781.640474 L398.73447,782.19379 C398.703839,782.28511 398.672982,782.375992 398.641902,782.466451 L398.452723,783.004275 L398.258168,783.532757 L398.058252,784.052688 L397.852991,784.564855 L397.535112,785.320277 L397.316556,785.816491 L397.09271,786.307704 L396.747057,787.036874 L396.507166,787.524834 C396.264592,788.011516 396.013975,788.494774 395.755387,788.97829 C391.833478,796.311624 386.078235,802.066867 378.744901,805.988776 C378.261385,806.247364 377.778127,806.497981 377.291445,806.740555 L376.803485,806.980446 L376.074315,807.326099 L375.583102,807.549945 L375.086888,807.768501 L374.584885,807.98175 L374.076303,808.189678 L373.560353,808.392268 L373.036246,808.589506 L372.503191,808.781374 C372.413559,808.812904 372.323522,808.84421 372.233062,808.875291 L371.685108,809.059077 L371.126233,809.237455 L370.555649,809.41041 L369.972567,809.577925 C369.874301,809.60539 369.775482,809.632628 369.676092,809.659638 L369.072782,809.818965 L368.455,809.972813 L367.821957,810.121167 C367.715134,810.145434 367.607643,810.169471 367.499466,810.193279 L366.842051,810.333362 C366.731068,810.356249 366.619367,810.378905 366.506931,810.40133 L365.823369,810.533107 L365.121389,810.659328 L364.400201,810.779975 L363.659016,810.895035 L362.897046,811.00449 L362.1135,811.108326 L361.307589,811.206526 L360.478525,811.299076 L359.625517,811.385958 C359.48131,811.399966 359.336073,811.413736 359.189788,811.42727 L358.299385,811.505623 L357.383067,811.57827 L355.958268,811.676508 L354.973705,811.734821 L353.960463,811.787374 L352.3851,811.855367 L351.296707,811.893449 L350.176873,811.925716 L349.024809,811.952151 L347.839724,811.972738 L346.620829,811.987463 L345.367337,811.999262 L344.078456,811.999262 L58.8043772,811.999262 L56.9109169,811.987463 L55.6920228,811.972738 L53.9268273,811.939663 L52.7909765,811.91031 L51.1466463,811.855367 L50.0889058,811.811485 L49.0610282,811.761819 L48.0622242,811.706384 L46.6168047,811.612449 L45.6872315,811.542661 L44.3419584,811.42727 L43.4766831,811.343226 L42.6357456,811.253508 L41.4182464,811.108326 L40.6347005,811.00449 L39.8727299,810.895035 L39.1315455,810.779975 L38.4103578,810.659328 L37.7083776,810.533107 L37.0248157,810.40133 C36.9123797,810.378905 36.8006783,810.356249 36.6896949,810.333362 L36.0322804,810.193279 L35.3913109,810.047678 L34.7659971,809.896575 L34.1555497,809.739985 C34.0550035,809.71343 33.9550438,809.686648 33.8556543,809.659638 L33.2660266,809.494848 L32.6892922,809.324611 L32.1246617,809.148943 L31.5713458,808.967859 C31.4800256,808.937228 31.3891439,808.906371 31.2986842,808.875291 L30.7608604,808.686112 L30.232378,808.491557 L29.7124478,808.291641 L29.2002804,808.08638 L28.444858,807.768501 L27.9486446,807.549945 L27.4574315,807.326099 L26.728261,806.980446 L26.2403016,806.740555 C25.7536198,806.497981 25.2703616,806.247364 24.7868451,805.988776 C17.4535117,802.066867 11.6982688,796.311624 7.77635928,788.97829 C7.51777183,788.494774 7.26715444,788.011516 7.02458026,787.524834 L6.78468986,787.036874 L6.4390361,786.307704 L6.21519028,785.816491 L5.99663478,785.320277 L5.78338527,784.818274 L5.57545746,784.309692 L5.37286701,783.793742 L5.17562962,783.269635 L4.98376097,782.73658 C4.95223112,782.646948 4.92092563,782.556911 4.88984482,782.466451 L4.70605868,781.918497 L4.52768049,781.359622 L4.35472593,780.789038 L4.1872107,780.205956 C4.15974564,780.10769 4.13250787,780.008871 4.10549772,779.909481 L3.94617087,779.306171 L3.79232255,778.688389 L3.64396844,778.055346 C3.61970148,777.948523 3.59566409,777.841032 3.57185662,777.732855 L3.43177324,777.07544 C3.40888669,776.964457 3.3862307,776.852756 3.3638056,776.74032 L3.23202824,776.056758 L3.10580782,775.354778 L2.98516005,774.63359 L2.87010059,773.892405 L2.76064514,773.130435 L2.65680937,772.346889 L2.55860898,771.540978 L2.46605964,770.711914 L2.37917705,769.858906 C2.36516972,769.714699 2.35139915,769.569462 2.33786568,769.423177 L2.25951261,768.532774 L2.18686549,767.616456 L2.08862778,766.191657 L2.03031416,765.207094 L1.97776138,764.193852 L1.90976812,762.618489 L1.87168609,761.530096 L1.8394198,760.410262 L1.81298493,759.258198 L1.79239718,758.073113 L1.77767223,756.854218 L1.76587344,755.600726 L1.76587344,754.311845 L1.76587344,57.0377654 L1.77767223,55.1443051 L1.79239718,53.925411 L1.82547246,52.1602155 L1.854825,51.0243647 L1.90976812,49.3800345 L1.95365022,48.322294 L2.00331668,47.2944164 L2.05875184,46.2956124 L2.15268656,44.8501929 L2.22247482,43.9206197 L2.33786568,42.5753466 L2.42190902,41.7100713 L2.51162695,40.8691338 L2.65680937,39.6516346 L2.76064514,38.8680887 L2.87010059,38.1061181 L2.98516005,37.3649337 L3.10580782,36.643746 L3.23202824,35.9417658 L3.3638056,35.2582039 C3.3862307,35.1457679 3.40888669,35.0340665 3.43177324,34.9230831 L3.57185662,34.2656686 L3.71745774,33.6246991 L3.86856091,32.9993853 L4.02515046,32.3889379 C4.05170505,32.2883917 4.07848758,32.188432 4.10549772,32.0890425 L4.27028742,31.4994148 L4.44052428,30.9226804 L4.61619261,30.3580499 L4.79727673,29.804734 C4.82790787,29.7134138 4.858764,29.6225321 4.88984482,29.5320724 L5.07902322,28.9942486 L5.2735782,28.4657662 L5.47349408,27.945836 L5.67875518,27.4336686 L5.99663478,26.6782462 L6.21519028,26.1820328 L6.4390361,25.6908197 L6.78468986,24.9616492 L7.02458026,24.4736898 C7.26715444,23.987008 7.51777183,23.5037498 7.77635928,23.0202333 C11.6982688,15.6868999 17.4535117,9.93165702 24.7868451,6.00974744 C25.2703616,5.75115999 25.7536198,5.5005426 26.2403016,5.25796842 L26.728261,5.01807802 L27.4754355,4.66409 L27.9789385,4.43501613 L28.4877411,4.21149645 L29.0026922,3.99354782 L29.5246407,3.78118712 L30.3225401,3.47316033 L30.8656954,3.27484324 L31.418819,3.08217311 L31.9827597,2.89516681 L32.5583663,2.71384121 L33.1464877,2.53821317 L33.7479726,2.36829957 L34.36367,2.20411727 L34.9944287,2.04568314 L35.6410975,1.89301404 L36.3045252,1.74612685 L36.9855607,1.60503843 L37.6850528,1.46976565 L38.4038504,1.34032538 L39.1428024,1.21673448 L39.9027574,1.09900983 L40.6845644,0.987168282 L41.4890723,0.881226718 L42.3171298,0.781202001 L43.1695858,0.687110997 L44.0472891,0.598970576 L44.9510886,0.516797604 L45.8818331,0.440608949 L46.8403715,0.37042148 L47.8275525,0.306252063 L48.8442251,0.248117567 L49.8912381,0.196034859 L50.9694402,0.150020808 L52.0796804,0.11009228 L53.8069688,0.0616467442 L55.0010177,0.0370058228 L56.2300756,0.0185094625 L57.4949914,0 L58.7966138,0 L344.727369,0 L346.620829,0.0110603817 L347.839724,0.0257853377 L349.604919,0.0588606131 L350.74077,0.0882131513 L352.3851,0.14315628 L353.442841,0.187038373 L354.470718,0.23670484 L355.469522,0.292139998 L356.914942,0.386074718 L357.844515,0.455862981 L359.189788,0.571253838 L360.055063,0.65529718 L360.896001,0.745015105 L362.1135,0.890197527 L362.897046,0.994033292 L363.659016,1.10348875 L364.400201,1.21854821 L365.121389,1.33919598 L365.823369,1.4654164 L366.506931,1.59719376 C366.619367,1.61961886 366.731068,1.64227485 366.842051,1.6651614 L367.499466,1.80524478 L368.140436,1.9508459 L368.765749,2.10194907 L369.376197,2.25853862 C369.476743,2.28509321 369.576703,2.31187574 369.676092,2.33888588 L370.26572,2.50367558 L370.842454,2.67391244 L371.407085,2.84958077 L371.960401,3.03066489 C372.051721,3.06129603 372.142603,3.09215216 372.233062,3.12323298 L372.770886,3.31241138 L373.299368,3.50696636 L373.819299,3.70688224 L374.331466,3.91214334 L375.086888,4.23002294 L375.583102,4.44857844 L376.074315,4.67242426 L376.803485,5.01807802 Z M58.801252,2.00001252 L57.4116817,2.00001252 L56.0629744,2.01989213 L54.7540336,2.04000549 L53.4837629,2.06705244 L52.2510658,2.1011464 L51.0548459,2.14240077 L49.8940068,2.19092896 L48.7674519,2.24684439 L47.6740848,2.31026047 L46.6128091,2.3812906 L45.5825283,2.46004821 L44.5821459,2.5466467 L43.6105656,2.64119948 L42.6666908,2.74381997 C42.5116262,2.76160199 42.3576703,2.7797249 42.2048003,2.79819105 L41.300428,2.91312574 C41.1518101,2.93297431 41.0042324,2.95317084 40.857672,2.97371771 L39.9903351,3.10122178 C39.7051703,3.14513706 39.4238922,3.19047257 39.146318,3.2372472 L38.3245241,3.38190739 C38.0541748,3.43157918 37.7873467,3.482709 37.523857,3.53531575 L36.7432204,3.6975857 C36.229229,3.80874473 35.7278603,3.92588709 35.2376523,4.04916399 L34.510528,4.23869916 C34.3906748,4.27106148 34.2714735,4.30381193 34.1529011,4.33695287 L33.4488325,4.54050342 C32.8680942,4.71406536 32.3019391,4.89750787 31.7475119,5.09112629 L31.0876459,5.32837173 C30.9785455,5.36873301 30.8698686,5.40950606 30.7615922,5.45069323 L30.1165585,5.70280464 L29.4800423,5.96496845 C29.3746052,6.00950642 29.2694772,6.05446797 29.1646357,6.09985545 L28.5388401,6.37731053 L27.9188209,6.66510153 L27.6106349,6.81290845 L27.1324722,7.04794936 C26.676385,7.27527442 26.2115079,7.51588347 25.7300428,7.77337383 C18.7452464,11.5088838 13.2754956,16.9786346 9.53998567,23.963431 C9.36832543,24.2844077 9.20416799,24.598012 9.04788438,24.9036517 L8.81941069,25.3560637 L8.58441618,25.8339938 L8.29571966,26.4422466 L8.01707563,27.0556011 C7.88024905,27.3637278 7.74715236,27.6741588 7.61772586,27.9874813 L7.36374876,28.6181554 L7.11945271,29.2575834 L6.88473159,29.9068088 L6.65947926,30.566875 L6.44358961,31.2388257 L6.2369565,31.9237042 L6.03947381,32.6225541 C5.91084524,33.093343 5.7882462,33.5741418 5.67153519,34.0663417 L5.500867,34.8133665 C5.47315241,34.9393538 5.4458014,35.0660971 5.41881176,35.1936182 L5.26119264,35.9682522 C5.23563963,36.0989714 5.21044357,36.2305119 5.18560224,36.3628954 L5.04079342,37.1674865 C5.01736219,37.303329 4.99428127,37.440058 4.97154846,37.5776952 L4.83931114,38.4145912 C4.8179619,38.5559483 4.79695634,38.6982571 4.77629225,38.8415394 L4.65638765,39.7130881 L4.54457221,40.609043 L4.4407398,41.5304476 L4.34478429,42.4783453 L4.25659956,43.4537797 L4.17607948,44.4577942 C4.16329229,44.6275696 4.15082004,44.7985793 4.13866052,44.9708451 L4.06943843,46.0196863 L4.00761567,47.0997164 L3.95308613,48.2119788 L3.90574366,49.357517 L3.86548216,50.5373745 L3.83219548,51.7525947 L3.8057775,53.0042212 L3.77879721,54.9522053 L3.76667453,56.9879731 L3.76667453,755.01055 L3.77879634,757.046316 L3.80577281,758.994293 L3.83218551,760.245908 L3.86546395,761.461112 L3.90571361,762.640945 L3.95303996,763.78645 L4.00754847,764.89867 L4.0693446,765.978645 L4.13853384,767.027419 L4.21522164,768.046033 L4.29951347,769.035531 L4.39151482,769.996952 L4.49133114,770.931341 L4.5990679,771.839739 L4.71483059,772.723188 C4.75476752,773.013629 4.79605968,773.300085 4.83872465,773.582731 L4.97085558,774.419409 L5.11132883,775.234265 C5.15955535,775.502362 5.20918984,775.766996 5.26024987,776.02834 L5.41772418,776.802677 L5.58385722,777.558319 L5.75875447,778.296307 L5.94252138,779.017683 C6.00526702,779.255488 6.06950852,779.490699 6.13526345,779.723489 L6.33708612,780.414768 C6.37148581,780.528829 6.40626826,780.642327 6.44143565,780.755285 L6.657077,781.426728 C6.69379299,781.537612 6.73089832,781.648 6.76839519,781.757913 L6.99809253,782.411862 C7.11530803,782.736161 7.23608696,783.056574 7.36048866,783.37369 L7.61413998,784.003697 C7.70031225,784.212349 7.78811222,784.419709 7.87755746,784.62595 L8.15084658,785.241492 L8.43411281,785.851364 L8.57952029,786.154501 L8.8145612,786.632663 C9.04188626,787.08875 9.28249531,787.553627 9.53998567,788.035093 C13.2754956,795.019889 18.7452464,800.48964 25.7300428,804.22515 C26.0510195,804.39681 26.3646238,804.560967 26.6702635,804.717251 L27.1226755,804.945725 L27.6006056,805.180719 L28.2088584,805.469416 L28.8222129,805.74806 C29.1303396,805.884886 29.4407706,806.017983 29.7540931,806.14741 L30.3847672,806.401387 L31.0241952,806.645683 L31.6734206,806.880404 L32.3334868,807.105656 L33.0054375,807.321546 L33.690316,807.528179 L34.3891659,807.725662 C34.8599548,807.85429 35.3407536,807.976889 35.8329535,808.0936 L36.5799783,808.264268 C36.7059656,808.291983 36.8327089,808.319334 36.96023,808.346324 L37.734864,808.503943 C37.8655832,808.529496 37.9971237,808.554692 38.1295072,808.579533 L38.9340983,808.724342 C39.0699408,808.747773 39.2066698,808.770854 39.344307,808.793587 L40.181203,808.925824 C40.3225601,808.947174 40.4648689,808.968179 40.6081512,808.988843 L41.4796999,809.108748 L42.3756548,809.220563 L43.2970594,809.324396 L44.2449571,809.420351 L45.2203915,809.508536 L46.224406,809.589056 C46.3941814,809.601843 46.5651911,809.614315 46.7374569,809.626475 L47.7862981,809.695697 L48.8663282,809.75752 L49.9785906,809.812049 L51.1241288,809.859392 L52.3039863,809.899653 L53.5192065,809.93294 L54.770833,809.959358 L56.7188171,809.986338 L58.7545849,809.998461 L344.777161,809.998461 L346.812927,809.986339 L348.760904,809.959363 L350.012519,809.93295 L351.227723,809.899671 L352.407556,809.859422 L353.553061,809.812095 L354.665281,809.757587 L355.745256,809.695791 L356.79403,809.626602 L357.812644,809.549914 L358.802142,809.465622 L359.763563,809.373621 L360.697952,809.273804 L361.60635,809.166068 L362.489799,809.050305 C362.78024,809.010368 363.066696,808.969076 363.349342,808.926411 L364.18602,808.79428 L365.000876,808.653807 C365.268973,808.60558 365.533607,808.555946 365.794951,808.504886 L366.569288,808.347411 L367.32493,808.181278 L368.062918,808.006381 L368.784294,807.822614 C369.022099,807.759868 369.25731,807.695627 369.4901,807.629872 L370.181379,807.428049 C370.29544,807.39365 370.408938,807.358867 370.521896,807.3237 L371.193339,807.108058 C371.304223,807.071342 371.414611,807.034237 371.524524,806.99674 L372.178473,806.767043 C372.502772,806.649827 372.823185,806.529048 373.140301,806.404647 L373.770308,806.150995 C373.97896,806.064823 374.18632,805.977023 374.392561,805.887578 L375.008103,805.614289 L375.617975,805.331023 L375.921112,805.185615 L376.399274,804.950574 C376.855361,804.723249 377.320238,804.48264 377.801704,804.22515 C384.7865,800.48964 390.256251,795.019889 393.991761,788.035093 C394.163421,787.714116 394.327578,787.400512 394.483862,787.094872 L394.712336,786.64246 L394.94733,786.16453 L395.236027,785.556277 L395.514671,784.942922 C395.651497,784.634796 395.784594,784.324365 395.914021,784.011042 L396.167998,783.380368 L396.412294,782.74094 L396.647015,782.091715 L396.872267,781.431649 L397.088157,780.759698 L397.29479,780.074819 L397.492273,779.37597 C397.620901,778.905181 397.7435,778.424382 397.860211,777.932182 L398.030879,777.185157 C398.058594,777.05917 398.085945,776.932427 398.112935,776.804905 L398.270554,776.030271 C398.296107,775.899552 398.321303,775.768012 398.346144,775.635628 L398.490953,774.831037 C398.514384,774.695195 398.537465,774.558466 398.560198,774.420828 L398.692435,773.583932 C398.713785,773.442575 398.73479,773.300266 398.755454,773.156984 L398.875359,772.285436 L398.987174,771.389481 L399.091007,770.468076 L399.186962,769.520178 L399.275147,768.544744 L399.355667,767.540729 C399.368454,767.370954 399.380926,767.199944 399.393086,767.027678 L399.462308,765.978837 L399.524131,764.898807 L399.57866,763.786545 L399.626003,762.641007 L399.666264,761.461149 L399.699551,760.245929 L399.725969,758.994302 L399.752949,757.046318 L399.765072,755.01055 L399.765072,56.9879732 L399.75295,54.9522071 L399.725974,53.0042308 L399.699561,51.7526151 L399.666282,50.5374118 L399.626033,49.3575785 L399.578706,48.2120734 L399.524198,47.0998541 L399.462402,46.0198785 L399.393213,44.9711046 L399.316525,43.9524902 L399.232233,42.9629931 L399.140232,42.0015712 L399.040415,41.0671823 L398.932679,40.1587843 L398.816916,39.2753352 C398.776979,38.9848945 398.735687,38.6984382 398.693022,38.4157926 L398.560891,37.5791146 L398.420418,36.7642589 C398.372191,36.4961617 398.322557,36.2315277 398.271497,35.9701835 L398.114022,35.1958461 L397.947889,34.4402047 L397.772992,33.702217 L397.589225,32.9808411 C397.526479,32.7430352 397.462238,32.5078243 397.396483,32.2750346 L397.19466,31.5837555 C397.160261,31.4696951 397.125478,31.3561965 397.090311,31.2432381 L396.874669,30.5717961 C396.837953,30.4609115 396.800848,30.3505237 396.763351,30.240611 L396.533654,29.5866612 C396.416438,29.2623629 396.295659,28.9419491 396.171258,28.6248337 L395.917606,27.994827 C395.831434,27.7861749 395.743634,27.5788151 395.654189,27.3725738 L395.3809,26.7570319 L395.097634,26.1471592 L394.952226,25.8440231 L394.717185,25.3658604 C394.48986,24.9097732 394.249251,24.4448961 393.991761,23.963431 C390.256251,16.9786346 384.7865,11.5088838 377.801704,7.77337383 C377.480727,7.60171359 377.167123,7.43755615 376.861483,7.28127254 L376.409071,7.05279885 L375.921112,6.81290845 L375.322888,6.52910782 L374.709533,6.25046379 C374.401407,6.11363721 374.090976,5.98054052 373.777653,5.85111402 L373.146979,5.59713692 L372.507551,5.35284087 L371.858326,5.11811975 L371.19826,4.89286742 L370.526309,4.67697777 L369.84143,4.47034466 L369.142581,4.27286197 C368.671792,4.1442334 368.190993,4.02163436 367.698793,3.90492335 L366.951768,3.73425516 C366.825781,3.70654057 366.699038,3.67918956 366.571517,3.65219992 L365.796883,3.4945808 C365.666164,3.46902779 365.534623,3.44383173 365.40224,3.4189904 L364.597649,3.27418158 C364.461806,3.25075035 364.325077,3.22766943 364.18744,3.20493662 L363.350544,3.0726993 C363.209187,3.05135006 363.066878,3.0303445 362.923596,3.00968041 L362.052047,2.88977581 L361.156093,2.77796037 L360.234688,2.67412796 L359.286791,2.57817245 L358.311356,2.48998772 L357.307342,2.40946764 C357.137567,2.39668045 356.966557,2.3842082 356.794291,2.37204868 L355.74545,2.30282659 L354.665421,2.24100383 L353.553158,2.18647429 L352.407621,2.13913182 L351.227763,2.09887032 L350.012543,2.06558364 L348.760917,2.03916566 L346.812934,2.01218537 L344.777167,2.00001252 L58.801252,2.00001252 Z" id="Shape" fill="#C9C9C9"></path>
        </g>
    </g>
</svg>