<?xml version="1.0" encoding="UTF-8"?>
<svg width="1200px" height="900px" viewBox="0 0 1200 900" version="1.1" xmlns="http://www.w3.org/2000/svg" xmlns:xlink="http://www.w3.org/1999/xlink">
	<defs>
		<style>
			path {
				fill: #fff;
				stroke: #dfdfdf;
			}

			svg {
				background-image: url('GA_CourseProgress.jpg');
				background-size: cover;
				background-position: top center;
				background-repeat: no-repeat;
				fill: transparent !important;
			}
		</style>
	</defs>
	<title>tablet-horizontal</title>
	<path d="M1130.21133,1.50073644 C1152.57094,1.54688041 1161.51692,3.76091849 1169.83236,7.97881627 L1170.3624,8.25076362 C1170.45063,8.29654121 1170.53883,8.3425452 1170.627,8.38877538 L1171.15586,8.66886915 C1179.85355,13.3204467 1186.67955,20.1464477 1191.33113,28.8441414 L1191.33113,28.8441414 L1191.61122,29.3729967 C1191.65745,29.4611691 1191.70346,29.5493667 1191.74924,29.6376048 L1192.02118,30.1676439 C1196.28395,38.5715391 1198.5,47.619472 1198.5,70.506843 L1198.5,70.506843 L1198.5,829.493157 C1198.5,852.380528 1196.28395,861.428461 1192.02118,869.832356 L1191.74924,870.362395 C1191.70346,870.450633 1191.65745,870.538831 1191.61122,870.627003 L1191.33113,871.155859 C1186.67955,879.853552 1179.85355,886.679553 1171.15586,891.331131 L1171.15586,891.331131 L1170.627,891.611225 C1170.53883,891.657455 1170.45063,891.703459 1170.3624,891.749236 L1169.83236,892.021184 C1161.42846,896.283953 1152.38053,898.5 1129.49316,898.5 L1129.49316,898.5 L70.506843,898.5 C47.619472,898.5 38.5715391,896.283953 30.1676439,892.021184 L29.6376048,891.749236 C29.5493667,891.703459 29.4611691,891.657455 29.3729967,891.611225 L28.8441414,891.331131 C20.1464477,886.679553 13.3204467,879.853552 8.66886915,871.155859 C4.00363115,862.432622 1.55038907,853.764362 1.5007655,830.223986 L1.5007655,830.223986 L1.50073644,69.7886689 C1.54688041,47.4290605 3.76091849,38.483077 7.97881627,30.1676439 L8.25076362,29.6376048 C8.29654121,29.5493667 8.3425452,29.4611691 8.38877538,29.3729967 L8.66886915,28.8441414 C13.3204467,20.1464477 20.1464477,13.3204467 28.8441414,8.66886915 C37.5673781,4.00363115 46.235638,1.55038907 69.7760133,1.5007655 L69.7760133,1.5007655 Z" id="bezel" stroke-width="3" fill-rule="nonzero"></path>
	<path d="M61.2555408,51 L1138.74446,51 C1142.31053,51 1143.60368,51.3713024 1144.90738,52.0685308 C1146.21109,52.7657592 1147.23424,53.7889135 1147.93147,55.0926172 C1148.6287,56.3963209 1149,57.6894658 1149,61.2555408 L1149,838.744459 C1149,842.310534 1148.6287,843.603679 1147.93147,844.907383 C1147.23424,846.211087 1146.21109,847.234241 1144.90738,847.931469 C1143.60368,848.628698 1142.31053,849 1138.74446,849 L61.2555408,849 C57.6894658,849 56.3963209,848.628698 55.0926172,847.931469 C53.7889135,847.234241 52.7657592,846.211087 52.0685308,844.907383 C51.3713024,843.603679 51,842.310534 51,838.744459 L51,61.2555408 C51,57.6894658 51.3713024,56.3963209 52.0685308,55.0926172 C52.7657592,53.7889135 53.7889135,52.7657592 55.0926172,52.0685308 C56.3963209,51.3713024 57.6894658,51 61.2555408,51 Z" id="screen" stroke-width="2" fill-rule="nonzero"></path>
</svg>