<?xml version="1.0" encoding="UTF-8"?>
<svg width="900px" height="1200px" viewBox="0 0 900 1200" version="1.1" xmlns="http://www.w3.org/2000/svg" xmlns:xlink="http://www.w3.org/1999/xlink">
    <title>tablet-vertical</title>
    <g id="tablet-vertical" stroke="none" stroke-width="1" fill="none" fill-rule="evenodd">
        <path d="M830.211331,1.50073644 C852.570939,1.54688041 861.516923,3.76091849 869.832356,7.97881627 L870.362395,8.25076362 C870.450633,8.29654121 870.538831,8.3425452 870.627003,8.38877538 L871.155859,8.66886915 C879.853552,13.3204467 886.679553,20.1464477 891.331131,28.8441414 L891.331131,28.8441414 L891.611225,29.3729967 C891.657455,29.4611691 891.703459,29.5493667 891.749236,29.6376048 L892.021184,30.1676439 C896.283953,38.5715391 898.5,47.619472 898.5,70.506843 L898.5,70.506843 L898.5,1129.49316 C898.5,1152.38053 896.283953,1161.42846 892.021184,1169.83236 L891.749236,1170.3624 C891.703459,1170.45063 891.657455,1170.53883 891.611225,1170.627 L891.331131,1171.15586 C886.679553,1179.85355 879.853552,1186.67955 871.155859,1191.33113 L871.155859,1191.33113 L870.627003,1191.61122 C870.538831,1191.65745 870.450633,1191.70346 870.362395,1191.74924 L869.832356,1192.02118 C861.428461,1196.28395 852.380528,1198.5 829.493157,1198.5 L829.493157,1198.5 L70.506843,1198.5 C47.619472,1198.5 38.5715391,1196.28395 30.1676439,1192.02118 L29.6376048,1191.74924 C29.5493667,1191.70346 29.4611691,1191.65745 29.3729967,1191.61122 L28.8441414,1191.33113 C20.1464477,1186.67955 13.3204467,1179.85355 8.66886915,1171.15586 C4.00363115,1162.43262 1.55038907,1153.76436 1.5007655,1130.22399 L1.5007655,1130.22399 L1.50073644,69.7886689 C1.54688041,47.4290605 3.76091849,38.483077 7.97881627,30.1676439 L8.25076362,29.6376048 C8.29654121,29.5493667 8.3425452,29.4611691 8.38877538,29.3729967 L8.66886915,28.8441414 C13.3204467,20.1464477 20.1464477,13.3204467 28.8441414,8.66886915 C37.5673781,4.00363115 46.235638,1.55038907 69.7760138,1.5007655 L69.7760138,1.5007655 Z" id="bezel" stroke="#DFDFDF" stroke-width="3" fill="#FFFFFF" fill-rule="nonzero"></path>
        <path d="M61.2555408,51 L838.744459,51 C842.310534,51 843.603679,51.3713024 844.907383,52.0685308 C846.211087,52.7657592 847.234241,53.7889135 847.931469,55.0926172 C848.628698,56.3963209 849,57.6894658 849,61.2555408 L849,1138.74446 C849,1142.31053 848.628698,1143.60368 847.931469,1144.90738 C847.234241,1146.21109 846.211087,1147.23424 844.907383,1147.93147 C843.603679,1148.6287 842.310534,1149 838.744459,1149 L61.2555408,1149 C57.6894658,1149 56.3963209,1148.6287 55.0926172,1147.93147 C53.7889135,1147.23424 52.7657592,1146.21109 52.0685308,1144.90738 C51.3713024,1143.60368 51,1142.31053 51,1138.74446 L51,61.2555408 C51,57.6894658 51.3713024,56.3963209 52.0685308,55.0926172 C52.7657592,53.7889135 53.7889135,52.7657592 55.0926172,52.0685308 C56.3963209,51.3713024 57.6894658,51 61.2555408,51 Z" id="screen" stroke="#DFDFDF" stroke-width="2" fill="#FFFFFF" fill-rule="nonzero" opacity="0.600000024"></path>
    </g>
</svg>