<?xml version="1.0" encoding="UTF-8"?>
<svg width="550px" height="412px" viewBox="0 0 550 412" version="1.1" xmlns="http://www.w3.org/2000/svg" xmlns:xlink="http://www.w3.org/1999/xlink">
    <title>Group</title>
    <defs>
        <rect id="path-1" x="0" y="0" width="515" height="386"></rect>
        <rect x="9.5359116" y="-7.53038674" width="501.300466" height="441" id="rect-3"></rect>
        <filter color-interpolation-filters="auto" id="filter-5">
            <feColorMatrix in="SourceGraphic" type="matrix" values="0 0 0 0 1.000000 0 0 0 0 1.000000 0 0 0 0 1.000000 0 0 0 1.000000 0"></feColorMatrix>
        </filter>
    </defs>
    <g id="design" stroke="none" stroke-width="1" fill="none" fill-rule="evenodd">
        <g id="client-work-r2" transform="translate(-86.000000, -1829.000000)">
            <g id="Group" transform="translate(87.000000, 1829.000000)">
                <g id="intro-video@1600" transform="translate(14.000000, 14.000000)">
                    <mask id="mask-2" fill="white">
                        <use xlink:href="#path-1"></use>
                    </mask>
                    <g id="Mask"></g>
                    <g mask="url(#mask-2)">
                        <image x="9.5359116" y="-7.53038674" width="501.300466" height="441" xlink:href=""></image>
                    </g>
                </g>
                <g id="Group" transform="translate(68.500000, -68.666667)">
                    <g id="tablet/vertical/white" transform="translate(205.500000, 274.666667) rotate(90.000000) translate(-205.500000, -274.666667) ">
                        <g filter="url(#filter-5)" id="frame">
                            <g transform="translate(0.000000, 0.000000)">
                                <path d="M378.147464,0 L379.148719,0.0126529881 L379.79497,0.0224758295 L380.424642,0.0350897781 L381.038097,0.0504879444 L381.635698,0.0686634393 L382.217807,0.0896093733 L382.784786,0.113318857 L383.336996,0.139785002 L383.874801,0.169000917 L384.398563,0.200959715 L384.908644,0.235654505 L385.405406,0.273078398 L385.889211,0.313224505 L386.360421,0.356085937 L387.044415,0.425454248 L387.485725,0.475073849 L387.915707,0.527384665 L388.334726,0.582379803 L388.743142,0.640052369 L389.141318,0.700395486 L389.720176,0.795902355 L389.720176,0.795902355 L390.094337,0.862891688 L390.459527,0.932527452 L390.816106,1.00480276 L391.164438,1.07971072 L391.672263,1.19699381 L391.672263,1.19699381 L392.001561,1.27845326 L392.482533,1.40553129 L392.482533,1.40553129 L392.949024,1.53845529 L392.949024,1.53845529 L393.252576,1.63030757 L393.550596,1.72474082 L393.843448,1.82174817 L394.131495,1.92132273 L394.415096,2.0234576 L394.694616,2.12814589 L394.970416,2.23538072 L395.242858,2.3451552 L395.512306,2.45746243 L395.77912,2.57229554 L396.175197,2.74926612 L396.437014,2.87038375 L396.827292,3.05674884 L397.086375,3.18410794 L397.47425,3.37980294 C401.782762,5.58516237 405.164108,8.82143766 407.468325,12.9451013 L407.672792,13.3163358 L407.805861,13.5643031 L408.00058,13.9378373 L408.127126,14.1884212 L408.251053,14.4406583 L408.37235,14.6948954 L408.491012,14.9514793 L408.607031,15.2107565 L408.7204,15.4730738 L408.831113,15.7387778 L408.939161,16.0082154 L409.096222,16.4201303 L409.096222,16.4201303 L409.197577,16.7004182 L409.296244,16.9856531 L409.392214,17.2761815 L409.485479,17.5723502 L409.531096,17.722658 L409.531096,17.722658 L409.642167,18.1052601 L409.642167,18.1052601 L409.748981,18.4981649 L409.83136,18.8203616 L409.871522,18.9842034 L409.949788,19.3175907 L410.025303,19.6588718 L410.09806,20.0083934 L410.168052,20.3665021 L410.26784,20.9205245 L410.26784,20.9205245 L410.330888,21.3016179 L410.391146,21.6925118 L410.448607,22.0935531 L410.503262,22.5050883 L410.555106,22.9274642 L410.604131,23.3610274 L410.650329,23.8061247 L410.693695,24.2631027 L410.734219,24.7323081 L410.771896,25.2140877 L410.806718,25.7087881 L410.838677,26.2167559 L410.867767,26.738338 L410.89398,27.273881 L410.91731,27.8237315 L410.937748,28.3882364 L410.955288,28.9677422 L410.969923,29.5625956 L410.981645,30.1731434 L410.999632,31.4427089 L410.999632,517.890624 L410.986412,518.848922 L410.976149,519.467449 L410.962969,520.070104 L410.946881,520.657241 L410.927891,521.229202 L410.906006,521.786336 L410.881233,522.32899 L410.853581,522.857508 L410.823055,523.372243 L410.789664,523.873532 L410.753414,524.36173 L410.714313,524.837178 L410.672367,525.300224 L410.627584,525.751222 L410.555106,526.405868 L410.503262,526.828245 L410.448607,527.239778 L410.391146,527.640819 L410.330888,528.031716 L410.26784,528.412811 L410.202009,528.784449 L410.168052,528.966832 L410.09806,529.324938 L410.025303,529.67446 L409.949788,530.015743 L409.871522,530.349129 L409.790513,530.67497 L409.748981,530.83517 L409.663871,531.150336 L409.531096,531.610677 L409.531096,531.610677 L409.439185,531.909794 L409.392214,532.057152 L409.296244,532.347681 L409.197577,532.632913 L409.096222,532.913202 L408.992184,533.188889 L408.88547,533.460324 L408.77609,533.727854 L408.664048,533.991822 L408.549352,534.252572 L408.432011,534.510461 L408.31203,534.765828 L408.127126,535.144914 L408.00058,535.395497 L407.805861,535.76903 L407.672792,536.016999 L407.468325,536.388234 C405.2142,540.422249 401.929268,543.607046 397.753924,545.808243 L397.34629,546.018725 L397.090257,546.147296 L396.705261,546.335585 L396.447455,546.458054 L396.188326,546.57807 L395.79638,546.753485 L395.532404,546.867344 L395.265873,546.97873 L394.860519,547.14115 L394.723743,547.194046 L394.723743,547.194046 L394.447442,547.297966 L394.16718,547.399382 L393.882608,547.498294 L393.593372,547.594684 L393.299122,547.688556 L392.999506,547.779901 L392.694173,547.86871 L392.539253,547.912158 L392.539253,547.912158 L392.06495,548.038692 L392.06495,548.038692 L391.740356,548.119851 L391.408639,548.198452 L391.069448,548.274484 L390.72243,548.347939 L390.367236,548.418812 L390.186461,548.453278 L390.186461,548.453278 L389.818341,548.52027 L389.441164,548.584656 L389.05458,548.646442 L388.85765,548.676354 L388.85765,548.676354 L388.456295,548.734217 L388.044654,548.789461 L387.622374,548.842074 L386.96824,548.916046 L386.517828,548.962057 L386.055548,549.005418 L385.581049,549.046114 L385.093979,549.084151 L384.593986,549.11951 L384.080719,549.152195 L383.553826,549.182193 L382.737172,549.222139 L382.174678,549.24539 L381.597329,549.265935 L381.004773,549.283765 L380.396658,549.298872 L379.454545,549.316414 L378.140658,549.332981 L32.8518001,549.332981 L31.8505454,549.32068 L31.2042942,549.310856 L30.574622,549.298245 L29.9611666,549.282845 L29.3635657,549.264671 L28.7814571,549.243723 L28.2144786,549.220015 L27.6622678,549.193546 L27.1244627,549.164331 L26.6007009,549.132373 L26.0906203,549.097678 L25.5938585,549.060255 L25.1100534,549.020108 L24.6388427,548.977246 L23.9548488,548.907879 L23.5135394,548.858261 L23.0835566,548.80595 L22.6645381,548.750953 L22.2561219,548.693282 L21.8579455,548.632938 L21.2790883,548.537432 L21.2790883,548.537432 L20.904927,548.470441 L20.5397376,548.400808 L20.1831582,548.328529 L19.8348263,548.253623 L19.3270005,548.136341 L19.3270005,548.136341 L18.997703,548.054879 L18.5167306,547.9278 L18.5167306,547.9278 L18.0502402,547.79488 L18.0502402,547.79488 L17.7466885,547.703026 L17.4486676,547.608591 L17.1558154,547.511584 L16.8677696,547.412013 L16.5841679,547.309878 L16.3046482,547.205189 L16.0288482,547.097954 L15.7564057,546.988179 L15.4869584,546.875872 L15.2201441,546.761039 L14.8240671,546.584066 L14.5622506,546.462948 L14.1719722,546.276586 L13.9128895,546.149223 L13.5250138,545.953533 C9.31016512,543.796113 5.98260953,540.652118 3.68273953,536.655906 L3.4628205,536.26576 L3.32848743,536.020712 L3.13176027,535.652237 L3.00380065,535.40549 L2.87840263,535.15748 L2.69512387,534.782349 L2.57616041,534.529697 L2.45978299,534.274601 L2.29008098,533.886638 L2.23481424,533.755732 L2.23481424,533.755732 L2.12623686,533.491283 L2.02027347,533.223044 L1.91693105,532.95068 L1.81621659,532.673857 L1.71813705,532.392228 L1.62269945,532.105466 L1.52991074,531.813235 L1.48451191,531.664961 L1.39570966,531.363889 L1.35230798,531.211005 L1.2675079,530.900339 L1.18538466,530.582856 L1.10594525,530.258214 L1.02919665,529.926087 L0.955145843,529.586132 L0.919134297,529.41311 L0.919134297,529.41311 L0.849143285,529.060786 L0.781867526,528.699792 L0.717314007,528.329793 L0.686060275,528.141312 L0.686060275,528.141312 L0.625603212,527.757173 L0.567885856,527.363195 L0.512915186,526.959032 L0.435624495,526.332962 L0.387551096,525.901872 L0.34224883,525.459426 L0.29972468,525.005287 L0.25998563,524.539114 L0.223038665,524.060571 L0.188890768,523.569325 L0.157548926,523.065037 L0.115812791,522.283418 L0.091516638,521.745058 L0.0700509848,521.192479 L0.0514228139,520.625347 L0.035639111,520.043319 L0.0173122112,519.141625 L0,517.88411 L0,31.4427089 L0.0128521974,30.4844111 L0.0231153601,29.8658861 L0.0362947449,29.2632288 L0.0523831533,28.6760925 L0.0713733878,28.1041305 L0.09325825,27.5469961 L0.118030542,27.0043427 L0.145683064,26.4758236 L0.17620862,25.9610919 L0.209600011,25.4598011 L0.245850039,24.9716045 L0.284951506,24.4961553 L0.326897213,24.0331069 L0.371679962,23.5821126 L0.444157795,22.9274642 L0.496001659,22.5050883 L0.550657371,22.0935531 L0.608117737,21.6925118 L0.668375552,21.3016179 L0.731423624,20.9205245 L0.831211706,20.3665021 L0.831211706,20.3665021 L0.901203924,20.0083934 L0.973961199,19.6588718 L1.04947634,19.3175907 L1.12774214,18.9842034 L1.20875141,18.6583632 L1.2502826,18.4981649 L1.33539357,18.1829952 L1.46816804,17.722658 L1.46816804,17.722658 L1.56007919,17.4235391 L1.60705052,17.2761815 L1.70302019,16.9856531 L1.80168653,16.7004182 L1.90304236,16.4201303 L2.00708047,16.1444425 L2.11379366,15.8730082 L2.22317474,15.6054808 L2.33521651,15.3415134 L2.44991177,15.0807595 L2.56725332,14.8228723 L2.68723396,14.5675052 L2.87213747,14.1884212 L2.99868436,13.9378373 L3.1934035,13.5643031 L3.32647163,13.3163358 L3.5309389,12.9451013 C5.83515633,8.82143766 9.21650179,5.58516237 13.5250138,3.37980294 L13.9128895,3.18410794 L14.1719722,3.05674884 L14.5622506,2.87038375 L14.8240671,2.74926612 L15.0876111,2.63065713 L15.3532447,2.51456368 L15.6213302,2.40099265 L15.8922299,2.28995093 L16.1663059,2.18144542 L16.4439205,2.075483 L16.7254359,1.97207055 L17.1558154,1.82174817 L17.1558154,1.82174817 L17.4486676,1.72474082 L17.7466885,1.63030757 L18.0502402,1.53845529 L18.3596851,1.44919089 L18.5167306,1.40553129 L18.5167306,1.40553129 L18.9164833,1.29922598 L18.9164833,1.29922598 L19.3270005,1.19699381 L19.8348263,1.07971072 L19.8348263,1.07971072 L20.1831582,1.00480276 L20.5397376,0.932527452 L20.904927,0.862891688 L21.2790883,0.795902355 L21.6625841,0.731566344 L21.8579455,0.700395486 L22.2561219,0.640052369 L22.6645381,0.582379803 L23.0835566,0.527384665 L23.5135394,0.475073849 L23.9548488,0.425454248 L24.407847,0.378532747 L24.8728964,0.334316236 L25.350359,0.292811605 L25.8405971,0.254025744 L26.3439731,0.217965541 L26.860849,0.184637887 L27.3915872,0.154049669 L27.9365499,0.126207777 L28.4960992,0.101119102 L29.0705975,0.0787905321 L29.660407,0.0592289566 L30.2658898,0.0424412646 L30.8874084,0.0284343459 L31.5253248,0.0172150898 L32.8518001,0 L378.147464,0 Z M383.999835,24.384143 L26.9994288,24.384143 C24.9156278,24.384143 23.2189292,25.9704178 23.1538147,27.9501263 L23.1538147,28.0647683 L23.1538147,521.268566 C23.1538147,523.262967 24.8111964,524.886869 26.8796478,524.949191 L26.9994288,524.949191 L383.999835,524.949191 C386.083636,524.949191 387.780335,523.362913 387.845449,521.383208 L387.845449,521.268566 L387.845449,28.0647683 C387.845449,26.0320151 386.123709,24.384143 383.999835,24.384143 Z" fill="#FFFFFF" fill-rule="nonzero"></path>
                            </g>
                        </g>
                        <path d="M377.106869,1.04086616e-13 L378.147464,1.04086616e-13 L379.148719,0.0126529881 L379.79497,0.0224758295 L380.424642,0.0350897781 L381.038097,0.0504879444 L381.635698,0.0686634393 L382.217807,0.0896093733 L382.784786,0.113318857 L383.336996,0.139785002 L383.874801,0.169000917 L384.398563,0.200959715 L384.908644,0.235654505 L385.405406,0.273078398 L385.889211,0.313224505 L386.360421,0.356085937 L387.044415,0.425454248 L387.485725,0.475073849 L387.915707,0.527384665 L388.334726,0.582379803 L388.743142,0.640052369 L389.141318,0.700395486 L389.529617,0.763402253 C389.593531,0.774124969 389.657048,0.784958386 389.720176,0.795902355 L390.094337,0.862891688 L390.459527,0.932527452 L390.816106,1.00480276 L391.164438,1.07971072 L391.504884,1.15724444 C391.560988,1.17038516 391.616779,1.183635 391.672263,1.19699381 L392.001561,1.27845326 L392.323879,1.36252125 C392.377037,1.37674958 392.429919,1.39108631 392.482533,1.40553129 L392.795061,1.49349918 C392.846632,1.50837662 392.897951,1.52336204 392.949024,1.53845529 L393.252576,1.63030757 L393.550596,1.72474082 L393.843448,1.82174817 L394.131495,1.92132273 L394.415096,2.0234576 L394.694616,2.12814589 L394.970416,2.23538072 L395.242858,2.3451552 L395.512306,2.45746243 L395.77912,2.57229554 L396.175197,2.74926612 L396.437014,2.87038375 L396.827292,3.05674884 L397.086375,3.18410794 L397.47425,3.37980294 C401.782762,5.58516237 405.164108,8.82143766 407.468325,12.9451013 L407.672792,13.3163358 L407.805861,13.5643031 L408.00058,13.9378373 L408.127126,14.1884212 L408.251053,14.4406583 L408.37235,14.6948954 L408.491012,14.9514793 L408.607031,15.2107565 L408.7204,15.4730738 L408.831113,15.7387778 L408.939161,16.0082154 L409.044537,16.281733 C409.061877,16.3276786 409.079105,16.3738086 409.096222,16.4201303 L409.197577,16.7004182 L409.296244,16.9856531 L409.392214,17.2761815 L409.485479,17.5723502 C409.500798,17.6222009 409.516004,17.6723011 409.531096,17.722658 L409.620293,18.0279371 C409.634932,18.0793496 409.649458,18.1310332 409.663871,18.1829952 L409.748981,18.4981649 L409.83136,18.8203616 C409.844861,18.8746659 409.858249,18.9292774 409.871522,18.9842034 L409.949788,19.3175907 L410.025303,19.6588718 L410.09806,20.0083934 L410.168052,20.3665021 L410.235272,20.7335447 C410.246244,20.7954822 410.2571,20.8578064 410.26784,20.9205245 L410.330888,21.3016179 L410.391146,21.6925118 L410.448607,22.0935531 L410.503262,22.5050883 L410.555106,22.9274642 L410.604131,23.3610274 L410.650329,23.8061247 L410.693695,24.2631027 L410.734219,24.7323081 L410.771896,25.2140877 L410.806718,25.7087881 L410.838677,26.2167559 L410.867767,26.738338 L410.89398,27.273881 L410.91731,27.8237315 L410.937748,28.3882364 L410.955288,28.9677422 L410.969923,29.5625956 L410.981645,30.1731434 L410.990447,30.7997323 L410.999632,31.4427089 L410.999632,32.4386592 L410.999632,517.230911 L410.999632,517.890624 L410.986412,518.848922 L410.976149,519.467449 L410.962969,520.070104 L410.946881,520.657241 L410.927891,521.229202 L410.906006,521.786336 L410.881233,522.32899 L410.853581,522.857508 L410.823055,523.372243 L410.789664,523.873532 L410.753414,524.36173 L410.714313,524.837178 L410.672367,525.300224 L410.627584,525.751222 L410.555106,526.405868 L410.503262,526.828245 L410.448607,527.239778 L410.391146,527.640819 L410.330888,528.031716 L410.26784,528.412811 L410.202009,528.784449 C410.190806,528.845622 410.179487,528.90641 410.168052,528.966832 L410.09806,529.324938 L410.025303,529.67446 L409.949788,530.015743 L409.871522,530.349129 L409.790513,530.67497 C409.776783,530.728668 409.762939,530.782063 409.748981,530.83517 L409.663871,531.150336 L409.576034,531.458828 C409.561168,531.509705 409.546188,531.560317 409.531096,531.610677 L409.439185,531.909794 C409.423641,531.959151 409.407983,532.008271 409.392214,532.057152 L409.296244,532.347681 L409.197577,532.632913 L409.096222,532.913202 L408.992184,533.188889 L408.88547,533.460324 L408.77609,533.727854 L408.664048,533.991822 L408.549352,534.252572 L408.432011,534.510461 L408.31203,534.765828 L408.127126,535.144914 L408.00058,535.395497 L407.805861,535.76903 L407.672792,536.016999 L407.468325,536.388234 C405.2142,540.422249 401.929268,543.607046 397.753924,545.808243 L397.34629,546.018725 L397.090257,546.147296 L396.705261,546.335585 L396.447455,546.458054 L396.188326,546.57807 L395.79638,546.753485 L395.532404,546.867344 L395.265873,546.97873 L394.860519,547.14115 C394.815073,547.158889 394.769483,547.176518 394.723743,547.194046 L394.447442,547.297966 L394.16718,547.399382 L393.882608,547.498294 L393.593372,547.594684 L393.299122,547.688556 L392.999506,547.779901 L392.694173,547.86871 C392.642788,547.883299 392.591151,547.897783 392.539253,547.912158 L392.224685,547.997153 C392.171717,548.011106 392.118475,548.02495 392.06495,548.038692 L391.740356,548.119851 L391.408639,548.198452 L391.069448,548.274484 L390.72243,548.347939 L390.367236,548.418812 C390.307335,548.430412 390.24708,548.441898 390.186461,548.453278 L389.818341,548.52027 L389.441164,548.584656 L389.05458,548.646442 C388.989346,548.656523 388.923705,548.666493 388.85765,548.676354 L388.456295,548.734217 L388.044654,548.789461 L387.622374,548.842074 L386.96824,548.916046 L386.517828,548.962057 L386.055548,549.005418 L385.581049,549.046114 L385.093979,549.084151 L384.593986,549.11951 L384.080719,549.152195 L383.553826,549.182193 L382.737172,549.222139 L382.174678,549.24539 L381.597329,549.265935 L381.004773,549.283765 L380.396658,549.298872 L379.454545,549.316414 L378.805996,549.324681 L378.140658,549.332981 L377.45818,549.332981 L33.5410835,549.332981 L32.8518001,549.332981 L31.8505454,549.32068 L31.2042942,549.310856 L30.574622,549.298245 L29.9611666,549.282845 L29.3635657,549.264671 L28.7814571,549.243723 L28.2144786,549.220015 L27.6622678,549.193546 L27.1244627,549.164331 L26.6007009,549.132373 L26.0906203,549.097678 L25.5938585,549.060255 L25.1100534,549.020108 L24.6388427,548.977246 L23.9548488,548.907879 L23.5135394,548.858261 L23.0835566,548.80595 L22.6645381,548.750953 L22.2561219,548.693282 L21.8579455,548.632938 L21.4696468,548.569929 C21.4057333,548.559208 21.3422164,548.548377 21.2790883,548.537432 L20.904927,548.470441 L20.5397376,548.400808 L20.1831582,548.328529 L19.8348263,548.253623 L19.4943799,548.176089 C19.4382758,548.162947 19.3824852,548.149699 19.3270005,548.136341 L18.997703,548.054879 L18.6753853,547.970813 C18.6222272,547.956585 18.5693448,547.942247 18.5167306,547.9278 L18.2042033,547.839833 C18.1526317,547.824956 18.1013132,547.809972 18.0502402,547.79488 L17.7466885,547.703026 L17.4486676,547.608591 L17.1558154,547.511584 L16.8677696,547.412013 L16.5841679,547.309878 L16.3046482,547.205189 L16.0288482,547.097954 L15.7564057,546.988179 L15.4869584,546.875872 L15.2201441,546.761039 L14.8240671,546.584066 L14.5622506,546.462948 L14.1719722,546.276586 L13.9128895,546.149223 L13.5250138,545.953533 C9.31016512,543.796113 5.98260953,540.652118 3.68273953,536.655906 L3.4628205,536.26576 L3.32848743,536.020712 L3.13176027,535.652237 L3.00380065,535.40549 L2.87840263,535.15748 L2.69512387,534.782349 L2.57616041,534.529697 L2.45978299,534.274601 L2.29008098,533.886638 C2.27155021,533.84314 2.25312791,533.79951 2.23481424,533.755732 L2.12623686,533.491283 L2.02027347,533.223044 L1.91693105,532.95068 L1.81621659,532.673857 L1.71813705,532.392228 L1.62269945,532.105466 L1.52991074,531.813235 C1.51466709,531.764056 1.49953409,531.714634 1.48451191,531.664961 L1.39570966,531.363889 C1.38113129,531.313195 1.36666401,531.262235 1.35230798,531.211005 L1.2675079,530.900339 L1.18538466,530.582856 L1.10594525,530.258214 L1.02919665,529.926087 L0.955145843,529.586132 C0.943029248,529.5288 0.931025349,529.471129 0.919134297,529.41311 L0.849143285,529.060786 L0.781867526,528.699792 L0.717314007,528.329793 C0.706782329,528.267357 0.696364369,528.204531 0.686060275,528.141312 L0.625603212,527.757173 L0.567885856,527.363195 L0.512915186,526.959032 L0.435624495,526.332962 L0.387551096,525.901872 L0.34224883,525.459426 L0.29972468,525.005287 L0.25998563,524.539114 L0.223038665,524.060571 L0.188890768,523.569325 L0.157548926,523.065037 L0.115812791,522.283418 L0.091516638,521.745058 L0.0700509848,521.192479 L0.0514228139,520.625347 L0.035639111,520.043319 L0.0173122112,519.141625 L0.00867023328,518.520902 L2.59584946e-14,517.88411 L2.59584946e-14,517.230911 L2.59584946e-14,32.1024199 L2.59584946e-14,31.4427089 L0.0128521974,30.4844111 L0.0231153601,29.8658861 L0.0362947449,29.2632288 L0.0523831533,28.6760925 L0.0713733878,28.1041305 L0.09325825,27.5469961 L0.118030542,27.0043427 L0.145683064,26.4758236 L0.17620862,25.9610919 L0.209600011,25.4598011 L0.245850039,24.9716045 L0.284951506,24.4961553 L0.326897213,24.0331069 L0.371679962,23.5821126 L0.444157795,22.9274642 L0.496001659,22.5050883 L0.550657371,22.0935531 L0.608117737,21.6925118 L0.668375552,21.3016179 L0.731423624,20.9205245 L0.797254749,20.548885 C0.808458125,20.4877137 0.819777161,20.4269217 0.831211706,20.3665021 L0.901203924,20.0083934 L0.973961199,19.6588718 L1.04947634,19.3175907 L1.12774214,18.9842034 L1.20875141,18.6583632 C1.22248118,18.6046661 1.23632495,18.5512691 1.2502826,18.4981649 L1.33539357,18.1829952 L1.42323001,17.8745059 C1.43809614,17.8236284 1.45307553,17.7730149 1.46816804,17.722658 L1.56007919,17.4235391 C1.57562354,17.3741801 1.5912807,17.3250633 1.60705052,17.2761815 L1.70302019,16.9856531 L1.80168653,16.7004182 L1.90304236,16.4201303 L2.00708047,16.1444425 L2.11379366,15.8730082 L2.22317474,15.6054808 L2.33521651,15.3415134 L2.44991177,15.0807595 L2.56725332,14.8228723 L2.68723396,14.5675052 L2.87213747,14.1884212 L2.99868436,13.9378373 L3.1934035,13.5643031 L3.32647163,13.3163358 L3.5309389,12.9451013 C5.83515633,8.82143766 9.21650179,5.58516237 13.5250138,3.37980294 L13.9128895,3.18410794 L14.1719722,3.05674884 L14.5622506,2.87038375 L14.8240671,2.74926612 L15.0876111,2.63065713 L15.3532447,2.51456368 L15.6213302,2.40099265 L15.8922299,2.28995093 L16.1663059,2.18144542 L16.4439205,2.075483 L16.7254359,1.97207055 L17.0112143,1.87121498 C17.0592195,1.85461917 17.1074173,1.83813019 17.1558154,1.82174817 L17.4486676,1.72474082 L17.7466885,1.63030757 L18.0502402,1.53845529 L18.3596851,1.44919089 C18.4117704,1.43452953 18.4641164,1.41997628 18.5167306,1.40553129 L18.8356942,1.32016162 C18.8894114,1.30615024 18.9434118,1.2922474 18.997703,1.27845326 L19.3270005,1.19699381 L19.6636401,1.11814979 C19.7203786,1.10522746 19.7774382,1.09241438 19.8348263,1.07971072 L20.1831582,1.00480276 L20.5397376,0.932527452 L20.904927,0.862891688 L21.2790883,0.795902355 L21.6625841,0.731566344 C21.727298,0.721065169 21.792416,0.710674831 21.8579455,0.700395486 L22.2561219,0.640052369 L22.6645381,0.582379803 L23.0835566,0.527384665 L23.5135394,0.475073849 L23.9548488,0.425454248 L24.407847,0.378532747 L24.8728964,0.334316236 L25.350359,0.292811605 L25.8405971,0.254025744 L26.3439731,0.217965541 L26.860849,0.184637887 L27.3915872,0.154049669 L27.9365499,0.126207777 L28.4960992,0.101119102 L29.0705975,0.0787905321 L29.660407,0.0592289566 L30.2658898,0.0424412646 L30.8874084,0.0284343459 L31.5253248,0.0172150898 L32.1800013,0.00879038544 L32.8518001,1.04086616e-13 L33.8923952,1.04086616e-13 L377.106869,1.04086616e-13 Z M377.451743,1.38053685 L33.5475209,1.38053685 L32.8706738,1.38053685 L32.2107005,1.38788865 L31.5672072,1.39533038 L30.9397999,1.4053439 L30.0279886,1.42528672 L29.1501551,1.45127435 L28.5831529,1.4720342 L28.0302673,1.49559544 L27.4911043,1.52200399 L26.9652701,1.55130576 L26.4523707,1.58354668 L25.9520123,1.61877268 L25.4638011,1.65702966 L24.9873429,1.69836356 C24.9088908,1.7055115 24.8309119,1.71278956 24.7533982,1.7201987 L24.2938312,1.76623406 L23.8450328,1.81546114 L23.4066088,1.86792586 C23.3343808,1.87694233 23.2625687,1.88609561 23.1911642,1.89538667 L22.7675636,1.95279394 L22.3533527,2.01355365 L21.9481378,2.07771171 L21.5515248,2.14531405 L21.1631201,2.21640659 L20.7825295,2.29103525 L20.4093593,2.36924595 C20.3477607,2.38258212 20.2864549,2.39606946 20.2254337,2.40970892 L19.8626554,2.49337879 L19.5063128,2.5807455 L19.1560118,2.67185497 L18.8113587,2.76675313 C18.7543652,2.78288777 18.6975907,2.79918218 18.6410269,2.81563732 L18.3041069,2.91630461 C18.2483531,2.9334065 18.1927936,2.95067105 18.1374202,2.96809919 L17.8073471,3.07463893 C17.7526852,3.09272531 17.698193,3.1109772 17.6438622,3.12939557 L17.3197498,3.24191108 L16.9991187,3.35846785 C16.9459484,3.3782333 16.8929068,3.39816905 16.8399856,3.41827605 L16.5238381,3.54098079 L16.2101872,3.66784159 L15.8986391,3.79890436 C15.8468677,3.82110087 15.7951676,3.84347438 15.7435305,3.86602583 L15.4343979,4.00347766 L15.1263834,4.14524627 L14.819093,4.29137757 L14.5121328,4.44191749 C14.4098241,4.49283733 14.3075047,4.5444996 14.205109,4.59691193 C10.1479105,6.67363377 6.97241987,9.71288604 4.80260638,13.5960183 L4.72105046,13.7429752 L4.56144127,14.0367492 L4.40646233,14.3306508 L4.25606563,14.6250568 C4.2313787,14.6741875 4.20688071,14.7233549 4.18257064,14.7725669 L4.03895735,15.0684367 L3.89980637,15.3657536 L3.76506971,15.6648944 C3.7429788,15.7149242 3.72106981,15.7650457 3.69934176,15.8152667 L3.57113662,16.1178506 C3.5501283,16.1685013 3.5292989,16.2192673 3.50864744,16.2701564 L3.38686587,16.5770314 L3.26930671,16.8872384 C3.25006271,16.9392382 3.23099266,16.9913925 3.21209553,17.0437092 L3.10078002,17.3596212 C3.08257063,17.4126189 3.06453219,17.4657947 3.04666367,17.5191565 L2.94148384,17.8416216 L2.8403345,18.1689267 L2.74316767,18.5014488 L2.64993536,18.8395649 C2.63472186,18.8964047 2.61967029,18.9534933 2.60477967,19.0108385 L2.51735919,19.3580525 L2.4337533,19.7118029 L2.35391401,20.0724668 L2.27779334,20.4404212 C2.26541377,20.5023754 2.25318716,20.5646491 2.24111249,20.6272501 L2.17047978,21.0068471 L2.10344576,21.3946771 L2.03996242,21.791117 L1.9799818,22.1965439 L1.92345592,22.6113347 C1.91432017,22.6812678 1.90532636,22.7516067 1.89647351,22.8223594 L1.84503976,23.251903 L1.7969408,23.6917531 L1.75212865,24.1422866 L1.71055533,24.6038805 L1.67217285,25.0769118 C1.66603901,25.1567245 1.66003612,25.2370294 1.65416319,25.3178344 L1.62047703,25.8087287 L1.57569073,26.5684004 L1.54959185,27.0909515 L1.52644393,27.6268248 L1.50619898,28.1763977 L1.48880902,28.7400469 L1.47422607,29.3181495 L1.46240217,29.9110825 L1.44973454,30.8291136 L1.44173729,31.4607719 L1.44173729,32.4386582 L1.44173729,517.228004 L1.44712945,518.193801 L1.45370979,518.817587 L1.4685463,519.724102 L1.48181966,520.309554 L1.49785625,520.880334 L1.51670523,521.436827 L1.55035945,522.245592 L1.59061805,523.024332 L1.62120814,523.527443 L1.6548564,524.018158 L1.69161198,524.496852 L1.73152404,524.963909 L1.77464173,525.419704 C1.78209789,525.494757 1.78968965,525.569352 1.79741806,525.643503 L1.84543637,526.083116 L1.89678321,526.51242 L1.95150773,526.931795 L2.00965909,527.341606 L2.07128644,527.742249 C2.08185006,527.808279 2.09256057,527.873943 2.10341898,527.939245 L2.17035248,528.326831 L2.24088487,528.706192 L2.31506531,529.077697 C2.32773544,529.138984 2.34055963,529.199955 2.35353889,529.260629 L2.43328355,529.621074 C2.4468872,529.680563 2.46064798,529.739762 2.4745669,529.798683 L2.55998638,530.14892 L2.64925052,530.492821 C2.664451,530.549631 2.67981372,530.606189 2.6953397,530.662514 L2.790463,530.997621 L2.88955386,531.327349 L2.99266142,531.652065 C3.01018348,531.70579 3.02787494,531.759318 3.04573684,531.812663 L3.15496162,532.13058 C3.19205709,532.235855 3.22984249,532.340453 3.26832601,532.444442 L3.38587916,532.754618 C3.40582315,532.806027 3.42594371,532.857298 3.44624188,532.908441 L3.57017032,533.21381 L3.6984104,533.516443 L3.83101129,533.816722 C3.85347756,533.866592 3.87612759,533.91638 3.89896239,533.966095 L4.03819664,534.263554 C4.06177463,534.312999 4.08553943,534.362389 4.10949208,534.411728 L4.2554703,534.707219 L4.40600594,535.001868 L4.56114817,535.296063 L4.72094611,535.590172 C4.74796982,535.639204 4.77518957,535.68825 4.80260638,535.737315 C6.97241987,539.620447 10.1479105,542.659698 14.205109,544.73642 L14.3586535,544.814476 L14.6655963,544.967241 L14.9726723,545.11557 L15.2802755,545.259514 C15.3316085,545.28314 15.3829799,545.306587 15.4343979,545.329856 L15.7435305,545.467308 L16.0541749,545.60049 L16.3667252,545.729446 C16.4189976,545.750586 16.4713658,545.771557 16.5238381,545.792354 L16.8399856,545.915056 C16.8929068,545.935166 16.9459484,545.955098 16.9991187,545.974865 L17.3197498,546.091424 L17.6438622,546.203937 C17.698193,546.222358 17.7526852,546.24061 17.8073471,546.258696 L18.1374201,546.365235 C18.1927936,546.382663 18.2483531,546.399925 18.3041069,546.417028 L18.6410269,546.517698 L18.9830038,546.614504 L19.3304316,546.707502 L19.6837042,546.796736 C19.7430919,546.811298 19.8027396,546.825704 19.8626553,546.839955 L20.2254336,546.923623 L20.5950414,547.003643 L20.9718725,547.08006 L21.3563209,547.15291 C21.4210523,547.164762 21.4861175,547.176463 21.5515247,547.188017 L21.9481376,547.255622 L22.3533525,547.319779 L22.7675633,547.380537 L23.191164,547.437946 L23.6245483,547.492046 C23.6976162,547.500789 23.7711082,547.5094 23.8450324,547.517874 L24.2938309,547.567098 L24.7533977,547.613133 L25.224127,547.656026 L25.7064124,547.695812 L26.200648,547.732549 C26.2840383,547.738422 26.367943,547.744167 26.4523701,547.749788 L26.9652695,547.78203 L27.7589943,547.824891 L28.3049694,547.849872 L28.864864,547.872024 L29.4390721,547.891402 L30.0279875,547.908047 L30.6320043,547.922004 L31.2515162,547.933321 L32.2106992,547.945443 L32.8706724,547.953097 L33.8923936,547.953097 L377.455141,547.953097 L378.464228,547.953097 L379.115978,547.941639 L380.063129,547.927438 L380.674825,547.914735 L381.271193,547.899386 L381.852628,547.881349 L382.697647,547.849135 L383.511296,547.810604 L384.03696,547.781329 L384.549671,547.749125 L385.049825,547.713944 L385.537818,547.675743 L386.014047,547.634479 C386.09246,547.627342 386.170399,547.620073 386.247873,547.612679 L386.707196,547.566719 L387.155745,547.517576 L387.593914,547.465197 L388.0221,547.409541 L388.440699,547.35056 C388.509689,547.340448 388.578295,547.330198 388.646527,547.319807 L389.051488,547.255746 L389.447851,547.188237 L389.836013,547.11724 C389.900045,547.105114 389.963752,547.092841 390.027142,547.080417 L390.403745,547.004091 C390.4659,546.991072 390.527755,546.977902 390.589317,546.964581 L390.955251,546.882826 L391.314567,546.797391 C391.373924,546.782843 391.433021,546.768139 391.491868,546.753279 L391.842,546.662237 L392.186505,546.567399 L392.525779,546.468716 C392.58191,546.451943 392.63784,546.435009 392.693577,546.417916 L393.025746,546.313378 C393.135739,546.277873 393.245026,546.241708 393.353672,546.204875 L393.677753,546.092367 C393.731468,546.073278 393.785039,546.054019 393.838475,546.034596 L394.15753,545.915981 L394.473728,545.793246 L394.787467,545.666332 C394.839574,545.64483 394.891595,545.62315 394.943538,545.601295 L395.254329,545.468036 C395.305994,545.445468 395.357598,545.422725 395.409149,545.3998 L395.717884,545.260082 L396.025742,545.116005 L396.333121,544.96752 L396.640416,544.814577 C396.691646,544.788712 396.74289,544.76266 396.794155,544.73642 C400.851354,542.659698 404.026844,539.620447 406.196658,535.737315 L406.278214,535.590359 L406.437823,535.296585 L406.592802,535.002682 L406.743199,534.708276 C406.767886,534.659148 406.792383,534.609978 406.816694,534.560767 L406.960307,534.264896 L407.099457,533.967578 L407.234194,533.668439 C407.256285,533.618408 407.278194,533.568286 407.299922,533.518068 L407.428127,533.215481 C407.449136,533.164833 407.469965,533.114065 407.490617,533.063179 L407.612398,532.756303 L407.729958,532.446094 C407.749201,532.394095 407.768271,532.341941 407.787169,532.289626 L407.898484,531.973713 C407.916694,531.920716 407.934732,531.867536 407.9526,531.814178 L408.05778,531.49171 L408.15893,531.164408 L408.256096,530.831883 L408.349329,530.493768 C408.364542,530.43693 408.379594,530.379841 408.394484,530.322495 L408.481905,529.97528 L408.565511,529.621532 L408.64535,529.260867 L408.721471,528.89291 C408.73385,528.830959 408.746077,528.768683 408.758152,528.706082 L408.828784,528.326488 L408.895818,527.938654 L408.959301,527.542218 L409.019282,527.136788 L409.075808,526.722 C409.084944,526.652065 409.093938,526.581727 409.102791,526.510973 L409.154224,526.081431 L409.202323,525.64158 L409.247135,525.191044 L409.288709,524.729453 L409.327091,524.256422 C409.333225,524.176609 409.339228,524.096305 409.345101,524.015498 L409.378787,523.524605 L409.423573,522.764932 L409.449672,522.242383 L409.47282,521.706509 L409.493065,521.156937 L409.510455,520.593285 L409.525038,520.015184 L409.536862,519.422252 L409.549529,518.50422 L409.557527,517.87256 L409.557527,516.894674 L409.557527,32.1085811 L409.557527,31.4607728 L409.549529,30.8291145 L409.541754,30.213229 L409.531292,29.6127394 L409.510455,28.7400476 L409.483303,27.8998759 L409.461612,27.3571998 L409.436994,26.8280347 L409.409402,26.3120035 L409.378787,25.8087291 L409.345101,25.3178348 L409.308296,24.8389433 L409.268324,24.3716778 L409.225137,23.9156611 C409.217669,23.8405748 409.210064,23.7659415 409.202323,23.6917533 L409.154224,23.2519033 L409.102791,22.8223596 L409.047974,22.4027454 C409.038553,22.3336163 409.02899,22.2648851 409.019282,22.196544 L408.959301,21.7911172 L408.895818,21.3946772 L408.828784,21.0068473 L408.758152,20.6272503 L408.683872,20.2555092 L408.605898,19.8912472 L408.524182,19.5340871 C408.510248,19.4751313 408.496156,19.4164557 408.481905,19.3580525 L408.394484,19.0108385 L408.303201,18.6697841 L408.208008,18.3345121 L408.108856,18.0046456 C408.091998,17.9500974 408.074973,17.8957587 408.05778,17.8416216 L407.9526,17.5191566 C407.934732,17.4657947 407.916694,17.4126189 407.898484,17.3596212 L407.787169,17.0437092 C407.768271,16.9913925 407.749201,16.9392382 407.729958,16.8872384 L407.612398,16.5770314 L407.490617,16.2701564 C407.469965,16.2192673 407.449136,16.1685013 407.428127,16.1178506 L407.299922,15.8152667 L407.167375,15.5150724 L407.030437,15.2168907 C407.007246,15.1673405 406.983869,15.1178585 406.960307,15.0684367 L406.816694,14.7725669 L406.66857,14.4777672 L406.515888,14.1836605 L406.3586,13.8898698 C406.305398,13.7919504 406.251419,13.6940208 406.196658,13.5960183 C404.026844,9.71288604 400.851354,6.67363377 396.794155,4.59691193 L396.64061,4.51885503 L396.333668,4.36609358 L396.026592,4.21776371 L395.718988,4.0738195 C395.667656,4.05019171 395.616284,4.02674476 395.564866,4.00347766 L395.255733,3.86602583 L394.945089,3.73284486 L394.632539,3.60388882 C394.580266,3.58274567 394.527898,3.56177665 394.475426,3.54098079 L394.159278,3.41827605 C394.106357,3.39816905 394.053316,3.3782333 394.000145,3.35846785 L393.679514,3.24191108 L393.355402,3.12939557 C393.301071,3.1109772 393.246579,3.09272531 393.191917,3.07463893 L392.861844,2.96809919 C392.80647,2.95067105 392.750911,2.9334065 392.695157,2.91630461 L392.358237,2.81563732 L392.01626,2.7188276 L391.668832,2.62582952 L391.31556,2.53659717 C391.256172,2.52203637 391.196524,2.50763056 391.136608,2.49337879 L390.773831,2.40970892 L390.404222,2.32968998 L390.027392,2.25327603 L389.642943,2.18042117 C389.578211,2.16857273 389.513147,2.15687068 389.447739,2.14531405 L389.051126,2.07771171 L388.645911,2.01355365 L388.231701,1.95279394 L387.8081,1.89538667 L387.374715,1.84128592 C387.301647,1.83254212 387.228155,1.82393418 387.154231,1.81546114 L386.705433,1.76623406 L386.245866,1.7201987 L385.775137,1.67730913 L385.292851,1.63751942 L384.798615,1.60078368 C384.715225,1.594913 384.63132,1.58916765 384.546893,1.58354668 L384.033994,1.55130576 L383.240269,1.50844093 L382.694294,1.48346178 L382.134399,1.46130697 L381.560191,1.44193059 L380.971276,1.42528672 L380.367258,1.41132942 L379.747747,1.4000128 L378.788564,1.38788865 L378.12859,1.38053685 L377.451743,1.38053685 Z" id="outer-bezel" fill="#DFDFDF" fill-rule="nonzero"></path>
                        <path d="M383.999835,23.9240648 L26.9994288,23.9240648 C24.660615,23.9240648 22.746778,25.7032106 22.6731129,27.9356503 L22.6731129,521.268566 C22.6731129,523.507036 24.5320113,525.338765 26.8645229,525.409267 L383.999835,525.409267 C386.338649,525.409267 388.252486,523.630123 388.326151,521.397682 L388.326151,28.0647683 C388.326151,25.7779209 386.389194,23.9240648 383.999835,23.9240648 Z M26.9994288,24.8442211 L383.999835,24.8442211 C385.858225,24.8442211 387.364748,26.2861092 387.364748,28.0647683 L387.364748,521.383208 C387.307879,523.104978 385.818957,524.489111 383.999835,524.489111 L26.8796478,524.489111 C25.0806968,524.434686 23.6345165,523.009642 23.6345165,521.268566 L23.6345165,27.9501263 C23.6913852,26.2283559 25.1803066,24.8442211 26.9994288,24.8442211 Z" id="inner-bezel" fill="#DFDFDF" fill-rule="nonzero"></path>
                    </g>
                </g>
            </g>
        </g>
    </g>
</svg>